<?xml version="1.0" standalone="no"?>
<!DOCTYPE svg PUBLIC "-//W3C//DTD SVG 1.1//EN" "http://www.w3.org/Graphics/SVG/1.1/DTD/svg11.dtd" >
<svg xmlns="http://www.w3.org/2000/svg" xmlns:xlink="http://www.w3.org/1999/xlink" version="1.1">
<metadata>
Created by FontForge 20170924 at Tue Oct 10 20:59:32 2006
 By www-data
Copyright (c) 2006 by HPLHS. All rights reserved.
</metadata>
<defs>
<font id="BlackletterHPLHS" horiz-adv-x="1123" >
  <font-face 
    font-family="Blackletter HPLHS"
    font-weight="400"
    font-stretch="normal"
    units-per-em="1000"
    panose-1="2 0 5 5 8 0 0 2 0 4"
    ascent="800"
    descent="-200"
    x-height="511"
    cap-height="808"
    bbox="-88 -383 1635 1049"
    underline-thickness="20"
    underline-position="-133"
    stemh="35"
    stemv="119"
    unicode-range="U+000D-FB05"
  />
<missing-glyph horiz-adv-x="1000" 
 />
    <glyph glyph-name=".notdef" horiz-adv-x="1000" 
 />
    <glyph glyph-name=".null" horiz-adv-x="0" 
 />
    <glyph glyph-name=".null" horiz-adv-x="0" 
 />
    <glyph glyph-name="CR" unicode="&#xd;" horiz-adv-x="223" 
 />
    <glyph glyph-name="space" unicode=" " horiz-adv-x="250" 
 />
    <glyph glyph-name="ampersand" unicode="&#x26;" horiz-adv-x="362" 
d="M292 614l-3 -11l-21 -14l-1 -15c-9 -11 -19 -19 -25 -32l-11 -6l8 -10l-2 -13h11c9 0 18 0 26 -4c5 3 11 5 16 5c43 0 51 -25 51 -49c-38 -36 -4 -42 -73 -42c-19 0 -28 -24 -28 -47c0 -32 15 -35 15 -69c0 -7 0 -12 -3 -15c11 -17 32 -22 50 -22l11 9l13 -12l-2 -19
l-18 -10c-9 -19 -9 -24 -30 -33l-22 -38c9 -23 26 -42 40 -62l-7 -20h-4c-8 -10 -18 -13 -30 -13c-32 0 -74 26 -93 38l-6 11l-9 -4c-13 15 -29 29 -47 38c-11 21 -29 38 -47 53c-7 48 -44 97 -44 146c0 9 1 17 4 26c-6 19 -8 38 -8 57c0 42 11 85 20 126c20 20 27 46 37 71
l-4 14l18 17l19 5c5 11 15 27 21 33l6 -7c43 0 32 -17 65 -28l2 -12l21 -8l14 7c3 0 6 -1 9 -1c39 0 56 31 92 44c26 -11 36 -23 36 -35c0 -22 -36 -42 -67 -49zM131 543l5 14c-6 10 -18 28 -31 28c-4 0 -8 -2 -12 -7h-6c-20 0 -16 -7 -18 -19l-12 -10c-2 -2 -2 -4 -2 -8
c0 -12 8 -34 14 -37c2 -1 18 -3 22 -4l19 11c5 16 1 24 21 32zM119 446c-11 0 -14 17 -37 17l2 -1c-8 -3 -17 -4 -26 -5h-1c0 -7 2 -14 2 -21c0 -11 -11 -13 -11 -40c0 -26 7 -62 8 -73c7 -7 12 -16 17 -24l-4 -9c9 -25 27 -47 41 -70c7 0 15 2 22 4c0 33 -8 66 -8 98
c0 9 0 18 2 27l12 3c1 3 1 5 1 8c0 9 -3 19 -3 28c0 8 1 16 1 24c0 13 -3 25 -18 34z" />
    <glyph glyph-name="quotesingle" unicode="'" horiz-adv-x="193" 
d="M163 509l-6 -3c-15 -23 -33 -37 -45 -64c-7 -4 -13 -9 -18 -14l-2 -10c-3 -1 -7 -2 -10 -2l-2 -3c-10 -13 -26 -34 -43 -36l-20 -16l-6 9c6 41 37 70 55 106c-16 21 -31 30 -51 46c-3 12 -6 21 -12 32c11 16 22 34 33 49h8l1 8c17 6 49 48 70 48c8 0 15 -7 19 -25
c15 -12 21 -28 31 -44c6 -3 10 -12 12 -18l13 -7c2 -5 2 -10 2 -13c0 -19 -18 -24 -29 -43z" />
    <glyph glyph-name="parenleft" unicode="(" horiz-adv-x="282" 
d="M280 785c0 -22 -18 -26 -48 -26c-20 0 -45 2 -71 2l-27 -52l-6 -35c9 -12 13 -29 13 -45c0 -17 -5 -33 -13 -46c1 -8 2 -24 2 -45c0 -75 -8 -208 -12 -212c5 -23 15 -52 16 -75c0 -12 -7 -51 -7 -65c0 -3 0 -4 1 -5l9 -24c-9 -14 -13 -67 -13 -98c0 -9 0 -16 1 -20
c62 0 80 37 107 37c11 0 24 -6 42 -26v-29l-20 -24c-5 0 -9 1 -13 1c-34 0 -66 -13 -100 -18c-15 14 -34 18 -53 18c-17 0 -35 -3 -51 -8c-20 6 -25 33 -25 63c0 35 7 74 9 91l-12 21c4 26 6 62 6 104c0 105 -10 247 -10 354c0 60 3 109 13 136l-7 26l19 35l36 7l9 -11h20
v11c4 0 8 1 14 1c16 0 36 -3 45 -12c10 8 29 12 44 12c5 0 10 0 14 -1l13 -11l20 4c13 -10 25 -22 35 -35z" />
    <glyph glyph-name="parenright" unicode=")" horiz-adv-x="283" 
d="M251 -14c-10 2 -23 4 -37 4c-20 0 -40 -3 -53 -10c-20 5 -40 7 -59 7c-26 0 -51 -3 -77 -5l-20 11c-3 8 -4 15 -4 20c0 13 7 17 18 17c17 0 46 -10 73 -10c9 0 18 1 26 4l26 69l17 29c-8 33 -9 72 -24 103l16 24c-2 48 1 93 -5 140c8 14 12 32 12 51c0 21 -5 42 -15 58
c1 9 2 19 2 29c0 17 -1 33 -1 49c0 20 1 38 8 55c-8 9 -10 33 -10 52c0 10 0 19 1 25c-12 7 -23 16 -34 25l-53 33c-3 -1 -6 -1 -9 -1c-16 0 -32 6 -46 12c0 25 1 7 5 31c15 13 123 17 155 20l13 -12c23 0 52 7 75 7c6 0 12 -1 17 -2c5 -27 6 -55 6 -83c0 -21 -1 -42 -1 -64
c0 -25 1 -51 5 -76c-8 -8 -11 -26 -11 -41c0 -5 0 -10 1 -14l7 -13c0 -30 -2 -49 -10 -77c8 -17 10 -128 10 -235c0 -85 -1 -167 -3 -197c-1 -11 -14 -27 -21 -35z" />
    <glyph glyph-name="asterisk" unicode="*" horiz-adv-x="425" 
d="M248 339c-25 0 -23 32 -32 51c0 3 1 5 1 8c0 31 -35 47 -38 79l-45 -27c-37 -14 -72 -51 -109 -51c-8 0 -23 1 -23 13c0 19 25 26 34 46c23 37 40 80 56 121l2 5l-18 23c-21 36 -65 67 -65 107c0 9 0 19 13 19c17 0 27 -20 46 -28c21 -9 73 -32 96 -38l7 12
c32 0 72 85 99 85c41 0 15 -120 47 -132c0 -17 1 -17 17 -20c33 0 58 -17 88 -28c-3 -26 -37 -19 -56 -26c-5 2 -10 3 -15 3c-21 0 -38 -18 -58 -24l-31 -108c1 -6 2 -12 2 -17c0 -25 -12 -49 -18 -73z" />
    <glyph glyph-name="plus" unicode="+" horiz-adv-x="518" 
d="M517 397c-6 -38 -45 -59 -62 -89c-24 -12 -27 -44 -51 -50c-34 11 -71 17 -108 19l-3 -17s9 -83 9 -86s-6 -95 -6 -95l-46 26h-29l6 37l13 135c-61 -1 -124 -7 -183 -7c-21 -15 -36 -27 -42 -51c-1 0 -2 -1 -3 -1c-6 0 -11 16 -11 19c0 30 35 37 47 62c39 24 42 81 86 98
c26 3 52 4 79 4c13 0 27 0 40 -1l2 27s4 33 4 46c0 5 -10 13 -10 36c0 5 1 10 6 11c12 2 77 28 84 28c1 1 2 1 2 1c-12 -1 -14 -18 -14 -32c0 -10 1 -18 1 -18s-11 -65 -17 -106c28 -4 55 -11 81 -19c38 5 64 45 104 45c4 0 8 0 12 -1z" />
    <glyph glyph-name="comma" unicode="," horiz-adv-x="234" 
d="M189 0c0 -17 -8 -22 -8 -25c0 -4 1 -12 1 -16c0 -6 -15 -19 -16 -21c-2 -10 -2 -8 -5 -15l-17 -41c-6 -9 -13 -8 -15 -10c-19 -14 -34 -21 -47 -21c-7 0 -17 1 -28 4c-52 15 -31 11 -44 44c8 5 19 14 33 26h10c7 0 18 9 35 28c9 28 22 30 22 36l-10 8c2 6 3 9 4 9v-2
c-1 0 -4 5 -8 14c-13 23 -22 34 -28 34c-1 0 -8 -2 -9 -2c-7 0 -36 9 -36 12c0 15 3 24 8 25c24 8 12 7 29 21h8c8 0 -4 5 27 13c8 6 12 9 13 9s4 -1 7 -3c37 -3 40 -9 51 -32c9 -19 15 -34 15 -50c0 -12 -2 -22 -5 -29c0 -4 4 -9 13 -16z" />
    <glyph glyph-name="hyphen" unicode="-" horiz-adv-x="266" 
d="M265 354c-4 -15 -17 -17 -24 -27c0 -42 -25 -74 -30 -114c-3 -1 -6 -2 -9 -2c-8 0 -18 3 -27 3c-3 0 -5 0 -8 -1c-50 -11 -101 -22 -141 -51c-5 -10 -12 -13 -22 -13c-2 4 -3 8 -3 12c0 11 6 21 10 30c20 5 20 27 30 42c64 49 136 91 210 123z" />
    <glyph glyph-name="period" unicode="." horiz-adv-x="315" 
d="M253 117c-23 -15 -47 -38 -50 -65c-36 -18 -58 -71 -100 -71c-4 0 -8 0 -12 1c-27 43 -47 89 -89 128v7c37 34 100 60 100 119c0 18 19 24 23 24c21 0 36 -55 54 -69c17 -31 78 -20 78 -55c0 -6 -1 -12 -4 -19z" />
    <glyph glyph-name="slash" unicode="/" horiz-adv-x="357" 
d="M357 817c-2 -6 -18 -25 -21 -30c-58 -46 -118 -342 -131 -386l-31 10l23 -37c1 -2 2 -5 2 -7c0 -12 -10 -26 -14 -35c-52 -118 -63 -246 -106 -369c-9 -7 -22 -11 -35 -11c-18 0 -36 7 -43 21c12 45 34 86 47 130c2 7 2 12 2 17v11c0 9 1 18 7 31c41 87 113 489 155 550
c0 27 5 85 23 105l25 -5c11 4 77 10 89 10z" />
    <glyph glyph-name="zero" unicode="0" horiz-adv-x="223" 
 />
    <glyph glyph-name="one" unicode="1" horiz-adv-x="396" 
d="M369 51c0 -15 -20 -23 -23 -37c-40 0 -104 -22 -134 -22c-41 0 -119 16 -165 26l-13 3c-4 5 -6 10 -6 15c0 16 16 34 16 52c0 33 89 10 89 44c0 11 -2 22 -7 35c2 13 2 60 2 101v100c0 38 1 74 10 109c-17 63 -3 69 -15 129c-8 37 -27 22 -64 49v1c0 8 17 23 17 23
c1 -1 3 -1 5 -1c37 0 152 65 208 65c11 0 20 -2 26 -9c-3 -27 -36 -20 -40 -43c-26 -134 -17 -248 -30 -385c2 -11 4 -111 4 -121c0 -21 -4 -41 -6 -64c16 -37 96 -47 126 -70z" />
    <glyph glyph-name="two" unicode="2" horiz-adv-x="520" 
d="M278 118c0 -15 -20 -22 -23 -36c-23 -37 -63 -43 -76 -86c-8 -3 -16 -4 -23 -4c-45 0 -64 58 -107 67c-4 5 -6 10 -6 15c0 16 16 34 16 52c0 33 17 61 17 95c0 11 -2 22 -7 35c3 23 3 46 3 69v35c0 40 1 80 10 117c-17 63 -3 69 -15 129c-8 37 -27 22 -64 49v1
c0 8 13 21 17 23c1 -1 3 -1 5 -1c37 0 152 65 208 65c11 0 20 -2 26 -9c-3 -27 -36 -20 -40 -43c-26 -134 -17 -248 -30 -385c2 -11 3 -22 3 -32c0 -21 -4 -41 -6 -64c16 -37 62 -68 92 -92zM514 133c0 -16 -20 -23 -23 -37c-23 -37 -63 -57 -77 -100c-8 -3 -16 -4 -23 -4
c-45 0 -64 58 -107 67c-4 5 -6 10 -6 15c0 16 16 34 16 52c0 33 17 61 17 95c0 11 -2 22 -7 35c4 25 4 51 4 78v32c0 37 1 75 9 111c-16 63 -3 52 -15 112c-8 37 -13 34 -50 61c3 10 7 20 17 23c2 -1 4 -1 6 -1c36 0 149 50 209 50c15 0 27 -3 33 -11
c-5 -27 -59 -14 -63 -37c-27 -134 -16 -231 -30 -368c2 -11 3 -22 3 -32c0 -21 -4 -41 -6 -64c17 -37 63 -54 93 -77z" />
    <glyph glyph-name="three" unicode="3" horiz-adv-x="591" 
d="M552 693v-8c0 -57 -20 -140 -59 -181c-1 -21 -154 -40 -154 -61c-10 -14 -14 -7 -14 -16c0 -65 222 -34 222 -89c0 -52 -24 -146 -28 -198c5 -6 10 -14 13 -22v3l-1 -47c-102 -48 -204 -101 -299 -161c-56 0 -92 60 -107 85l-3 5c-25 41 -65 57 -102 117c-3 4 -4 7 -4 10
c0 6 7 9 19 9c35 0 109 -24 128 -24c46 0 53 -35 122 -66c10 -3 19 -4 27 -4c58 0 79 57 79 122c0 93 -39 199 -83 199l-15 4c-49 13 -104 27 -104 59c43 60 119 63 154 154c1 2 1 3 1 5c0 7 -9 9 -22 9s-111 2 -128 2c-27 0 -54 11 -56 11c-5 0 -16 -7 -70 -43l-19 16
l-3 14c14 49 128 133 168 139c33 0 76 -29 98 -44c4 1 9 1 14 1c39 0 97 -21 128 -34c45 13 41 30 98 34z" />
    <glyph glyph-name="four" unicode="4" horiz-adv-x="745" 
d="M279 133v-3c0 -12 -20 -22 -23 -34c-24 -37 -64 -57 -77 -100c-8 -3 -16 -4 -23 -4c-45 0 -64 58 -107 67c-4 5 -6 10 -6 15c0 16 16 34 16 52c0 33 17 61 17 95c0 11 -2 22 -7 35c3 24 4 50 4 75v42c0 36 1 71 9 104c-17 63 -3 69 -15 129c-8 37 -27 22 -64 49
c4 10 7 20 17 24c1 -1 3 -1 5 -1c37 0 152 65 208 65c11 0 20 -2 26 -9c-3 -27 -36 -20 -40 -43c-26 -134 -17 -248 -30 -385c2 -11 3 -22 3 -32c0 -21 -4 -41 -6 -64c16 -37 63 -54 93 -77zM470 -11c-59 81 -165 201 -165 252c0 6 -3 12 -3 17c0 15 8 29 8 49
c0 11 -2 24 -10 41c8 25 15 185 22 209c-13 18 -22 39 -22 60c0 3 0 7 1 10c-18 44 -55 80 -65 126c47 43 -18 37 124 125l45 -14c3 -6 4 -12 4 -16c0 -31 -68 -19 -68 -65c0 -5 1 -11 3 -18c61 -61 74 -127 74 -191c0 -52 -9 -101 -9 -144c0 -28 4 -53 18 -73
c0 -17 -5 -38 -14 -52c10 -21 13 -40 13 -59c0 -20 -3 -39 -3 -55s3 -30 16 -40c11 9 76 158 86 204c0 64 60 187 60 238c0 30 -20 24 -29 39c-16 9 -42 17 -55 36c6 35 26 44 43 72c15 26 25 38 37 38c18 0 42 -28 101 -79l61 -38c0 -22 -51 -21 -51 -43l-9 -18
c-7 -23 -31 -83 -31 -99c0 -5 3 -2 3 -7c0 -22 -48 -168 -66 -214c-28 -71 -93 -293 -116 -293c-1 0 -2 1 -3 2z" />
    <glyph glyph-name="five" unicode="5" horiz-adv-x="528" 
d="M254 -11c-59 81 -165 201 -165 252c0 6 -3 12 -3 17c0 15 8 29 8 49c0 11 -2 24 -10 41c8 25 15 185 22 209c-13 18 -22 39 -22 60c0 3 0 7 1 10c-18 44 -55 80 -65 126c47 43 -18 37 124 125l45 -14c3 -6 4 -12 4 -16c0 -31 -68 -19 -68 -65c0 -5 1 -11 3 -18
c61 -61 74 -127 74 -191c0 -52 -9 -101 -9 -144c0 -28 4 -53 18 -73c0 -17 -5 -38 -14 -52c10 -21 13 -40 13 -59c0 -20 -3 -39 -3 -55s3 -30 16 -40c11 9 76 158 86 204c0 64 60 187 60 238c0 30 -20 24 -29 39c-16 9 -42 17 -55 36c6 35 27 44 43 72c15 26 25 38 37 38
c18 0 43 -28 102 -79l60 -38c0 -22 -51 -21 -51 -43l-9 -18c-7 -24 -31 -84 -31 -100c0 -5 3 -1 3 -6c0 -22 -48 -168 -66 -214c-28 -71 -93 -293 -116 -293c-1 0 -2 1 -3 2z" />
    <glyph glyph-name="six" unicode="6" horiz-adv-x="748" 
d="M746 133c0 -16 -20 -23 -23 -37c-23 -37 -63 -57 -77 -100c-8 -3 -16 -4 -23 -4c-45 0 -64 58 -107 67c-4 5 -6 10 -6 15c0 16 16 34 16 52c0 33 17 61 17 95c0 11 -2 22 -7 35c10 70 -3 149 13 221c-16 63 -3 69 -15 129c-5 25 -16 26 -34 33c-13 -5 -23 -10 -23 -21
l-9 -18c-8 -24 -32 -84 -32 -100c0 -5 3 -1 3 -6c0 -24 -47 -168 -65 -214c-28 -71 -93 -293 -116 -293c-1 0 -2 1 -3 2c-60 81 -166 202 -166 252c0 6 -3 11 -3 16c0 16 9 29 9 49c0 12 -3 25 -11 42c8 25 16 185 22 209c-13 18 -22 39 -22 60c0 3 0 7 1 10
c-18 44 -55 80 -65 126c48 43 -17 37 124 125l45 -14c3 -7 5 -12 5 -16c0 -31 -69 -19 -69 -66c0 -5 1 -10 3 -17c61 -61 74 -127 74 -191c0 -52 -9 -101 -9 -144c0 -28 4 -53 18 -73c0 -17 -5 -38 -14 -52c11 -21 13 -41 13 -59c0 -21 -3 -40 -3 -56s3 -29 16 -39
c12 9 76 158 86 204c0 64 60 187 60 238c0 30 -22 24 -28 39c-8 4 -15 8 -21 13c-14 0 -28 13 -34 23c6 35 26 44 43 72c15 26 24 38 37 38c18 0 42 -28 101 -79l33 -20c42 6 147 64 200 64c11 0 21 -3 26 -9c-3 -27 -36 -20 -40 -43c-26 -134 -16 -248 -30 -385
c2 -11 3 -22 3 -32c0 -21 -4 -41 -6 -64c17 -37 63 -54 93 -77z" />
    <glyph glyph-name="seven" unicode="7" horiz-adv-x="956" 
d="M715 118c0 -15 -20 -22 -23 -36c-23 -37 -63 -43 -76 -86c-8 -3 -16 -4 -23 -4c-46 0 -64 58 -107 67c-4 5 -6 10 -6 15c0 16 16 34 16 52c0 33 17 61 17 95c0 11 -2 22 -7 35c9 72 -4 152 13 221c-11 38 -10 54 -10 76c0 15 0 64 -22 80c-6 -4 -10 -8 -10 -15l-9 -18
c-7 -23 -31 -83 -31 -99c0 -5 3 -2 3 -7c0 -22 -48 -168 -66 -214c-28 -71 -93 -293 -116 -293c-1 0 -2 1 -3 2c-59 81 -165 201 -165 252c0 6 -3 12 -3 17c0 15 8 29 8 49c0 11 -2 24 -10 41c8 25 15 185 22 209c-13 18 -22 39 -22 60c0 3 0 7 1 10c-18 44 -55 80 -65 126
c47 43 -18 37 124 125l45 -14c3 -6 4 -12 4 -16c0 -31 -68 -19 -68 -65c0 -5 1 -11 3 -18c61 -61 74 -127 74 -191c0 -52 -9 -101 -9 -144c0 -28 4 -53 18 -73c0 -17 -5 -38 -14 -52c10 -21 13 -40 13 -59c0 -20 -3 -39 -3 -55s3 -30 16 -40c11 9 76 158 86 204
c0 64 60 187 60 238c0 30 -20 24 -29 39c-16 9 -42 17 -55 36c6 35 26 44 43 72c15 26 25 38 37 38c18 0 42 -28 101 -79l24 -15c49 17 133 59 179 59c11 0 21 -2 26 -9c-3 -27 -36 -20 -40 -43c-26 -134 -17 -248 -30 -385c2 -11 3 -22 3 -32c0 -21 -4 -41 -6 -64
c16 -37 62 -68 92 -92zM951 133c0 -16 -20 -23 -23 -37c-24 -37 -64 -57 -77 -100c-8 -3 -16 -4 -23 -4c-45 0 -64 58 -107 67c-4 5 -6 10 -6 15c0 16 16 34 16 52c0 33 17 61 17 95c0 11 -2 22 -7 35c9 72 -4 152 13 221c-17 63 -3 52 -15 112c-8 37 -13 34 -50 61
c3 10 7 20 17 23c2 -1 4 -1 6 -1c36 0 149 50 209 50c15 0 27 -3 33 -11c-3 -27 -59 -14 -63 -37c-26 -134 -17 -231 -30 -368c2 -11 3 -22 3 -32c0 -21 -4 -41 -6 -64c16 -37 63 -54 93 -77z" />
    <glyph glyph-name="eight" unicode="8" horiz-adv-x="1237" 
d="M758 133c0 -15 -20 -23 -23 -37c-24 -37 -64 -57 -77 -100c-8 -3 -16 -4 -23 -4c-46 0 -64 58 -108 67c-4 5 -5 10 -5 15c0 16 15 34 15 52c0 33 17 61 17 94c0 12 -2 23 -7 36c5 35 5 72 5 110c0 37 0 75 9 111c-17 63 -4 69 -16 129c-6 27 -17 26 -38 35
c-15 -7 -28 -11 -28 -23l-9 -18c-8 -24 -32 -84 -32 -100c0 -5 3 -1 3 -6c0 -24 -47 -168 -65 -214c-28 -71 -93 -293 -116 -293c-1 0 -2 1 -3 2c-61 81 -166 202 -166 252c0 6 -3 11 -3 16c0 16 9 29 9 49c0 12 -3 25 -11 42c8 25 16 185 22 209c-13 18 -22 39 -22 60
c0 3 0 7 1 10c-18 44 -55 80 -65 126c48 43 -18 37 124 125l45 -14c3 -7 5 -12 5 -16c0 -31 -69 -19 -69 -66c0 -5 1 -10 3 -17c61 -61 74 -127 74 -191c0 -52 -9 -101 -9 -144c0 -28 4 -53 18 -73c0 -17 -5 -38 -14 -52c11 -21 13 -41 13 -59c0 -21 -3 -40 -3 -56
s3 -29 16 -39c12 9 76 158 86 204c0 64 60 187 60 238c0 30 -22 24 -28 39c-8 4 -15 8 -21 13c-14 0 -28 13 -34 23c6 35 26 44 43 72c15 26 24 38 37 38c18 0 42 -28 101 -79l34 -21c34 0 151 65 209 65c11 0 20 -2 26 -9c-3 -27 -36 -20 -40 -43
c-26 -134 -17 -248 -30 -385c1 -8 2 -18 2 -29c0 -39 -7 -92 -9 -118c7 -15 20 -18 35 -18c9 0 19 1 29 1c12 0 23 -2 33 -9zM1234 133c0 -15 -20 -23 -23 -37c-24 -37 -64 -57 -77 -100c-8 -3 -16 -4 -23 -4c-46 0 -64 58 -107 67c-4 5 -6 10 -6 15c0 6 2 12 5 19
c-33 -31 -99 -60 -110 -97c-8 -3 -16 -4 -23 -4c-46 0 -64 58 -107 67c-4 5 -6 10 -6 15c0 16 16 34 16 52c0 33 17 61 17 95c0 11 -2 22 -7 35c3 24 3 50 3 76v26c0 41 1 81 10 119c-17 63 -3 69 -15 129c-8 37 -27 22 -64 49c0 1 1 2 1 3c4 9 7 17 16 21c1 -1 3 -1 5 -1
c38 0 181 78 243 78c11 0 20 -3 25 -9c-4 -26 -70 -33 -74 -56c-26 -134 -17 -248 -30 -385c2 -11 3 -26 3 -42c0 -34 -4 -73 -6 -96c6 -14 24 -18 45 -18c17 0 38 3 55 3c6 0 12 0 17 -1c5 23 14 44 14 69c0 11 -2 22 -7 35c3 24 3 50 3 76v26c0 41 1 81 10 119
c-17 63 -3 69 -15 129c-8 37 -7 25 -44 52c3 10 7 20 17 23c1 -1 3 -1 5 -1c34 0 136 64 188 64c11 0 20 -3 26 -10c-3 -27 -36 -20 -40 -43c-26 -134 -17 -248 -30 -385c2 -11 3 -21 3 -31c0 -22 -4 -42 -7 -65c17 -37 64 -54 94 -77z" />
    <glyph glyph-name="nine" unicode="9" horiz-adv-x="911" 
d="M279 133c0 -15 -20 -23 -23 -37c-24 -37 -64 -57 -77 -100c-8 -3 -16 -4 -23 -4c-45 0 -64 58 -107 67c-4 5 -6 10 -6 15c0 16 16 34 16 52c0 33 17 61 17 95c0 11 -2 22 -7 35c3 23 3 46 3 69v35c0 40 1 80 10 117c-17 63 -3 69 -15 129c-8 37 -27 22 -64 49
c0 1 1 2 1 3s1 1 1 2c4 8 7 15 15 19c1 -1 3 -1 5 -1c37 0 152 65 208 65c11 0 20 -2 26 -9c-3 -27 -36 -20 -40 -43c-26 -134 -17 -248 -30 -385c2 -11 3 -22 3 -32c0 -21 -4 -41 -6 -64c16 -37 63 -54 93 -77zM821 736l7 15l80 -78s-49 -74 -94 -74c-37 0 -65 36 -97 36
l-19 15c-20 -15 -36 -36 -59 -46l-13 -23c1 -5 2 -10 2 -14c0 -19 -9 -36 -10 -54c38 -36 43 -53 65 -53c13 0 32 6 67 17c9 -3 21 -5 32 -5s23 3 31 10h53l9 -29l-7 -1h8c0 -33 -43 -39 -70 -43c-3 0 -5 -1 -8 -1l-10 11c-28 -12 -58 -17 -89 -21c-14 9 -27 12 -37 12
c-22 0 -33 -16 -33 -36c0 -29 24 -63 81 -63v-13l8 13c10 0 21 1 32 1c19 0 39 -2 58 -6l5 6h38l19 -17l-2 -46c-21 0 -81 8 -136 8c-52 0 -99 -8 -99 -38c0 -53 52 -61 86 -89l5 5c51 6 67 50 108 50c11 0 24 -3 39 -10l8 -55c-29 -8 -24 -33 -52 -33c-4 0 -9 1 -14 2
c-34 -33 -63 -70 -96 -104c-12 -3 -22 -4 -32 -4c-26 0 -49 9 -74 28l-5 -2l-45 35l1 7c-17 11 -36 18 -53 28c-86 -4 -81 -154 -190 -154h-3c-14 0 -30 0 -30 24c0 47 43 86 86 101l7 29c23 8 32 15 46 35l8 -7c26 42 39 91 54 137c-11 11 -27 15 -46 15
c-36 0 -83 -15 -111 -25l-8 -3l-23 9l-13 -6l-22 33l2 7l-4 13c7 16 37 21 71 21c44 0 94 -8 111 -11v3c13 21 8 48 23 66c-2 36 -22 46 -49 46c-32 0 -73 -15 -100 -15c0 3 -2 4 -6 4c-3 0 -5 -1 -5 -4c-50 0 -67 18 -67 38c0 26 27 54 50 54c11 0 21 -2 32 -2
c7 0 13 1 20 2c18 -13 58 -33 89 -33c19 0 35 7 42 28l-6 8c5 17 16 45 16 68c0 9 -2 17 -6 24c-25 3 -48 22 -61 43l-41 3c-20 -24 -59 -47 -88 -47c-20 0 -35 11 -35 40c0 8 1 18 4 29c34 33 90 59 135 69l4 16l40 13l23 -7l15 4l41 -28l10 1l92 -61l71 65
c4 45 21 58 43 58c30 0 69 -25 90 -25z" />
    <glyph glyph-name="colon" unicode=":" horiz-adv-x="292" 
d="M281 432c6 -4 9 -11 9 -18c0 -37 -68 -102 -114 -102c-11 0 -20 4 -27 11c-53 53 -27 22 -100 87c0 27 30 25 48 41c65 56 28 19 88 77c68 -31 25 -59 96 -96zM252 117c-23 -15 -47 -38 -50 -65c-36 -18 -58 -71 -100 -71c-4 0 -8 0 -12 1c-27 43 -47 89 -89 128v7
c37 34 100 60 100 119c0 18 19 24 23 24c21 0 36 -55 54 -69c17 -31 78 -20 78 -55c0 -6 -1 -12 -4 -19z" />
    <glyph glyph-name="semicolon" unicode=";" horiz-adv-x="425" 
d="M349 390c7 -2 9 -4 9 -7c0 -9 -17 -23 -17 -35c0 -4 1 -8 6 -12c-10 -24 -132 -56 -152 -56c-30 24 -146 26 -176 76c40 81 80 101 171 172c68 -31 88 -101 159 -138zM425 55c-3 -26 -37 -19 -56 -25c-5 2 -10 2 -14 2c-26 0 -46 -27 -74 -27c-2 0 -5 0 -7 1
c-48 -27 -91 -58 -139 -84c-37 -15 -71 -51 -107 -51c-9 0 -25 1 -25 13c0 19 25 26 34 45c45 73 67 163 107 237c74 -8 115 -70 194 -83c33 0 57 -16 87 -28z" />
    <glyph glyph-name="equal" unicode="=" horiz-adv-x="282" 
d="M281 475c-5 -15 -18 -18 -25 -27c0 -38 -19 -66 -27 -99c7 -3 12 -10 13 -22c0 -42 -25 -74 -30 -114c-3 -1 -6 -2 -9 -2c-8 0 -18 3 -27 3c-3 0 -5 0 -8 -1c-50 -11 -101 -22 -141 -51c-5 -10 -12 -13 -22 -13c-2 4 -3 8 -3 12c0 11 6 21 10 30c20 5 20 27 30 42l4 3
c16 15 73 66 121 95c-45 -11 -90 -22 -126 -49c-5 -10 -12 -12 -22 -12c-2 4 -3 7 -3 11c0 11 7 22 11 31c19 5 19 27 29 42c64 49 136 91 210 123z" />
    <glyph glyph-name="question" unicode="?" horiz-adv-x="450" 
d="M370 468c-8 -13 -44 -46 -58 -53c-12 -18 -28 -33 -49 -45c-3 -11 -10 -19 -21 -26l-5 -17l-21 -23l8 -17l10 -6c5 -9 12 -21 23 -35c11 7 21 18 28 31l16 4c7 -7 11 -14 14 -22l-3 -15l-20 -21c-7 -4 -8 -10 -27 -22c-5 -10 -8 -19 -11 -27c-10 -5 -18 -11 -25 -20
c-11 2 -23 3 -35 9c-17 8 -74 90 -72 89l5 25l37 40c8 14 11 8 46 58c11 8 5 -1 33 35l7 23c-4 11 -14 22 -30 33l-10 31c-13 7 -34 26 -63 56l-16 -2c-25 -31 -46 -49 -62 -56h-17l-5 18l5 17l41 38c9 6 13 7 33 30c37 28 62 50 84 61l25 -3c14 -9 46 -48 53 -53
c5 -20 27 -36 58 -80c2 -10 -2 -7 20 -38zM276 40c0 -16 -14 -30 -58 -80c1 1 -25 -34 -34 -34c-14 0 -20 18 -40 42c-9 8 -9 -2 -37 41c-1 2 -23 9 -23 26c0 7 1 12 4 16l8 8c8 12 17 25 42 50l5 5c2 6 14 24 29 24c5 0 27 -20 68 -53c3 -2 36 -37 36 -45z" />
    <glyph glyph-name="at" unicode="@" horiz-adv-x="675" 
d="M672 327c-14 -57 -27 -150 -32 -211c-54 -57 -68 -50 -139 -77c-40 10 -98 23 -135 36c-7 13 -23 27 -36 31c-18 -7 -64 -40 -77 -40c-44 0 -60 71 -60 126c0 24 3 45 8 57c8 20 40 21 51 48c-12 16 -41 56 -41 84c0 11 4 20 16 26c4 -2 9 -3 15 -3c7 0 16 2 22 4
c10 16 25 29 30 47c10 3 18 4 25 4c10 0 18 -2 31 -7l4 -7l1 -1c13 -7 31 -16 46 -16s31 21 44 21c7 0 10 -6 10 -17c0 -33 -29 -113 -29 -185c0 -60 20 -115 95 -133c2 -1 5 -1 9 -1c11 0 27 3 34 8c15 51 48 83 48 132c0 17 -4 36 -15 59c0 34 -12 49 -12 74
c-11 14 -23 25 -35 37c-20 81 -178 110 -248 113l-10 -9c-4 1 -8 1 -13 1c-62 0 -164 -67 -164 -125l-16 -17c0 -38 -17 -126 -26 -169l8 -13l-4 -9c38 -110 112 -192 235 -192l5 -8c6 -1 12 -1 18 -1c25 0 51 6 78 6c26 0 54 -5 54 -22c0 -25 -41 -47 -108 -47
c-100 0 -263 63 -283 140c-16 14 -28 27 -41 42l-2 3c0 16 -6 26 -14 38c-2 40 -9 63 -16 100c5 6 6 29 6 51c0 20 -1 39 -1 47c0 10 39 64 44 74c63 136 174 168 316 179l8 -10c84 0 92 -20 166 -48c72 -91 88 -66 126 -192l-4 -11zM292 368c-3 -2 -6 -5 -8 -8l-13 -5
c-5 -5 -9 -12 -12 -18c0 -19 19 -27 35 -33c4 -9 8 -11 21 -17l2 -5c6 -3 12 -4 19 -4c11 0 20 23 26 42c0 15 -10 16 -18 22c-19 12 -28 26 -52 26zM354 214l-6 6c-3 21 -10 40 -37 47c0 -1 -1 -3 -1 -5c-40 0 -31 -23 -38 -38c0 -3 4 -10 4 -11v-11c0 -7 0 -15 2 -17
c3 -5 22 -41 27 -41h22c5 0 7 5 9 10c13 6 16 12 16 21c0 6 -1 13 -1 21c0 6 2 13 3 18z" />
    <glyph glyph-name="A" unicode="A" horiz-adv-x="1125" 
d="M1120 133c1 -6 2 -11 2 -15c0 -41 -48 -52 -56 -88c-31 -45 -45 -99 -85 -139c-36 5 -22 49 -45 72c-13 36 -58 31 -71 63c-63 -5 -108 -68 -126 -121c-9 -9 -19 -16 -30 -16c-7 0 -13 2 -19 7c-18 62 -58 147 -135 156c-80 18 -156 50 -242 59c-58 0 -231 -52 -253 -106
c0 -11 6 -38 6 -61c0 -33 -16 -38 -33 -38c-29 0 -30 45 -30 57v2v1v-1c0 85 88 121 157 149l13 5c14 57 61 181 88 264c-57 -1 -124 -9 -149 -9c-1 1 -1 2 -1 4c0 22 85 37 164 50l6 30c3 56 35 105 38 105s34 79 56 135c-67 -29 -135 -62 -183 -117h-13c0 32 18 58 18 94
c67 32 121 112 206 117c13 -3 28 -4 42 -4c30 0 61 4 88 4c88 -9 140 -103 230 -103c17 0 35 -4 54 -4c23 0 47 4 65 17c40 36 59 111 110 111c6 0 13 -1 20 -3v-18c-53 -45 -67 -103 -67 -166s14 -132 14 -197c9 -99 -5 -224 112 -278c18 -4 40 -4 49 -18zM761 420
c11 25 16 51 16 78c0 36 -8 74 -16 110c-17 34 -52 51 -88 51c-19 0 -39 -5 -55 -15c-54 -76 -94 -143 -125 -229c46 0 77 40 116 59c23 22 36 53 63 62c22 -35 40 -76 58 -112c5 -5 12 -7 18 -7c5 0 9 1 13 3zM488 698c-6 6 -11 10 -16 14c-31 -68 -99 -199 -133 -273
c33 7 59 14 65 22c38 88 48 120 84 237zM829 102c2 8 3 17 3 26c0 34 -13 70 -26 99c-18 40 0 117 -58 121c-49 -9 -112 -9 -134 -63c-41 41 -77 77 -130 81c-14 -4 -23 -4 -32 -18c-9 -45 -49 -80 -53 -121c4 -1 8 -1 13 -1c28 0 59 10 90 10c71 -22 156 -36 215 -89
c41 0 57 -51 91 -51c6 0 13 2 21 6zM344 370c-6 5 -16 8 -27 10c-10 -43 -34 -148 -50 -208c22 12 42 25 51 46c-2 7 -3 14 -3 21c0 40 30 67 30 115c0 5 0 10 -1 16z" />
    <glyph glyph-name="B" unicode="B" horiz-adv-x="937" 
d="M923 689c0 -94 -141 -68 -141 -180c0 -23 149 -77 149 -181c0 -15 -3 -30 -10 -47c8 -14 12 -27 12 -40c0 -66 -90 -125 -102 -179c-66 -24 -122 -72 -191 -100c-73 20 -268 12 -314 39c-5 -1 -11 -2 -17 -2c-17 0 -36 5 -51 11l-7 -16c-37 -4 -153 -50 -157 -50
c-22 0 -44 7 -63 18v19c0 41 82 85 110 107c34 99 64 142 64 252c0 46 -51 212 -98 212c-29 0 -34 -21 -34 -43c0 -6 1 -12 1 -18l-35 -22c-35 24 -18 61 -35 95l17 12c1 56 25 67 55 93c5 17 6 36 6 55v16c0 28 28 44 50 57l5 3c50 0 168 -325 168 -386
c0 -53 -1 -208 -48 -237c7 -18 17 -34 28 -50c65 38 73 -8 73 94v157c0 73 -11 154 -11 231c0 18 -17 30 -24 46c-18 41 -4 90 -18 133c7 16 23 27 40 27c43 0 50 -126 50 -217c0 -40 -1 -74 -1 -86c0 -27 13 -51 13 -78c0 -79 -15 -168 -15 -245c0 -24 36 -38 52 -48
c41 40 49 62 49 118v4c0 51 0 455 -15 488c5 23 14 44 27 63c34 -24 37 -39 37 -68v-23c0 -12 7 -31 9 -43h27c10 0 61 35 71 43c19 85 26 29 52 77c32 -2 61 -84 110 -84c25 0 48 7 72 7c21 0 40 -11 40 -34zM726 562c0 41 -99 72 -132 72c-48 0 -56 -49 -56 -86
c0 -26 8 -51 8 -76c0 -8 -1 -17 -2 -25c13 1 26 1 39 3c21 2 143 85 143 112zM809 217c0 5 -1 9 -2 14l-12 -8c1 7 1 14 1 21c0 23 -17 80 -40 90c-33 44 -58 52 -112 52c-17 0 -33 9 -50 9s-44 -61 -53 -75l6 -12c-1 -6 -2 -13 -2 -19c0 -19 4 -39 4 -58l-9 -14
c0 -8 1 -16 4 -23l12 -8c0 -8 4 -37 7 -44c16 -34 129 -49 163 -49c74 0 83 65 83 124z" />
    <glyph glyph-name="C" unicode="C" horiz-adv-x="955" 
d="M1005 767c2 -10 3 -19 3 -28c0 -50 -27 -93 -34 -135c-8 -12 -21 -14 -36 -14c-10 0 -20 1 -30 1c-18 0 -32 -5 -32 -30c-10 -1 -20 -2 -30 -2c-30 0 -57 5 -87 17c-12 0 -27 -5 -37 -5c-7 0 -12 3 -13 13c-8 43 -47 70 -67 102c1 3 1 5 1 8c0 24 -37 13 -44 34
c-2 4 -6 5 -10 5c-8 0 -18 -2 -18 -6c0 -3 9 -5 9 -14c-20 -27 -105 5 -109 -38c16 -51 20 -105 35 -152c-7 -15 -10 -30 -10 -44c0 -10 3 -19 3 -29c0 -12 -21 -79 -21 -90c22 -9 22 -66 22 -70c-11 -13 -15 -18 -15 -22s12 -39 12 -61c0 -18 -7 -37 -7 -57
c0 -13 8 -27 8 -40c0 -15 -7 -29 -7 -42c0 -14 3 -22 27 -22c71 0 155 40 195 93c0 21 -19 49 -19 72c0 40 47 53 168 53c41 0 62 -9 83 -50c2 -4 3 -7 3 -10c0 -30 -95 -26 -115 -33l-3 15c-14 -6 -18 -13 -18 -21c0 -12 9 -26 9 -40c0 -9 -4 -17 -15 -25
c-59 -40 -103 -117 -186 -117c-50 0 -105 -12 -159 -12c-44 0 -88 6 -127 24c0 26 -30 42 -60 42c-8 0 -15 -1 -22 -3c0 -13 -6 -18 -15 -18c-36 0 -127 82 -156 135c-75 58 -67 168 -78 254c4 23 19 35 27 58c0 4 -1 8 -1 13c0 60 27 115 75 155c51 27 94 66 148 94
c63 19 121 42 191 46c47 35 121 16 184 28c31 11 65 38 100 38c13 0 27 -4 40 -15c-8 -26 -17 -55 -17 -81c0 -21 5 -39 21 -55l3 -3c25 -26 54 -56 91 -56c38 0 71 36 89 62c0 10 1 21 1 31c0 16 -3 30 -16 40c-8 -4 -15 -6 -22 -6c-17 0 -32 7 -46 7c-4 0 -7 0 -10 -1
c-2 3 -3 7 -3 10c0 15 24 23 34 36c20 0 40 2 58 2c26 0 47 -7 55 -41zM448 570c-7 14 -9 28 -9 43c0 27 5 55 5 89c-8 8 -35 25 -35 24c0 0 1 -2 1 -6c0 -3 0 -6 -2 -11c2 0 6 1 9 1c4 0 7 -1 7 -5c-8 -8 -14 -11 -20 -11c-3 0 -7 1 -11 3c-28 -19 -31 -61 -38 -89
c6 -16 9 -33 9 -52c0 -38 -13 -73 -13 -108c0 -45 15 -91 15 -138c0 -16 -2 -33 -7 -49c-8 -6 -11 -12 -11 -20c0 -10 5 -21 5 -31c0 -7 -2 -14 -10 -19c4 -39 26 -79 54 -110c13 -5 14 -8 16 -8c1 0 3 2 11 5v98c0 136 8 261 24 394zM296 468c0 21 1 44 1 66
c0 46 -7 99 -30 99c-18 0 -37 -29 -50 -49c6 -9 8 -18 8 -28c0 -22 -12 -44 -12 -69c-4 -16 -11 -36 -19 -47c14 -10 19 -23 19 -37c0 -21 -11 -45 -11 -69c0 -6 1 -13 3 -19c-2 -4 -2 -8 -2 -12c0 -22 19 -39 19 -61c0 -3 0 -6 -1 -9c8 -31 31 -43 59 -62c6 0 7 0 7 2
c0 1 -1 4 -1 7c0 2 0 4 2 7c1 24 1 48 1 72v70c0 46 1 91 7 139z" />
    <glyph glyph-name="D" unicode="D" horiz-adv-x="866" 
d="M863 86c-36 -59 -123 -65 -146 -136l-59 -49c-66 14 -165 112 -278 112h-55c-93 0 -181 -8 -232 -102c-21 13 -38 24 -38 50c0 39 31 68 31 108c35 54 57 40 57 117c0 40 -4 81 -7 121c-14 18 -43 14 -63 17c-11 -5 -23 -9 -35 -9l-11 2c0 37 94 37 94 75l-2 8
c-26 -7 -54 -9 -79 -20l-13 6c10 34 48 43 76 57c28 0 45 154 146 154c6 0 12 -1 19 -2c15 17 46 13 56 36c-52 14 -321 26 -321 103l1 9c23 22 78 158 113 158c20 0 43 -49 62 -62c226 -161 682 94 682 -368c0 -101 -17 -203 -17 -303c0 -28 5 -57 19 -82zM676 531
c0 23 -18 75 -28 97c-12 27 -67 42 -94 42c-70 0 -78 -48 -78 -101c0 -14 1 -28 1 -42c0 -8 0 -17 -1 -25c12 -19 70 -31 91 -31c39 0 79 13 107 41c2 6 2 12 2 19zM698 317c-3 47 -7 95 -7 142c-3 1 -6 2 -9 2c-16 0 -28 -12 -44 -12c-20 -15 -45 -19 -70 -19s-51 3 -75 3
h-13c-10 -7 -13 -19 -13 -30c0 -14 3 -28 3 -42c0 -9 -4 -17 -4 -24c0 -12 10 -14 20 -14c37 0 73 12 109 12c47 0 68 -26 89 -26c6 0 11 3 14 8zM434 224c0 61 -4 122 -4 182v59c0 54 -1 110 -13 159c-4 3 -9 4 -14 4c-22 0 -30 -33 -42 -47c0 -57 2 -116 2 -173
c0 -18 -7 -36 -7 -54c0 -21 12 -26 12 -78c0 -22 -1 -44 -1 -55c0 -23 2 -46 7 -69c2 0 5 1 7 1c8 0 15 -2 23 -2s16 1 23 8c5 21 7 43 7 65zM719 87c0 22 -18 40 -18 65c0 16 -6 75 -17 86c-25 25 -87 40 -121 40c-29 0 -87 -6 -87 -44c0 -25 14 -46 14 -71
c0 -4 -1 -7 -1 -11c33 -18 71 -22 106 -33c38 -13 63 -56 106 -56c9 0 18 16 18 24zM328 417v102c0 17 -8 44 -10 62c-42 -12 -50 -39 -50 -78c0 -76 8 -151 8 -226c0 -19 -1 -69 -5 -85c-7 -26 -76 -92 -76 -95s1 -6 4 -8c45 22 114 9 122 86c6 59 7 157 7 242z" />
    <glyph glyph-name="E" unicode="E" horiz-adv-x="908" 
d="M905 543c0 -27 -66 -109 -94 -110c-17 10 -37 18 -55 25l-53 -10l-12 12c-29 -22 -56 -29 -90 -35c-51 -9 -24 -218 -40 -264l50 -52c73 1 156 57 218 91l12 26l-9 45l36 44l35 -8v-43c0 -13 -24 -56 -24 -104c0 -99 -228 -225 -310 -225c-23 0 -57 -3 -91 -3
c-56 0 -113 8 -124 54h-3c-6 -2 -30 -16 -35 -16c-135 0 -313 316 -313 435c0 26 18 52 34 71l-1 50c0 16 3 33 6 49c24 8 21 17 23 38c129 158 226 159 423 159l2 27c0 19 -19 46 -29 62l48 35c26 0 65 -18 65 -49c0 -17 -7 -34 -17 -48l38 -7l48 28c54 0 26 -70 171 -70
c29 0 38 -24 38 -49c0 -45 -33 -52 -66 -52c-15 0 -31 2 -42 2c-15 0 -29 -13 -44 -13c-26 0 -53 12 -76 23l-4 2l-33 -15c0 -39 -30 -7 -30 -54c0 -8 1 -18 3 -31l-14 -22c19 -19 36 -46 45 -71c34 12 67 28 100 44l4 23c25 20 145 55 177 55c27 0 33 -28 33 -49zM538 448
l-19 19c-9 79 -16 157 -27 236c-18 6 -35 15 -52 24c-13 -18 -28 -35 -43 -52c1 -69 3 -139 3 -208l-12 -18c0 -18 32 -51 32 -89c0 -36 -9 -72 -9 -108c0 -51 33 -89 55 -132l4 2c10 0 20 -4 29 -8c21 1 25 23 25 40c0 64 -11 131 -27 193l-1 -1c0 39 40 79 42 102z
M367 459c0 20 -7 40 -7 61c0 37 3 75 3 112c0 41 -9 43 -41 48c-3 0 -6 1 -9 2c-28 -35 -105 -132 -106 -174c-2 1 -4 2 -6 2c-8 0 -10 -11 -10 -26c0 -37 16 -101 16 -101c0 -44 75 -222 121 -222c29 0 35 68 35 133c0 46 -3 91 -3 107c0 19 7 38 7 58z" />
    <glyph glyph-name="F" unicode="F" horiz-adv-x="904" 
d="M902 860c-45 -75 -30 26 -64 -145c-23 -5 -47 -11 -67 -24l-5 5c-52 -12 -106 -20 -155 -42l-29 8l-28 -33c11 -22 26 -41 47 -55c31 -2 49 -3 67 -3c25 0 49 2 104 7c6 0 11 1 15 1c16 0 22 -3 22 -8c0 -21 -113 -77 -116 -102c-2 -16 -25 -18 -51 -18h-31
c-16 0 -31 -1 -40 -5c-2 -15 -5 -32 -5 -48c0 -100 18 -319 18 -419c0 -19 -9 -120 -31 -120c-4 0 -5 3 -7 6c-12 32 2 87 -30 110l-9 7c1 21 5 42 12 63h8c-3 8 -16 46 -16 52c0 61 3 244 5 305l8 10c0 26 3 79 3 126c0 37 -2 71 -8 87l8 27l10 6l-12 4
c-4 24 -24 46 -45 55l-7 -10l-32 -8c-5 -71 -7 -141 -7 -211c0 -88 3 -270 3 -379v-37l-4 -3c-17 -14 -36 -30 -43 -51h-6c-21 -15 -40 -39 -41 -66c-43 -20 -74 -58 -106 -91c-29 1 -56 18 -84 18c-6 0 -12 -1 -18 -3l-20 17l-83 -39l-26 24c-1 15 -4 30 -4 45
c0 18 22 22 27 38c22 7 29 34 51 41c7 21 52 27 71 31c39 -21 85 -11 126 -22l10 5l16 -2c14 25 16 55 30 80c-10 9 -13 145 -14 158l-8 3c0 25 -8 47 -31 47c-4 0 -10 -1 -16 -3l-7 4l-29 -7c-5 -1 -10 -1 -15 -1c-24 0 -49 8 -49 13c0 2 2 3 6 4c39 7 69 42 98 42
c6 0 11 -2 17 -5c17 0 40 19 40 35c0 1 -1 3 -1 5l-29 83c-15 -11 -34 -23 -53 -23h-2l-93 3c-2 11 -68 32 -68 44c0 3 3 4 10 6c66 11 126 7 158 29c36 24 80 36 80 86c0 86 -84 51 -139 149c-8 14 -11 22 -11 28c0 4 2 6 7 6c18 0 65 -25 117 -25c7 0 14 1 22 2l20 2
l13 14l14 -3c18 8 26 26 40 39c17 1 34 3 51 7l9 20l51 27c94 -56 116 -66 226 -66c10 0 34 8 44 11c14 23 29 59 61 59z" />
    <glyph glyph-name="G" unicode="G" horiz-adv-x="1011" 
d="M1008 739c0 -75 -22 -148 -99 -148c-20 0 -33 -9 -33 -30l-29 -2c-44 0 -81 12 -124 12c-9 0 -12 5 -14 13c-12 45 -44 65 -67 102l1 7c0 25 -37 15 -44 35l-23 4l4 -19c-17 -24 -66 0 -66 -39l35 -152c-7 -15 -10 -28 -10 -45l2 -26c5 -8 17 -13 27 -13
c53 14 120 36 160 76c42 -19 70 -55 98 -90c16 -7 18 -22 18 -39v-9c0 -17 1 -33 17 -42l-1 -6c0 -20 18 -36 18 -55c0 -33 -11 -89 -45 -102l-3 15c-14 -5 -18 -13 -18 -21c0 -12 8 -26 9 -40c-66 -133 -229 -153 -359 -153c-44 0 -88 5 -128 23l4 16c-6 5 -14 7 -22 7
c-10 0 -21 -3 -29 -7l12 15l-47 8l28 -15c-72 3 -140 42 -176 105l8 15c-101 39 -109 171 -109 266c0 24 27 41 27 71c0 172 267 287 413 295c26 20 58 23 90 23c13 0 27 -1 41 -1c18 0 36 1 53 6c35 9 62 38 100 38c13 0 30 -7 40 -15c-9 -26 -17 -53 -17 -80
c0 -50 66 -115 116 -115c36 0 69 35 88 62l2 31v2c0 13 -8 29 -17 38c-6 -4 -13 -6 -19 -6c-15 0 -32 8 -48 8c-4 0 -7 -1 -11 -2c-3 5 -3 6 -3 12c0 12 27 25 34 34c18 0 38 2 57 2c45 0 59 -26 59 -69zM717 178c0 44 -15 90 -47 121c-27 27 -51 74 -94 74
c-34 0 -42 -75 -42 -98c0 -14 0 -28 -1 -42c5 -8 7 -17 7 -27c0 -19 -8 -38 -8 -57c0 -15 8 -27 8 -40c0 -15 -6 -28 -6 -42c0 -8 2 -15 7 -21l17 -1c69 0 159 57 159 133zM490 568c-6 14 -8 28 -8 43v8c0 19 5 40 5 60l-1 22c-12 12 -31 24 -49 24c-12 0 -24 -4 -29 -16
l16 -4c-6 -6 -13 -10 -21 -10c-3 0 -7 1 -10 2c-10 -7 -14 -18 -14 -30c0 -15 3 -28 3 -43c0 -4 0 -9 -1 -13c7 -16 9 -34 9 -51c0 -37 -13 -72 -13 -108c0 -47 15 -92 15 -138c0 -17 -2 -34 -7 -50c-8 -5 -10 -12 -10 -19c0 -10 5 -21 5 -32c0 -6 -6 -15 -11 -19
c4 -38 0 -82 28 -113c14 -5 29 -8 45 -8c8 0 17 2 25 4c0 165 4 327 23 491zM323 537v10c0 31 -1 88 -36 88c-27 0 -57 -30 -70 -51c5 -8 8 -18 8 -28c0 -26 -17 -95 -31 -116c12 -9 18 -22 18 -37c0 -23 -10 -45 -10 -68c0 -6 1 -14 3 -20c-1 -4 -2 -7 -2 -11
c0 -22 18 -47 18 -71c0 -22 31 -44 51 -57l8 -5c14 0 27 7 35 19c1 48 1 96 1 143c0 69 7 136 7 204z" />
    <glyph glyph-name="H" unicode="H" horiz-adv-x="1006" 
d="M1003 445c-29 -130 -61 -264 -122 -381c-37 -17 -36 -62 -73 -73c-21 -6 -44 -34 -64 -34c-8 0 -15 3 -21 13c-1 0 -2 1 -3 1c-8 0 -6 -14 -9 -21c-33 -7 -62 -21 -94 -21c-4 0 -8 0 -12 1c3 7 17 5 17 13c0 5 -7 6 -10 6c-12 0 -24 -12 -38 -12c-2 0 -4 1 -5 1
c-23 -6 -30 -53 -46 -53c-4 0 -18 9 -18 25c0 17 20 20 23 40c33 97 122 166 130 272c-8 6 -17 9 -25 9c-24 0 -48 -20 -72 -30c-29 0 -46 -28 -69 -28c-40 -17 -40 -54 -40 -88v-7c0 -36 -3 -67 -57 -67c-13 -6 -14 -22 -22 -22c-23 0 -27 72 -27 98c0 30 3 61 3 91
c0 27 -3 54 -11 80c6 22 8 44 8 66c0 37 -5 74 -5 111c0 28 3 56 13 83c13 52 22 106 22 165c0 18 -2 38 -22 38c-40 0 -52 -117 -61 -159c0 -53 -7 -117 -16 -170c-2 -12 -3 -23 -3 -34c0 -40 10 -74 10 -111c0 -32 -14 -70 -14 -105c0 -18 1 -37 1 -56c0 -12 0 -23 -2 -35
c-7 -21 -26 -41 -26 -61c0 -4 1 -8 2 -11c-10 -5 -20 -7 -30 -7c-22 0 -60 6 -60 31c2 -2 5 -3 8 -3s5 1 5 3c-1 4 -4 5 -6 5c-3 0 -5 -1 -7 -1c-3 0 -7 1 -8 8c4 32 -4 61 21 85c6 104 24 197 24 301c0 15 -3 112 -3 113c0 73 -11 156 -25 231c-20 8 -73 13 -73 20l4 8
c-11 10 -24 17 -39 17c-11 0 -17 -9 -18 -21c-6 16 -36 21 -36 41c0 8 4 22 25 22c37 0 65 -34 101 -34c8 0 17 2 27 7c70 -3 133 -12 197 -12c35 0 74 2 111 12c25 7 42 22 57 37c10 1 24 4 38 4c20 0 40 -5 47 -24l-4 -13c-36 -16 -81 -32 -109 -64
c-3 -25 -13 -53 -13 -79c0 -16 4 -31 17 -43c73 12 134 53 198 77c24 -24 42 -33 55 -33c36 0 35 73 38 109c4 66 38 93 84 93c18 0 37 -4 57 -11c-37 -18 -50 -49 -50 -82c0 -56 35 -122 56 -157c25 -60 69 -103 69 -174zM747 550c-8 37 -53 28 -65 61c-7 4 -14 6 -21 6
c-29 0 -51 -36 -80 -39c-6 3 -11 5 -16 5c-19 0 -35 -20 -51 -20c-5 0 -10 2 -14 7c-18 -16 -23 -36 -23 -57c0 -23 5 -48 5 -72c0 -10 -3 -20 -3 -29c0 -11 12 -17 22 -17c2 0 5 0 7 1l130 69c38 25 109 18 109 85zM824 364c2 3 2 7 2 10c0 18 -22 29 -22 50
c-17 18 -27 29 -53 29c-89 -61 -198 -77 -275 -158c0 -9 -2 -20 -2 -31c0 -12 2 -31 18 -31c17 0 31 9 48 13c45 45 118 41 167 77c40 16 81 24 117 41zM869 283c-11 12 -23 16 -35 16c-28 0 -58 -24 -87 -29c-20 -10 -85 4 -85 -34c0 -10 13 -17 16 -26
c12 -14 16 -31 16 -48c0 -24 -8 -49 -8 -73c0 -22 11 -60 53 -60c9 0 18 2 24 6c52 55 112 119 112 202c0 14 -2 30 -6 46z" />
    <glyph glyph-name="I" unicode="I" horiz-adv-x="556" 
d="M553 765c0 -58 -17 -145 -59 -189c0 -21 0 -42 3 -61c-21 -30 -28 -53 -28 -71c0 -54 66 -70 66 -118c0 -51 -5 -102 -10 -154c5 -6 10 -14 13 -22v3l-1 -47c-102 -48 -204 -101 -299 -161c-60 0 -89 70 -132 70c-5 0 -11 -1 -16 -3l-26 -34c-13 9 -27 21 -35 36
c0 32 27 61 48 82c37 38 65 51 93 51c46 0 88 -38 157 -69c44 29 61 52 61 73c0 43 -71 76 -117 133c3 13 4 25 4 36c0 35 -8 67 -8 104c57 56 24 183 145 205c-14 14 -33 32 -53 32c-20 -34 -85 -137 -127 -137c-7 0 -9 1 -9 5c0 14 34 53 34 91c0 71 -65 32 -103 60
c-27 -3 -36 -9 -52 -30l-27 -8c-6 -15 -36 -30 -50 -34l-19 16l-3 14c20 36 106 129 158 129c4 0 8 -1 12 -2c5 32 22 43 42 43c33 0 76 -29 98 -44c4 1 9 1 14 1c39 0 97 -21 128 -34c45 13 41 30 98 34z" />
    <glyph glyph-name="J" unicode="J" horiz-adv-x="626" 
d="M619 811c-12 -50 0 -169 -44 -194l10 -34c-14 -28 -14 -365 -32 -448c-2 -8 -3 -16 -3 -25c0 -63 44 -147 44 -197c0 -27 -19 -40 -39 -40c-27 0 -48 21 -48 61c0 18 4 36 4 54c0 14 -2 29 -9 45l-6 -37c-85 -50 -168 -163 -259 -163c-36 0 -74 18 -113 65
c-21 0 -61 -36 -79 -52l-3 -2c-15 0 -31 6 -40 19c0 20 15 39 22 57l157 107c30 -21 109 -77 142 -77c30 0 60 35 60 64c0 13 -6 25 -19 33c1 8 2 15 2 23c0 93 -92 153 -93 161c-9 -19 -35 -24 -64 -24c-43 0 -92 12 -107 16c-3 6 -4 13 -4 21c0 9 2 18 4 26c8 1 15 1 23 1
c34 0 66 -8 99 -8c16 0 32 2 49 7c10 16 17 34 25 52c-48 23 -70 30 -88 30c-23 0 -39 -11 -92 -11c-19 0 -28 11 -28 24c0 17 16 37 47 37c30 0 53 -13 78 -13c16 0 31 4 51 20c32 25 8 77 57 103l8 22c30 18 55 41 79 65l-21 6l-15 -12l-17 19l-52 -30
c-95 12 -115 62 -134 62c-42 -26 -88 -56 -114 -99h-27c-3 10 -4 20 -4 30c0 28 12 55 35 77l-6 12c25 15 4 40 53 40c5 0 12 0 20 -1c1 21 15 40 31 53c31 4 72 40 89 40c83 0 139 -94 192 -94c26 0 52 23 79 93c2 1 61 58 88 58c9 0 15 -6 15 -20c0 -6 -1 -13 -3 -22z
M535 556l-15 12l2 57c-3 1 -8 3 -10 3c-12 -19 -40 -63 -40 -90c0 -19 31 -14 31 -26c0 -7 -7 -17 -19 -30c0 -32 -31 -50 -31 -82c0 -9 3 -20 10 -33c0 -9 -7 -15 -7 -24c0 -28 14 -57 14 -120c0 -34 34 -87 34 -124c0 -3 -1 -5 -1 -8l6 -2c2 4 3 16 3 30c0 25 -2 56 -2 67
c6 9 8 19 8 29c0 20 -8 42 -8 63c15 15 19 53 19 93c0 44 -5 90 -5 111c0 5 0 9 1 11c7 17 11 31 11 48c0 5 0 10 -1 15z" />
    <glyph glyph-name="K" unicode="K" horiz-adv-x="911" 
d="M893 138l-1 -25c-67 -54 -71 -128 -175 -128c-26 20 -92 66 -123 66c-62 0 -11 -86 -110 -86c-84 0 -101 36 -166 36c-26 0 -60 -5 -108 -21v-1c-17 -5 -43 -20 -52 -37c-17 -4 -35 -6 -53 -6c-27 0 -37 22 -37 46c0 53 84 65 117 104l16 19l-14 12c0 94 23 128 23 154
c0 22 -18 37 -83 78c-6 2 -12 3 -18 3c-20 0 -43 -12 -63 -18c-7 13 -10 23 -10 30c0 49 144 -14 144 114c0 15 -2 31 -6 51c-24 0 -61 -3 -93 -3c-38 0 -72 7 -78 43c39 39 103 16 151 45l23 11c0 9 -10 41 -11 53c-8 80 -28 86 -55 86h-17c-20 0 -43 3 -69 25v14l56 41
l6 18c45 -35 80 -45 111 -45c45 0 81 21 129 21c12 0 31 -12 31 -25c0 -47 -30 -88 -30 -135c0 -51 20 -108 20 -159c0 -67 -16 -135 -16 -203l16 -25c-8 -22 -11 -43 -11 -61c0 -54 28 -88 57 -88s60 37 60 129v122c0 151 -2 302 -26 452c0 22 22 44 45 44
c25 0 47 -1 69 -1c24 0 49 1 76 7l3 6c23 16 43 24 65 24c12 0 25 -2 39 -7l-6 -22c3 -2 4 -5 4 -8c0 -14 -12 -6 -12 -26c0 -40 38 -87 83 -87c23 0 48 12 70 44c1 4 2 8 2 12c0 14 -6 30 -13 40c-6 -3 -14 -4 -23 -4c-13 0 -27 2 -35 4l-2 7l25 28c66 0 90 -26 90 -63
c0 -50 -42 -98 -77 -98l-25 -22c-7 -1 -13 -1 -19 -1c-70 0 -117 31 -181 118c-7 0 -14 -1 -20 -1c-70 -5 -88 -6 -88 -22s19 -48 23 -113l-12 -21l4 -25l33 -8c26 12 90 77 96 77c28 0 37 -57 55 -76c21 -22 86 -54 86 -83c0 -12 -12 -23 -45 -32l-21 -29
c-40 -5 -56 -19 -56 -36c0 -20 22 -45 50 -66h19c34 -25 90 -152 90 -206c0 -5 -1 -9 -2 -13l38 -37l29 3zM625 528c0 13 -5 23 -18 28c-23 9 -20 2 -28 19l-3 6c-3 4 -7 9 -12 9c-6 0 -10 -5 -16 -5c-7 0 -13 2 -20 2c-35 0 -44 -71 -44 -120c0 -22 2 -40 4 -44
s19 -13 19 -17l-4 -8c3 -10 18 -13 26 -17c11 11 47 29 52 37c38 62 44 29 44 110zM644 275c-7 3 -13 7 -19 12c-19 50 -52 74 -81 74c-30 0 -56 -27 -56 -77c0 -18 3 -30 19 -40v-10c0 -13 1 -26 13 -33c0 -15 -12 -27 -12 -41c0 -18 25 -37 42 -37c35 0 92 41 92 67
c0 4 -1 8 -4 11c0 14 8 44 8 63c0 4 -1 8 -2 11z" />
    <glyph glyph-name="L" unicode="L" horiz-adv-x="1189" 
d="M1158 262c17 -37 28 -79 28 -118c0 -36 -9 -70 -29 -99c0 -4 1 -8 1 -12c0 -52 -46 -88 -72 -128c-25 -31 -67 -47 -109 -58c-28 -7 -55 -17 -84 -17c-6 0 -13 1 -19 2c-83 13 -156 65 -236 104c-87 23 -174 47 -254 89c-26 0 -49 -5 -71 -5c-5 0 -9 0 -14 1
c-31 -29 -86 -58 -86 -110c0 -39 49 -74 77 -103c1 -4 2 -7 2 -11c0 -9 -4 -17 -11 -20c-69 14 -118 107 -118 169c0 76 73 110 114 165c4 28 22 57 22 89c0 6 0 12 -2 19c4 15 20 29 20 47c0 6 -2 12 -6 19c-81 0 -150 -12 -227 -15c-44 19 -79 69 -82 120
c6 81 102 93 157 135c3 4 4 8 4 11c0 10 -9 17 -10 28c-22 26 -74 31 -74 60c0 10 14 13 20 13c24 0 94 -41 94 -94c0 -21 -11 -37 -19 -56c-32 -30 -119 -23 -119 -74c0 -37 35 -50 54 -50c37 0 69 35 105 46c36 31 113 -8 124 54c0 13 1 27 1 39c0 13 -2 24 -10 31
c-27 8 -45 31 -54 50c22 31 74 4 86 47c72 85 219 27 278 136c46 18 48 82 94 82c15 0 25 -44 47 -51c17 -3 32 -4 46 -4c49 0 72 15 102 15c21 0 45 -7 84 -32c13 -4 27 -5 40 -5c16 0 31 2 47 2c12 0 25 -1 37 -5l2 -23c-55 -50 -72 -132 -148 -155c-81 54 -41 9 -130 52
c-3 -1 -7 -1 -10 -1c-9 0 -18 2 -27 2c-7 0 -14 -1 -20 -5c-26 -86 -15 -179 -32 -272c-1 -10 -1 -21 -1 -31c0 -57 8 -121 8 -178c0 -22 -1 -43 -4 -62c9 -23 32 -12 45 -27c41 -14 70 -61 118 -61c7 0 14 1 21 3c62 0 116 8 151 66c9 35 26 73 43 108
c-18 31 -43 58 -72 82c-1 2 -1 3 -1 5c0 8 20 30 25 30c19 0 42 -21 54 -39zM732 649c-1 10 -15 17 -23 17c-2 0 -4 0 -5 -1c-42 -74 -51 -163 -57 -248c6 -26 8 -52 8 -78c0 -31 -3 -62 -3 -94c0 -39 3 -121 47 -121c4 0 7 0 11 2c-2 39 -3 79 -3 118c0 137 10 273 25 405z
M618 673l-8 3c-22 -11 -54 0 -64 -27c-5 -45 -15 -88 -15 -134c0 -17 1 -34 5 -52c-7 -51 -9 -111 -12 -167c0 -4 -1 -7 -1 -11s-1 -8 -1 -12c1 -5 1 -10 1 -14c0 -51 -66 -46 -97 -67c-13 -35 -71 -35 -80 -70l12 -4c64 24 134 24 203 31c20 0 25 7 25 21c0 12 -4 28 -4 41
c0 10 2 18 8 24c-3 44 -5 89 -5 133c0 106 10 209 33 305z" />
    <glyph glyph-name="M" unicode="M" horiz-adv-x="1218" 
d="M1211 435c-16 -34 -10 -77 -34 -108c-34 -71 -102 -121 -136 -189c0 -17 24 -19 32 -19c56 0 69 61 107 90l25 -6c-13 -46 -65 -65 -90 -105c-40 -37 -71 -80 -99 -123c-4 -2 -8 -4 -11 -4c-2 0 -4 1 -4 4l-56 68c-22 -4 -28 -22 -43 -38c-10 -18 -31 -30 -50 -37
c-9 0 -18 3 -18 10c31 61 105 89 133 154c48 57 105 129 105 211c0 120 -67 187 -127 274c-40 19 -80 40 -127 50c-12 -3 -27 -16 -34 -31c3 -28 34 -43 47 -65c18 -46 47 -87 61 -139c1 -6 2 -10 2 -15c0 -37 -47 -45 -60 -81c-25 -31 -22 -74 -56 -102
c0 -31 34 -46 56 -65c24 0 40 22 53 40l2 3c19 38 25 84 59 115c3 1 5 2 8 2c9 0 18 -7 20 -15c-28 -46 -31 -105 -77 -142c-16 -61 -68 -108 -96 -167c-19 -13 -14 -59 -33 -59c-14 0 -20 11 -20 22c-40 31 -68 71 -102 102c-34 -27 -43 -68 -80 -95
c-16 -9 -21 -36 -38 -36c-2 0 -5 1 -8 2c-22 40 -68 49 -96 83l-5 7c-18 27 -41 61 -72 64c-53 -46 -93 -93 -136 -145c0 -1 1 -2 1 -3c0 -5 -5 -7 -7 -13c-44 22 -72 78 -121 90c-25 25 -49 46 -77 65v9c35 10 51 53 93 53c37 27 74 65 105 95c-20 44 -38 93 -38 140
c0 5 1 9 1 14c-53 8 -105 36 -139 72c-19 29 -27 58 -27 86c0 51 23 101 49 148c65 43 149 67 214 110c2 6 3 11 3 16c0 40 -67 36 -78 73c6 4 11 6 17 6c10 0 20 -6 29 -6c4 0 8 1 12 4c7 -5 15 -6 24 -6h18c12 0 24 -2 33 -15c4 -22 11 -48 11 -73
c0 -120 -135 -58 -175 -124c-10 -28 -31 -37 -31 -60c0 -2 0 -5 1 -8c19 -36 43 -73 83 -94l2 2c55 95 160 142 250 194c62 25 133 34 185 78h16c1 -3 2 -5 2 -7c0 -12 -14 -20 -14 -31c0 -3 1 -6 3 -9c27 -28 55 -49 83 -80c34 0 53 31 80 49c14 36 62 51 62 89
c0 6 -1 12 -3 19h31c3 -33 31 -46 43 -77c34 -31 93 -15 124 -49c65 -34 130 -96 130 -176c-2 -6 -2 -11 -2 -16c0 -21 9 -40 9 -60c0 -6 -1 -13 -4 -20zM797 385c-16 59 -59 109 -112 136c-3 2 -7 3 -10 3c-23 0 -23 -51 -23 -82c0 -23 2 -46 9 -66c28 -34 46 -89 83 -111
c43 28 53 74 53 120zM639 534c0 20 -4 50 -22 62c-35 24 -80 44 -122 44c-8 -78 -17 -300 -17 -358c0 -45 39 -140 69 -195c10 -5 20 -8 30 -10c22 3 37 27 44 46c-22 68 -37 139 -44 216c3 68 7 148 62 195zM436 627l-1 -1c-53 -26 -83 -80 -89 -135c3 -16 3 -31 3 -47v-37
l75 8c-2 28 -4 69 -4 105c0 56 7 79 14 100zM431 298l-3 56c-23 -4 -55 -6 -78 -9c2 -16 7 -31 14 -46l4 -7c20 3 46 5 63 6zM453 158c-7 45 -14 74 -17 99c-14 -3 -31 -6 -45 -8c18 -32 38 -64 62 -91zM336 123c-15 18 -31 37 -55 43c-25 3 -28 34 -50 40
c-21 -21 -55 -28 -71 -58c22 -34 56 -53 77 -84c7 -3 13 -5 19 -5c34 0 53 45 80 64z" />
    <glyph glyph-name="N" unicode="N" horiz-adv-x="1014" 
d="M1006 192c0 -85 -17 -162 -17 -246c0 -26 -27 -26 -43 -26h-3c-33 29 -71 11 -101 40c-3 -1 -7 -1 -10 -1c-19 0 -37 5 -54 5c-11 0 -20 -2 -28 -8c-21 -33 -47 -51 -78 -66c-8 0 -16 4 -20 11c0 22 29 26 42 37c53 66 109 134 129 221c24 40 23 96 34 143
c-13 89 -37 181 -79 262c-25 70 -73 147 -142 187c-18 -9 -22 -26 -22 -46c0 -17 3 -35 3 -51c0 -4 -1 -9 -1 -13c3 -14 5 -28 5 -40c0 -43 -16 -81 -16 -124c0 -8 1 -16 2 -24c-14 -49 -17 -101 -17 -153c0 -39 1 -79 1 -115c0 -40 15 -83 15 -121c0 -22 -5 -43 -21 -60
c-7 0 -14 -1 -20 -1c-8 0 -15 1 -21 5c-5 17 -6 34 -6 50c0 34 6 67 6 102c0 12 -2 25 -2 37c0 32 8 62 8 94c0 15 -1 31 -7 48c2 8 5 16 5 25c0 8 -2 16 -9 23c25 85 14 180 23 269c-6 14 5 40 -18 51c-13 0 -23 6 -33 6c-4 0 -8 -2 -12 -6l-9 -11
c-8 -73 -15 -145 -15 -218c0 -41 2 -82 7 -124c-4 -55 -12 -112 -12 -170c0 -48 14 -97 14 -146c0 -23 -5 -44 -28 -56c-51 -3 -97 -18 -137 -44c-59 -26 -141 -18 -205 -37c-2 -7 -10 -7 -12 -14c8 69 -1 150 47 202l5 8c16 27 34 57 34 90c0 5 0 11 -1 16
c-3 18 -23 36 -23 53c0 3 1 7 3 10c26 -4 51 -45 78 -56c16 -29 20 -58 32 -88l-7 -7c12 -5 13 -12 13 -21v-7c0 3 15 -55 32 -55c22 0 24 88 24 117c0 47 -4 96 -4 142c0 33 -68 62 -92 81c-68 15 -124 67 -195 74c-12 19 -46 16 -46 33c0 14 11 22 19 22
c13 0 28 -11 43 -11c8 0 18 -2 26 -2c61 0 100 40 158 50c76 63 93 172 195 202c64 18 116 59 194 59c15 5 31 6 48 6c39 0 79 -6 121 -6c26 -25 62 -48 94 -66c16 -33 26 -74 59 -99c12 -52 25 -92 39 -140c0 -5 -1 -10 -1 -14c0 -41 13 -82 13 -120
c0 -111 -109 -193 -160 -282c0 -12 12 -10 17 -15c32 8 70 0 92 22c21 33 26 74 40 107h7zM349 556c-5 8 -12 8 -16 8c-22 -26 -54 -37 -56 -74c16 -12 35 -26 54 -26c6 0 11 2 16 4c0 22 4 42 4 65c0 7 -1 15 -2 23z" />
    <glyph glyph-name="O" unicode="O" horiz-adv-x="871" 
d="M868 538c-11 -29 -15 -62 -15 -96c0 -41 5 -83 5 -119c0 -48 -118 -226 -166 -229c-6 -25 -30 -39 -55 -44c-39 -59 -107 -62 -168 -77l-29 13c-14 -3 -27 -4 -39 -4c-59 0 -103 28 -165 28c-64 68 -108 25 -142 60c-58 61 -90 203 -90 338c0 145 36 284 113 315
c5 0 7 -5 7 -20c0 -30 -8 -91 -8 -150c0 -79 14 -157 80 -157c5 0 11 1 17 2l9 12c-10 41 -71 114 -71 189c0 52 30 68 42 99l-21 33c38 3 60 39 97 39c5 0 10 -1 15 -2c27 64 106 55 169 63l19 -12c11 2 26 3 42 3c79 0 201 -28 232 -81c18 -31 29 -49 56 -74l15 -53
c9 -5 18 -9 27 -12c10 -11 16 -48 24 -64zM745 486c-16 26 -33 50 -51 75c0 13 -1 26 -9 37c-46 13 -110 67 -154 92c-12 -11 -26 -18 -40 -26c0 -1 -1 -15 -1 -34c0 -30 2 -71 10 -78c-12 -24 -15 -56 -15 -92c0 -73 16 -163 16 -230c0 -9 0 -18 -1 -26l-7 -8l-4 -28
c9 -11 19 -21 30 -30l10 4c10 -9 30 -13 52 -13c39 0 85 12 98 31c65 1 90 103 90 195c0 56 -9 107 -24 131zM462 671c-16 19 -34 37 -53 54c-25 -21 -67 -37 -67 -75c0 -23 10 -45 10 -68c0 -44 -22 -136 -22 -177c0 -30 15 -37 15 -59c0 -4 -1 -9 -2 -15h3l-3 -1l5 -17
c-6 -16 -9 -31 -9 -47c0 -51 27 -100 41 -141c4 -1 8 -1 12 -1c21 0 41 7 62 7c0 97 -15 224 -15 343c0 72 5 140 23 197zM315 212c-13 18 -12 31 -13 52c7 9 10 19 10 29c0 30 -29 58 -62 58c-12 -14 -22 -28 -32 -42c-25 -1 -50 -6 -70 -21c-8 -32 -31 -25 -31 -72
c0 -70 84 -71 138 -71h13c38 0 27 45 47 67z" />
    <glyph glyph-name="P" unicode="P" horiz-adv-x="972" 
d="M970 645c-9 -57 -30 -118 -30 -186c0 -32 4 -64 4 -96c0 -55 -7 -107 -37 -150c-33 -67 -86 -135 -153 -159c-21 -12 -41 -35 -68 -35c-5 0 -9 0 -14 2c-48 33 -110 38 -168 48l-14 19c-13 56 -16 111 -16 165c0 89 6 178 6 274c0 78 -3 159 -34 224c1 3 1 6 1 9
c0 5 -1 9 -1 13c0 6 3 11 15 16c38 0 61 -30 96 -30c9 0 18 1 29 6c47 20 110 29 144 72c24 -5 24 -29 43 -43c72 -29 134 -96 197 -149zM556 -214c-11 -3 -21 -4 -31 -4c-67 0 -124 52 -195 52l-115 57c-6 6 -9 12 -9 18c0 16 19 30 23 45c0 88 17 167 17 253
c0 7 -2 42 -2 46v3c-13 10 -26 13 -40 13c-18 0 -36 -5 -52 -8c-22 -4 -47 -33 -66 -33c-6 0 -11 2 -15 9c9 43 62 29 91 57c33 54 96 40 96 113c0 21 -3 44 -14 60c-13 3 -27 4 -41 4c-35 0 -70 -9 -94 -33c34 39 67 87 125 92c15 17 21 40 21 64c0 31 -9 75 -33 75
c-18 0 -38 -26 -55 -29c-8 1 -16 2 -23 2c-45 0 -75 -18 -122 -18c-9 0 -20 1 -20 15c0 5 1 11 1 15c77 29 178 53 217 140c21 12 39 33 39 58c0 3 -1 6 -1 9c8 5 14 8 20 8c30 0 39 -63 71 -80c34 -18 48 -38 72 -67c-5 -46 -7 -91 -7 -137c0 -114 12 -229 12 -340
c0 -52 -3 -102 -10 -152c5 -87 23 -164 63 -231c19 -33 84 -20 84 -53c0 -6 -2 -13 -7 -23zM763 525c-29 29 -36 107 -91 107c-31 0 -60 -16 -91 -16c-29 0 -10 -34 -24 -48c-2 -14 -3 -30 -3 -45c0 -26 3 -52 12 -70c11 -5 21 -7 30 -7c28 0 49 19 71 40c39 15 91 -9 96 39
zM768 395c1 2 1 4 1 7c0 6 -3 14 -3 23c0 3 1 6 2 9c-11 12 -24 17 -37 17c-27 0 -56 -19 -78 -22c0 -29 -8 -37 -20 -37c-15 0 -36 14 -52 14c-21 0 -23 -27 -23 -46c0 -7 2 -14 8 -18c68 20 144 20 202 53zM806 275c-5 27 -23 48 -57 48c-51 -51 -184 -4 -184 -85
c0 -27 28 -30 45 -30c8 0 17 1 24 1c44 0 83 -28 120 -28c32 0 57 34 57 66c0 9 -2 19 -5 28z" />
    <glyph glyph-name="Q" unicode="Q" horiz-adv-x="1021" 
d="M1018 74c0 -49 -61 -115 -119 -115c-22 0 -44 9 -62 34c-62 21 -79 73 -134 73c-14 0 -30 -3 -49 -10l-15 -18c-2 0 -169 -76 -197 -84c-20 -6 -40 -8 -59 -8c-92 0 -173 55 -250 55c-40 0 -80 -15 -119 -61l-6 4l-5 44c19 29 49 60 49 98c36 26 67 103 112 142
c-85 96 -129 29 -129 194c0 92 63 171 109 244c68 29 142 104 208 145c34 21 80 30 131 30c114 0 249 -44 320 -89c8 -5 63 -71 74 -83c-2 -3 -3 -7 -3 -10c0 -2 0 -3 1 -4c71 -43 95 -99 95 -157c0 -115 -95 -236 -95 -274c0 -64 143 -68 143 -150zM787 496
c-16 26 -39 92 -74 92c-3 0 -7 -1 -10 -2c-16 10 -31 22 -46 33l-3 16c-8 5 -17 10 -27 10c-3 0 -6 0 -9 -1l-15 13l-47 4c-11 -33 -15 -58 -15 -81c0 -38 11 -69 11 -122c0 -28 -20 -48 -20 -76c0 -33 18 -116 18 -150c0 -19 -6 -37 -6 -56c0 -36 47 -52 95 -52
c50 0 103 17 110 43c55 44 100 137 100 216c0 49 -18 92 -62 113zM491 236c0 38 -20 75 -20 112c11 12 15 26 15 40c0 16 -5 32 -8 48l13 13c5 22 12 71 12 118c0 60 -11 119 -54 119c-13 0 -47 -14 -53 -25c-10 -17 -10 -108 -11 -133l-9 -348v-2c0 -31 25 -52 50 -52
c31 0 65 30 65 110zM335 471v149c0 33 -19 49 -51 49c-17 0 -33 -13 -43 -26c-58 -18 -107 -70 -107 -129c0 -12 2 -24 6 -36c-6 -8 -9 -17 -9 -26c0 -45 43 -66 89 -66c55 0 115 30 115 85zM341 149c-4 12 -5 24 -5 37c0 24 4 50 4 77c0 22 -3 46 -13 71
c-11 -1 -24 1 -35 -4c-23 -37 -51 -70 -85 -98c-7 -29 -35 -30 -35 -39c0 -2 1 -4 6 -8c10 -24 83 -19 106 -29c8 -4 10 -17 21 -17c8 0 28 7 36 10z" />
    <glyph glyph-name="R" unicode="R" horiz-adv-x="956" 
d="M953 69l-31 -46l2 -12c-25 -39 -62 -55 -100 -55c-35 0 -71 13 -101 36c-92 0 -54 155 -111 158c-21 -32 -58 -36 -75 -62c-28 -7 -79 -54 -92 -80l-16 -2c-13 -12 -27 -24 -42 -34c-3 2 -6 3 -7 3c-5 0 -6 -7 -6 -13v-8l-20 -15c-1 1 -12 5 -11 5l-42 15
c-11 21 -27 37 -51 37c-19 14 -55 21 -93 21c-50 0 -104 -12 -126 -35l-28 9l4 44l37 37c30 5 56 15 85 23c39 11 52 80 52 142c0 55 -9 105 -20 113c-16 12 -33 21 -47 34c-8 -3 -16 -5 -25 -5c-29 0 -62 15 -82 29c13 21 35 34 60 34c94 55 82 9 98 70l15 56
c4 15 9 35 9 55c0 34 -13 65 -55 65c-35 0 -46 -20 -68 -20c-10 0 -21 4 -37 14c0 72 40 59 81 104c34 1 61 34 95 34c38 0 83 -111 142 -142l-15 -17c0 -25 3 -36 3 -48s-3 -24 -15 -50c17 -26 21 -66 21 -106c0 -28 -2 -56 -4 -78l-12 -6l-3 -19l15 -10l-10 -63l-10 3
l15 -18c0 -17 -1 -33 -1 -48c0 -39 7 -68 58 -69c33 64 40 133 40 204c0 54 -4 110 -4 164c0 51 3 101 17 149c28 99 133 156 198 225c52 -1 123 -152 156 -152c34 0 64 37 95 38l12 -16c0 -25 -12 -50 -23 -72c0 -1 -1 -2 -1 -3c-15 -9 -38 -54 -55 -67
c-68 -55 -73 -45 -155 -124c28 -38 108 -122 108 -181c0 -5 -1 -10 -2 -15c6 -7 61 -255 112 -255c16 0 31 24 44 87zM149 289c0 -41 -93 -28 -115 -52c-1 -2 -2 -4 -5 -4c-8 0 -13 23 -13 29c0 33 41 45 67 48c15 -7 66 0 66 -21zM695 583c0 13 -51 95 -62 100
c-37 18 -60 40 -96 40c-65 0 -48 -48 -67 -82c-4 -9 -6 -20 -6 -29c0 -56 8 -112 15 -168c10 0 22 -2 34 -2c53 1 93 63 136 93c15 11 46 27 46 48zM605 192c-2 5 -6 9 -8 14c-5 14 -2 133 -19 169c-1 5 -42 25 -46 25h-53l-2 -16c-11 -13 -14 -29 -14 -47
c0 -12 1 -24 1 -37s-1 -27 -6 -39c9 -31 9 -64 9 -97c11 -1 19 -14 31 -14c22 0 107 21 107 42z" />
    <glyph glyph-name="S" unicode="S" horiz-adv-x="864" 
d="M862 307c0 -72 -30 -62 -70 -111l6 -19c-11 -19 -21 -38 -36 -53l-9 6c-24 -26 -56 -60 -56 -98c-17 -28 -34 -54 -69 -57l-5 -16l-28 -6c-34 26 -288 91 -407 91c-33 0 -56 -5 -60 -17l-23 -4c-15 -15 -18 -37 -18 -58c0 -18 2 -35 3 -50c-19 -32 -40 -43 -76 -43
c-8 28 -12 53 -12 76c0 94 65 141 158 202c21 14 94 37 94 49c-17 6 -33 15 -47 25c-1 1 -1 2 -2 2c-57 0 -98 39 -119 39c-2 0 -4 0 -6 -1c-29 28 -39 54 -39 77c0 62 72 107 72 138c0 22 -34 70 -34 98c0 2 0 4 1 6c26 112 118 224 225 254c22 6 42 25 57 41
c12 -57 78 -30 112 -58l26 9v-21c34 -19 48 -33 70 -33c13 0 29 5 54 18c4 12 6 22 6 31c0 71 -135 23 -135 131c0 36 48 90 89 90c9 0 17 -2 25 -8c0 -33 -67 -34 -84 -91c0 -7 6 -13 12 -16c48 -36 149 -54 149 -130c0 -96 -58 -117 -126 -117c-50 0 -105 11 -147 11
s-72 -10 -72 -51l40 -36c37 10 196 34 221 46c19 -7 37 -22 49 -38c-1 -2 -2 -6 -2 -9c0 -11 34 -16 49 -16c9 0 17 1 23 3c76 -65 141 -183 141 -286zM318 673v32c0 14 -34 14 -44 14c-26 0 -52 -18 -72 -34c-3 0 -5 1 -7 1c-14 0 -19 -8 -19 -20c0 -27 32 -73 60 -73
c14 0 57 11 73 14c8 2 9 37 9 66zM731 370c-29 86 -139 162 -229 162c-43 0 -98 -22 -144 -29c-62 -63 -197 -12 -197 -83c0 -23 25 -63 45 -74c8 -4 17 -6 28 -6c66 0 182 72 245 72c114 0 165 -73 165 -180c0 -12 -22 -42 -30 -52l4 -34c10 -1 19 -8 19 -19
c8 -2 15 -3 22 -3c63 0 84 82 84 156c0 36 -5 69 -12 90zM552 220c0 15 -10 41 -23 49c-5 3 -60 24 -65 24c-20 0 -56 -15 -56 -33c0 -16 -70 -22 -85 -54l7 -12c7 2 13 2 20 2c0 -9 4 -16 14 -18c18 -3 80 -28 97 -28c8 0 17 7 26 9c41 10 65 9 65 61z" />
    <glyph glyph-name="T" unicode="T" horiz-adv-x="1130" 
d="M1126 805c1 -2 2 -6 2 -9c0 -38 -58 -137 -157 -137c-9 0 -18 1 -28 3l-12 -5c-21 16 -110 24 -159 24c-10 0 -19 0 -25 -1c-33 -23 -57 -272 -57 -425c0 -55 3 -98 10 -113c21 -46 48 -60 78 -60c22 0 95 17 95 35c0 41 -59 78 -59 111c0 6 2 12 6 18l52 -20
c29 -64 43 -106 43 -138c0 -43 -26 -68 -77 -105c-35 0 -106 -25 -158 -25c-25 0 -45 6 -55 22c-118 4 -204 24 -315 44c-4 1 -8 1 -12 1c-61 0 -127 -85 -185 -94c-12 31 -21 47 -21 70c0 12 3 26 9 45c20 5 38 18 38 41c24 22 143 37 157 70c-23 96 -48 168 -48 236
c0 73 29 142 119 233l-18 17c-22 -10 -164 -23 -188 -29l-65 -45c-24 -17 -51 -31 -74 -51c-14 13 -19 28 -19 42c0 70 130 148 179 173c71 124 292 57 397 94l20 -12c36 4 80 6 127 6c92 0 194 -7 268 -14c28 18 46 25 62 25c20 0 38 -11 70 -27zM661 536
c0 47 0 134 -64 134c-6 -5 -14 -8 -22 -9c0 -19 -5 -36 -5 -55c7 -11 9 -19 9 -31s-9 -22 -9 -32c0 -13 5 -26 5 -40l-13 -199c-11 -1 -15 -7 -15 -14c0 -10 7 -23 11 -30c-2 -17 -14 -117 -19 -128c9 -22 39 -46 61 -46c13 0 24 8 27 28c12 73 21 128 21 203
c0 31 -16 131 -16 162c0 25 29 42 29 57zM526 476c-2 6 -8 19 -9 19v-1c0 47 23 93 23 136c0 24 -8 48 -31 71c-50 -50 -125 -192 -125 -307c0 -41 9 -82 34 -118c22 -32 35 -35 68 -41l9 -2c1 8 4 15 5 22c16 17 9 181 26 221zM502 161c0 9 -9 28 -13 39l-28 6
c-20 -12 -41 -25 -60 -39c-14 -10 -15 -42 -15 -57c16 -5 31 -12 44 -23c21 0 42 16 57 29c-4 5 -5 9 -5 12s2 5 5 5s6 -1 8 -2c0 9 7 22 7 30z" />
    <glyph glyph-name="U" unicode="U" horiz-adv-x="986" 
d="M972 92c-81 -40 -105 -123 -150 -123c-24 0 -53 22 -98 84c-4 51 -15 70 -30 70c-45 0 -132 -169 -225 -169c-34 0 -73 25 -106 34l-14 -3c-78 34 -253 174 -253 277c0 47 27 99 42 145c38 115 45 138 133 220c-4 1 -10 2 -17 2c-31 0 -83 -10 -106 -11
c-31 -22 -93 -41 -114 -69l-4 -1c-8 -11 -12 -16 -16 -16c-8 0 -5 31 -11 45c3 10 6 24 6 36c0 4 0 8 -1 12c9 20 32 40 55 42l22 38c28 1 53 107 86 118c98 -41 103 -65 161 -65c20 0 47 3 85 9l26 -11c42 20 60 34 88 74h45v-160l31 -8c30 25 23 90 77 97
c2 27 14 39 36 57l105 -17c10 14 39 21 63 21c11 0 20 -2 27 -4c9 -19 12 -27 12 -39c0 -6 -1 -14 -3 -26l-28 -17c-15 -35 -22 -61 -22 -91c0 -17 3 -35 8 -57c-2 -5 -2 -10 -2 -14c0 -31 25 -64 25 -82v-3c-30 -119 -26 -213 -33 -338l22 -14c17 33 30 68 43 101l14 7
c22 -28 31 -57 31 -88c0 -20 -4 -41 -10 -63zM734 277c0 106 -101 54 -101 113c0 13 36 30 49 39c10 -1 20 -3 30 -5c3 8 9 16 15 22v195c-20 21 -39 30 -56 30c-57 0 -96 -97 -96 -157c0 -16 3 -29 9 -37c-2 -15 -11 -26 -24 -34c0 -30 6 -131 6 -201c0 -36 -1 -63 -6 -71
l62 -37c21 0 40 8 57 19c37 0 55 96 55 124zM525 677l-14 -7v29h-30c-29 -24 -49 -67 -49 -107c0 -12 2 -24 6 -35c-10 -22 -13 -53 -13 -85c0 -43 5 -88 5 -119l-9 -10c0 -22 -1 -47 -1 -72c0 -73 15 -111 50 -111c22 0 44 18 49 51c9 62 12 124 12 187c0 93 -6 187 -6 279
zM386 387l-9 10c0 58 12 115 12 174c0 25 -2 52 -9 78l-26 -19c-37 0 -56 -38 -73 -65c-41 -9 -41 -123 -41 -163c0 -12 0 -91 18 -93c4 -9 29 -78 45 -78h1c9 -15 22 -28 35 -40c6 13 20 16 33 16c0 3 -1 7 -1 12c0 15 2 38 11 44c0 41 4 83 4 124z" />
    <glyph glyph-name="V" unicode="V" horiz-adv-x="1010" 
d="M1007 544c-10 -49 -61 -91 -61 -141c0 -14 4 -29 14 -45c-2 -9 -3 -18 -3 -27c0 -36 12 -72 12 -106c0 -18 -3 -36 -13 -52c-55 -72 -80 -156 -152 -215c-22 -18 -25 -72 -59 -72c-5 0 -10 1 -17 4c-47 66 -118 89 -213 120l-27 9c-86 0 -162 -36 -228 -91
c-52 -3 -98 -31 -151 -31c-17 0 -34 3 -52 10c-32 28 -54 66 -54 107c0 13 2 27 8 41c7 50 44 83 80 115l8 7c9 0 21 0 30 -8c0 -45 -59 -47 -59 -88c0 -6 -2 -14 -2 -19c0 -37 47 -56 73 -75c14 -11 30 -14 45 -14c41 0 83 30 120 48c21 22 27 47 27 74
c0 47 -19 101 -19 150c-8 46 -8 92 -38 126c-88 10 -193 93 -193 179c0 76 58 136 113 184c76 17 152 25 228 42c7 9 10 17 10 25c0 30 -48 50 -48 82c0 3 3 4 6 4c20 0 28 -19 45 -19c1 0 3 1 4 1c17 -25 55 -13 63 -46l-2 -14c-8 -48 -20 -114 -89 -114
c-30 0 -61 15 -90 15c-40 0 -84 -51 -89 -90c4 -42 13 -88 47 -122c26 -9 54 -24 82 -24c12 0 24 3 36 11c45 19 71 63 94 102l7 12c17 -17 13 -59 47 -63c80 21 143 88 151 173c-4 12 -5 25 -5 38c0 18 2 36 2 54c0 15 -1 31 -5 47l30 38c5 -1 6 -4 6 -8
c0 -5 -3 -12 -3 -19c0 -4 1 -8 5 -11c38 -114 127 -215 236 -279c17 -4 38 -4 43 -25zM817 287c4 10 6 21 6 31c0 42 -30 79 -44 116c-9 38 -43 68 -59 93c-11 4 -23 6 -34 6c-17 0 -32 -5 -42 -23c0 -7 1 -13 1 -19c0 -27 -4 -52 -4 -77c0 -11 0 -23 3 -34
c-7 -21 -10 -43 -10 -67c0 -36 6 -74 6 -110c0 -8 -1 -15 -1 -22c13 -42 68 -38 85 -76c19 -9 38 -41 59 -41c35 0 54 74 54 117c0 37 -8 75 -20 106zM568 173c3 12 4 24 4 36c0 30 -6 61 -6 93c0 10 0 21 2 31c-1 7 -1 13 -1 21c0 16 1 34 1 52c0 37 -5 72 -38 88
c-47 -5 -55 -35 -55 -70c0 -20 3 -43 3 -63c0 -15 -2 -29 -7 -40c6 -17 7 -38 7 -59v-23c0 -35 3 -69 31 -87c21 8 46 -5 59 21z" />
    <glyph glyph-name="W" unicode="W" horiz-adv-x="1219" 
d="M1216 498c-10 -44 -55 -80 -55 -124c0 -13 3 -25 12 -39c-2 -9 -3 -18 -3 -28c0 -29 8 -59 8 -87c0 -17 -3 -33 -12 -48c-49 -62 -73 -135 -137 -186c-16 -13 -15 -26 -30 -26c-6 0 -14 2 -27 8c-15 21 -53 37 -78 116c-8 9 -26 18 -33 28c-52 -70 -53 -101 -122 -158
c-22 -18 -25 -72 -59 -72c-5 0 -10 1 -17 4c-51 72 -131 93 -203 127c-13 2 -27 2 -39 2c-85 0 -160 -36 -226 -91c-41 -3 -55 -11 -77 -11c-14 0 -31 3 -61 15c-32 28 -54 67 -54 107c0 14 3 27 8 41c8 52 46 85 83 117l5 5c9 0 21 0 30 -8c0 -45 -59 -46 -59 -89
c0 -7 -2 -12 -2 -18c0 -37 47 -56 74 -74c22 -15 33 -21 43 -21c15 0 25 14 56 29c21 23 27 48 27 74c0 48 -19 100 -19 150c-8 46 -8 93 -38 127c-90 9 -194 93 -194 180c0 73 54 127 109 174c76 17 163 9 239 26c7 9 10 17 10 24c0 30 -48 50 -48 83c0 3 2 4 5 4
c19 0 29 -19 45 -19c2 0 3 0 5 1c17 -26 55 -13 63 -47l-2 -13c-8 -45 -19 -112 -81 -112c-38 0 -78 33 -115 33c-33 0 -74 -52 -78 -85c4 -43 13 -89 47 -123c26 -9 54 -24 82 -24c12 0 24 3 36 11c46 20 72 64 95 103l6 11c17 -16 13 -59 47 -63c80 21 143 89 151 173
c-4 12 -5 25 -5 38c0 18 2 36 2 55c0 15 -1 30 -5 46l30 38c5 -1 6 -4 6 -8c0 -5 -3 -12 -3 -19c0 -4 1 -8 5 -11c38 -113 127 -215 236 -278c25 24 46 53 49 81c-1 3 -2 7 -2 11c0 30 30 63 30 99c0 4 0 9 -1 13l26 33c13 -13 17 -19 17 -23c0 -6 -12 -4 -12 -8
c0 -1 1 -2 2 -3c32 -100 71 -193 166 -250c15 -4 39 -3 42 -21zM1013 263c4 10 5 19 5 28c0 36 -25 69 -36 102c-7 34 -36 60 -51 83c-5 2 -11 3 -17 4l-6 -10c-14 -23 -27 -45 -27 -71c0 -14 4 -28 14 -44c-2 -9 -3 -18 -3 -27c0 -36 12 -72 12 -107c0 -14 -2 -29 -8 -42
c5 -15 17 -10 21 -25c7 -9 16 -38 20 -49c17 -9 28 -37 44 -37c31 0 48 68 48 105c0 32 -6 64 -16 90zM752 283c4 10 6 21 6 31c0 42 -30 79 -44 117c-9 38 -43 67 -59 93c-11 3 -22 6 -34 6c-16 0 -32 -6 -42 -23c0 -7 1 -13 1 -20c0 -27 -4 -52 -4 -77c0 -11 0 -23 3 -34
c-7 -21 -10 -43 -10 -67c0 -36 6 -74 6 -109c0 -8 -1 -15 -1 -22c13 -43 68 -38 85 -76c19 -10 38 -41 59 -41c36 0 54 73 54 116c0 37 -8 75 -20 106zM503 169c3 12 4 24 4 36c0 31 -6 62 -6 94c0 10 0 21 2 31c-1 6 -1 13 -1 20c0 17 1 35 1 52c0 38 -5 73 -38 88
c-47 -5 -55 -34 -55 -69c0 -21 3 -43 3 -63c0 -15 -2 -29 -7 -41c5 -15 6 -32 6 -50v-27c0 -37 3 -72 32 -92c21 9 46 -4 59 21z" />
    <glyph glyph-name="X" unicode="X" horiz-adv-x="720" 
d="M718 747l-79 -72c-42 2 -74 40 -112 40l-25 20c-25 -16 -49 -49 -75 -58l-18 -36c2 -6 2 -11 2 -17c0 -22 -11 -46 -11 -67c43 -40 46 -65 83 -65c16 0 40 5 77 16c9 -2 22 -4 34 -4c16 0 31 3 41 11h45l7 -25l1 3c0 -28 -42 -33 -65 -36c-2 0 -3 -1 -5 -1l-12 14
c-31 -15 -66 -21 -100 -26c-17 11 -32 15 -45 15c-31 0 -49 -26 -49 -56c0 -39 31 -84 103 -84h-1l43 1c25 0 50 -4 73 -9l6 9h32l13 -12l-1 -35c-29 0 -91 9 -147 9c-61 0 -116 -11 -116 -55c0 -77 64 -75 109 -120l10 12c63 8 76 58 115 58c10 0 20 -3 33 -9l6 -46
c-28 -9 -18 -34 -44 -34c-5 0 -11 1 -19 3c-19 -11 -89 -97 -110 -121c-13 -3 -23 -4 -33 -4c-28 0 -48 11 -76 33l-6 -1l-39 31l1 8c-21 16 -47 25 -70 40c-105 -1 -103 -177 -212 -177c-8 0 -17 1 -26 3c-1 5 -2 10 -2 15c0 49 53 91 94 104l8 32c23 9 30 12 44 32l9 -8
c32 37 70 177 72 178c-14 20 -38 27 -65 27c-47 0 -103 -21 -133 -32l-27 10l-9 -4l-16 24l3 6l-5 15c5 13 33 18 67 18c49 0 108 -10 124 -15l-2 -1c37 0 16 65 39 84c-2 54 -27 69 -59 69c-36 0 -81 -17 -114 -17l-12 13l-12 -13c-43 0 -57 14 -57 30c0 23 27 50 43 50
c12 0 24 -2 35 -2c7 0 14 0 21 2c23 -17 66 -36 102 -36c29 0 53 12 60 45l-6 10c5 19 15 49 15 76c0 15 -3 28 -12 38c-25 0 -55 28 -65 50c-18 2 -36 4 -54 4c-5 0 -80 -55 -96 -55c-15 0 -33 11 -33 26c0 1 1 3 1 4l7 32c30 30 107 67 148 73l6 20l34 12l25 -8l14 4
l45 -32l12 2l106 -74l91 86c0 30 23 59 52 59c31 0 50 -29 85 -29h-1z" />
    <glyph glyph-name="Y" unicode="Y" horiz-adv-x="919" 
d="M861 -68c20 -8 28 -22 28 -39c0 -39 -41 -91 -53 -98c-11 -6 -32 -8 -45 -8c-10 0 -17 1 -17 1c3 -1 18 25 18 25c0 -3 -32 88 -71 88c-34 0 -76 -87 -149 -117c-27 -11 -98 -20 -178 -20c-155 0 -312 29 -312 124c0 87 145 131 230 131c96 0 217 -26 217 -26
s47 18 58 29l6 6c-47 34 -105 50 -159 73c-9 1 -19 1 -28 1c-85 0 -179 -37 -208 -37c-6 0 -9 2 -9 5c0 6 8 17 26 35c14 14 18 36 18 62c0 40 -10 88 -10 130s-9 98 -38 128c-127 12 -183 60 -183 121c0 51 40 110 109 165c76 15 152 23 228 38c7 8 10 15 10 22
c0 28 -48 46 -48 75c0 4 3 5 5 5c19 0 28 -18 45 -18c2 0 3 1 5 1c16 -23 54 -11 63 -42c-10 -44 -15 -116 -91 -116c-30 0 -61 13 -90 13c-55 0 -91 -69 -91 -85c0 -17 12 -35 43 -63c26 -8 54 -22 82 -22c12 0 24 3 36 10c51 19 76 66 101 104c17 -15 13 -54 47 -58
c80 20 143 81 152 158c-4 12 -5 25 -5 38c0 15 1 31 1 47c0 14 -1 28 -5 43l30 34c5 -1 6 -4 6 -7c0 -5 -3 -11 -3 -17c0 -4 1 -7 5 -10c38 -104 127 -197 236 -255c17 -4 38 -4 43 -23c-10 -45 -61 -83 -61 -129c0 -13 4 -26 14 -40c-2 -8 -2 -16 -2 -23
c0 -34 11 -68 11 -99c0 -17 -3 -33 -13 -48c-53 -63 -79 -137 -145 -191c-8 -13 -18 -27 -29 -40c-10 -17 -18 -31 -38 -31c-35 -23 -100 -30 -165 -30c-60 0 -118 5 -141 5c-17 0 -46 -12 -46 -38c0 -18 11 -40 96 -40c88 0 240 17 312 67c7 5 21 8 40 8
c29 0 70 -7 112 -22zM726 348c4 10 6 19 6 28c0 38 -30 73 -44 107c-9 35 -43 62 -59 85c-11 3 -22 5 -34 5c-16 0 -32 -5 -42 -21c0 -6 1 -12 1 -18c0 -24 -4 -47 -4 -70c0 -11 0 -21 3 -31c-7 -19 -10 -40 -10 -61c0 -33 6 -68 6 -100c0 -7 -1 -14 -1 -20
c13 -39 68 -35 85 -70c19 -8 38 -37 59 -37c36 0 54 67 54 106c0 34 -8 69 -20 97zM477 244c3 11 4 22 4 33c0 27 -6 56 -6 85c0 9 0 19 2 28c-1 6 -1 12 -1 19c0 15 1 32 1 48c0 34 -5 66 -38 80c-47 -4 -55 -31 -55 -63c0 -19 3 -39 3 -58c0 -14 -2 -27 -7 -37
c6 -16 7 -34 7 -53v-21c0 -32 3 -63 31 -80c21 7 46 -4 59 19z" />
    <glyph glyph-name="Z" unicode="Z" horiz-adv-x="556" 
d="M553 765v-8c0 -57 -20 -140 -59 -181c-1 -21 -160 -80 -160 -101c-10 -14 -14 -26 -14 -35c0 -65 222 -15 222 -70c0 -52 -18 -268 -22 -320c5 -6 10 -14 13 -22v3l-1 -47c-102 -48 -204 -101 -299 -161c-60 0 -94 71 -132 71c-13 0 -26 -7 -26 -21c0 -30 44 -79 44 -79
c-93 18 -87 83 -96 98c0 32 27 61 48 82c37 38 65 51 93 51c46 0 88 -38 157 -69c62 40 89 127 89 212c0 102 -39 201 -107 211c-48 13 -119 19 -119 68c103 50 107 160 228 182c-14 14 -33 32 -53 32c-80 -34 -133 -169 -153 -169c-4 0 -7 7 -7 17c0 35 40 91 63 150
c1 2 1 3 1 5c0 7 -9 9 -22 9s-29 -2 -46 -2c-16 0 -31 2 -41 9c-27 -3 -36 -9 -52 -30l-27 -8c-6 -15 -36 -30 -50 -34l-19 16l-3 14c20 36 106 129 158 129c4 0 8 -1 12 -2c5 32 22 43 42 43c33 0 76 -29 98 -44c4 1 9 1 14 1c39 0 97 -21 128 -34c45 13 41 30 98 34z" />
    <glyph glyph-name="grave" unicode="`" horiz-adv-x="173" 
d="M171 481c-43 4 -55 28 -79 59c-5 6 -13 7 -19 11c-10 8 -18 24 -27 30l-21 12l-8 21l-16 12l4 21l29 -4l16 8l34 -4c11 -20 24 -39 37 -58v-21c28 -21 47 -52 50 -87z" />
    <glyph glyph-name="a" unicode="a" horiz-adv-x="459" 
d="M457 132c0 -10 -8 -14 -15 -19c-53 -14 -89 -67 -115 -106c-31 12 -26 51 -50 72c-39 -16 -71 -70 -118 -91c-12 3 -17 22 -29 22c-28 33 -67 60 -105 84c-3 12 -4 25 -4 38c0 38 9 78 9 118c12 43 55 57 86 84c1 3 2 6 2 9c0 22 -32 38 -40 56c-22 33 -51 64 -75 95
c0 5 0 12 6 12c23 0 43 -18 68 -18c6 0 13 1 20 4c38 7 84 5 103 46c14 9 19 33 36 40l2 -14c-1 -2 -2 -5 -2 -7c0 -7 5 -14 7 -22c36 -21 79 -36 113 -55c33 0 45 43 84 43c0 -36 -41 -57 -41 -96l-10 -14c-4 -49 -10 -99 -10 -148c0 -31 2 -61 8 -90c0 -7 -3 -18 -3 -28
c0 -9 3 -18 13 -20c19 3 40 5 60 5zM195 499c-2 5 -4 7 -6 7c-6 0 -13 -11 -13 -16c7 0 14 2 19 9zM272 307c3 11 4 20 4 30c0 9 -1 18 -4 28c4 7 6 14 6 20c0 27 -39 41 -54 61c-25 7 -48 31 -63 31c-16 0 -47 -18 -47 -29c0 -9 5 -19 7 -28c43 -48 79 -96 144 -115z
M277 190c-2 5 -2 11 -2 17c0 13 3 26 3 39c0 9 -2 17 -6 25c-36 8 -63 41 -101 41c-23 0 -27 -57 -27 -88c0 -32 4 -65 6 -97c8 -15 37 -37 53 -37s33 9 48 17c1 0 1 1 2 1c20 6 24 23 24 41c0 9 -1 19 -1 27c0 5 0 10 1 14z" />
    <glyph glyph-name="b" unicode="b" horiz-adv-x="442" 
d="M425 281c-6 -74 -40 -139 -101 -183c-71 -23 -122 -111 -207 -111c-17 47 -67 81 -84 128c-10 9 -13 19 -13 29c0 17 8 35 8 52c0 7 -1 14 -5 21c8 79 12 157 12 235s-4 155 -12 235v8c0 60 -58 97 -65 155c5 7 11 27 20 27c3 0 7 -2 11 -7c6 -30 23 -65 54 -81
c47 -25 61 -100 116 -100c8 0 16 2 26 5c10 -5 13 -12 13 -21c0 -15 -10 -35 -10 -50c-33 -51 -30 -112 -40 -173c3 -1 5 -1 8 -1c27 0 52 26 80 39c17 24 39 106 62 106c8 0 13 -9 16 -15c-5 -10 -7 -18 -7 -26c0 -45 75 -55 85 -99c26 -17 32 -43 32 -72
c0 -21 -3 -44 -3 -65c0 -13 1 -25 4 -36zM300 335c-20 27 -37 75 -78 85c-30 -7 -50 -31 -71 -51c-1 -38 -6 -77 -6 -116c0 -58 10 -113 57 -155c4 -3 8 -5 12 -5c10 0 22 9 32 9c46 39 59 98 59 160c0 25 -2 49 -5 73z" />
    <glyph glyph-name="c" unicode="c" horiz-adv-x="348" 
d="M352 492c-15 -31 -42 -51 -44 -87c2 -7 4 -14 4 -20c0 -13 -13 -16 -27 -16c-3 0 -6 0 -10 2c-7 12 -62 32 -89 32c-14 0 -14 -25 -14 -38c0 -18 3 -38 6 -56c2 -3 3 -6 3 -8c0 -9 -8 -15 -8 -23c-9 -44 -10 -90 -14 -134c6 -31 2 -69 33 -85c31 5 57 19 83 33l6 3l23 23
c5 -4 7 -10 7 -17s-2 -14 -4 -19c-61 -25 -101 -77 -159 -113c-41 10 -66 49 -105 62c-4 4 -5 7 -5 11c0 10 13 21 17 33c0 41 1 83 1 125c0 31 -1 61 -6 91c3 11 4 22 4 33c0 41 -16 83 -19 124c5 23 33 13 46 31c27 28 63 46 93 72c22 0 24 -21 32 -33
c12 -18 70 -32 99 -32c14 0 17 7 28 7c6 0 12 -1 19 -1z" />
    <glyph glyph-name="d" unicode="d" horiz-adv-x="415" 
d="M411 307c-9 -21 -11 -45 -11 -68s2 -46 2 -69s-2 -45 -10 -65c-52 -11 -84 -59 -127 -91c-5 -4 -6 -9 -6 -14c0 -3 1 -6 1 -9c0 -8 -2 -14 -14 -15c-9 -5 -20 -16 -32 -16c-28 0 -43 59 -79 59c-3 0 -6 -1 -9 -1c-9 0 -5 17 -10 21c-2 -1 -4 -1 -6 -1
c-14 0 -24 16 -35 16c-3 0 -6 -2 -9 -5c-7 13 -35 8 -35 22c0 4 2 9 7 16c23 13 29 33 29 56c0 30 -10 64 -10 90c0 18 4 39 4 59c0 21 -5 40 -23 50c-2 3 -2 6 -2 10s1 9 1 14c0 6 -2 11 -8 14l-9 -11c-11 4 -17 20 -17 25c0 15 14 17 23 24c10 -4 19 -6 27 -6
c44 0 77 45 116 65c3 15 44 27 44 42c-39 66 -107 74 -107 74c-9 0 -21 -3 -31 -3c-6 0 -10 2 -12 5c0 27 -41 33 -41 51c0 4 3 9 10 15c66 0 84 40 140 40c5 0 11 0 18 -1c72 -38 84 -167 178 -181c21 -59 44 -122 44 -189c0 -8 -1 -15 -1 -23zM287 432l-13 21
c-7 4 -15 6 -22 6c-26 0 -52 -25 -71 -41c-9 -31 -9 -38 -9 -38c-1 0 -4 3 -13 3l-6 -21c8 -25 10 -53 10 -81c0 -44 -6 -90 -6 -131c0 -40 30 -60 52 -91c6 -3 12 -4 18 -4c18 0 36 9 47 25c9 26 12 59 12 92c0 29 -2 60 -2 87c0 36 5 82 5 126c0 16 0 32 -2 47z" />
    <glyph glyph-name="e" unicode="e" horiz-adv-x="391" 
d="M390 428c-7 -36 -68 -19 -80 -55c-27 -25 -50 -56 -91 -71c-7 -24 -43 -23 -44 -47c-7 -18 -10 -36 -10 -55c0 -23 9 -43 9 -66c0 -18 -3 -37 -3 -53c0 -11 21 -14 28 -14c25 0 49 20 71 30l26 18c4 -2 5 -5 5 -8c0 -4 -2 -8 -4 -11c-36 -47 -88 -67 -130 -99
c-19 -2 -25 -19 -40 -19c-3 0 -6 0 -9 2c-16 47 -69 73 -115 100c0 26 26 21 34 42c8 22 16 45 16 69c0 14 -3 29 -10 45c3 13 5 26 5 39c0 40 -12 79 -12 118c0 12 1 24 4 36c-3 6 -4 11 -4 15c0 22 28 28 46 37l14 2c26 20 44 49 74 67c33 -1 42 -29 65 -47
c6 -7 17 -5 25 -11c30 -35 77 -34 108 -60c1 -1 3 -2 4 -2c3 0 6 1 9 1s6 0 9 -3zM254 395c-9 5 -12 10 -20 13l-6 13c-19 12 -38 35 -63 35c-5 0 -10 -1 -16 -3c0 -4 1 -7 1 -11c0 -14 -3 -28 -3 -41c0 -14 9 -27 9 -41c0 -6 -1 -13 -1 -19c0 -15 3 -29 17 -35
c14 9 27 24 35 35c12 18 42 30 47 54z" />
    <glyph glyph-name="f" unicode="f" horiz-adv-x="315" 
d="M401 697c-14 -43 -64 -67 -85 -99c-29 10 -53 25 -82 28c-6 5 -11 7 -16 7c-15 0 -25 -22 -33 -35c-3 -25 -21 -48 -21 -72c0 -7 2 -14 6 -21c-4 -4 -7 -12 -7 -19c0 -17 21 -19 33 -19c26 0 53 13 80 13c12 0 14 -8 14 -15c0 -14 -10 -30 -10 -45c-7 -20 3 -64 -32 -64
c-14 0 -33 4 -49 4c-13 0 -24 -3 -29 -14c-11 -36 -14 -72 -14 -108c0 -83 19 -167 19 -251v-3c0 -19 0 -48 -14 -48c-11 0 -21 23 -33 23c-32 17 -68 32 -103 42c0 18 10 32 18 50c3 22 4 43 4 64c0 60 -9 117 -9 178c0 23 2 46 5 70c-10 16 -41 0 -41 22c0 8 9 15 9 29
c0 17 -8 40 -8 55c0 9 3 16 13 16c6 0 15 -3 27 -8c20 13 24 35 24 59c0 15 -2 30 -2 45c0 45 23 28 45 42c60 38 124 86 163 149c5 4 11 6 15 6c21 0 35 -30 53 -38c1 0 1 -1 2 -1c25 -7 55 -15 58 -42z" />
    <glyph glyph-name="g" unicode="g" horiz-adv-x="436" 
d="M434 577c-32 -61 -84 -104 -110 -172c-4 -24 -5 -46 -5 -68c0 -27 2 -53 2 -79c0 -23 -1 -47 -6 -72c17 -57 55 -75 87 -114c7 0 18 0 18 -17c0 -11 -11 -20 -21 -26c-58 -29 -102 -76 -154 -122c-14 -18 -11 -50 -35 -54c-14 18 -26 47 -52 47c-12 14 -24 18 -36 18
c-23 0 -45 -11 -65 -11c-15 -11 -35 -22 -50 -22c-2 2 -4 7 -4 12c0 3 1 7 4 10c41 21 44 86 84 114c-4 46 -72 35 -72 74c0 7 3 16 8 27c4 20 5 41 5 63c0 50 -7 101 -7 150c0 19 4 38 4 56c0 8 -1 15 -1 21c0 13 2 26 14 32c46 23 92 21 134 65c24 24 49 59 49 104
c0 5 0 9 7 9c12 0 13 -19 13 -28c0 -6 -1 -12 -1 -18c0 -13 2 -25 16 -32c29 -7 58 -14 87 -25c32 4 52 54 87 58zM228 165c-15 75 -9 165 -15 240c-8 28 -32 14 -49 21c-15 -10 -29 -25 -32 -43c0 -31 -2 -62 -2 -95c0 -26 7 -54 7 -80c0 -17 -2 -34 -2 -50
c0 -19 4 -55 26 -55c9 0 19 5 29 8c12 23 38 16 38 54zM297 14c-29 25 -43 75 -84 86c-23 -21 -46 -43 -64 -68c35 -18 67 -43 105 -54c14 11 41 8 43 36z" />
    <glyph glyph-name="h" unicode="h" horiz-adv-x="495" 
d="M459 251c-17 -42 7 -106 -31 -132c-49 -72 -123 -122 -158 -205c-10 -38 -40 -70 -40 -112s62 -33 82 -36c3 -4 7 -11 7 -19c-32 0 -61 -16 -92 -16c-63 0 -50 56 -80 92c-3 13 -4 27 -4 42c0 36 9 74 29 98c24 23 52 31 84 31c38 18 32 60 45 94c15 40 19 79 19 120
c0 61 -10 122 -10 187c0 15 1 30 2 45c-4 9 -11 11 -19 11c-47 0 -93 -66 -107 -105c2 -13 3 -26 3 -39c0 -50 -13 -103 -13 -151c0 -37 7 -72 34 -102c-7 -38 -38 -53 -66 -72c-44 0 -71 27 -98 72c5 8 7 16 7 25c0 18 -8 37 -8 57c0 4 0 8 1 13c-2 21 -3 42 -3 64
c0 77 9 157 9 235c0 63 -6 125 -27 182c-2 25 -39 51 -39 77c0 8 4 16 15 25l14 -4c28 -24 49 -79 82 -79c8 0 16 4 26 11c28 30 56 46 80 72c7 -4 18 0 21 -11c0 -27 -16 -49 -17 -76c-10 -41 -18 -87 -18 -134c0 -14 1 -68 12 -68c23 0 45 25 65 39c25 23 63 42 84 76
c36 0 46 -46 78 -68c25 -13 30 -30 30 -53c0 -8 -1 -18 -2 -29z" />
    <glyph glyph-name="i" unicode="i" horiz-adv-x="307" 
d="M305 623c-17 -31 -55 -52 -88 -69l-95 -17c-2 2 -3 4 -3 7c0 5 4 10 6 15c26 23 33 68 68 85c8 6 17 10 26 10c4 0 8 -1 12 -3l7 -3c23 -8 45 -15 67 -25zM285 124c0 -11 -2 -19 -12 -24h-14c-17 -26 -43 -47 -55 -76c-25 -2 -11 -37 -33 -37c-2 0 -5 1 -9 2
c0 29 -28 32 -43 47c-20 3 -51 17 -51 33c0 14 17 26 17 42c0 3 0 7 -2 11c9 38 13 79 13 120c0 42 -4 86 -8 128c-1 15 3 29 -14 36c-18 -2 -39 -15 -57 -15c-5 0 -11 1 -16 5v12c61 17 99 69 149 109c57 -12 61 -78 109 -102c3 -6 7 -10 7 -17s-8 -8 -13 -8
c-12 0 -25 7 -34 7s-12 -5 -12 -24c-10 -86 -8 -159 -24 -242c2 -14 9 -31 24 -38c23 5 49 14 66 31h12z" />
    <glyph glyph-name="j" unicode="j" horiz-adv-x="288" 
d="M352 622c0 -25 -20 -11 -34 -19c-31 -12 -60 -29 -92 -38c-14 -12 -33 -15 -50 -17c12 45 56 70 74 108c34 -7 82 0 102 -34zM259 403c0 -29 -38 -9 -38 -41c-4 -23 -5 -44 -5 -66v-37c0 -22 -1 -45 -5 -68c-4 -19 -11 -39 -11 -60c0 -16 3 -32 14 -46
c12 -16 24 -9 24 -19c0 -3 -1 -7 -3 -14c-29 -10 -51 -101 -75 -113c-35 -44 -124 -139 -156 -139c-2 0 -3 4 -3 6c0 30 105 112 107 268c-7 65 -4 209 -12 276c-15 13 -45 18 -45 42c0 3 1 7 2 11l4 3c40 31 79 61 100 108c3 4 6 6 8 6c7 0 20 -15 22 -20l28 -51
c0 -3 0 -7 -1 -10c12 -16 41 -12 45 -36z" />
    <glyph glyph-name="k" unicode="k" horiz-adv-x="494" 
d="M487 11c-46 -20 -89 -35 -97 -64l-29 -25c-13 10 -11 36 -17 50c-17 39 -40 40 -70 70c-9 6 -23 9 -36 9c-10 0 -20 -2 -27 -6c-2 -10 -14 -15 -25 -15c-4 0 -8 0 -11 2c18 67 120 82 120 159c0 6 -1 13 -2 21c0 4 -1 7 -1 10c-1 13 -4 34 -55 46c-12 0 -25 -5 -37 -5
c-6 0 -12 1 -17 5c-3 -64 -7 -128 -26 -186c0 -1 -1 -2 -1 -4c0 -12 20 -18 20 -29c0 -1 -51 -47 -77 -47c-33 0 -77 34 -97 60c62 44 78 114 78 186c0 63 -12 126 -15 177c-20 20 -42 47 -42 75c0 17 8 19 20 19c7 0 15 -1 21 -1c9 0 17 3 17 19c0 20 -5 45 -5 67
s6 40 29 48c26 4 46 27 69 43c13 26 26 53 33 82c6 4 12 5 17 5c18 0 30 -20 45 -31c37 -26 83 -30 126 -46c4 -2 6 -8 6 -13c0 -4 -1 -7 -3 -10c-46 -17 -96 -30 -129 -73c-1 -1 -2 -1 -3 -1c-4 0 -8 2 -10 5c0 26 -26 43 -36 62c-7 7 -15 13 -23 13c-19 0 -22 -40 -22 -57
c0 -37 9 -78 9 -117c13 -13 3 -42 16 -52c34 32 113 67 165 67c29 0 50 -11 50 -40c0 -14 -8 -39 -15 -53s-78 -72 -78 -91c0 -4 2 -5 6 -5c16 0 59 30 88 30c13 0 23 -6 27 -23c-1 -137 -94 -195 -124 -224c17 -27 60 -13 86 -36c30 -14 46 -43 82 -43c4 -4 5 -8 5 -11
c0 -8 -5 -14 -5 -22zM313 389c-6 26 -24 35 -45 35c-34 0 -74 -23 -78 -35c-3 -34 -5 -69 -6 -105l13 9c41 27 84 55 116 96z" />
    <glyph glyph-name="l" unicode="l" horiz-adv-x="251" 
d="M250 133c0 -15 -20 -23 -23 -37c-24 -37 -64 -57 -77 -100c-8 -3 -16 -4 -23 -4c-45 0 -64 58 -107 67c-4 5 -6 10 -6 15c0 16 16 34 16 52c0 33 17 61 17 95c0 11 -2 22 -7 35c3 24 3 50 3 76v26c0 41 1 81 10 119c-17 63 -8 130 -20 190c-8 37 7 87 -30 114
c3 10 7 20 17 23c36 -10 73 -40 87 -77c6 -3 11 -4 17 -4c26 0 51 28 76 28c10 0 20 -5 30 -17c-3 -27 -36 -20 -40 -43c-26 -134 -17 -248 -30 -385c2 -11 3 -22 3 -32c0 -21 -4 -41 -6 -64c16 -37 63 -54 93 -77z" />
    <glyph glyph-name="m" unicode="m" horiz-adv-x="721" 
d="M742 495c0 -2 1 -4 1 -6c0 -18 -26 -30 -26 -49c0 -3 1 -6 2 -9c-20 -32 -56 -60 -73 -96c-5 -18 -6 -37 -6 -58c0 -49 10 -104 10 -153c0 -17 -2 -34 -5 -50c12 -24 50 -21 50 -53c0 -12 -16 -15 -21 -15c-15 0 -32 15 -50 15c-27 0 -55 5 -82 5c-26 0 -51 -4 -73 -16
l-39 4v11c23 35 83 28 86 78c16 32 3 81 20 117c-7 57 -9 122 -29 179c-18 14 -33 16 -50 16h-17c-50 -92 -33 -220 -50 -330c-3 -5 -4 -12 -4 -19c0 -8 1 -16 1 -22c0 -9 -1 -16 -8 -16c-12 0 -24 2 -35 2c-43 0 -80 -11 -120 -16c0 14 14 14 23 21c1 0 3 -1 4 -1
c13 0 30 17 30 28c0 23 -13 43 -13 65c0 9 2 19 9 29c-4 21 -5 42 -5 64c0 41 5 82 5 122c0 28 -3 56 -10 84c-10 10 -23 10 -29 10c-30 -10 -57 -28 -67 -60c0 -52 -11 -97 -11 -147c0 -14 2 -29 5 -45c-5 -18 -7 -37 -7 -57c0 -33 5 -68 10 -99c-10 -8 -21 -10 -33 -10
c-26 0 -56 12 -80 12c-22 0 -39 -10 -43 -52c0 -24 19 -44 41 -44c11 0 22 4 29 9c6 -3 8 -8 8 -13c0 -6 -3 -14 -3 -21c0 -2 1 -4 1 -5c-15 -7 -32 -11 -49 -11c-9 0 -19 1 -27 4c-9 25 -44 34 -44 65c0 3 0 6 1 9l10 46c40 36 73 86 73 146c-7 24 -13 50 -13 77
c0 21 4 42 13 61c-17 68 7 150 -33 206c36 43 112 -3 149 57c3 7 13 14 23 18c3 -3 4 -6 4 -10c0 -25 -33 -42 -33 -72c0 -5 16 -50 32 -50c3 0 6 1 10 4l4 5c19 24 41 52 73 55c33 25 59 68 96 78l3 -7c-13 -26 -22 -58 -22 -90c0 -23 8 -79 30 -79c3 0 6 2 9 6
c16 57 67 54 110 83c20 14 39 32 60 32c33 -21 39 -67 69 -92c3 -1 7 -1 10 -1c28 0 51 25 70 47c3 4 8 5 13 5s10 -1 13 -1z" />
    <glyph glyph-name="n" unicode="n" horiz-adv-x="495" 
d="M476 416c-3 -41 -16 -77 -16 -116c0 -11 1 -22 4 -34c-3 -14 -4 -27 -4 -41c0 -38 9 -77 9 -115c0 -18 -2 -35 -8 -53c-30 -26 -79 -33 -94 -78c-22 -30 -63 -37 -82 -67c-26 0 -37 -19 -60 -19c-9 11 -35 21 -35 35c0 27 83 18 91 62c45 41 38 112 41 168l8 23l-19 168
c-3 24 -40 37 -45 37c-28 0 -53 -17 -67 -37c0 -17 1 -33 1 -50c0 -90 -8 -176 -8 -264c-26 -22 -49 -41 -79 -49c-30 15 -59 34 -82 53c30 55 56 112 56 179c0 14 -1 29 -4 45c5 10 7 21 7 31c0 22 -8 44 -8 67c0 4 0 9 1 14c-5 5 -11 14 -19 14c-2 0 -5 -1 -7 -3
c-26 -18 -18 -60 -45 -71c-7 11 -10 22 -10 33c0 31 25 59 33 90c40 37 67 94 131 94c22 -33 39 -90 82 -90c62 0 72 69 104 97c38 -4 41 -48 64 -75c15 -22 48 -29 60 -48z" />
    <glyph glyph-name="o" unicode="o" horiz-adv-x="379" 
d="M364 209c-2 -31 -5 -54 -8 -85c-69 -28 -117 -87 -166 -141c-44 17 -79 79 -136 79c-20 0 -34 -18 -46 -18c-1 0 -3 0 -5 1c19 47 24 96 24 145c0 57 -7 115 -7 174c0 20 1 40 3 60c-4 5 -6 13 -6 21c0 6 1 13 4 18c36 7 69 30 107 30c36 18 70 36 90 72
c15 -10 26 -28 46 -36c26 -33 72 -33 95 -69c3 -24 3 -47 3 -71c0 -38 -2 -76 -2 -113c0 -23 1 -45 4 -67zM248 106l-10 57c6 40 8 79 8 118c0 44 -2 88 -5 133l-8 15l-23 8c-22 0 -22 25 -41 25c-39 0 -40 -119 -40 -152c0 -61 10 -120 10 -178c31 -8 38 -33 64 -49
c4 -4 8 -5 12 -5c14 0 19 22 33 28z" />
    <glyph glyph-name="p" unicode="p" horiz-adv-x="524" 
d="M522 460c0 -2 1 -3 1 -4c0 -10 -15 -12 -21 -19c-5 1 -10 2 -14 2c-27 0 -24 -37 -28 -59c0 -55 -10 -192 -10 -244c0 -9 0 -16 1 -19c-37 -35 -72 -75 -97 -115c-18 0 -13 25 -22 38c-20 27 -86 65 -111 83c2 12 17 15 36 15c9 0 19 -1 29 -1c30 0 59 4 59 39
c10 17 5 42 10 59c-1 8 -1 16 -1 24c0 27 2 55 2 83c0 47 -6 93 -38 125c-42 -10 -77 -42 -104 -80c-10 -26 -12 -93 -12 -166c0 -38 1 -78 1 -114c0 -77 -9 -132 -9 -140c0 -33 36 -52 47 -80c-40 -18 -67 -52 -99 -75c-13 -17 -33 -30 -38 -49c-19 0 -6 25 -19 37
c-20 17 -34 42 -60 50c-3 0 -3 5 -3 7c23 12 50 30 63 50c0 42 7 210 7 306c0 54 -4 66 -4 86c0 34 4 69 4 103c0 18 -2 39 -20 39c-25 0 -44 -38 -62 -56c-1 -1 -2 -1 -3 -1c-2 0 -4 1 -4 3c7 82 91 110 129 169c20 -2 15 -29 32 -42c10 -15 32 -22 35 -45
c11 -6 6 -28 20 -28c2 0 4 0 7 1c27 52 87 80 137 109c54 -7 64 -79 122 -86c4 1 8 1 12 1c8 0 16 -2 25 -6z" />
    <glyph glyph-name="q" unicode="q" horiz-adv-x="405" 
d="M431 -81c0 -14 -18 -21 -23 -36c-22 -35 -60 -54 -72 -96c-8 -3 -15 -5 -22 -5c-43 0 -61 57 -102 66c-4 4 -5 9 -5 14c0 15 15 33 15 50c0 34 26 74 26 114c0 9 -1 18 -5 28c1 9 2 18 2 27c-23 -23 -45 -49 -67 -73c-40 15 -74 76 -128 76c-19 0 -31 -18 -43 -18
c-1 0 -3 0 -5 1c18 46 23 94 23 142c0 53 -6 107 -6 163c0 19 1 38 3 57c-5 5 -7 13 -7 21c0 6 2 11 4 16c34 7 65 30 101 30c34 17 65 34 84 68c4 0 6 2 8 2c33 -9 66 -35 80 -68c7 -3 13 -6 19 -10c25 0 49 27 73 27c9 0 19 -4 28 -16c-4 -26 -34 -20 -38 -42
c-25 -129 -16 -239 -29 -371c2 -11 2 -21 2 -31c0 -21 -3 -40 -5 -62c16 -35 60 -52 89 -74zM241 126l-10 53c5 34 7 67 7 99c-8 53 -2 107 -13 156l-21 8c-20 0 -38 24 -57 24c-37 0 -37 -124 -37 -148c0 -57 10 -113 10 -168c30 -7 61 -52 82 -52c13 0 26 22 39 28z" />
    <glyph glyph-name="r" unicode="r" horiz-adv-x="347" 
d="M345 462c-8 -20 -30 -28 -40 -47c0 -28 -26 -41 -26 -66c0 -2 0 -4 1 -6c-3 -1 -5 -2 -7 -2c-15 0 -7 30 -20 41c-10 23 -20 47 -45 55c-15 -8 -27 -17 -39 -30c-18 -77 -13 -151 -15 -230c5 -20 -5 -57 27 -60c8 -8 18 -21 28 -21c19 0 37 50 60 50c4 0 9 -2 14 -6
l-5 -20c-40 -27 -73 -62 -109 -97c-13 -12 -3 -34 -20 -39c-17 14 -40 24 -55 44c-29 8 -54 35 -84 45c-1 2 -1 3 -1 5c0 8 10 11 16 15c1 0 3 -1 4 -1c25 0 28 46 28 85c0 69 -4 140 -12 205c-15 10 -32 10 -42 28c12 32 37 49 52 79c14 12 37 45 49 45c14 0 11 -19 23 -28
c27 -12 27 -42 42 -64c52 20 49 87 96 109c34 0 12 -36 40 -47c17 -7 25 -30 40 -42z" />
    <glyph glyph-name="s" unicode="s" horiz-adv-x="396" 
d="M377 578c7 -27 17 -56 17 -82c0 -18 -5 -34 -18 -49c-31 -54 -76 -79 -86 -142c16 -49 77 -52 83 -107c2 -25 10 -53 10 -79c0 -19 -4 -37 -18 -52c-6 4 -11 5 -16 5c-19 0 -27 -24 -43 -24c-4 0 -9 2 -14 6c-58 -34 -82 -53 -141 -81c-35 5 -60 66 -92 66
c-7 0 -8 -4 -8 -12c0 -7 1 -16 1 -27c0 -4 1 -8 4 -12c25 0 29 -29 35 -48c-1 -5 -2 -10 -2 -16c0 -4 1 -8 1 -12c0 -14 -2 -27 -17 -29c-32 11 -67 29 -70 72v17c0 66 11 141 48 209c0 29 -32 56 -32 86c0 8 3 16 8 24c0 23 -3 47 -3 70c0 25 3 48 19 65c59 6 86 60 144 63
c17 13 38 21 55 37c42 -13 19 -63 59 -83c21 8 30 33 40 52c-1 9 -3 25 -13 30c-2 0 -3 -1 -5 -1c-19 0 -28 23 -28 33c0 23 25 39 44 39c15 0 30 -7 38 -18zM212 326c1 4 2 8 2 11c0 22 -21 37 -26 56l-38 51c-27 -2 -35 -60 -35 -95c0 -19 7 -65 34 -65s39 29 63 42z
M264 102c0 42 -21 68 -44 97c-21 14 -43 19 -65 21c-20 -16 -63 -30 -63 -61c0 -50 71 -93 119 -103c13 19 40 23 53 46z" />
    <glyph glyph-name="t" unicode="t" horiz-adv-x="383" 
d="M379 579c2 -4 3 -7 3 -10c0 -14 -26 -15 -33 -27l-42 -72c-4 -2 -9 -2 -13 -2c-9 0 -18 1 -26 1c-12 0 -22 -3 -26 -16c-12 -62 0 -131 -18 -193c0 -34 1 -63 1 -92c0 -15 0 -30 -1 -45c5 -19 11 -61 38 -61c36 0 55 31 78 50c10 0 17 -6 24 -9c0 -17 -21 -34 -30 -45
c-36 -9 -59 -34 -92 -49c-32 -10 -50 -53 -78 -53c-3 0 -7 0 -11 2c-27 29 -63 48 -86 83c3 14 15 28 26 39c2 52 22 103 22 154c0 16 -2 32 -7 49c3 21 5 44 5 67c0 35 -4 70 -11 103c-7 5 -14 7 -22 7c-29 0 -64 -30 -75 -30c-2 0 -3 0 -4 1c0 31 24 57 30 91
c27 20 74 14 89 48c9 40 51 74 92 83c24 20 42 40 63 59c8 -4 15 -9 15 -18c0 -35 -41 -57 -41 -96c0 -4 1 -9 2 -14c19 -12 42 -17 66 -17c21 0 42 4 62 12z" />
    <glyph glyph-name="u" unicode="u" horiz-adv-x="440" 
d="M437 81c-54 -7 -68 -65 -102 -92c-32 13 -51 60 -93 60c-44 0 -74 -59 -116 -70c-24 0 -14 27 -20 41c-35 37 -52 85 -100 112c55 45 28 134 42 195c-3 10 -1 52 -17 52c-6 0 -13 -3 -19 -3c-4 0 -7 1 -9 6c10 34 62 27 65 68c21 52 86 48 116 96c3 0 7 1 10 1
c6 0 7 -2 7 -8c-7 -27 -17 -48 -24 -75c0 -68 -7 -135 -7 -202c0 -14 0 -27 1 -41c-7 -11 -10 -21 -10 -31c0 -30 26 -56 37 -85c7 -2 15 -11 23 -11c4 0 8 2 11 8c54 52 28 143 41 215c3 9 4 18 4 28c0 15 -2 31 -2 46c0 16 3 29 15 39l4 10c-2 2 -4 2 -6 2s-3 0 -5 2v10
l62 65c7 0 14 -4 17 -10c-2 -7 -3 -13 -3 -19c0 -42 48 -64 75 -94c0 -19 -9 -38 -21 -52c0 -75 -28 -138 -28 -209c0 -7 0 -13 1 -20c21 -10 44 -17 51 -34z" />
    <glyph glyph-name="v" unicode="v" horiz-adv-x="479" 
d="M473 446c-37 -17 -30 -61 -60 -85v-2c1 -9 2 -18 2 -27c0 -34 -6 -72 -6 -107s5 -69 27 -96c-26 -55 -87 -76 -133 -113c-26 -13 -54 -29 -82 -29c-9 0 -17 2 -25 5c-10 17 -84 85 -84 85c-28 29 -73 34 -107 58c-1 5 -2 9 -2 13c0 19 14 28 28 37c5 26 11 51 11 78
c0 11 -1 22 -4 34c3 14 4 27 4 41c0 38 -9 77 -9 115c0 18 2 35 8 53c30 26 79 33 94 78c22 30 63 37 82 67c26 0 37 19 60 19c9 -11 35 -21 35 -35c0 -27 -83 -18 -91 -62c-39 -35 -39 -92 -40 -143c17 3 35 10 54 10c5 0 9 0 14 -1c30 21 47 55 57 89c6 3 12 5 17 5
c38 0 54 -82 90 -82c22 0 22 37 44 37c14 0 20 -14 20 -24c0 -6 -1 -13 -4 -18zM306 187c0 33 7 69 7 105c0 18 -2 36 -10 52c-18 21 -41 30 -64 30s-46 -8 -66 -21l7 -111c0 -9 1 -17 1 -24c0 -30 -4 -50 -15 -62c7 -10 16 -20 24 -28l2 -3c31 -6 36 -54 64 -54
c6 0 12 1 20 6c26 8 32 30 32 54c0 19 -2 38 -2 56z" />
    <glyph glyph-name="w" unicode="w" horiz-adv-x="551" 
d="M548 104c-27 -20 -27 -26 -44 -46c-2 -2 -21 -8 -64 -32c-7 -32 -51 -45 -61 -45s-23 10 -41 29c-6 6 -51 21 -60 21c-18 0 -31 -2 -36 -5c1 1 -48 -51 -78 -51c-10 0 -30 10 -40 21c-23 25 -25 17 -85 47c-7 5 -30 14 -30 45c0 10 2 17 4 21l15 17c20 0 23 44 23 145
c0 5 -1 23 -1 30c0 9 6 27 6 32c-9 15 -15 52 -27 87c-17 39 -25 62 -25 70c0 6 2 13 5 21c11 31 6 31 13 58c11 20 31 39 61 58c2 6 6 13 11 20c10 1 24 5 43 10c0 -1 1 -1 4 -1c10 0 38 4 56 4c6 0 11 -1 13 -2c0 -5 -55 -31 -55 -38c0 -3 -59 -58 -59 -90
c0 -16 6 -29 19 -39c12 -27 15 -49 15 -63c0 -12 -1 -19 -1 -20c13 0 47 13 53 20c0 5 1 12 3 19c3 7 88 83 102 83c13 0 14 -35 38 -60c-1 1 15 -47 34 -47c20 0 73 75 88 80c11 4 23 54 24 54c9 0 24 -34 33 -42c1 -4 8 -22 12 -29c1 0 2 -1 2 -2c0 -2 -2 -5 -2 -7
s1 -3 3 -4c18 -19 26 -37 26 -53c0 -5 -2 -22 -2 -29c0 -13 4 -45 4 -58v-116l-9 -19v-50l10 -8v-36zM440 297c0 9 -6 29 -6 36c0 4 0 10 1 18v16c0 42 -25 56 -35 56c-23 0 -62 -78 -62 -105v-39c5 -10 7 -16 8 -16v1c0 -19 -8 -78 -8 -97v-16c4 -3 9 -9 15 -17
c6 -23 38 -28 47 -28c26 0 39 12 39 35c0 7 -3 25 -3 32c2 82 4 123 4 124zM244 211c0 8 -2 15 -5 20c0 15 -1 43 -3 86c0 9 2 38 2 43c0 22 -27 51 -51 51c-25 0 -38 -30 -38 -89c0 -15 2 -53 2 -68c0 -12 -7 -42 -7 -54c0 -30 13 -77 25 -82c10 -3 32 -16 41 -16
c1 7 7 10 18 10c0 11 3 18 8 21v19c0 13 8 46 8 59z" />
    <glyph glyph-name="x" unicode="x" horiz-adv-x="439" 
d="M437 380c-41 -7 -68 -42 -111 -42c-14 0 -27 7 -39 7c-57 0 -77 -68 -77 -129c0 -14 1 -27 3 -39l4 -3c20 -12 43 -26 65 -26c69 0 34 95 92 106c0 -11 1 -22 1 -32c0 -60 -7 -118 -19 -174c-14 -21 -35 -39 -59 -42c-35 7 -67 17 -95 42c-42 -11 -34 -55 -37 -90
c17 -38 67 -20 67 -69c0 -21 -6 -41 -15 -61c-14 -3 -24 -14 -38 -14c-53 46 -46 123 -67 186c25 122 13 252 20 370c-1 2 -2 4 -2 7c0 2 1 4 1 6c0 5 -1 10 -6 12c-49 -18 -70 -11 -116 -39c-5 6 -7 12 -7 18c0 20 19 43 33 67c28 31 53 43 77 43c36 0 70 -27 110 -51
c26 47 54 78 77 78c4 0 8 -1 12 -3c39 -42 49 -89 112 -103c8 -8 14 -12 14 -25z" />
    <glyph glyph-name="y" unicode="y" horiz-adv-x="413" 
d="M412 145c-13 -2 -24 -7 -33 -13c-3 -7 -8 -13 -15 -18l-4 -5c-12 -16 -30 -40 -45 -51c-2 1 -5 2 -7 4c-65 -48 -155 -93 -180 -153c-5 -21 -8 -39 -8 -57c0 -17 2 -34 5 -56c21 -26 54 -19 78 -22c4 -4 7 -11 7 -19c-31 0 -58 -15 -88 -15c-51 0 -69 47 -69 108
c0 37 8 72 19 86c24 22 47 59 77 59c52 27 90 75 101 117c-8 3 -15 5 -22 5c-41 0 -70 -56 -109 -67c-22 0 -13 26 -19 39c-32 35 -49 80 -94 106c52 42 26 125 39 183c-2 11 -1 49 -17 49c-5 0 -11 -3 -16 -3c-3 0 -7 1 -9 6c10 32 142 109 171 154h6c6 0 10 -1 10 -6
c-7 -26 -16 -45 -23 -71c0 -66 -7 -130 -7 -195c0 -11 0 -22 1 -33c-6 -10 -9 -20 -9 -29c0 -29 25 -54 35 -81c6 -2 14 -10 21 -10c4 0 8 2 11 7c32 32 34 77 34 122c0 34 -3 66 -3 101c0 13 1 26 2 39c-3 8 -10 10 -18 10c-13 0 -25 -7 -33 -7c-7 0 -11 4 -11 9
c0 31 71 56 100 101c5 0 11 -1 15 -3l20 20c6 0 13 -3 16 -9c-2 -7 -3 -13 -3 -18c0 -40 45 -60 70 -88c0 -16 -6 -31 -16 -45l-1 -11l3 -142c-7 -17 -7 -38 -7 -58v-19c11 -5 21 -12 25 -21z" />
    <glyph glyph-name="z" unicode="z" horiz-adv-x="347" 
d="M346 408c-10 -15 -11 -32 -11 -50c0 -4 1 -9 1 -13c0 -119 -106 -114 -143 -184c0 -7 1 -13 1 -19s-1 -11 -1 -16c0 -15 2 -22 19 -25c11 -12 21 -17 32 -17c27 0 54 29 79 29c3 0 5 -1 8 -1c-4 -46 -53 -63 -70 -98c-37 -36 -41 -88 -86 -114l-19 -32
c-1 0 -74 -81 -76 -133c-2 -50 -11 -114 -11 -118l-38 18l-29 78l69 124l110 126c2 11 3 22 3 32c0 13 -2 24 -9 32c-21 12 -67 21 -108 21c-20 0 -38 -2 -51 -7c3 21 121 119 127 141c28 61 60 68 75 128c0 22 -86 75 -115 82c-33 -7 -41 -50 -65 -64c-4 6 -5 12 -5 18
c0 25 30 43 35 67c49 47 110 107 146 172c45 0 21 -60 48 -82c28 -24 84 -81 84 -95z" />
    <glyph glyph-name="asciitilde" unicode="~" horiz-adv-x="272" 
d="M253 505c-4 -1 -7 -3 -10 -5l1 -10c-16 -15 -27 -39 -40 -57c-13 0 -26 3 -38 6h-2c-10 0 -56 11 -59 13s-10 10 -12 13c-4 -2 -7 -2 -9 -2c-7 0 -12 4 -24 4c-27 0 -36 -40 -50 -40c-6 0 -9 5 -9 9c0 9 9 22 12 26c0 13 5 18 13 26l2 2c24 22 30 34 43 34
c6 0 52 -20 102 -31c6 -2 16 -4 23 -4c3 0 5 0 7 1c17 6 39 74 57 74c7 0 9 -4 9 -10c0 -16 -15 -43 -16 -49z" />
    <glyph glyph-name="Ccedilla" unicode="&#xc7;" horiz-adv-x="901" 
d="M899 674c0 -32 -37 -35 -59 -40c-21 0 -58 -4 -93 -4c-22 0 -44 1 -58 8c-32 -8 -33 -50 -33 -82c0 -53 8 -104 8 -154c0 -33 -10 -63 -10 -97c0 -49 15 -98 51 -125c1 0 3 -1 4 -1c4 0 6 3 6 7s-2 11 -2 18s3 8 3 21c0 24 -6 80 -6 117c0 26 1 34 12 34
c69 0 52 -173 70 -195c4 -49 89 -74 89 -124c0 -23 -67 -19 -86 -38c-6 0 -11 1 -16 1c-37 0 -71 -12 -101 -32c-16 3 -32 4 -49 4c-54 0 -107 -13 -161 -16c-5 -6 -11 -11 -17 -15l2 -16c24 -29 55 -45 56 -87c-8 -17 -21 -35 -41 -38l-2 -14c-24 -21 -46 -45 -68 -69
c-12 0 -23 4 -32 10c23 28 43 59 64 88l-2 20c-4 6 -17 20 -26 20l-4 18l-18 15c-2 7 -3 15 -3 23c0 16 26 34 41 46c-12 1 -25 4 -38 7c-74 43 -168 31 -235 94c-47 55 -116 106 -133 184c-7 31 -10 62 -10 93c0 120 50 228 116 322c90 82 203 114 321 137
c30 -9 39 -25 39 -69c0 -11 -3 -19 -16 -21c-13 5 -25 7 -37 7c-50 0 -94 -40 -135 -66c-20 -31 -59 -55 -75 -94c-6 -47 -13 -102 -13 -156c0 -89 20 -178 100 -224c60 -35 137 -53 213 -53c24 0 48 2 72 6c8 16 10 32 10 48c0 13 -1 26 -1 40c0 24 8 50 8 75s-3 51 -3 76
c0 11 0 21 2 32c-4 78 0 148 -16 223c-4 6 -10 8 -16 8s-13 -2 -19 -4c-90 -32 -105 -84 -105 -139c0 -29 4 -60 4 -88c0 -14 -1 -27 -4 -40c-22 -85 -67 -113 -149 -125c-8 0 -12 0 -16 8c4 34 51 50 51 87c0 50 -4 113 -12 164c6 9 7 21 7 33c0 14 -2 30 -2 44
c0 23 6 44 38 52c121 30 214 101 279 172c3 1 7 1 10 1c37 0 58 -57 73 -75c35 -43 118 -46 173 -62z" />
    <glyph glyph-name="Ntilde" unicode="&#xd1;" horiz-adv-x="1013" 
d="M1005 192c0 -85 -17 -162 -17 -246c0 -26 -27 -26 -43 -26h-3c-33 29 -71 11 -101 40c-3 -1 -7 -1 -10 -1c-19 0 -37 5 -54 5c-11 0 -20 -2 -28 -8c-21 -33 -47 -51 -78 -66c-8 0 -16 4 -20 11c0 22 29 26 42 37c53 66 109 134 129 221c24 40 23 96 34 143
c-13 89 -37 181 -79 262c-25 70 -73 147 -142 187c-18 -9 -22 -26 -22 -46c0 -17 3 -35 3 -51c0 -4 -1 -9 -1 -13c3 -14 5 -28 5 -40c0 -43 -16 -81 -16 -124c0 -8 1 -16 2 -24c-14 -49 -17 -101 -17 -153c0 -39 1 -79 1 -115c0 -40 15 -83 15 -121c0 -22 -5 -43 -21 -60
c-7 0 -14 -1 -20 -1c-8 0 -15 1 -21 5c-5 17 -6 34 -6 50c0 34 6 67 6 102c0 12 -2 25 -2 37c0 32 8 62 8 94c0 15 -1 31 -7 48c2 8 5 16 5 25c0 8 -2 16 -9 23c25 85 14 180 23 269c-6 14 5 40 -18 51c-13 0 -23 6 -33 6c-4 0 -8 -2 -12 -6l-9 -11
c-8 -73 -15 -145 -15 -218c0 -41 2 -82 7 -124c-4 -55 -12 -112 -12 -170c0 -48 14 -97 14 -146c0 -23 -5 -44 -28 -56c-51 -3 -97 -18 -137 -44c-59 -26 -141 -18 -205 -37c-2 -7 -10 -7 -12 -14c8 69 -1 150 47 202l5 8c16 27 34 57 34 90c0 5 0 11 -1 16
c-3 18 -23 36 -23 53c0 3 1 7 3 10c26 -4 51 -45 78 -56c16 -29 20 -58 32 -88l-7 -7c12 -5 13 -12 13 -21v-7c0 3 15 -55 32 -55c22 0 24 88 24 117c0 47 -4 96 -4 142c0 33 -68 62 -92 81c-68 15 -124 67 -195 74c-12 19 -46 16 -46 33c0 14 11 22 19 22
c13 0 28 -11 43 -11c8 0 18 -2 26 -2c61 0 100 40 158 50c76 63 93 172 195 202c64 18 116 59 194 59c15 5 31 6 48 6c39 0 79 -6 121 -6c26 -25 62 -48 94 -66c16 -33 26 -74 59 -99c12 -52 25 -92 39 -140c0 -5 -1 -10 -1 -14c0 -41 13 -82 13 -120
c0 -111 -109 -193 -160 -282c0 -12 12 -10 17 -15c32 8 70 0 92 22c21 33 26 74 40 107h7zM348 556c-5 8 -12 8 -16 8c-22 -26 -54 -37 -56 -74c16 -12 35 -26 54 -26c6 0 11 2 16 4c0 22 4 42 4 65c0 7 -1 15 -2 23zM767 920c-4 -1 -7 -3 -10 -5l1 -10
c-16 -15 -27 -39 -40 -57c-13 0 -26 3 -38 6h-2c-10 0 -56 11 -59 13s-10 10 -12 13c-4 -2 -7 -2 -9 -2c-7 0 -12 4 -24 4c-27 0 -36 -40 -50 -40c-6 0 -9 5 -9 9c0 9 9 22 12 26c0 13 5 18 13 26l2 2c24 22 30 34 43 34c6 0 52 -20 102 -31c6 -2 16 -4 23 -4c3 0 5 0 7 1
c17 6 39 74 57 74c7 0 9 -4 9 -10c0 -16 -15 -43 -16 -49z" />
    <glyph glyph-name="aacute" unicode="&#xe1;" horiz-adv-x="458" 
d="M327 729l-17 -12c-12 -30 -36 -52 -64 -68l-17 2l6 -15c-18 -26 -45 -49 -78 -52l-6 21c21 40 49 72 78 104c16 17 32 59 49 75c15 0 30 -31 45 -34zM456 132c0 -10 -8 -14 -15 -19c-53 -14 -89 -67 -115 -106c-31 12 -26 51 -50 72c-39 -16 -71 -70 -118 -91
c-12 3 -17 22 -29 22c-28 33 -67 60 -105 84c-3 12 -4 25 -4 38c0 38 9 78 9 118c12 43 55 57 86 84c1 3 2 6 2 9c0 22 -32 38 -40 56c-22 33 -51 64 -75 95c0 5 0 12 6 12c23 0 43 -18 68 -18c6 0 13 1 20 4c38 7 84 5 103 46c14 9 19 33 36 40l2 -14c-1 -2 -2 -5 -2 -7
c0 -7 5 -14 7 -22c36 -21 79 -36 113 -55c33 0 45 43 84 43c0 -36 -41 -57 -41 -96l-10 -14c-4 -49 -10 -99 -10 -148c0 -31 2 -61 8 -90c0 -7 -3 -18 -3 -28c0 -9 3 -18 13 -20c19 3 40 5 60 5zM194 499c-2 5 -4 7 -6 7c-6 0 -13 -11 -13 -16c7 0 14 2 19 9zM271 307
c3 11 4 20 4 30c0 9 -1 18 -4 28c4 7 6 14 6 20c0 27 -39 41 -54 61c-25 7 -48 31 -63 31c-16 0 -47 -18 -47 -29c0 -9 5 -19 7 -28c43 -48 79 -96 144 -115zM276 190c-2 5 -2 11 -2 17c0 13 3 26 3 39c0 9 -2 17 -6 25c-36 8 -63 41 -101 41c-23 0 -27 -57 -27 -88
c0 -32 4 -65 6 -97c8 -15 37 -37 53 -37s33 9 48 17c1 0 1 1 2 1c20 6 24 23 24 41c0 9 -1 19 -1 27c0 5 0 10 1 14z" />
    <glyph glyph-name="agrave" unicode="&#xe0;" horiz-adv-x="458" 
d="M274 586c-43 4 -54 28 -79 59c-4 6 -13 7 -18 12c-11 7 -19 23 -28 29c-6 5 -14 8 -21 12l-8 21l-16 12l4 21l29 -4l16 8l34 -4c11 -20 25 -39 37 -58v-21c29 -21 48 -52 50 -87zM456 132c0 -10 -8 -14 -15 -19c-53 -14 -89 -67 -115 -106c-31 12 -26 51 -50 72
c-39 -16 -71 -70 -118 -91c-12 3 -17 22 -29 22c-28 33 -67 60 -105 84c-3 12 -4 25 -4 38c0 38 9 78 9 118c12 43 55 57 86 84c1 3 2 6 2 9c0 22 -32 38 -40 56c-22 33 -51 64 -75 95c0 5 0 12 6 12c23 0 43 -18 68 -18c6 0 13 1 20 4c38 7 84 5 103 46c14 9 19 33 36 40
l2 -14c-1 -2 -2 -5 -2 -7c0 -7 5 -14 7 -22c36 -21 79 -36 113 -55c33 0 45 43 84 43c0 -36 -41 -57 -41 -96l-10 -14c-4 -49 -10 -99 -10 -148c0 -31 2 -61 8 -90c0 -7 -3 -18 -3 -28c0 -9 3 -18 13 -20c19 3 40 5 60 5zM194 499c-2 5 -4 7 -6 7c-6 0 -13 -11 -13 -16
c7 0 14 2 19 9zM271 307c3 11 4 20 4 30c0 9 -1 18 -4 28c4 7 6 14 6 20c0 27 -39 41 -54 61c-25 7 -48 31 -63 31c-16 0 -47 -18 -47 -29c0 -9 5 -19 7 -28c43 -48 79 -96 144 -115zM276 190c-2 5 -2 11 -2 17c0 13 3 26 3 39c0 9 -2 17 -6 25c-36 8 -63 41 -101 41
c-23 0 -27 -57 -27 -88c0 -32 4 -65 6 -97c8 -15 37 -37 53 -37c17 0 35 10 50 18c20 6 24 23 24 41c0 9 -1 19 -1 27c0 5 0 10 1 14z" />
    <glyph glyph-name="acircumflex" unicode="&#xe2;" horiz-adv-x="458" 
d="M323 560l-16 -11c-15 7 -30 16 -35 33l-16 11v12l-8 8c0 14 0 38 -7 52l-11 3c-7 -6 -10 -18 -10 -26l-12 -3c0 -20 -22 -72 -36 -85c-4 -4 -25 -11 -30 -12c-8 5 -13 16 -13 26c10 13 11 31 18 48c17 44 10 81 44 109l11 1l5 10c16 0 32 1 48 2c24 -32 42 -65 50 -105
l8 -8c2 -13 11 -40 11 -56c0 -4 0 -7 -1 -9zM456 132c0 -10 -8 -14 -15 -19c-53 -14 -89 -67 -115 -106c-31 12 -26 51 -50 72c-39 -16 -71 -70 -118 -91c-12 3 -17 22 -29 22c-28 33 -67 60 -105 84c-3 12 -4 25 -4 38c0 38 9 78 9 118c12 43 55 57 86 84c1 3 2 6 2 9
c0 22 -32 38 -40 56c-22 33 -51 64 -75 95c0 5 0 12 6 12c23 0 43 -18 68 -18c6 0 13 1 20 4c38 7 84 5 103 46c14 9 19 33 36 40l2 -14c-1 -2 -2 -5 -2 -7c0 -7 5 -14 7 -22c36 -21 79 -36 113 -55c33 0 45 43 84 43c0 -36 -41 -57 -41 -96l-10 -14
c-4 -49 -10 -99 -10 -148c0 -31 2 -61 8 -90c0 -7 -3 -18 -3 -28c0 -9 3 -18 13 -20c19 3 40 5 60 5zM194 499c-2 5 -4 7 -6 7c-6 0 -13 -11 -13 -16c7 0 14 2 19 9zM271 307c3 11 4 20 4 30c0 9 -1 18 -4 28c4 7 6 14 6 20c0 27 -39 41 -54 61c-25 7 -48 31 -63 31
c-16 0 -47 -18 -47 -29c0 -9 5 -19 7 -28c43 -48 79 -96 144 -115zM276 190c-2 5 -2 11 -2 17c0 13 3 26 3 39c0 9 -2 17 -6 25c-36 8 -63 41 -101 41c-23 0 -27 -57 -27 -88c0 -32 4 -65 6 -97c8 -15 37 -37 53 -37c17 0 35 10 50 18c20 6 24 23 24 41c0 9 -1 19 -1 27
c0 5 0 10 1 14z" />
    <glyph glyph-name="adieresis" unicode="&#xe4;" horiz-adv-x="459" 
d="M299 555l-5 -3c-10 1 -18 13 -22 21c0 11 -15 11 -20 23c-10 0 -14 2 -14 12v5c0 18 0 27 19 39c5 11 17 44 34 44c1 0 71 -50 71 -73c0 -24 -44 -55 -63 -68zM113 594c-26 3 -33 10 -33 20c0 12 12 27 17 41l12 5c6 1 22 32 41 32c5 0 10 -2 15 -6c0 -4 0 -7 1 -9
c19 -16 38 -36 38 -62c0 -7 -16 -14 -20 -17c-9 -6 -25 -43 -43 -43c-13 0 -25 29 -28 39zM457 132c0 -10 -8 -14 -15 -19c-53 -14 -89 -67 -115 -106c-31 12 -26 51 -50 72c-39 -16 -71 -70 -118 -91c-12 3 -17 22 -29 22c-28 33 -67 60 -105 84c-3 12 -4 25 -4 38
c0 38 9 78 9 118c12 43 55 57 86 84c1 3 2 6 2 9c0 22 -32 38 -40 56c-22 33 -51 64 -75 95c0 5 0 12 6 12c23 0 43 -18 68 -18c6 0 13 1 20 4c38 7 84 5 103 46c14 9 19 33 36 40l2 -14c-1 -2 -2 -5 -2 -7c0 -7 5 -14 7 -22c36 -21 79 -36 113 -55c33 0 45 43 84 43
c0 -36 -41 -57 -41 -96l-10 -14c-4 -49 -10 -99 -10 -148c0 -31 2 -61 8 -90c0 -7 -3 -18 -3 -28c0 -9 3 -18 13 -20c19 3 40 5 60 5zM195 499c-2 5 -4 7 -6 7c-6 0 -13 -11 -13 -16c7 0 14 2 19 9zM272 307c3 11 4 20 4 30c0 9 -1 18 -4 28c4 7 6 14 6 20
c0 27 -39 41 -54 61c-25 7 -48 31 -63 31c-16 0 -47 -18 -47 -29c0 -9 5 -19 7 -28c43 -48 79 -96 144 -115zM277 190c-2 5 -2 11 -2 17c0 13 3 26 3 39c0 9 -2 17 -6 25c-36 8 -63 41 -101 41c-23 0 -27 -57 -27 -88c0 -32 4 -65 6 -97c8 -15 37 -37 53 -37s33 9 48 17
c1 0 1 1 2 1c20 6 24 23 24 41c0 9 -1 19 -1 27c0 5 0 10 1 14z" />
    <glyph glyph-name="atilde" unicode="&#xe3;" horiz-adv-x="458" 
d="M358 647c-3 -1 -6 -3 -9 -5l1 -10c-16 -15 -27 -39 -40 -57c-14 0 -28 6 -40 6c-10 0 -56 11 -60 13l-11 12c-4 -2 -7 -2 -9 -2c-8 0 -12 5 -24 5c-27 0 -37 -40 -50 -40c-7 0 -9 5 -9 9c0 9 8 22 11 26c0 13 7 20 16 28c24 22 30 34 43 34c7 0 50 -20 102 -31
c5 -2 15 -4 22 -4c3 0 5 0 7 1c18 5 39 74 58 74c7 0 9 -4 9 -10c0 -16 -15 -43 -17 -49zM456 132c0 -10 -8 -14 -15 -19c-53 -14 -89 -67 -115 -106c-31 12 -26 51 -50 72c-39 -16 -71 -70 -118 -91c-12 3 -17 22 -29 22c-28 33 -67 60 -105 84c-3 12 -4 25 -4 38
c0 38 9 78 9 118c12 43 55 57 86 84c1 3 2 6 2 9c0 22 -32 38 -40 56c-22 33 -51 64 -75 95c0 5 0 12 6 12c23 0 43 -18 68 -18c6 0 13 1 20 4c38 7 84 5 103 46c14 9 19 33 36 40l2 -14c-1 -2 -2 -5 -2 -7c0 -7 5 -14 7 -22c36 -21 79 -36 113 -55c33 0 45 43 84 43
c0 -36 -41 -57 -41 -96l-10 -14c-4 -49 -10 -99 -10 -148c0 -31 2 -61 8 -90c0 -7 -3 -18 -3 -28c0 -9 3 -18 13 -20c19 3 40 5 60 5zM194 499c-2 5 -4 7 -6 7c-6 0 -13 -11 -13 -16c7 0 14 2 19 9zM271 307c3 11 4 20 4 30c0 9 -1 18 -4 28c4 7 6 14 6 20
c0 27 -39 41 -54 61c-25 7 -48 31 -63 31c-16 0 -47 -18 -47 -29c0 -9 5 -19 7 -28c43 -48 79 -96 144 -115zM276 190c-2 5 -2 11 -2 17c0 13 3 26 3 39c0 9 -2 17 -6 25c-36 8 -63 41 -101 41c-23 0 -27 -57 -27 -88c0 -32 4 -65 6 -97c8 -15 37 -37 53 -37s33 9 48 17
c1 0 1 1 2 1c20 6 24 23 24 41c0 9 -1 19 -1 27c0 5 0 10 1 14z" />
    <glyph glyph-name="aring" unicode="&#xe5;" horiz-adv-x="459" 
d="M457 132c0 -10 -8 -14 -15 -19c-53 -14 -89 -67 -115 -106c-31 12 -26 51 -50 72c-39 -16 -71 -70 -118 -91c-12 3 -17 22 -29 22c-28 33 -67 60 -105 84c-3 12 -4 25 -4 38c0 38 9 78 9 118c12 43 55 57 86 84c1 3 2 6 2 9c0 22 -32 38 -40 56c-22 33 -51 64 -75 95
c0 5 0 12 6 12c23 0 43 -18 68 -18c6 0 13 1 20 4c38 7 84 5 103 46c14 9 19 33 36 40l2 -14c-1 -2 -2 -5 -2 -7c0 -7 5 -14 7 -22c36 -21 79 -36 113 -55c33 0 45 43 84 43c0 -36 -41 -57 -41 -96l-10 -14c-4 -49 -10 -99 -10 -148c0 -31 2 -61 8 -90c0 -7 -3 -18 -3 -28
c0 -9 3 -18 13 -20c19 3 40 5 60 5zM195 499c-2 5 -4 7 -6 7c-6 0 -13 -11 -13 -16c7 0 14 2 19 9zM272 307c3 11 4 20 4 30c0 9 -1 18 -4 28c4 7 6 14 6 20c0 27 -39 41 -54 61c-25 7 -48 31 -63 31c-16 0 -47 -18 -47 -29c0 -9 5 -19 7 -28c43 -48 79 -96 144 -115z
M277 190c-2 5 -2 11 -2 17c0 13 3 26 3 39c0 9 -2 17 -6 25c-36 8 -63 41 -101 41c-23 0 -27 -57 -27 -88c0 -32 4 -65 6 -97c8 -15 37 -37 53 -37c17 0 35 10 50 18c20 6 24 23 24 41c0 9 -1 19 -1 27c0 5 0 10 1 14zM357 742c-23 -15 -47 -38 -50 -65
c-36 -18 -58 -71 -100 -71c-4 0 -8 0 -12 1c-27 43 -47 89 -89 128v7c37 34 100 60 100 119c0 18 19 24 23 24c21 0 36 -55 54 -69c17 -31 78 -20 78 -55c0 -6 -1 -12 -4 -19zM226 772c-13 0 -26 -18 -26 -41c11 -13 30 -22 47 -22c8 0 15 2 21 6c-3 28 -27 57 -42 57z" />
    <glyph glyph-name="ccedilla" unicode="&#xe7;" horiz-adv-x="321" 
d="M320 519c-15 -31 -42 -51 -44 -87c2 -7 4 -14 4 -20c0 -13 -13 -16 -27 -16c-3 0 -6 0 -10 2c-7 12 -62 32 -89 32c-14 0 -14 -25 -14 -38c0 -18 3 -38 6 -56c2 -3 3 -6 3 -8c0 -9 -8 -15 -8 -23c-9 -44 -10 -90 -14 -134c6 -31 2 -69 33 -85c31 5 57 19 83 33l6 3l23 23
c5 -4 7 -10 7 -17s-2 -14 -4 -19c-49 -21 -85 -58 -127 -91c-5 -11 -15 -20 -26 -27l2 -16c24 -29 55 -45 56 -87c-8 -17 -21 -35 -41 -38l-2 -14c-24 -21 -46 -45 -68 -69c-12 0 -23 4 -32 10c23 28 43 59 64 88l-2 20c-4 6 -17 20 -26 20l-4 18l-18 15c-2 7 -3 15 -3 23
c0 16 27 34 42 46c-27 15 -48 41 -79 51c-4 4 -5 7 -5 11c0 10 13 21 17 33c0 41 1 83 1 125c0 31 -1 61 -6 91c3 11 4 22 4 33c0 41 -16 83 -19 124c5 23 33 13 46 31c27 28 63 46 93 72c22 0 24 -21 32 -33c12 -18 70 -32 99 -32c14 0 17 7 28 7c6 0 12 -1 19 -1z" />
    <glyph glyph-name="eacute" unicode="&#xe9;" horiz-adv-x="390" 
d="M267 717l-17 -12c-12 -30 -37 -52 -64 -68l-17 2l6 -15c-19 -26 -45 -49 -78 -52l-6 21c21 39 48 71 78 104c15 17 31 59 48 75c16 0 31 -31 46 -34zM389 428c-7 -36 -68 -19 -80 -55c-27 -25 -50 -56 -91 -71c-7 -24 -43 -23 -44 -47c-7 -18 -10 -36 -10 -55
c0 -23 9 -43 9 -66c0 -18 -3 -37 -3 -53c0 -11 21 -14 28 -14c25 0 49 20 71 30l26 18c4 -2 5 -5 5 -8c0 -4 -2 -8 -4 -11c-36 -47 -88 -67 -130 -99c-19 -2 -25 -19 -40 -19c-3 0 -6 0 -9 2c-16 47 -69 73 -115 100c0 26 26 21 34 42c8 22 16 45 16 69c0 14 -3 29 -10 45
c3 13 5 26 5 39c0 40 -12 79 -12 118c0 12 1 24 4 36c-3 6 -4 11 -4 15c0 22 28 28 46 37l14 2c26 20 44 49 74 67c33 -1 42 -29 65 -47c6 -7 17 -5 25 -11c30 -35 77 -34 108 -60c1 -1 3 -2 4 -2c3 0 6 1 9 1s6 0 9 -3zM253 395c-9 5 -12 10 -20 13l-6 13
c-19 12 -38 35 -63 35c-5 0 -10 -1 -16 -3c0 -4 1 -7 1 -11c0 -14 -3 -28 -3 -41c0 -14 9 -27 9 -41c0 -6 -1 -13 -1 -19c0 -15 3 -29 17 -35c14 9 27 24 35 35c12 18 42 30 47 54z" />
    <glyph glyph-name="egrave" unicode="&#xe8;" horiz-adv-x="391" 
d="M241 573c-43 4 -54 28 -79 59c-4 6 -13 7 -19 11c-10 8 -18 24 -27 30c-6 4 -14 8 -21 12l-8 21l-16 12l4 21l29 -4l16 8l34 -4c11 -20 25 -39 37 -58v-21c28 -21 48 -52 50 -87zM390 428c-7 -36 -68 -19 -80 -55c-27 -25 -50 -56 -91 -71c-7 -24 -43 -23 -44 -47
c-7 -18 -10 -36 -10 -55c0 -23 9 -43 9 -66c0 -18 -3 -37 -3 -53c0 -11 21 -14 28 -14c25 0 49 20 71 30l26 18c4 -2 5 -5 5 -8c0 -4 -2 -8 -4 -11c-36 -47 -88 -67 -130 -99c-19 -2 -25 -19 -40 -19c-3 0 -6 0 -9 2c-16 47 -69 73 -115 100c0 26 26 21 34 42
c8 22 16 45 16 69c0 14 -3 29 -10 45c3 13 5 26 5 39c0 40 -12 79 -12 118c0 12 1 24 4 36c-3 6 -4 11 -4 15c0 22 28 28 46 37l14 2c26 20 44 49 74 67c33 -1 42 -29 65 -47c6 -7 17 -5 25 -11c30 -35 77 -34 108 -60c1 -1 3 -2 4 -2c3 0 6 1 9 1s6 0 9 -3zM254 395
c-9 5 -12 10 -20 13l-6 13c-19 12 -38 35 -63 35c-5 0 -10 -1 -16 -3c0 -4 1 -7 1 -11c0 -14 -3 -28 -3 -41c0 -14 9 -27 9 -41c0 -6 -1 -13 -1 -19c0 -15 3 -29 17 -35c14 9 27 24 35 35c12 18 42 30 47 54z" />
    <glyph glyph-name="ecircumflex" unicode="&#xea;" horiz-adv-x="390" 
d="M286 558l-16 -11c-16 7 -30 17 -35 33l-16 11v12l-8 8c0 15 0 39 -7 52l-11 3c-7 -6 -10 -18 -10 -26l-12 -3c0 -19 -21 -70 -36 -85c-4 -3 -25 -10 -30 -12c-8 5 -13 17 -13 26c9 14 11 32 18 48c18 44 10 82 44 109l11 1l5 10c2 2 13 2 25 2h23c23 -31 42 -64 50 -105
l8 -8c2 -12 11 -39 11 -55c0 -4 0 -8 -1 -10zM389 428c-7 -36 -68 -19 -80 -55c-27 -25 -50 -56 -91 -71c-7 -24 -43 -23 -44 -47c-7 -18 -10 -36 -10 -55c0 -23 9 -43 9 -66c0 -18 -3 -37 -3 -53c0 -11 21 -14 28 -14c25 0 49 20 71 30l26 18c4 -2 5 -5 5 -8
c0 -4 -2 -8 -4 -11c-36 -47 -88 -67 -130 -99c-19 -2 -25 -19 -40 -19c-3 0 -6 0 -9 2c-16 47 -69 73 -115 100c0 26 26 21 34 42c8 22 16 45 16 69c0 14 -3 29 -10 45c3 13 5 26 5 39c0 40 -12 79 -12 118c0 12 1 24 4 36c-3 6 -4 11 -4 15c0 22 28 28 46 37l14 2
c26 20 44 49 74 67c33 -1 42 -29 65 -47c6 -7 17 -5 25 -11c30 -35 77 -34 108 -60c1 -1 3 -2 4 -2c3 0 6 1 9 1s6 0 9 -3zM253 395c-9 5 -12 10 -20 13l-6 13c-19 12 -38 35 -63 35c-5 0 -10 -1 -16 -3c0 -4 1 -7 1 -11c0 -14 -3 -28 -3 -41c0 -14 9 -27 9 -41
c0 -6 -1 -13 -1 -19c0 -15 3 -29 17 -35c14 9 27 24 35 35c12 18 42 30 47 54z" />
    <glyph glyph-name="edieresis" unicode="&#xeb;" horiz-adv-x="391" 
d="M266 570c-9 1 -17 13 -22 21c0 17 -34 19 -34 35v5c0 19 0 27 19 39c5 12 18 44 34 44c4 0 8 -2 13 -7c16 -18 58 -49 58 -67c0 -25 -53 -60 -68 -70zM85 612c-26 3 -33 11 -33 20c0 12 12 27 17 41l12 5c5 2 23 33 41 33c7 0 16 -3 16 -16c20 -15 38 -35 38 -62
c0 -7 -15 -14 -20 -17c-3 -3 -25 -43 -42 -43c-13 0 -26 30 -29 39zM390 428c-7 -36 -68 -19 -80 -55c-27 -25 -50 -56 -91 -71c-7 -24 -43 -23 -44 -47c-7 -18 -10 -36 -10 -55c0 -23 9 -43 9 -66c0 -18 -3 -37 -3 -53c0 -11 21 -14 28 -14c25 0 49 20 71 30l26 18
c4 -2 5 -5 5 -8c0 -4 -2 -8 -4 -11c-36 -47 -88 -67 -130 -99c-19 -2 -25 -19 -40 -19c-3 0 -6 0 -9 2c-16 47 -69 73 -115 100c0 26 26 21 34 42c8 22 16 45 16 69c0 14 -3 29 -10 45c3 13 5 26 5 39c0 40 -12 79 -12 118c0 12 1 24 4 36c-3 6 -4 11 -4 15
c0 22 28 28 46 37l14 2c26 20 44 49 74 67c33 -1 42 -29 65 -47c6 -7 17 -5 25 -11c30 -35 77 -34 108 -60c1 -1 3 -2 4 -2c3 0 6 1 9 1s6 0 9 -3zM254 395c-9 5 -12 10 -20 13l-6 13c-19 12 -38 35 -63 35c-5 0 -10 -1 -16 -3c0 -4 1 -7 1 -11c0 -14 -3 -28 -3 -41
c0 -14 9 -27 9 -41c0 -6 -1 -13 -1 -19c0 -15 3 -29 17 -35c14 9 27 24 35 35c12 18 42 30 47 54z" />
    <glyph glyph-name="iacute" unicode="&#xed;" horiz-adv-x="287" 
d="M244 688l-17 -12c-12 -30 -36 -52 -64 -68l-17 2l6 -15c-18 -26 -45 -49 -78 -52l-6 21c21 40 49 72 78 104c16 17 32 59 49 75c15 0 30 -31 45 -34zM285 124c0 -11 -2 -19 -12 -24h-14c-17 -26 -43 -47 -55 -76c-25 -2 -11 -37 -33 -37c-2 0 -5 1 -9 2
c0 29 -28 32 -43 47c-20 3 -51 17 -51 33c0 14 17 26 17 42c0 3 0 7 -2 11c9 38 13 79 13 120c0 42 -4 86 -8 128c-1 15 3 29 -14 36c-18 -2 -39 -15 -57 -15c-5 0 -11 1 -16 5v12c61 17 99 69 149 109c57 -12 61 -78 109 -102c3 -6 7 -10 7 -17s-8 -8 -13 -8
c-12 0 -25 7 -34 7s-12 -5 -12 -24c-10 -86 -8 -159 -24 -242c2 -14 9 -31 24 -38c23 5 49 14 66 31h12z" />
    <glyph glyph-name="igrave" unicode="&#xec;" horiz-adv-x="286" 
d="M220 555c-43 4 -55 28 -79 59c-5 6 -13 7 -19 11c-11 8 -19 24 -27 30c-7 4 -15 8 -21 12l-8 21l-16 12l4 21l29 -4l16 8l34 -4c11 -20 24 -39 37 -58v-21c28 -21 47 -52 50 -87zM285 124c0 -11 -2 -19 -12 -24h-14c-17 -26 -43 -47 -55 -76c-25 -2 -11 -37 -33 -37
c-2 0 -5 1 -9 2c0 29 -28 32 -43 47c-20 3 -51 17 -51 33c0 14 17 26 17 42c0 3 0 7 -2 11c9 38 13 79 13 120c0 42 -4 86 -8 128c-1 15 3 29 -14 36c-18 -2 -39 -15 -57 -15c-5 0 -11 1 -16 5v12c61 17 99 69 149 109c57 -12 61 -78 109 -102c3 -6 7 -10 7 -17
s-8 -8 -13 -8c-12 0 -25 7 -34 7s-12 -5 -12 -24c-10 -86 -8 -159 -24 -242c2 -14 9 -31 24 -38c23 5 49 14 66 31h12z" />
    <glyph glyph-name="icircumflex" unicode="&#xee;" horiz-adv-x="287" 
d="M242 534l-16 -11c-15 7 -30 16 -35 33l-16 11v12l-8 8c0 14 0 39 -7 52l-11 3c-7 -6 -10 -18 -10 -26l-12 -3c0 -19 -21 -72 -36 -85c-4 -4 -24 -11 -30 -12c-6 5 -13 17 -13 26c11 14 12 32 18 48c17 44 11 81 44 109l11 1l5 10c16 0 32 1 48 2c24 -32 42 -65 50 -105
l8 -8c2 -13 12 -39 12 -55c0 -4 -1 -8 -2 -10zM285 124c0 -11 -2 -19 -12 -24h-14c-17 -26 -43 -47 -55 -76c-25 -2 -11 -37 -33 -37c-2 0 -5 1 -9 2c0 29 -28 32 -43 47c-20 3 -51 17 -51 33c0 14 17 26 17 42c0 3 0 7 -2 11c9 38 13 79 13 120c0 42 -4 86 -8 128
c-1 15 3 29 -14 36c-18 -2 -39 -15 -57 -15c-5 0 -11 1 -16 5v12c61 17 99 69 149 109c57 -12 61 -78 109 -102c3 -6 7 -10 7 -17s-8 -8 -13 -8c-12 0 -25 7 -34 7s-12 -5 -12 -24c-10 -86 -8 -159 -24 -242c2 -14 9 -31 24 -38c23 5 49 14 66 31h12z" />
    <glyph glyph-name="idieresis" unicode="&#xef;" horiz-adv-x="293" 
d="M222 512c-10 1 -17 13 -22 21c0 17 -34 20 -34 35c0 23 -2 31 19 44c5 12 18 44 34 44c4 0 8 -2 13 -7c16 -18 58 -49 58 -67c0 -25 -53 -60 -68 -70zM41 554c-26 3 -33 11 -33 20c0 12 12 27 17 41l12 5c5 2 23 33 41 33c10 0 12 -3 16 -16c19 -15 38 -36 38 -62
c0 -7 -16 -14 -20 -17c-4 -4 -26 -43 -42 -43c-14 0 -26 30 -29 39zM286 124c0 -11 -2 -19 -12 -24h-14c-17 -26 -43 -47 -55 -76c-25 -2 -11 -37 -33 -37c-2 0 -5 1 -9 2c0 29 -28 32 -43 47c-20 3 -51 17 -51 33c0 14 17 26 17 42c0 3 0 7 -2 11c9 38 13 79 13 120
c0 42 -4 86 -8 128c-1 15 3 29 -14 36c-18 -2 -39 -15 -57 -15c-5 0 -11 1 -16 5v12c61 17 99 69 149 109c57 -12 61 -78 109 -102c3 -6 7 -10 7 -17s-8 -8 -13 -8c-12 0 -25 7 -34 7s-12 -5 -12 -24c-10 -86 -8 -159 -24 -242c2 -14 9 -31 24 -38c23 5 49 14 66 31h12z" />
    <glyph glyph-name="ntilde" unicode="&#xf1;" horiz-adv-x="479" 
d="M390 650c-4 -1 -7 -3 -10 -5l1 -10c-16 -15 -27 -39 -40 -57c-12 0 -23 2 -35 5c-1 0 -2 1 -3 1c-6 0 -58 10 -61 13c-3 2 -10 10 -12 13c-4 -2 -7 -2 -9 -2c-7 0 -12 5 -24 5c-28 0 -37 -41 -50 -41c-6 0 -9 5 -9 9c0 9 9 22 12 26c0 13 5 18 13 26l2 2
c23 22 30 34 43 34c7 0 15 -5 34 -13c28 -13 85 -22 91 -22c20 0 40 76 64 76c7 0 9 -4 9 -10c0 -16 -15 -44 -16 -50zM476 416c-3 -41 -16 -77 -16 -116c0 -11 1 -22 4 -34c-3 -14 -4 -27 -4 -41c0 -38 9 -77 9 -115c0 -18 -2 -35 -8 -53c-30 -26 -79 -33 -94 -78
c-22 -30 -63 -37 -82 -67c-26 0 -37 -19 -60 -19c-9 11 -35 21 -35 35c0 27 83 18 91 62c45 41 38 112 41 168l8 23l-19 168c-3 24 -40 37 -45 37c-28 0 -53 -17 -67 -37c0 -17 1 -33 1 -50c0 -90 -8 -176 -8 -264c-26 -22 -49 -41 -79 -49c-30 15 -59 34 -82 53
c30 55 56 112 56 179c0 14 -1 29 -4 45c5 10 7 21 7 31c0 22 -8 44 -8 67c0 4 0 9 1 14c-5 5 -11 14 -19 14c-2 0 -5 -1 -7 -3c-26 -18 -18 -60 -45 -71c-7 11 -10 22 -10 33c0 31 25 59 33 90c40 37 67 94 131 94c22 -33 39 -90 82 -90c62 0 72 69 104 97
c38 -4 41 -48 64 -75c15 -22 48 -29 60 -48z" />
    <glyph glyph-name="oacute" unicode="&#xf3;" horiz-adv-x="366" 
d="M282 705l-17 -12c-12 -29 -37 -52 -64 -68l-17 2l6 -15c-18 -26 -45 -48 -78 -52l-6 21c21 40 49 72 78 104c16 18 32 60 49 76c15 0 30 -31 45 -35zM363 209c-2 -31 -5 -54 -8 -85c-69 -28 -117 -87 -166 -141c-44 17 -79 79 -136 79c-20 0 -34 -18 -46 -18
c-1 0 -3 0 -5 1c19 47 24 96 24 145c0 57 -7 115 -7 174c0 20 1 40 3 60c-4 5 -6 13 -6 21c0 6 1 13 4 18c36 7 69 30 107 30c36 18 70 36 90 72c15 -10 26 -28 46 -36c26 -33 72 -33 95 -69c3 -24 3 -47 3 -71c0 -38 -2 -76 -2 -113c0 -23 1 -45 4 -67zM255 106l-10 57
c6 40 8 79 8 118c0 44 -2 88 -5 133l-8 15l-23 8c-22 0 -41 25 -60 25c-39 0 -40 -119 -40 -152c0 -61 10 -120 10 -178c31 -8 49 -33 75 -49c4 -4 8 -5 12 -5c14 0 27 22 41 28z" />
    <glyph glyph-name="ograve" unicode="&#xf2;" horiz-adv-x="366" 
d="M251 594c-43 4 -54 28 -79 59c-4 6 -13 7 -18 11c-11 8 -19 24 -28 30c-6 4 -14 8 -21 12l-8 21l-16 12l4 21l29 -4l16 8l34 -4c11 -20 25 -39 37 -58v-21c28 -21 48 -52 50 -87zM364 209c-2 -31 -5 -54 -8 -85c-69 -28 -117 -87 -166 -141c-44 17 -79 79 -136 79
c-20 0 -34 -18 -46 -18c-1 0 -3 0 -5 1c19 47 24 96 24 145c0 57 -7 115 -7 174c0 20 1 40 3 60c-4 5 -6 13 -6 21c0 6 1 13 4 18c36 7 69 30 107 30c36 18 70 36 90 72c15 -10 26 -28 46 -36c26 -33 72 -33 95 -69c3 -24 3 -47 3 -71c0 -38 -2 -76 -2 -113
c0 -23 1 -45 4 -67zM256 106l-10 57c6 40 8 79 8 118c0 44 -2 88 -5 133l-8 15l-23 8c-22 0 -41 25 -60 25c-39 0 -40 -119 -40 -152c0 -61 10 -120 10 -178c31 -8 49 -33 75 -49c4 -4 8 -5 12 -5c14 0 27 22 41 28z" />
    <glyph glyph-name="ocircumflex" unicode="&#xf4;" horiz-adv-x="366" 
d="M292 603l-16 -11c-15 7 -30 17 -35 33l-16 11v12l-8 8c0 15 0 39 -7 52l-11 3c-7 -6 -10 -18 -10 -26l-12 -3c0 -19 -21 -72 -36 -85c-4 -3 -24 -10 -30 -12c-7 5 -13 18 -13 26c10 14 11 32 18 48c18 44 11 82 44 109l11 1l5 10c16 0 32 1 48 2c24 -32 42 -65 50 -105
l8 -8c2 -13 11 -40 11 -56c0 -4 0 -7 -1 -9zM363 209c-2 -31 -5 -54 -8 -85c-69 -28 -117 -87 -166 -141c-44 17 -79 79 -136 79c-20 0 -34 -18 -46 -18c-1 0 -3 0 -5 1c19 47 24 96 24 145c0 57 -7 115 -7 174c0 20 1 40 3 60c-4 5 -6 13 -6 21c0 6 1 13 4 18
c36 7 69 30 107 30c36 18 70 36 90 72c15 -10 26 -28 46 -36c26 -33 72 -33 95 -69c3 -24 3 -47 3 -71c0 -38 -2 -76 -2 -113c0 -23 1 -45 4 -67zM255 106l-10 57c6 40 8 79 8 118c0 44 -2 88 -5 133l-8 15l-23 8c-22 0 -41 25 -60 25c-39 0 -40 -119 -40 -152
c0 -61 10 -120 10 -178c31 -8 49 -33 75 -49c4 -4 8 -5 12 -5c14 0 27 22 41 28z" />
    <glyph glyph-name="odieresis" unicode="&#xf6;" horiz-adv-x="367" 
d="M267 575l-23 19l-1 1c0 16 -34 19 -34 35v5c0 18 0 27 19 39c0 1 1 2 2 3l2 4c6 14 16 37 30 37c4 0 9 -2 13 -7c17 -19 58 -48 58 -67c0 -25 -49 -58 -66 -69zM84 616c-26 3 -33 10 -33 20c0 12 12 27 17 41l12 5c6 1 23 32 42 32c11 0 10 -5 15 -15
c19 -16 38 -36 38 -62c0 -7 -16 -14 -20 -17c-7 -7 -26 -43 -43 -43c-13 0 -25 29 -28 39zM364 209c-2 -31 -5 -54 -8 -85c-69 -28 -117 -87 -166 -141c-44 17 -79 79 -136 79c-20 0 -34 -18 -46 -18c-1 0 -3 0 -5 1c19 47 24 96 24 145c0 57 -7 115 -7 174c0 20 1 40 3 60
c-4 5 -6 13 -6 21c0 6 1 13 4 18c36 7 69 30 107 30c36 18 70 36 90 72c15 -10 26 -28 46 -36c26 -33 72 -33 95 -69c3 -24 3 -47 3 -71c0 -38 -2 -76 -2 -113c0 -23 1 -45 4 -67zM256 106l-10 57c6 40 8 79 8 118c0 44 -2 88 -5 133l-8 15l-23 8c-22 0 -41 25 -60 25
c-39 0 -40 -119 -40 -152c0 -61 10 -120 10 -178c31 -8 49 -33 75 -49c4 -4 8 -5 12 -5c14 0 27 22 41 28z" />
    <glyph glyph-name="otilde" unicode="&#xf5;" horiz-adv-x="367" 
d="M322 654c-3 -1 -6 -3 -9 -5l1 -9c-16 -16 -27 -39 -40 -58c-13 1 -26 4 -38 7c-7 0 -57 9 -62 13c-2 1 -9 10 -11 12c-4 -2 -7 -2 -10 -2c-6 0 -11 5 -23 5c-28 0 -38 -41 -50 -41c-7 0 -9 5 -9 9c0 9 8 23 11 27c0 12 7 19 16 28c23 22 30 34 43 34c7 0 17 -5 34 -14
c26 -14 86 -21 89 -21c20 0 38 50 57 74c3 1 6 1 9 1c7 0 9 -4 9 -10c0 -16 -15 -44 -17 -50zM364 209c-2 -31 -5 -54 -8 -85c-69 -28 -117 -87 -166 -141c-44 17 -79 79 -136 79c-20 0 -34 -18 -46 -18c-1 0 -3 0 -5 1c19 47 24 96 24 145c0 57 -7 115 -7 174
c0 20 1 40 3 60c-4 5 -6 13 -6 21c0 6 1 13 4 18c36 7 69 30 107 30c36 18 70 36 90 72c15 -10 26 -28 46 -36c26 -33 72 -33 95 -69c3 -24 3 -47 3 -71c0 -38 -2 -76 -2 -113c0 -23 1 -45 4 -67zM256 106l-10 57c6 40 8 79 8 118c0 44 -2 88 -5 133l-8 15l-23 8
c-22 0 -41 25 -60 25c-39 0 -40 -119 -40 -152c0 -61 10 -120 10 -178c31 -8 49 -33 75 -49c4 -4 8 -5 12 -5c14 0 27 22 41 28z" />
    <glyph glyph-name="uacute" unicode="&#xfa;" horiz-adv-x="439" 
d="M324 719l-17 -12c-12 -30 -37 -52 -64 -68l-17 2l6 -15c-19 -26 -45 -49 -78 -52l-6 21c21 40 48 72 78 104c15 17 31 59 48 75c16 0 31 -31 46 -34zM436 81c-54 -7 -68 -65 -102 -92c-32 13 -51 60 -93 60c-44 0 -74 -59 -116 -70c-24 0 -14 27 -20 41
c-35 37 -52 85 -100 112c55 45 28 134 42 195c-3 10 -1 52 -17 52c-6 0 -13 -3 -19 -3c-4 0 -7 1 -9 6c10 34 62 27 65 68c21 52 86 48 116 96c3 0 7 1 10 1c6 0 7 -2 7 -8c-7 -27 -17 -48 -24 -75c0 -68 -7 -135 -7 -202c0 -14 0 -27 1 -41c-7 -11 -10 -21 -10 -31
c0 -30 26 -56 37 -85c7 -2 15 -11 23 -11c4 0 8 2 11 8c54 52 28 143 41 215c3 9 4 18 4 28c0 15 -2 31 -2 46c0 16 3 29 15 39l4 10c-4 4 -7 0 -11 4v10l62 65c7 0 14 -4 17 -10c-2 -7 -3 -13 -3 -19c0 -42 48 -64 75 -94c0 -19 -9 -38 -21 -52c0 -75 -28 -138 -28 -209
c0 -7 0 -13 1 -20c21 -10 44 -17 51 -34z" />
    <glyph glyph-name="ugrave" unicode="&#xf9;" horiz-adv-x="438" 
d="M286 561c-43 4 -55 28 -79 59c-5 5 -13 6 -19 11c-11 8 -19 24 -27 30c-7 4 -15 8 -21 12l-8 21l-16 12l4 21l29 -4l16 8l34 -4c10 -21 24 -39 37 -58v-21c28 -21 47 -53 50 -87zM436 81c-54 -7 -68 -65 -102 -92c-32 13 -51 60 -93 60c-44 0 -74 -59 -116 -70
c-24 0 -14 27 -20 41c-35 37 -52 85 -100 112c55 45 28 134 42 195c-3 10 -1 52 -17 52c-6 0 -13 -3 -19 -3c-4 0 -7 1 -9 6c10 34 62 27 65 68c21 52 86 48 116 96c3 0 7 1 10 1c6 0 7 -2 7 -8c-7 -27 -17 -48 -24 -75c0 -68 -7 -135 -7 -202c0 -14 0 -27 1 -41
c-7 -11 -10 -21 -10 -31c0 -30 26 -56 37 -85c7 -2 15 -11 23 -11c4 0 8 2 11 8c54 52 28 143 41 215c3 9 4 18 4 28c0 15 -2 31 -2 46c0 16 3 29 15 39l4 10c-4 4 -7 0 -11 4v10l62 65c7 0 14 -4 17 -10c-2 -7 -3 -13 -3 -19c0 -42 48 -64 75 -94c0 -19 -9 -38 -21 -52
c0 -75 -28 -138 -28 -209c0 -7 0 -13 1 -20c21 -10 44 -17 51 -34z" />
    <glyph glyph-name="ucircumflex" unicode="&#xfb;" horiz-adv-x="439" 
d="M339 585l-16 -11c-15 7 -30 17 -35 33l-16 11v12l-8 8c0 15 0 39 -7 52l-11 3c-7 -6 -10 -18 -10 -26l-12 -3c0 -19 -21 -70 -36 -85c-4 -3 -25 -10 -30 -12c-8 5 -13 17 -13 26c10 14 11 32 18 48c18 44 10 82 44 109l11 1l5 10c16 0 32 2 48 2c24 -31 42 -64 50 -105
l8 -8c2 -12 11 -39 11 -55c0 -4 0 -8 -1 -10zM436 81c-54 -7 -68 -65 -102 -92c-32 13 -51 60 -93 60c-44 0 -74 -59 -116 -70c-24 0 -14 27 -20 41c-35 37 -52 85 -100 112c55 45 28 134 42 195c-3 10 -1 52 -17 52c-6 0 -13 -3 -19 -3c-4 0 -7 1 -9 6c10 34 62 27 65 68
c21 52 86 48 116 96c3 0 7 1 10 1c6 0 7 -2 7 -8c-7 -27 -17 -48 -24 -75c0 -68 -7 -135 -7 -202c0 -14 0 -27 1 -41c-7 -11 -10 -21 -10 -31c0 -30 26 -56 37 -85c7 -2 15 -11 23 -11c4 0 8 2 11 8c54 52 28 143 41 215c3 9 4 18 4 28c0 15 -2 31 -2 46c0 16 3 29 15 39
l4 10c-4 4 -7 0 -11 4v10l62 65c7 0 14 -4 17 -10c-2 -7 -3 -13 -3 -19c0 -42 48 -64 75 -94c0 -19 -9 -38 -21 -52c0 -75 -28 -138 -28 -209c0 -7 0 -13 1 -20c21 -10 44 -17 51 -34z" />
    <glyph glyph-name="udieresis" unicode="&#xfc;" horiz-adv-x="440" 
d="M306 549c-10 2 -18 14 -22 21c0 17 -34 22 -34 35v5c0 19 0 27 19 39c0 1 1 1 1 2c6 13 17 42 33 42c4 0 8 -2 13 -7c16 -17 58 -48 58 -67c0 -25 -53 -60 -68 -70zM125 591c-26 3 -33 11 -33 20c0 12 12 27 17 41l12 5c5 2 23 33 41 33c10 0 12 -3 16 -16
c19 -15 38 -35 38 -62c0 -7 -16 -13 -20 -17c-5 -2 -25 -43 -42 -43c-14 0 -26 30 -29 39zM437 81c-54 -7 -68 -65 -102 -92c-32 13 -51 60 -93 60c-44 0 -74 -59 -116 -70c-24 0 -14 27 -20 41c-35 37 -52 85 -100 112c55 45 28 134 42 195c-3 10 -1 52 -17 52
c-6 0 -13 -3 -19 -3c-4 0 -7 1 -9 6c10 34 62 27 65 68c21 52 86 48 116 96c3 0 7 1 10 1c6 0 7 -2 7 -8c-7 -27 -17 -48 -24 -75c0 -68 -7 -135 -7 -202c0 -14 0 -27 1 -41c-7 -11 -10 -21 -10 -31c0 -30 26 -56 37 -85c7 -2 15 -11 23 -11c4 0 8 2 11 8
c54 52 28 143 41 215c3 9 4 18 4 28c0 15 -2 31 -2 46c0 16 3 29 15 39l4 10c-2 2 -4 2 -6 2s-3 0 -5 2v10l62 65c7 0 14 -4 17 -10c-2 -7 -3 -13 -3 -19c0 -42 48 -64 75 -94c0 -19 -9 -38 -21 -52c0 -75 -28 -138 -28 -209c0 -7 0 -13 1 -20c21 -10 44 -17 51 -34z" />
    <glyph glyph-name="dagger" unicode="&#x2020;" horiz-adv-x="700" 
 />
    <glyph glyph-name="section" unicode="&#xa7;" horiz-adv-x="578" 
 />
    <glyph glyph-name="bullet" unicode="&#x2022;" horiz-adv-x="478" 
d="M450 268c-7 0 -27 -24 -27 -31c0 -5 0 -8 16 -8l6 -13v-3c0 -19 -12 -27 -25 -45c-19 0 -16 -4 -24 -10c5 -12 7 -24 7 -36c0 -35 -19 -69 -54 -86c-8 -17 -9 -38 -9 -45v-3l10 20c1 -6 1 -11 1 -15c0 -39 -32 -55 -41 -55h-10c0 -10 10 -10 10 -20l10 10s1 -4 1 -10
c0 -17 -16 -41 -45 -41h-2c-4 0 -9 0 -14 1c0 18 6 28 10 30c-7 11 -9 16 -12 30c-10 -20 -28 -30 -28 -30c-19 11 -21 21 -26 30c-6 -10 -8 -17 -8 -27c13 -13 14 -18 14 -33c0 0 -5 -5 -10 -5c-36 0 -50 26 -50 45v10l10 -7c8 6 5 12 10 17h-10c-9 0 -41 16 -41 55
c0 4 0 9 1 15l10 -20s1 5 1 13s-3 18 -8 31v1c-37 21 -62 54 -63 83c0 28 6 43 6 43c-10 0 -6 9 -16 9c-20 19 -30 30 -30 44c0 7 3 15 10 26c5 0 11 0 11 4c0 -3 -10 26 -21 26c0 8 -17 83 -17 145c0 20 1 41 7 55c8 18 40 99 158 99c21 0 45 -3 72 -9c29 9 54 13 76 13
c72 0 157 -55 159 -138v-12c0 -67 -25 -145 -25 -153zM130 148c0 0 -5 4 -7 4s-3 0 -3 -4c0 -20 -10 -20 -10 -50c0 -14 5 -14 5 -24v-21c1 0 8 8 8 26c0 5 0 10 -2 17c0 2 -1 5 -1 7c0 16 10 28 10 45zM110 158h-10c0 -20 -10 -30 -10 -50s10 -20 10 -40c4 4 4 6 4 10
c0 6 -4 14 -4 20c0 30 10 40 10 60zM90 158c-1 1 -2 1 -4 1c-7 0 -13 -16 -13 -40c0 -22 7 -31 17 -41c0 10 -10 20 -10 30c0 20 10 40 10 50zM450 468c-20 61 -82 80 -139 80c-26 0 -52 -4 -71 -10c-22 8 -52 15 -84 15c-52 0 -136 -32 -136 -151c0 -46 21 -75 21 -103
c0 -3 0 -7 -1 -11c0 -16 4 -12 10 -20c24 -20 31 -27 31 -30c0 -4 -36 4 -36 -24c0 -12 13 -15 25 -26c9 -17 16 -21 28 -21c6 0 13 1 22 1c30 0 20 -20 30 -30c0 0 -14 -26 -14 -74c0 -25 4 -111 35 -111c2 0 4 0 4 1c0 5 -17 27 -17 62c0 22 2 52 12 82
c0 -21 10 -115 10 -160c0 -11 -12 -14 -12 -26c0 -23 33 -26 31 -26c1 0 2 1 2 2c0 8 -16 23 -16 23c0 8 9 16 9 37c0 18 -4 21 -4 40c0 20 0 50 10 80v-32c0 -43 1 -105 28 -105l-7 66l9 101s10 -80 10 -110c0 -20 -5 -57 -5 -57c31 17 33 108 33 137c5 -14 6 -34 6 -51
c0 -11 -1 -20 -1 -26c-2 -17 -8 -28 -8 -43c0 -27 19 -30 19 -37c0 0 -18 -23 -18 -25c20 0 37 10 37 26v1c-2 10 -13 15 -23 25c0 10 10 50 10 50c10 20 10 110 10 110c10 -30 13 -60 13 -82c0 -39 -22 -57 -22 -62c0 -1 2 -1 4 -1c33 4 39 89 39 109c0 45 -14 76 -14 76
c10 10 5 30 29 30l29 1c11 0 20 2 22 19c15 15 20 6 20 30c-12 11 -27 9 -27 16c0 5 8 17 37 44c-1 3 -1 5 -1 8c0 31 31 56 31 117c0 19 -4 40 -10 65zM210 288c0 0 14 -17 14 -30c0 -6 -4 -10 -14 -10c-6 1 -12 3 -17 3c-23 0 -42 -10 -59 -10c-25 0 -45 16 -45 32
s11 35 11 35h-20s10 10 50 10c41 0 69 -35 78 -35c1 0 2 1 2 5zM260 288c0 -4 1 -5 3 -5c11 0 43 35 77 35c40 0 50 -10 50 -10h-20c0 0 11 -19 11 -35s-20 -32 -45 -32c-18 0 -37 10 -58 10c-7 0 -12 -2 -18 -3c-10 0 -14 4 -14 10c0 13 14 30 14 30zM220 218c0 0 3 3 5 3
c3 0 5 -3 5 -13c-4 -4 -5 -10 -5 -17c0 -15 5 -33 5 -33c-10 -10 -17 -12 -22 -12c-10 0 -10 5 -10 8c0 18 22 55 22 64zM240 218h1c2 0 5 -1 5 -9c8 0 22 -36 22 -48c0 -3 -3 -10 -13 -10c-4 0 -11 3 -15 7c0 0 4 18 4 33c0 16 -9 21 -9 25c0 2 5 2 5 2zM333 148
c0 -17 10 -29 10 -45c0 -2 -2 -5 -2 -7c-1 -7 -1 -12 -1 -17c0 -18 6 -26 8 -26v21c0 10 5 10 5 24c0 30 -10 30 -10 50c0 4 -2 4 -3 4c-2 0 -7 -4 -7 -4zM353 158c0 -20 10 -30 10 -60c0 -6 -4 -14 -4 -20c0 -4 0 -6 4 -10c0 20 10 20 10 40s-10 30 -10 50h-10zM373 158
c0 -10 10 -30 10 -50c0 -10 -10 -20 -10 -30c10 10 17 19 17 41c0 24 -6 40 -14 40c-1 0 -2 0 -3 -1z" />
    <glyph glyph-name="paragraph" unicode="&#xb6;" horiz-adv-x="720" 
d="M713 -81c-65 -40 -130 -87 -209 -105c-6 1 -12 1 -17 1c-38 0 -70 -17 -106 -17c-59 0 -94 34 -143 34c-22 36 -69 26 -83 62c-55 17 -77 75 -95 120l-2 5c-1 3 -2 7 -2 10c0 9 3 18 6 23c-51 0 -22 65 -47 86c2 6 2 13 2 19c0 27 -13 52 -13 77c0 8 1 15 4 23
c-3 5 -5 10 -5 16c0 15 11 29 11 45c0 8 -2 16 -10 25c18 69 21 148 65 212c42 62 90 123 151 173c40 6 59 36 101 36c73 34 170 37 245 37c45 0 83 -20 125 -30c3 -19 9 -36 9 -54c0 -21 -8 -21 -20 -21h-3c0 23 -12 25 -25 25c-3 0 -6 -1 -8 -1c-9 0 -19 1 -25 8
c-14 0 -29 0 -39 -11c-11 4 -36 -3 -36 22c-4 1 -6 2 -9 2c-14 0 -13 -21 -29 -21c-2 0 -4 0 -6 1c-2 -1 -4 -1 -6 -1c-8 0 -18 2 -26 2c-9 0 -16 -2 -18 -12c1 -37 2 -75 2 -112c0 -82 -4 -163 -4 -239c0 -24 11 -44 11 -66c0 -11 -6 -21 -6 -33c0 -15 6 -29 6 -43
c0 -7 -1 -14 -5 -21c0 -12 -1 -25 -1 -36c0 -9 1 -17 8 -25c-12 -30 -16 -63 -16 -96c0 -45 7 -90 9 -127c10 -18 36 -18 50 -29c68 14 126 50 187 79c9 -9 26 -19 26 -32c0 -4 -1 -7 -4 -11zM51 45c0 0 -4 0 -4 -4c-1 1 -2 3 -2 5c0 3 2 7 7 7c0 0 -1 -5 -1 -8zM245 505v7
h-7v-7h7zM385 -121c0 85 -7 167 -7 251c0 36 2 73 7 112c-3 130 -3 267 -3 403v40c-6 11 -13 14 -20 14c-15 0 -33 -17 -52 -17c-3 0 -7 1 -11 3c-13 -18 -16 -39 -16 -61c0 -15 1 -30 1 -45c0 -12 0 -23 -3 -34c0 -53 -5 -103 -5 -152c0 -25 1 -50 5 -75
c0 -122 8 -244 8 -367c0 -23 -1 -46 -1 -68c4 -29 36 -11 51 -25c4 7 11 9 18 9c3 0 6 -1 10 -1c7 0 14 2 18 13zM180 437h-7l4 -11c2 0 5 1 5 5c0 1 -1 3 -2 6zM119 415c0 4 0 7 -3 7v-7h3z" />
    <glyph glyph-name="germandbls" unicode="&#xdf;" horiz-adv-x="505" 
d="M174 267c44 34 89 42 117 84l-1 18c11 14 24 31 24 51c0 22 -14 28 -16 35l9 13c-32 0 -50 3 -64 3c-24 0 -35 -8 -77 -53c1 -7 2 -15 2 -22c0 -26 -7 -53 -7 -79c0 -17 3 -34 13 -50zM476 89c-2 -21 -12 -35 -24 -52l-21 -5c0 -18 -14 -35 -23 -48l-16 -2
c-44 -42 -94 -91 -106 -151c3 1 7 1 10 1c15 0 26 -9 42 -13c72 -18 95 -18 95 -35c0 -13 -14 -35 -28 -83l-41 -7l-3 -7c-16 0 -39 1 -50 14l-19 4l-27 26c-2 -1 -4 -1 -6 -1c-14 0 -21 15 -29 25l-2 17l-8 1c-10 14 -14 30 -14 45c0 52 47 105 78 141c21 1 63 126 91 155
l-12 26l7 14c-15 85 -63 45 -108 82c-28 -6 -53 -24 -82 -29l-9 3c0 -29 9 -58 9 -87c0 -10 -1 -21 -5 -31c14 -23 38 -26 62 -28l11 -18l-34 -41l-16 3c-7 -22 -19 -40 -34 -57l-34 -8c-9 13 -19 25 -30 36h-9c-6 15 -25 35 -42 38l-6 24c11 29 14 60 14 91
c0 34 -4 69 -4 105c0 18 1 36 4 54l13 10l-15 24l3 47c-34 69 -56 66 -56 74c0 5 14 18 46 77l-11 40c0 1 -1 2 -1 3c0 46 171 213 217 215c63 0 117 -46 180 -46c6 0 11 0 17 1l-5 -35c-67 -44 -79 -73 -109 -73c-21 0 -51 15 -114 49c-52 -26 -61 -101 -61 -158
c0 -10 1 -19 1 -27l23 27c0 27 10 51 34 65c49 -4 99 -18 148 -28l17 10c11 -2 20 -2 28 -2c29 0 39 11 68 42l20 -36l-6 -21l-29 -18c-4 -26 -21 -47 -40 -64l-5 5c-11 -15 -20 -31 -26 -48c-30 -19 -46 -47 -46 -78c0 -16 5 -34 16 -51c33 -4 67 -9 97 -23l11 -18l5 1
c15 -23 25 -56 25 -89c0 -30 -8 -58 -26 -77z" />
    <glyph glyph-name="registered" unicode="&#xae;" horiz-adv-x="329" 
 />
    <glyph glyph-name="acute" unicode="&#xb4;" horiz-adv-x="178" 
d="M177 626l-17 -12c-12 -30 -37 -52 -64 -68l-17 2l6 -15c-19 -26 -45 -49 -78 -52l-6 21c21 39 48 72 78 104c16 17 32 59 49 75c15 0 30 -31 45 -34z" />
    <glyph glyph-name="dieresis" unicode="&#xa8;" horiz-adv-x="289" 
d="M217 493c-9 1 -15 10 -20 18c0 1 -1 1 -1 2l-1 1c0 17 -34 20 -34 35v5c0 19 0 27 19 39c5 12 18 44 34 44c4 0 8 -2 13 -7c16 -18 58 -49 58 -67c0 -25 -53 -60 -68 -70zM36 535c-26 3 -33 11 -33 20c0 12 12 27 17 41l12 5c5 2 23 33 41 33c10 0 12 -3 16 -16
c19 -15 38 -36 38 -62c0 -7 -16 -14 -20 -17c-4 -4 -26 -43 -42 -43c-14 0 -26 30 -29 39z" />
    <glyph glyph-name="AE" unicode="&#xc6;" horiz-adv-x="1639" 
d="M487 635c-6 6 -11 10 -16 14c-31 -68 -99 -199 -133 -273c33 7 58 14 64 22c39 88 49 120 85 237zM343 307c-6 5 -16 8 -28 10c-10 -43 -33 -148 -49 -208c22 12 41 25 51 46c-2 7 -3 14 -3 21c0 40 30 67 30 115c0 5 0 10 -1 16zM729 361l4 -3c2 25 18 50 34 68l-1 44
c0 11 1 23 3 34l-9 41c-17 34 -53 51 -88 51c-19 0 -39 -5 -55 -15c-54 -76 -94 -143 -126 -229c47 0 78 40 117 59c22 22 36 53 63 62c22 -35 40 -76 58 -112zM822 119c-34 56 -62 116 -77 166c-49 -9 -110 -9 -133 -63c-40 41 -76 77 -130 81c-13 -4 -22 -4 -31 -18
c-9 -45 -49 -80 -54 -121c4 -1 8 -1 13 -1c28 0 60 10 90 10c72 -22 157 -36 216 -89c41 0 57 -51 91 -51c6 0 13 2 21 6c2 8 2 17 2 26c0 17 -3 36 -8 54zM1635 492c0 -27 -66 -108 -94 -109c-17 10 -37 17 -55 25l-53 -10l-12 12c-29 -22 -56 -29 -90 -35
c-51 -9 -24 -218 -40 -264l50 -52c72 0 156 57 218 91l12 26l-9 44l36 45l35 -8v-43c0 -14 -24 -57 -24 -105c0 -98 -229 -225 -310 -225c-23 0 -55 -3 -88 -3c-57 0 -116 9 -127 55h-3c-16 -8 -35 -16 -43 -16l-4 -9c-14 -29 -29 -58 -54 -83c-36 5 -23 49 -45 72
c-13 36 -58 31 -72 63c-62 -5 -107 -68 -125 -121c-9 -9 -20 -16 -31 -16c-6 0 -12 2 -18 7c-18 62 -59 147 -135 156c-80 18 -157 50 -242 59c-58 0 -231 -52 -254 -106c0 -11 6 -39 6 -62c0 -30 -14 -37 -33 -37c-29 0 -21 34 -28 45c-1 5 -1 10 -1 14
c0 85 88 121 157 149l13 5c14 57 61 181 88 264c-57 -1 -124 -9 -149 -9c-1 1 -1 2 -1 4c0 22 85 37 163 50c4 13 6 23 7 30c3 56 35 105 38 105c2 0 34 79 56 135c-67 -29 -135 -62 -183 -117h-13c0 32 18 58 18 94c67 32 121 112 206 117c13 -3 27 -4 42 -4
c30 0 61 4 88 4c87 -9 140 -103 230 -103c16 0 34 -4 53 -4c13 0 26 1 39 5c91 80 129 94 364 94l2 27c0 20 -19 47 -29 63l48 35c26 0 65 -19 65 -49c0 -18 -7 -35 -17 -49l38 -6l48 28c54 0 25 -70 171 -70c28 0 38 -24 38 -49c0 -45 -33 -52 -66 -52c-15 0 -31 2 -42 2
c-15 0 -29 -14 -44 -14c-27 0 -56 14 -80 26l-34 -15c0 -40 -30 -7 -30 -55c0 -8 1 -18 3 -30l-13 -22c19 -19 35 -46 44 -72c35 13 68 29 101 45l4 23c25 19 145 54 177 54c27 0 33 -27 33 -49zM1268 398l-19 19c-9 78 -17 157 -27 235c-18 6 -35 15 -52 25
c-14 -18 -28 -35 -43 -52c1 -69 3 -139 3 -208l-13 -18c1 -18 33 -52 33 -89s-10 -72 -10 -109c0 -50 34 -88 56 -131l4 1c10 0 20 -3 28 -8c22 2 26 24 26 41c0 64 -12 131 -27 193l-1 -1c0 38 40 79 42 102zM1097 409c0 20 -7 40 -7 60c0 38 3 75 3 113
c0 41 -10 43 -43 49c-2 0 -5 1 -7 1c-22 -27 -73 -92 -95 -139c8 -89 5 -176 21 -264c26 -59 62 -118 89 -118c29 0 35 70 35 135c0 45 -3 88 -3 104c0 20 7 39 7 59z" />
    <glyph glyph-name="ae" unicode="&#xe6;" horiz-adv-x="632" 
d="M407 457c-5 -9 -8 -19 -8 -30l-10 -14l-2 -22c1 -10 9 -19 9 -31c0 -6 -1 -13 -1 -19c0 -15 3 -29 17 -35c14 9 27 24 34 35c13 19 43 30 48 54c-9 5 -12 10 -20 13l-6 13c-19 12 -37 34 -61 36zM411 77c6 -5 13 -6 21 -6c40 0 99 44 124 55l27 18c3 -2 4 -5 4 -8
c0 -4 -2 -9 -3 -11c-37 -47 -135 -96 -177 -128c-19 -2 -25 -19 -40 -19c-11 0 -21 26 -33 40l-7 -11c-19 8 -25 25 -31 42l-36 21c-14 -10 -26 -23 -39 -39c-21 -16 -40 -33 -62 -43c-12 3 -17 22 -29 22c-28 33 -67 60 -105 84c-3 12 -4 25 -4 38c0 38 9 78 9 118
c12 43 55 57 86 84c1 3 2 6 2 9c0 22 -32 38 -40 56c-22 33 -51 64 -75 95c0 5 0 12 6 12c23 0 43 -18 68 -18c6 0 13 1 20 4c38 7 84 5 103 46c14 9 19 33 36 40l2 -14c-1 -2 -2 -5 -2 -7c0 -7 5 -14 7 -22c31 -18 68 -32 99 -47c23 20 40 45 68 62c33 -1 42 -29 65 -47
c6 -7 17 -5 25 -11c29 -35 76 -34 108 -60c1 -1 3 -2 4 -2c3 0 6 1 9 1s6 0 9 -3c-7 -36 -68 -19 -80 -55c-27 -25 -50 -56 -91 -71c-7 -24 -43 -23 -45 -47c-6 -18 -9 -36 -9 -55c0 -8 1 -16 2 -25v-3c-1 -6 -1 -11 -1 -16c0 -19 3 -40 5 -79zM195 499c-2 5 -4 7 -6 7
c-6 0 -13 -11 -13 -16c7 0 14 2 19 9zM272 307c3 11 4 20 4 30c0 9 -1 18 -4 28c2 3 3 6 4 10c0 5 -1 9 -1 14c0 2 1 5 1 7c-9 21 -39 34 -52 50c-25 7 -48 31 -63 31c-16 0 -47 -18 -47 -29c0 -9 5 -19 7 -28c43 -48 79 -96 144 -115zM277 190c-2 5 -2 11 -2 17
c0 13 3 26 3 39c0 9 -2 17 -6 25c-36 8 -63 41 -101 41c-23 0 -27 -57 -27 -88c0 -32 4 -65 6 -97c8 -15 37 -37 53 -37s33 9 48 17c1 0 1 1 2 1c20 6 24 23 24 41c0 9 -1 19 -1 27c0 5 0 10 1 14z" />
    <glyph glyph-name="logicalnot" unicode="&#xac;" horiz-adv-x="359" 
 />
    <glyph glyph-name="florin" unicode="&#x192;" horiz-adv-x="644" 
 />
    <glyph glyph-name="nbspace" unicode="&#xa0;" horiz-adv-x="223" 
 />
    <glyph glyph-name="OE" unicode="&#x152;" horiz-adv-x="1331" 
d="M771 700c3 -5 7 -10 12 -14c-3 7 -6 11 -12 14zM634 46c-40 -55 -107 -58 -166 -73l-29 13c-14 -3 -27 -4 -39 -4c-59 0 -103 28 -165 28c-64 68 -108 25 -142 60c-58 61 -90 203 -90 338c0 145 36 284 113 315c5 0 7 -5 7 -20c0 -30 -8 -91 -8 -150
c0 -79 14 -157 80 -157c5 0 11 1 17 2l9 12c-10 41 -71 114 -71 189c0 52 30 68 42 99l-21 33c38 3 60 39 97 39c5 0 10 -1 15 -2c27 64 106 55 169 63l19 -12c11 2 26 3 42 3c54 0 129 -13 181 -39c60 15 128 15 216 15l3 27c0 18 -18 44 -29 60c0 1 -1 2 -1 2l49 35
c26 0 65 -18 65 -49c0 -17 -7 -34 -18 -48l38 -7l49 28c54 0 25 -70 170 -70c29 0 38 -24 38 -49c0 -45 -33 -52 -65 -52c-16 0 -31 2 -43 2c-14 0 -29 -13 -43 -13c-26 0 -53 12 -76 23l-4 2l-34 -15c0 -39 -30 -7 -30 -54c0 -8 1 -18 3 -31l-14 -22c20 -19 36 -46 45 -71
c32 11 62 25 92 40l8 4l4 23c25 20 145 54 178 54c26 0 32 -27 32 -48c0 -27 -65 -109 -93 -110c-18 10 -37 18 -56 25l-53 -10l-12 12c-28 -22 -55 -29 -89 -35c-52 -9 -25 -218 -41 -264l50 -52c73 1 156 57 218 91l13 26l-10 45l37 44l35 -8v-43c0 -13 -25 -56 -25 -104
c0 -99 -228 -225 -310 -225c-23 0 -56 -3 -90 -3c-56 0 -113 8 -125 54h-3c-5 -2 -30 -16 -35 -16c-33 0 -69 19 -104 50zM867 538c-11 -29 -15 -62 -15 -96c0 -41 5 -83 5 -119c0 -13 -9 -36 -23 -63c7 -42 35 -76 54 -114l5 2c9 0 19 -4 28 -9c21 2 26 24 26 41
c0 64 -12 131 -28 193l-1 -1c1 38 40 79 42 102l-19 19c0 3 -1 5 -1 8c-8 75 -15 152 -26 228c-18 6 -35 15 -51 24c-14 -18 -28 -35 -44 -52l2 -89c7 -4 15 -7 22 -10c10 -11 16 -48 24 -64zM500 220c0 -5 0 -11 -1 -16l-7 -8l-4 -28c9 -11 19 -21 30 -30l10 4
c7 -6 17 -10 30 -12c-21 28 -41 59 -58 90zM532 689l-2 1c-12 -11 -26 -18 -40 -26v-22c14 18 28 33 42 47zM744 486c-16 26 -33 50 -51 75c0 13 -1 26 -9 37c-7 2 -15 5 -23 9c-17 -29 -31 -56 -31 -73c-2 1 -4 2 -6 2c-8 0 -11 -11 -11 -26c0 -37 17 -101 17 -101
c0 -39 57 -181 102 -215c25 38 36 103 36 163c0 54 -9 105 -24 129zM461 671c-16 19 -34 37 -53 54c-25 -21 -67 -37 -67 -75c0 -23 10 -45 10 -68c0 -44 -22 -136 -22 -177c0 -30 15 -37 15 -59c0 -4 -1 -9 -2 -15h3l-3 -1l5 -17c-6 -16 -9 -31 -9 -47
c0 -51 27 -100 41 -141c4 -1 8 -1 12 -1c21 0 41 7 62 7c0 63 -6 139 -11 217c-11 32 -17 61 -17 83c0 14 6 28 13 41c0 73 5 142 23 199zM314 212c-13 18 -12 31 -13 52c7 9 10 19 10 29c0 30 -29 58 -62 58c-12 -14 -22 -28 -32 -42c-25 -1 -50 -6 -70 -21
c-8 -32 -31 -25 -31 -72c0 -70 84 -71 138 -71h13c38 0 27 45 47 67z" />
    <glyph glyph-name="oe" unicode="&#x153;" horiz-adv-x="602" 
d="M216 78l-3 2c0 26 26 21 34 42c2 5 3 10 5 14l-5 27c4 24 6 47 7 71l-1 2c2 8 3 19 3 30c0 50 -10 85 -10 125c0 9 0 18 2 27l-6 11l-23 8c-22 0 -41 25 -60 25c-39 0 -40 -119 -40 -151c0 -62 10 -121 10 -179c31 -8 49 -33 75 -49c4 -4 8 -5 12 -5zM600 428
c-7 -36 -68 -19 -80 -55c-27 -25 -50 -56 -91 -71c-7 -24 -43 -23 -44 -47c-7 -18 -10 -36 -10 -55c0 -23 9 -43 9 -66c0 -18 -3 -37 -3 -53c0 -11 21 -14 28 -14c25 0 49 20 71 30l26 18c4 -2 5 -5 5 -8c0 -4 -2 -8 -4 -11c-36 -47 -88 -67 -130 -99
c-19 -2 -25 -19 -40 -19c-3 0 -6 0 -9 2c-11 32 -40 55 -71 74c-23 -22 -45 -47 -66 -71c-44 17 -79 79 -136 79c-20 0 -34 -18 -46 -18c-1 0 -3 0 -5 1c19 47 24 96 24 145c0 57 -7 115 -7 174c0 20 1 40 3 60c-4 5 -6 13 -6 21c0 6 1 13 4 18c36 7 69 30 107 30
c36 18 70 36 90 72c15 -10 26 -28 46 -36c14 -18 34 -26 53 -36c20 20 37 42 62 57c33 -1 42 -29 65 -47c6 -7 17 -5 25 -11c29 -35 76 -34 108 -60c1 -1 3 -2 4 -2c3 0 6 1 9 1s6 0 9 -3zM464 395c-9 5 -12 10 -20 13l-6 13c-19 12 -39 36 -63 36c-4 0 -9 -1 -14 -3
c3 -30 5 -63 5 -94c0 -6 -1 -13 -1 -19c0 -15 3 -29 17 -35c14 9 27 24 34 35c13 19 43 30 48 54z" />
    <glyph glyph-name="emdash" unicode="&#x2014;" horiz-adv-x="522" 
d="M520 397c-6 -38 -45 -59 -63 -89c-23 -12 -26 -44 -50 -50c-46 15 -96 19 -147 19c-67 0 -136 -7 -200 -7c-21 -15 -36 -27 -42 -51c-1 0 -3 -1 -4 -1c-6 0 -11 16 -11 19c0 30 36 37 48 62c38 24 41 81 86 98c24 2 50 4 75 4c63 0 126 -9 183 -27c38 5 63 45 104 45
c4 0 8 0 12 -1z" />
    <glyph glyph-name="quotedblleft" unicode="&#x201c;" horiz-adv-x="421" 
d="M155 687c4 7 12 12 20 15l6 -9c-7 -24 -58 -97 -58 -114c0 -1 29 -20 36 -30c24 -5 33 -15 33 -27c0 -29 -50 -70 -70 -83c-4 -13 -21 -37 -33 -37c-21 0 -39 51 -62 62l-4 15c-9 9 -20 14 -20 26c0 32 18 47 41 65c3 4 8 16 11 20c13 29 69 84 100 97zM257 553l6 3
c14 24 32 37 45 64c6 4 12 9 18 14l2 10c3 2 6 2 10 2c10 14 27 37 45 39l20 16l6 -9c-7 -40 -38 -70 -55 -106c15 -21 31 -30 51 -46c2 -12 6 -21 12 -32l-33 -49h-8l-1 -8c-18 -6 -50 -48 -71 -48c-8 0 -15 7 -18 25c-15 12 -22 28 -31 44c-7 4 -10 12 -12 18l-13 7
c-2 5 -3 10 -3 14c0 18 19 23 30 42z" />
    <glyph glyph-name="quotedblright" unicode="&#x201d;" horiz-adv-x="421" 
d="M266 375c-5 -7 -12 -12 -20 -15l-6 9c6 26 58 101 58 116c-15 7 -28 14 -36 28c-24 5 -33 15 -33 27c0 30 50 71 70 83c3 12 20 37 33 37c20 0 38 -50 62 -62l4 -15c8 -8 20 -15 20 -28c0 -42 -36 -46 -52 -83c-13 -29 -70 -84 -100 -97zM164 509l-6 -3
c-15 -23 -33 -37 -45 -64c-7 -4 -13 -9 -18 -14l-2 -10c-3 -1 -7 -2 -10 -2l-2 -3c-10 -13 -26 -34 -43 -36l-20 -16l-6 9c6 41 37 70 55 106c-16 21 -31 30 -51 46c-3 12 -6 21 -12 32c11 16 22 34 33 49h8l1 8c17 6 49 48 70 48c8 0 15 -7 19 -25c15 -12 21 -28 31 -44
c6 -3 10 -12 12 -18l13 -7c2 -5 2 -10 2 -13c0 -19 -18 -24 -29 -43z" />
    <glyph glyph-name="quoteleft" unicode="&#x2018;" horiz-adv-x="194" 
d="M31 536l6 3c14 23 32 37 45 64c6 4 12 9 18 14l2 10c3 1 6 2 10 2l2 3c10 13 26 34 43 36l20 16l6 -9c-7 -41 -37 -70 -55 -106c15 -21 31 -30 51 -46c2 -12 6 -21 12 -32c-11 -16 -22 -34 -33 -49h-8l-1 -8c-17 -6 -49 -48 -71 -48c-8 0 -15 7 -18 25
c-15 12 -22 28 -31 44c-7 3 -10 12 -12 18l-13 7c-2 5 -3 10 -3 14c0 18 19 23 30 42z" />
    <glyph glyph-name="quoteright" unicode="&#x2019;" horiz-adv-x="193" 
d="M163 509l-6 -3c-15 -23 -33 -37 -45 -64c-7 -4 -13 -9 -18 -14l-2 -10c-3 -1 -7 -2 -10 -2l-2 -3c-10 -13 -26 -34 -43 -36l-20 -16l-6 9c6 41 37 70 55 106c-16 21 -31 30 -51 46c-3 12 -6 21 -12 32c11 16 22 34 33 49h8l1 8c17 6 49 48 70 48c8 0 15 -7 19 -25
c15 -12 21 -28 31 -44c6 -3 10 -12 12 -18l13 -7c2 -5 2 -10 2 -13c0 -19 -18 -24 -29 -43z" />
    <glyph glyph-name="fraction" unicode="&#x2044;" horiz-adv-x="720" 
 />
    <glyph glyph-name="currency" unicode="&#xa4;" horiz-adv-x="729" 
 />
    <glyph glyph-name="guilsinglleft" unicode="&#x2039;" horiz-adv-x="606" 
 />
    <glyph glyph-name="guilsinglright" unicode="&#x203a;" horiz-adv-x="713" 
 />
    <glyph glyph-name="fi" unicode="&#xfb01;" horiz-adv-x="465" 
d="M463 124c0 -11 -2 -19 -12 -24h-14c-17 -26 -43 -47 -54 -76c-26 -2 -12 -37 -34 -37c-2 0 -5 1 -9 2c0 52 -93 43 -93 79c0 15 17 26 17 43c0 3 0 7 -2 11c9 37 12 77 12 118c0 40 -3 82 -7 122c-4 -4 -9 -6 -17 -6c-14 0 -34 4 -50 4c-13 0 -24 -3 -29 -14
c-11 -36 -14 -72 -14 -108c0 -83 19 -167 19 -251v-3c0 -19 0 -48 -14 -48c-11 0 -21 23 -33 23c-32 17 -68 32 -103 42c0 18 10 32 18 50c3 22 4 43 4 64c0 60 -9 117 -9 178c0 23 2 46 5 70c-10 16 -41 0 -41 22c0 8 9 15 9 29c0 17 -8 40 -8 55c0 9 3 16 13 16
c6 0 15 -3 27 -8c20 13 24 35 24 59c0 15 -2 30 -2 45c0 45 23 28 45 42c60 38 124 86 163 149c5 4 11 6 15 6c21 0 35 -30 53 -38c1 0 1 -1 2 -1c25 -7 55 -15 58 -42c-14 -43 -64 -67 -85 -99c-29 10 -53 25 -82 28c-6 5 -11 7 -16 7c-15 0 -25 -22 -33 -35
c-3 -25 -21 -48 -21 -72c0 -7 2 -14 6 -21c-4 -4 -7 -12 -7 -19c0 -17 21 -19 33 -19c28 0 58 13 88 13l1 -1c14 13 27 26 42 38c57 -12 62 -78 109 -102l1 -1c4 -5 6 -9 6 -16s-7 -8 -13 -8c-11 0 -24 7 -33 7s-13 -5 -13 -24c-10 -86 -7 -159 -24 -242
c3 -14 10 -31 24 -38c24 5 50 14 66 31h12z" />
    <glyph glyph-name="fl" unicode="&#xfb02;" horiz-adv-x="532" 
d="M530 133c0 -15 -20 -23 -23 -37c-24 -37 -64 -57 -77 -100c-8 -3 -16 -4 -23 -4c-46 0 -64 58 -107 67c-4 5 -6 10 -6 15c0 16 16 34 16 52c0 33 17 61 17 95c0 11 -2 22 -7 35c3 25 3 51 3 78v26c0 40 1 80 10 117c-17 63 -8 63 -20 122c-27 11 -51 24 -78 27
c-6 5 -11 7 -16 7c-15 0 -25 -22 -33 -35c-3 -25 -21 -48 -21 -72c0 -7 2 -14 6 -21c-4 -4 -7 -12 -7 -19c0 -17 21 -19 33 -19c26 0 53 13 80 13c12 0 14 -8 14 -15c0 -14 -10 -30 -10 -45c-7 -20 3 -64 -32 -64c-14 0 -33 4 -49 4c-13 0 -24 -3 -29 -14
c-11 -36 -14 -72 -14 -108c0 -83 19 -167 19 -251v-3c0 -19 0 -48 -14 -48c-11 0 -21 23 -33 23c-32 17 -68 32 -103 42c0 18 10 32 18 50c3 22 4 43 4 64c0 60 -9 117 -9 178c0 23 2 46 5 70c-10 16 -41 0 -41 22c0 8 9 15 9 29c0 17 -8 40 -8 55c0 9 3 16 13 16
c6 0 15 -3 27 -8c20 13 24 35 24 59c0 15 -2 30 -2 45c0 45 23 28 45 42c60 38 124 86 163 149c5 4 11 6 15 6c21 0 35 -30 53 -38c25 -7 53 -11 56 -39c63 -47 74 -55 74 -65c0 -4 -1 -7 -2 -13c-26 -134 -17 -180 -30 -317c2 -11 3 -22 3 -32c0 -21 -4 -41 -6 -64
c16 -37 63 -54 93 -77z" />
    <glyph glyph-name="perthousand" unicode="&#x2030;" horiz-adv-x="413" 
d="M411 481c-51 -10 -81 -49 -135 -49l-5 -4c-56 -41 -122 -89 -122 -166c0 -6 0 -12 1 -18c25 -16 53 -33 81 -33c80 0 40 110 106 123c1 -14 1 -28 1 -42c0 -68 -8 -134 -21 -198c-16 -25 -41 -45 -69 -49c-41 8 -78 20 -110 49c-24 -6 -30 -22 -30 -41c0 -21 5 -45 5 -65
c20 -44 79 -24 79 -78c0 -26 -7 -49 -17 -73c-17 -4 -29 -16 -45 -16c-61 53 -53 142 -78 216c29 142 21 293 65 427v8c0 8 -1 18 -8 21c-57 -21 -34 -36 -92 -59c-3 -1 -5 -2 -7 -2c-6 0 -8 5 -8 12c0 14 9 39 22 61c48 44 142 85 142 163c0 8 -1 16 -3 25c0 1 -1 2 -1 3
c10 17 18 24 25 24c21 0 35 -52 57 -64c45 -49 77 -131 150 -147c8 -7 18 -14 18 -23c0 -2 -1 -3 -1 -5z" />
    <glyph glyph-name="Iacute" unicode="&#xcd;" horiz-adv-x="554" 
d="M553 765c0 -58 -17 -145 -59 -189c0 -21 0 -42 3 -61c-21 -30 -28 -53 -28 -71c0 -54 66 -70 66 -118c0 -51 -5 -102 -10 -154c5 -6 10 -14 13 -22v3l-1 -47c-102 -48 -204 -101 -299 -161c-60 0 -89 70 -132 70c-5 0 -11 -1 -16 -3l-26 -34c-13 9 -27 21 -35 36
c0 32 27 61 48 82c37 38 65 51 93 51c46 0 88 -38 157 -69c44 29 61 52 61 73c0 43 -71 76 -117 133c3 13 4 25 4 36c0 35 -8 67 -8 104c57 56 24 183 145 205c-14 14 -33 32 -53 32c-20 -34 -85 -137 -127 -137c-7 0 -9 1 -9 5c0 14 34 53 34 91c0 71 -65 32 -103 60
c-27 -3 -36 -9 -52 -30l-27 -8c-6 -15 -36 -30 -50 -34l-19 16l-3 14c20 36 106 129 158 129c4 0 8 -1 12 -2c5 32 22 43 42 43c33 0 76 -29 98 -44c4 1 9 1 14 1c39 0 97 -21 128 -34c45 13 41 30 98 34zM419 972l-17 -12c-12 -30 -37 -52 -64 -68l-17 2l6 -15
c-19 -26 -45 -49 -78 -52l-6 21c21 39 48 72 78 104c16 17 32 59 49 75c15 0 30 -31 45 -34z" />
    <glyph glyph-name="Idieresis" unicode="&#xcf;" horiz-adv-x="556" 
d="M553 765c0 -58 -17 -145 -59 -189c0 -21 0 -42 3 -61c-21 -30 -28 -53 -28 -71c0 -54 66 -70 66 -118c0 -51 -5 -102 -10 -154c5 -6 10 -14 13 -22v3l-1 -47c-102 -48 -204 -101 -299 -161c-60 0 -89 70 -132 70c-5 0 -11 -1 -16 -3l-26 -34c-13 9 -27 21 -35 36
c0 32 27 61 48 82c37 38 65 51 93 51c46 0 88 -38 157 -69c44 29 61 52 61 73c0 43 -71 76 -117 133c3 13 4 25 4 36c0 35 -8 67 -8 104c57 56 24 183 145 205c-14 14 -33 32 -53 32c-20 -34 -85 -137 -127 -137c-7 0 -9 1 -9 5c0 14 34 53 34 91c0 71 -65 32 -103 60
c-27 -3 -36 -9 -52 -30l-27 -8c-6 -15 -36 -30 -50 -34l-19 16l-3 14c20 36 106 129 158 129c4 0 8 -1 12 -2c5 32 22 43 42 43c33 0 76 -29 98 -44c4 1 9 1 14 1c39 0 97 -21 128 -34c45 13 41 30 98 34zM366 842c-9 1 -15 10 -20 18c0 1 -1 1 -1 2l-1 1
c0 17 -34 20 -34 35v5c0 19 0 27 19 39c5 12 18 44 34 44c4 0 8 -2 13 -7c16 -18 58 -49 58 -67c0 -25 -53 -60 -68 -70zM185 884c-26 3 -33 11 -33 20c0 12 12 27 17 41l12 5c5 2 23 33 41 33c10 0 12 -3 16 -16c19 -15 38 -36 38 -62c0 -7 -16 -14 -20 -17
c-4 -4 -26 -43 -42 -43c-14 0 -26 30 -29 39z" />
    <glyph glyph-name="Ograve" unicode="&#xd2;" horiz-adv-x="868" 
d="M868 538c-11 -29 -15 -62 -15 -96c0 -41 5 -83 5 -119c0 -48 -118 -226 -166 -229c-6 -25 -30 -39 -55 -44c-39 -59 -107 -62 -168 -77l-29 13c-14 -3 -27 -4 -39 -4c-59 0 -103 28 -165 28c-64 68 -108 25 -142 60c-58 61 -90 203 -90 338c0 145 36 284 113 315
c5 0 7 -5 7 -20c0 -30 -8 -91 -8 -150c0 -79 14 -157 80 -157c5 0 11 1 17 2l9 12c-10 41 -71 114 -71 189c0 52 30 68 42 99l-21 33c38 3 60 39 97 39c5 0 10 -1 15 -2c27 64 106 55 169 63l19 -12c11 2 26 3 42 3c79 0 201 -28 232 -81c18 -31 29 -49 56 -74l15 -53
c9 -5 18 -9 27 -12c10 -11 16 -48 24 -64zM745 486c-16 26 -33 50 -51 75c0 13 -1 26 -9 37c-46 13 -110 67 -154 92c-12 -11 -26 -18 -40 -26c0 -1 -1 -15 -1 -34c0 -30 2 -71 10 -78c-12 -24 -15 -56 -15 -92c0 -73 16 -163 16 -230c0 -9 0 -18 -1 -26l-7 -8l-4 -28
c9 -11 19 -21 30 -30l10 4c10 -9 30 -13 52 -13c39 0 85 12 98 31c65 1 90 103 90 195c0 56 -9 107 -24 131zM462 671c-16 19 -34 37 -53 54c-25 -21 -67 -37 -67 -75c0 -23 10 -45 10 -68c0 -44 -22 -136 -22 -177c0 -30 15 -37 15 -59c0 -4 -1 -9 -2 -15h3l-3 -1l5 -17
c-6 -16 -9 -31 -9 -47c0 -51 27 -100 41 -141c4 -1 8 -1 12 -1c21 0 41 7 62 7c0 97 -15 224 -15 343c0 72 5 140 23 197zM315 212c-13 18 -12 31 -13 52c7 9 10 19 10 29c0 30 -29 58 -62 58c-12 -14 -22 -28 -32 -42c-25 -1 -50 -6 -70 -21c-8 -32 -31 -25 -31 -72
c0 -70 84 -71 138 -71h13c38 0 27 45 47 67zM516 850c-43 4 -55 28 -79 59c-5 6 -13 7 -19 11c-10 8 -18 24 -27 30l-21 12l-8 21l-16 12l4 21l29 -4l16 8l34 -4c11 -20 24 -39 37 -58v-21c28 -21 47 -52 50 -87z" />
    <glyph glyph-name="dotlessi" unicode="&#x131;" horiz-adv-x="287" 
d="M285 124c0 -11 -2 -19 -12 -24h-14c-17 -26 -43 -47 -55 -76c-25 -2 -11 -37 -33 -37c-2 0 -5 1 -9 2c0 29 -28 32 -43 47c-20 3 -51 17 -51 33c0 14 17 26 17 42c0 3 0 7 -2 11c9 38 13 79 13 120c0 42 -4 86 -8 128c-1 15 3 29 -14 36c-18 -2 -39 -15 -57 -15
c-5 0 -11 1 -16 5v12c61 17 99 69 149 109c57 -12 61 -78 109 -102c3 -6 7 -10 7 -17s-8 -8 -13 -8c-12 0 -25 7 -34 7s-12 -5 -12 -24c-10 -86 -8 -159 -24 -242c2 -14 9 -31 24 -38c23 5 49 14 66 31h12z" />
    <glyph glyph-name="circumflex" unicode="&#x2c6;" horiz-adv-x="202" 
d="M197 478l-16 -11c-15 7 -29 17 -35 33l-16 11v12l-8 8v5c0 15 0 35 -7 47l-11 3c-6 -5 -10 -18 -10 -26l-12 -3c0 -18 -20 -72 -36 -85c-3 -4 -24 -10 -30 -12c-6 5 -13 18 -13 26c11 14 12 32 18 48c17 44 11 82 44 109l11 1l5 10c16 0 32 1 48 2c24 -32 42 -65 50 -105
l8 -8c3 -13 12 -38 12 -55c0 -4 -1 -7 -2 -10z" />
    <glyph glyph-name="numbersign" unicode="#" horiz-adv-x="923" 
d="M609 638c1 -2 1 -4 1 -6c0 -12 -17 -15 -24 -25c-6 2 -11 3 -15 3c-34 0 -30 -52 -35 -82c0 -69 -3 -127 -3 -189c0 -18 0 -37 1 -57c2 -5 2 -9 2 -14c0 -19 -12 -39 -12 -54c0 -31 60 -22 67 -60c-43 -49 -83 -104 -112 -160c-21 0 -15 35 -26 52c-24 38 -64 63 -93 87
c6 49 40 79 40 131c12 25 6 59 12 84c-1 10 -1 20 -1 31c0 39 3 80 3 118c0 56 -7 109 -42 152c-50 -14 -90 -59 -122 -111c-11 -34 -13 -68 -13 -103c0 -22 1 -44 1 -66c0 -30 -1 -59 -8 -87c-2 -7 -3 -14 -3 -21c0 -45 42 -72 55 -111c-47 -24 -78 -72 -116 -104
c-14 -24 -38 -41 -43 -69c-22 0 -8 36 -24 52c-24 24 -37 59 -69 69c-3 0 -3 7 -3 11c26 17 58 41 72 69c0 57 10 110 10 159c0 29 -6 55 -6 83c0 42 5 83 5 124v12c0 24 -1 56 -24 56c-4 0 -8 -1 -11 -5c-26 -10 -40 -48 -60 -73c-1 -1 -2 -1 -3 -1c-3 0 -6 2 -6 5
c8 114 107 152 150 235c24 -3 18 -41 38 -59c12 -20 38 -31 41 -62c12 -9 7 -40 23 -40c2 0 5 1 8 2c32 73 102 111 160 152c63 -10 75 -110 141 -121c6 1 11 2 16 2c9 0 19 -2 28 -9zM812 268l-11 50c6 34 8 69 8 103c0 38 -2 77 -5 116l-8 13l-23 7c-22 0 -41 22 -61 22
c-39 0 -39 -116 -39 -136c0 -52 10 -102 10 -152c31 -7 49 -29 75 -43c4 -3 8 -5 12 -5c15 0 28 20 42 25zM920 137c-2 -18 -26 -14 -39 -18c-3 1 -7 2 -10 2c-20 0 -34 -19 -57 -19c-33 -18 -63 -40 -97 -59c-26 -10 -50 -35 -75 -35c-6 0 -17 0 -17 9c1 12 16 18 23 31
c24 43 40 90 60 134c-16 11 -60 48 -99 48c-9 0 -17 -2 -26 -6c-6 -4 -12 -11 -19 -11c-2 0 -4 1 -6 2c19 42 25 84 25 127c0 51 -7 102 -7 155c0 16 0 33 2 49c-4 5 -6 12 -6 18s2 11 4 15c36 7 69 27 107 27c36 16 70 32 90 63c16 -9 26 -25 46 -31c26 -29 72 -29 95 -61
c3 -21 3 -41 3 -62c0 -33 -2 -66 -2 -98c0 -20 1 -40 4 -59c-2 -27 -5 -47 -7 -74c-54 -19 -95 -54 -133 -91c24 -14 47 -31 80 -37c22 0 40 -11 61 -19z" />
    <glyph glyph-name="exclam" unicode="!" horiz-adv-x="352" 
d="M323 510c-6 -15 -15 -37 -28 -66c-6 -8 -13 -23 -21 -46l-19 -26l-12 -44l-21 -23l-3 -30l-19 -23l-24 -8l-11 33l2 23l-14 18c-3 48 6 35 -39 168l3 37l24 19c15 55 17 58 76 106c10 -11 27 -23 51 -37c9 -4 16 -9 58 -64zM266 74c-5 -38 -19 -3 -58 -79
c-11 -20 -27 -28 -42 -28c-11 0 -18 4 -24 21c-6 15 -8 20 -66 77c-5 2 -20 12 -20 24c0 20 11 40 29 58c8 2 18 7 32 14c8 6 20 42 52 42c13 0 34 -20 48 -38c1 -9 2 -14 3 -15l18 -7c13 -24 22 -24 26 -24c3 0 4 -1 4 -18z" />
    <glyph glyph-name="quotedbl" unicode="&#x22;" horiz-adv-x="421" 
d="M266 375c-5 -7 -12 -12 -20 -15l-6 9c6 26 58 101 58 116c-15 7 -28 14 -36 28c-24 5 -33 15 -33 27c0 30 50 71 70 83c3 12 20 37 33 37c20 0 38 -50 62 -62l4 -15c8 -8 20 -15 20 -28c0 -42 -36 -46 -52 -83c-13 -29 -70 -84 -100 -97zM164 509l-6 -3
c-15 -23 -33 -37 -45 -64c-7 -4 -13 -9 -18 -14l-2 -10c-3 -1 -7 -2 -10 -2l-2 -3c-10 -13 -26 -34 -43 -36l-20 -16l-6 9c6 41 37 70 55 106c-16 21 -31 30 -51 46c-3 12 -6 21 -12 32c11 16 22 34 33 49h8l1 8c17 6 49 48 70 48c8 0 15 -7 19 -25c15 -12 21 -28 31 -44
c6 -3 10 -12 12 -18l13 -7c2 -5 2 -10 2 -13c0 -19 -18 -24 -29 -43z" />
    <glyph glyph-name="c_h" horiz-adv-x="698" 
d="M281 138c0 4 0 7 1 11c-2 21 -3 42 -3 64c0 60 6 123 9 186c-3 -1 -15 -3 -19 -3c-3 0 -6 0 -10 2c-7 12 -79 32 -106 32c-14 0 -14 -25 -14 -38c0 -18 3 -38 6 -56c2 -3 3 -6 3 -8c0 -9 -8 -15 -8 -23c-9 -44 -10 -90 -14 -134c6 -31 2 -69 33 -85c31 5 74 19 100 33
l6 3zM689 251c-18 -42 7 -106 -32 -132c-49 -72 -122 -122 -157 -205c-10 -38 -40 -70 -40 -112s62 -33 82 -36c3 -4 7 -11 7 -19c-32 0 -61 -16 -92 -16c-63 0 -50 56 -80 92c-3 13 -4 27 -4 42c0 36 9 74 29 98c24 23 52 31 84 31c38 18 32 60 45 94c15 39 19 79 19 119
c0 61 -10 123 -10 188c0 15 1 30 2 45c-4 9 -11 11 -19 11c-47 0 -93 -66 -107 -105c2 -13 3 -26 3 -39c0 -50 -13 -103 -13 -151c0 -37 7 -72 34 -102c-7 -38 -38 -53 -66 -72c-44 0 -65 27 -92 72c5 8 6 16 6 25s-2 18 -3 27c-58 -26 -114 -75 -170 -110
c-41 10 -66 49 -105 62c-4 4 -5 7 -5 11c0 10 13 21 17 33c0 41 1 83 1 125c0 31 -1 61 -6 91c3 11 4 22 4 33c0 41 -16 83 -19 124c5 23 33 13 46 31c27 28 63 46 93 72c22 0 24 -21 32 -33c11 -17 83 -31 113 -32c-3 40 -11 80 -25 117c-2 25 -39 51 -39 77
c0 8 4 16 15 25l14 -4c28 -24 49 -79 82 -79c8 0 16 4 26 11c28 30 50 46 74 72c7 -4 18 0 21 -11c0 -27 -16 -49 -17 -76c-10 -41 -18 -86 -18 -132c0 -14 1 -70 12 -70c23 0 45 25 65 39c25 23 63 42 84 76c35 0 46 -46 77 -68c25 -12 31 -30 31 -51c0 -12 -2 -26 -3 -40z
" />
    <glyph glyph-name="c_k" horiz-adv-x="698" 
d="M264 139c13 33 18 71 18 109c0 52 -8 104 -12 150c-5 0 -13 -2 -18 -2c-3 0 -6 0 -10 2c-7 12 -62 32 -89 32c-14 0 -14 -25 -14 -38c0 -18 3 -38 6 -56c2 -3 3 -6 3 -8c0 -9 -8 -15 -8 -23c-9 -44 -10 -90 -14 -134c6 -31 2 -69 33 -85c31 5 57 19 83 33l6 3zM690 11
c-46 -20 -90 -35 -98 -64l-29 -25c-13 10 -10 36 -16 50c-17 39 -41 40 -70 70c-10 6 -24 9 -37 9c-30 0 -27 -21 -51 -21c-4 0 -8 0 -11 2c17 67 119 82 119 159c0 6 -1 13 -2 21c-3 32 2 30 -31 45c-1 0 -2 1 -3 1c-6 8 -13 10 -21 10c-12 0 -25 -5 -37 -5
c-6 0 -12 1 -17 5c0 -4 -1 -7 -1 -11c0 -49 -10 -136 -25 -175c-1 -2 -1 -3 -1 -4c0 -12 19 -19 19 -29c0 -1 -51 -47 -77 -47c-34 0 -76 34 -96 60c10 7 18 15 26 23c-40 -27 -73 -62 -116 -89c-41 10 -66 49 -105 62c-4 4 -5 7 -5 11c0 10 13 21 17 33c0 41 1 83 1 125
c0 31 -1 61 -6 91c3 11 4 22 4 33c0 41 -16 83 -19 124c5 23 33 13 46 31c27 28 63 46 93 72c22 0 24 -21 32 -33c7 -11 36 -22 62 -27c3 1 7 1 11 1c7 0 15 -1 21 -1c9 0 17 3 17 19c0 20 -5 46 -5 68c0 21 5 39 28 47c26 4 46 27 69 43l4 9c11 24 23 48 29 73
c6 4 12 5 17 5c19 0 30 -20 46 -31c36 -26 82 -30 125 -46c4 -2 7 -7 7 -13c0 -4 -1 -7 -4 -10c-46 -17 -95 -30 -128 -73c-1 -1 -2 -1 -3 -1c-4 0 -8 2 -10 5c0 26 -27 43 -37 62c-7 7 -14 13 -22 13c-20 0 -23 -39 -23 -57c0 -37 9 -78 9 -117c13 -13 3 -42 17 -52
c33 32 112 67 164 67c30 0 50 -11 50 -40c0 -14 -6 -40 -15 -53c-6 -15 -78 -71 -78 -91c0 -4 2 -5 6 -5c16 0 59 30 88 30c13 0 23 -6 27 -23c0 -137 -94 -195 -123 -224c16 -27 59 -13 86 -36c29 -14 46 -43 82 -43c4 -4 5 -8 5 -11c0 -7 -6 -13 -6 -19c0 -1 1 -2 1 -3z
M516 389c-6 26 -25 35 -46 35c-33 0 -73 -23 -77 -35c-4 -34 -5 -69 -7 -105c45 30 95 60 130 105z" />
    <glyph glyph-name="longs_i" horiz-adv-x="522" 
d="M348 602c-4 -1 -8 -1 -13 -1c-4 0 -8 0 -12 1c-16 23 -42 42 -65 69c-16 0 -26 -13 -31 -27c-38 -57 -30 -129 -49 -194c-1 -15 -1 -30 -1 -45c0 -96 15 -199 15 -294c0 -31 -2 -61 -6 -90c-16 -61 11 -156 -54 -191c-57 0 -102 -22 -159 -26c-7 -7 -17 -11 -28 -11
c-7 0 -15 2 -22 7l-11 15c49 53 110 88 186 88c20 15 26 34 26 55c0 31 -14 67 -14 97c-27 110 -27 224 -35 342c-19 19 -49 11 -72 19c-23 -8 -6 -45 -31 -45c-8 0 -11 10 -11 23c0 20 8 45 18 45c28 8 41 45 73 45c5 0 10 -1 16 -3c16 12 20 26 20 41c0 17 -6 36 -6 56
c0 83 78 75 96 135c15 34 15 79 65 87c68 -4 110 -68 163 -103c27 -3 47 -28 62 -47c-14 -51 -43 -37 -120 -48zM502 124c0 -2 1 -4 1 -6c0 -8 -5 -14 -13 -18h-14c-16 -26 -42 -47 -54 -76c-26 -2 -11 -37 -34 -37c-2 0 -5 1 -9 2c0 29 -27 32 -42 47c-20 3 -51 17 -51 32
s17 26 17 43c0 3 0 7 -2 11c9 38 13 86 13 134c0 50 -4 101 -8 143c-2 15 2 29 -14 36c-18 -2 -39 -15 -57 -15c-6 0 -12 1 -17 5v12c62 17 100 69 149 109c57 -12 62 -78 109 -102c4 -6 8 -10 8 -16c0 -8 -8 -9 -14 -9c-11 0 -24 7 -33 7s-13 -5 -13 -24
c-9 -86 -7 -188 -24 -271c3 -14 10 -31 24 -38c24 5 50 14 66 31h12z" />
    <glyph glyph-name="longs" unicode="&#x17f;" horiz-adv-x="342" 
d="M517 678c-7 -26 -38 -22 -57 -38c-27 -17 -57 -39 -89 -39c-5 0 -9 0 -13 1c-16 23 -42 42 -65 69c-16 0 -26 -13 -31 -27c-38 -57 -30 -129 -49 -194c-1 -15 -1 -30 -1 -45c0 -96 15 -199 15 -294c0 -31 -2 -61 -6 -90c-16 -61 11 -156 -54 -191
c-57 0 -102 -22 -159 -26c-7 -7 -18 -11 -28 -11c-8 0 -16 2 -22 7l-11 15c49 53 110 88 186 88c20 15 26 34 26 55c0 31 -14 67 -14 97c-27 110 -27 224 -35 342c-19 19 -49 11 -72 19c-23 -8 -6 -45 -31 -45c-8 0 -11 10 -11 23c0 20 8 45 18 45c28 8 41 45 73 45
c5 0 10 -1 16 -3c16 12 20 26 20 41c0 17 -6 36 -6 56c0 83 78 75 96 135c15 34 15 79 65 87c68 -4 110 -68 163 -103c27 -3 61 0 76 -19z" />
    <glyph glyph-name="longs_t" unicode="&#xfb05;" horiz-adv-x="613" 
d="M597 551c2 -4 3 -7 3 -10c0 -14 -26 -14 -33 -27l-41 -71c-4 -2 -7 -2 -11 -2c-12 0 -25 4 -36 4c-9 0 -16 -3 -19 -13c-12 -63 0 -108 -18 -171c-8 -28 -11 -47 -11 -62c0 -30 11 -41 11 -67c0 -18 10 -68 39 -68c36 0 55 30 77 49c1 0 3 1 4 1c8 0 15 -7 20 -9
c0 -17 -21 -34 -30 -46c-35 -7 -59 -35 -92 -48c-31 -12 -50 -54 -77 -54c-4 0 -8 1 -12 3c-27 28 -62 48 -86 82c3 14 15 29 27 40c2 51 21 102 21 152c0 17 -2 33 -7 50c3 21 5 39 5 57c0 27 -4 52 -11 85c-7 5 -14 6 -21 6c-30 0 -67 -30 -77 -30c-1 0 -2 0 -3 1
c0 31 24 57 30 91c27 20 74 14 89 49c3 11 8 50 14 60c-6 -1 -12 -2 -18 -2c-3 0 -7 0 -11 1c-16 23 -42 42 -65 69c-16 0 -26 -13 -31 -27c-38 -57 -30 -129 -49 -194c-1 -15 -1 -30 -1 -45c0 -96 15 -199 15 -294c0 -31 -2 -61 -6 -90c-16 -61 11 -156 -54 -191
c-57 0 -102 -22 -159 -26c-7 -7 -17 -11 -28 -11c-7 0 -15 2 -22 7l-11 15c49 53 110 88 186 88c20 15 26 34 26 55c0 31 -14 67 -14 97c-27 110 -27 224 -35 342c-19 19 -49 11 -72 19c-23 -8 -6 -45 -31 -45c-8 0 -11 10 -11 23c0 20 8 45 18 45c28 8 41 45 73 45
c5 0 10 -1 16 -3c16 12 20 26 20 41c0 17 -6 36 -6 56c0 83 78 75 96 135c15 34 15 79 65 87c68 -4 110 -68 163 -103c72 -10 92 -29 92 -51c0 -26 -30 -57 -30 -82c0 -19 49 -25 68 -25c20 0 41 4 61 12z" />
    <glyph glyph-name="o_r" horiz-adv-x="742" 
d="M713 401c-23 -31 -74 -50 -85 -97l-10 -9c-48 -43 -97 -88 -130 -138c0 -39 50 -23 74 -31c10 -14 21 -18 32 -18c23 0 47 20 69 20c4 0 7 -1 11 -2c-8 -42 -54 -54 -73 -85c-39 -31 -47 -82 -94 -101c0 31 0 70 -19 97c-24 17 -44 49 -76 49c-4 0 -8 -1 -13 -2
c4 19 31 27 39 46c11 81 62 147 81 225c-4 19 -12 46 -35 54c-31 -4 -42 -43 -66 -54c-2 5 -3 10 -3 14c0 26 31 40 38 63c51 39 113 90 151 148c43 -4 16 -58 39 -82c21 -22 10 -78 53 -78c3 0 6 0 9 1c3 -3 9 -7 9 -14c0 -2 0 -4 -1 -6zM364 209c-2 -31 -5 -54 -8 -85
c-69 -28 -117 -87 -166 -141c-44 17 -79 79 -136 79c-20 0 -34 -18 -46 -18c-1 0 -3 0 -5 1c19 47 24 96 24 145c0 57 -7 115 -7 174c0 20 1 40 3 60c-4 5 -6 13 -6 21c0 6 1 13 4 18c36 7 69 30 107 30c36 18 70 36 90 72c15 -10 26 -28 46 -36c26 -33 72 -33 95 -69
c3 -24 3 -47 3 -71c0 -38 -2 -76 -2 -113c0 -23 1 -45 4 -67zM256 106l-10 57c6 40 8 79 8 118c0 44 -2 88 -5 133l-8 15l-23 8c-22 0 -41 25 -60 25c-39 0 -40 -119 -40 -152c0 -61 10 -120 10 -178c31 -8 49 -33 75 -49c4 -4 8 -5 12 -5c14 0 27 22 41 28z" />
    <glyph glyph-name="N.alt" horiz-adv-x="829" 
d="M819 628c-8 -5 -16 -8 -22 -14c-7 2 -14 3 -20 3c-49 0 -44 -60 -52 -101c0 -84 -5 -152 -5 -228c0 -19 0 -39 1 -59c3 -6 4 -11 4 -16c0 -22 -17 -44 -17 -62c0 -40 79 -29 92 -68c-58 -55 -112 -118 -152 -181c-19 2 -14 38 -29 58c-33 44 -87 71 -126 100
c11 53 55 89 55 149c16 30 8 69 16 97c-1 11 -1 23 -1 35c0 48 5 97 5 143c0 64 -12 127 -63 178c-72 -17 -129 -70 -173 -132c-15 -41 -17 -82 -17 -122c0 -25 1 -50 1 -75c0 -34 -2 -69 -12 -101c-3 -9 -4 -17 -4 -25c0 -54 53 -82 74 -127c-61 -29 -106 -82 -156 -120
c-20 -26 -52 -47 -60 -79c-17 2 -7 43 -25 59c-34 28 -56 70 -98 82c-1 0 -2 1 -2 2c35 22 79 49 102 84c0 6 -1 12 -1 18c0 61 13 117 13 171c0 30 -6 59 -6 89c0 49 6 98 6 148v12c0 31 -1 73 -39 73c-6 0 -12 -2 -17 -6c-38 -13 -59 -59 -85 -87c-2 0 -3 1 -3 2
c12 130 143 169 205 268c22 -7 20 -48 45 -66c18 -27 51 -36 55 -72c17 -12 10 -49 38 -49c4 0 8 1 14 3c44 86 138 128 216 176c84 -13 100 -128 194 -140c7 1 14 2 20 2c7 0 36 -3 36 -12c0 -4 -2 -7 -7 -10z" />
    <glyph glyph-name="C.alt" horiz-adv-x="923" 
d="M900 674c0 -32 -37 -35 -59 -40c-21 0 -58 -4 -93 -4c-22 0 -44 1 -58 8c-32 -8 -33 -50 -33 -82c0 -53 8 -104 8 -154c0 -33 -10 -63 -10 -97c0 -49 15 -98 51 -125c1 0 3 -1 4 -1c4 0 6 3 6 7s-2 11 -2 18s3 8 3 21c0 24 -6 80 -6 117c0 26 1 34 12 34
c69 0 52 -173 70 -195c4 -49 89 -74 89 -124c0 -23 -67 -19 -86 -38c-6 0 -11 1 -16 1c-37 0 -71 -12 -101 -32c-16 3 -32 4 -49 4c-60 0 -120 -17 -181 -17c-22 0 -45 3 -68 9c-74 43 -168 31 -235 94c-47 55 -116 106 -133 184c-7 31 -10 62 -10 93c0 120 50 228 116 322
c90 82 203 114 321 137c30 -9 39 -25 39 -69c0 -11 -3 -19 -16 -21c-13 5 -25 7 -37 7c-50 0 -94 -40 -135 -66c-20 -31 -59 -55 -75 -94c-6 -47 -13 -102 -13 -156c0 -89 20 -178 100 -224c60 -35 137 -53 213 -53c24 0 48 2 72 6c8 16 10 32 10 48c0 13 -1 26 -1 40
c0 24 8 50 8 75s-3 51 -3 76c0 11 0 21 2 32c-4 78 0 148 -16 223c-4 6 -10 8 -16 8s-13 -2 -19 -4c-90 -32 -105 -84 -105 -139c0 -29 4 -60 4 -88c0 -14 -1 -27 -4 -40c-22 -85 -67 -113 -149 -125c-8 0 -12 0 -16 8c4 34 51 50 51 87c0 50 -4 113 -12 164c6 9 7 21 7 33
c0 14 -2 30 -2 44c0 23 6 44 38 52c121 30 214 101 279 172c3 1 7 1 10 1c37 0 58 -57 73 -75c35 -43 118 -46 173 -62z" />
    <glyph glyph-name="l_l" horiz-adv-x="568" 
d="M481 638v7c-1 39 -2 93 -39 110c-21 -13 -51 -26 -63 -48c23 -30 17 -77 43 -103c22 8 43 17 59 34zM239 133c0 -15 -20 -23 -23 -37c-24 -37 -64 -57 -77 -100c-8 -3 -16 -4 -23 -4c-45 0 -64 58 -107 67c-4 5 -6 10 -6 15c0 16 16 34 16 52c0 33 17 61 17 95
c0 11 -2 22 -7 35c3 25 3 51 3 78v26c0 40 1 80 10 117c-17 63 -7 130 -20 190c-4 19 -6 34 -6 45c0 21 7 27 18 27c15 0 37 -13 56 -13c2 0 4 1 6 1c4 -3 10 -4 17 -4c43 0 126 39 182 43c21 13 50 9 68 27c56 0 111 13 139 61c22 0 22 -15 22 -32v-8
c0 -65 111 -89 111 -145c0 -8 -2 -17 -7 -26c-39 -108 -180 -35 -215 -130c4 -40 9 -84 9 -127c0 -41 -5 -80 -20 -114c-4 -15 -7 -36 -7 -57c0 -40 11 -106 52 -106c42 0 54 57 83 80h13c-2 -50 -45 -88 -45 -141c0 -26 -25 -42 -25 -68c0 -3 1 -7 2 -11
c-16 -10 -30 -14 -44 -14c-57 0 -102 71 -158 92c-1 6 -2 11 -2 17c0 37 21 72 21 111c0 9 -1 18 -4 27c1 16 2 35 2 54c0 17 -1 34 -1 51c0 41 2 82 12 116c0 77 -9 161 -9 243c0 14 0 27 1 41c-2 6 -4 13 -5 19c-47 -12 -106 -21 -109 -35c-26 -134 -17 -248 -30 -385
c2 -11 3 -22 3 -32c0 -21 -4 -41 -6 -64c16 -37 63 -54 93 -77z" />
    <glyph glyph-name="ff" unicode="&#xfb00;" horiz-adv-x="596" 
d="M594 654c-14 -43 -64 -67 -85 -99c-29 10 -54 25 -82 28c-8 6 -12 9 -15 9c-5 0 -2 -13 -10 -25c-2 -25 -20 -29 -20 -44c0 -5 2 -11 6 -18c-4 -4 -7 -12 -7 -19c0 -17 21 -19 33 -19c26 0 53 13 80 13c12 0 14 -8 14 -15c0 -14 -10 -30 -10 -45c-7 -20 3 -64 -32 -64
c-14 0 -33 4 -49 4c-13 0 -24 -3 -29 -14c-11 -37 -15 -76 -15 -118c0 -94 20 -197 20 -287v-4c0 -20 0 -45 -14 -45c-11 0 -21 23 -33 23c-32 18 -68 32 -103 42c0 18 10 32 17 50c3 23 4 47 4 72c0 68 -8 141 -8 209c0 24 1 48 4 70c-4 -2 -9 -2 -15 -2c-14 0 -31 4 -46 4
c-13 0 -24 -3 -28 -14c-11 -37 -15 -73 -15 -110c0 -82 19 -165 19 -249v-3c0 -19 0 -48 -14 -48c-11 0 -20 23 -33 23c-32 17 -67 32 -103 42c0 18 11 32 18 50c3 22 4 44 4 66c0 59 -8 117 -8 178c0 22 1 45 4 68c-10 16 -40 0 -40 21c0 9 8 16 8 29c0 18 -7 41 -7 56
c0 9 2 16 12 16c6 0 15 -3 27 -8c20 13 24 36 24 60c0 14 -1 27 -1 40c0 51 20 31 44 46c61 38 81 86 120 149c5 4 10 6 15 6c20 0 35 -30 52 -38c1 0 2 -1 3 -1c25 -7 54 -15 58 -42c-15 -43 -64 -67 -86 -99c-28 10 -53 25 -81 28c-6 5 -10 7 -14 7c-15 0 -22 -50 -22 -65
c0 -21 4 -41 16 -63c-4 -4 -7 -12 -7 -19c0 -13 8 -16 24 -16c24 0 59 8 77 10c16 12 20 25 20 40c0 10 -2 20 -2 31c0 43 24 28 45 41c60 37 99 74 138 137c5 4 10 6 15 6c20 0 35 -30 52 -38c1 0 2 -1 3 -1c25 -7 54 -15 58 -42z" />
    <glyph glyph-name="f_t" horiz-adv-x="559" 
d="M550 548c-8 -5 -20 -9 -26 -18l-40 -70c-4 -2 -9 -2 -14 -2l-20 2c-13 0 -27 -2 -33 -20c-12 -65 0 -133 -18 -197c0 -35 1 -64 1 -94c0 -15 0 -29 -1 -45c6 -22 11 -66 43 -66c19 0 32 7 45 17c9 7 30 33 36 33c5 0 11 -4 15 -7c-2 -13 -18 -28 -27 -38
c-35 -9 -57 -38 -91 -49c-32 -11 -51 -54 -75 -54c-3 0 -7 0 -10 2c-26 28 -60 48 -83 80c3 12 13 25 26 37c3 56 22 106 22 159c0 16 -2 32 -7 48c3 43 5 74 5 98c0 48 -7 63 -20 63c-12 0 -23 -13 -37 -13c-13 0 -32 4 -48 4c-12 0 -27 -4 -31 -18
c-12 -37 -15 -76 -15 -113c0 -84 19 -168 19 -253v-4c0 -16 0 -41 -10 -41c-2 0 -4 2 -6 4c-29 28 -82 47 -124 61c2 16 12 27 17 45c4 28 5 54 5 81c0 56 -9 111 -9 168c0 22 1 45 5 69c-11 18 -41 7 -41 20c0 9 9 19 9 31c0 16 -8 40 -8 56c0 6 2 10 8 10c5 0 14 -3 27 -9
c24 16 28 40 29 64c0 11 -1 24 -1 35c0 12 0 23 1 32c2 14 27 10 40 18c61 37 125 87 165 152c4 3 8 4 11 4c17 0 32 -29 51 -38c1 0 3 -1 4 -1c22 -6 49 -13 53 -37c-15 -41 -62 -64 -82 -95c-25 10 -50 24 -78 28c-6 5 -12 7 -18 7c-18 0 -29 -24 -38 -39
c-3 -26 -21 -48 -21 -75c0 -6 2 -13 5 -20c-3 -5 -6 -13 -6 -21c0 -19 24 -22 39 -22c27 0 53 13 79 13c16 0 27 11 33 25c8 38 48 72 89 80c24 20 41 40 61 59c6 0 9 -7 9 -13c0 -36 -40 -53 -40 -96c0 -5 0 -11 2 -17c21 -14 46 -20 71 -20c20 0 40 4 59 11
c0 -2 1 -3 1 -4c0 -3 -3 -5 -7 -7z" />
    <glyph glyph-name="S.alt" horiz-adv-x="868" 
d="M858 158c-6 -39 -17 -76 -28 -111c-24 -10 -49 -24 -74 -24c-15 0 -28 6 -42 23c-15 2 -30 2 -43 2c-96 0 -157 -38 -252 -50c-19 -26 -37 -20 -71 -41c-48 61 -118 82 -179 137c-53 0 -81 -31 -97 -71c3 -13 3 -21 3 -28c-2 -16 -3 -32 -3 -51c0 -11 0 -22 3 -36
c34 -29 119 -53 119 -109c0 -35 -44 -71 -79 -71c-9 0 -16 2 -22 8c-55 31 -91 75 -91 148c0 108 94 195 148 279c22 35 101 47 101 119c0 9 -1 20 -4 32c-108 41 -72 151 -88 232c2 8 3 15 3 23c0 17 -4 36 -4 50c0 6 1 12 3 17c84 90 216 87 300 193c9 8 17 11 25 11
c35 0 76 -85 116 -122c18 -36 38 -75 85 -96c3 -1 6 -1 10 -1c37 0 74 54 74 86c0 41 -49 62 -53 62c0 71 8 73 26 73c59 0 72 -52 72 -91c0 -49 -24 -99 -52 -141c-32 -23 -80 -28 -122 -96c43 -129 224 -87 224 -181c0 -12 -2 -26 -7 -43c4 -22 5 -42 5 -61
c0 -25 -2 -48 -6 -71zM486 562c-26 31 -51 49 -83 77c-67 0 -47 -60 -63 -89c3 -17 6 -29 6 -44c0 -42 1 -109 71 -121c45 0 78 29 105 57c2 10 4 20 4 29c0 37 -19 68 -40 91zM622 286l-116 68c-10 2 -19 3 -28 3c-76 0 -79 -60 -157 -97c-2 -9 -3 -17 -3 -23
c0 -28 7 -20 31 -56c21 -8 36 -16 52 -25c47 -28 92 -68 162 -68c53 0 68 47 68 79s-10 62 -10 96c0 7 0 14 1 23z" />
    <glyph glyph-name="t_t" horiz-adv-x="674" 
d="M668 626c2 -4 3 -7 3 -10c0 -13 -26 -15 -33 -27l-42 -71c-4 -2 -10 -3 -15 -3c-8 0 -17 2 -24 2c-12 0 -22 -3 -26 -16c-12 -63 0 -131 -18 -194c0 -34 1 -82 1 -123c0 -20 0 -39 -1 -54c5 -18 11 -61 36 -61c36 0 49 55 71 74c10 0 17 -6 24 -9c0 -17 -21 -34 -29 -45
c-36 -8 -51 -60 -84 -73c-31 -12 -50 -54 -77 -54c-4 0 -8 1 -12 3c-27 28 -63 48 -86 82c3 14 14 29 26 40c2 52 22 126 22 189c0 19 -2 38 -7 54c3 21 5 44 5 67c0 35 -4 71 -11 104c-3 2 -8 3 -14 3c-38 0 -132 -36 -134 -42c-12 -63 0 -131 -18 -194c0 -34 1 -63 1 -92
c0 -15 0 -29 -1 -44c0 -2 0 -4 1 -6c5 -22 13 -55 38 -55c35 0 55 30 77 49c1 0 3 1 4 1c8 0 15 -7 20 -9c0 -17 -21 -34 -30 -46c-36 -8 -59 -34 -92 -48c-32 -10 -50 -54 -77 -54c-4 0 -8 1 -12 3c-27 28 -63 48 -86 82c3 14 15 29 26 40c2 52 22 102 22 153
c0 16 -2 33 -7 49c3 21 5 44 5 67c0 35 -4 71 -11 104c-7 5 -14 6 -21 6c-30 0 -67 -30 -77 -30c-1 0 -2 0 -3 1c0 32 24 57 30 91c27 20 74 15 89 49c9 40 51 74 92 82c24 20 42 40 63 60c8 -5 15 -10 15 -19c0 -35 -41 -57 -41 -95c0 -26 42 -32 67 -32c19 0 79 14 92 43
c9 39 38 77 79 85c24 20 42 40 63 60c8 -5 15 -10 15 -19c0 -33 -29 -58 -29 -94c0 -5 1 -12 3 -18c19 -12 43 -18 67 -18c20 0 41 4 61 12z" />
    <glyph glyph-name="l.alt" horiz-adv-x="297" 
d="M244 539c-2 0 -3 -1 -5 -1c-45 -8 -89 -15 -106 -65c5 -46 12 -96 12 -143c0 -39 -5 -76 -18 -108c-4 -15 -6 -34 -6 -53c0 -37 13 -109 60 -109c43 0 63 61 86 84h7c-4 -53 -44 -87 -44 -142c0 -30 -24 -43 -24 -70c0 -3 1 -7 2 -11c-14 -9 -27 -13 -40 -13
c-55 0 -102 72 -161 95c-1 6 -2 12 -2 18c0 39 19 72 19 111c0 10 -1 20 -4 30c0 10 1 21 1 32c0 31 -2 64 -2 96c0 30 2 59 9 87c-2 88 -15 185 -15 278c0 27 -9 44 -9 62c0 25 60 25 77 42c57 0 114 14 143 63c14 0 16 -9 16 -20c0 -5 -1 -12 -1 -18c0 -10 2 -20 10 -27
c27 -52 109 -76 109 -122c0 -8 -2 -17 -7 -26c-17 -54 -61 -63 -107 -70zM207 636c-3 32 -9 76 -46 93c-26 -16 -53 -27 -69 -55c30 -37 17 -81 52 -113c25 10 47 19 65 39c0 12 -1 24 -2 36z" />
    <glyph glyph-name="Adieresis" unicode="&#xc4;" 
d="M1120 133c1 -6 2 -11 2 -15c0 -41 -48 -52 -56 -88c-31 -45 -45 -99 -85 -139c-36 5 -22 49 -45 72c-13 36 -58 31 -71 63c-63 -5 -108 -68 -126 -121c-9 -9 -19 -16 -30 -16c-7 0 -13 2 -19 7c-18 62 -58 147 -135 156c-80 18 -156 50 -242 59c-58 0 -231 -52 -253 -106
c0 -11 6 -38 6 -61c0 -33 -16 -38 -33 -38c-29 0 -30 45 -30 57v2v1v-1c0 85 88 121 157 149l13 5c14 57 61 181 88 264c-57 -1 -124 -9 -149 -9c-1 1 -1 2 -1 4c0 22 85 37 164 50l6 30c3 56 35 105 38 105s34 79 56 135c-67 -29 -135 -62 -183 -117h-13c0 32 18 58 18 94
c67 32 121 112 206 117c13 -3 28 -4 42 -4c30 0 61 4 88 4c88 -9 140 -103 230 -103c17 0 35 -4 54 -4c23 0 47 4 65 17c40 36 59 111 110 111c6 0 13 -1 20 -3v-18c-53 -45 -67 -103 -67 -166s14 -132 14 -197c9 -99 -5 -224 112 -278c18 -4 40 -4 49 -18zM761 420
c11 25 16 51 16 78c0 36 -8 74 -16 110c-17 34 -52 51 -88 51c-19 0 -39 -5 -55 -15c-54 -76 -94 -143 -125 -229c46 0 77 40 116 59c23 22 36 53 63 62c22 -35 40 -76 58 -112c5 -5 12 -7 18 -7c5 0 9 1 13 3zM488 698c-6 6 -11 10 -16 14c-31 -68 -99 -199 -133 -273
c33 7 59 14 65 22c38 88 48 120 84 237zM829 102c2 8 3 17 3 26c0 34 -13 70 -26 99c-18 40 0 117 -58 121c-49 -9 -112 -9 -134 -63c-41 41 -77 77 -130 81c-14 -4 -23 -4 -32 -18c-9 -45 -49 -80 -53 -121c4 -1 8 -1 13 -1c28 0 59 10 90 10c71 -22 156 -36 215 -89
c41 0 57 -51 91 -51c6 0 13 2 21 6zM344 370c-6 5 -16 8 -27 10c-10 -43 -34 -148 -50 -208c22 12 42 25 51 46c-2 7 -3 14 -3 21c0 40 30 67 30 115c0 5 0 10 -1 16zM716 759c-9 1 -15 10 -20 18c0 1 -1 1 -1 2l-1 1c0 17 -34 20 -34 35v5c0 19 0 27 19 39
c5 12 18 44 34 44c4 0 8 -2 13 -7c16 -18 58 -49 58 -67c0 -25 -53 -60 -68 -70zM535 801c-26 3 -33 11 -33 20c0 12 12 27 17 41l12 5c5 2 23 33 41 33c10 0 12 -3 16 -16c19 -15 38 -36 38 -62c0 -7 -16 -14 -20 -17c-4 -4 -26 -43 -42 -43c-14 0 -26 30 -29 39z" />
    <glyph glyph-name="ring" unicode="&#x2da;" horiz-adv-x="259" 
d="M253 681c-23 -15 -47 -38 -50 -65c-36 -18 -58 -71 -100 -71c-4 0 -8 0 -12 1c-27 43 -47 89 -89 128v7c37 34 100 60 100 119c0 18 19 24 23 24c21 0 36 -55 54 -69c17 -31 78 -20 78 -55c0 -6 -1 -12 -4 -19zM122 711c-13 0 -26 -18 -26 -41c11 -13 30 -22 47 -22
c8 0 15 2 21 6c-3 28 -27 57 -42 57z" />
    <glyph glyph-name="Aring" unicode="&#xc5;" 
d="M1120 133c1 -6 2 -11 2 -15c0 -41 -48 -52 -56 -88c-31 -45 -45 -99 -85 -139c-36 5 -22 49 -45 72c-13 36 -58 31 -71 63c-63 -5 -108 -68 -126 -121c-9 -9 -19 -16 -30 -16c-7 0 -13 2 -19 7c-18 62 -58 147 -135 156c-80 18 -156 50 -242 59c-58 0 -231 -52 -253 -106
c0 -11 6 -38 6 -61c0 -33 -16 -38 -33 -38c-29 0 -30 45 -30 57v2v1v-1c0 85 88 121 157 149l13 5c14 57 61 181 88 264c-57 -1 -124 -9 -149 -9c-1 1 -1 2 -1 4c0 22 85 37 164 50l6 30c3 56 35 105 38 105s34 79 56 135c-67 -29 -135 -62 -183 -117h-13c0 32 18 58 18 94
c67 32 121 112 206 117c13 -3 28 -4 42 -4c30 0 61 4 88 4c88 -9 140 -103 230 -103c17 0 35 -4 54 -4c23 0 47 4 65 17c40 36 59 111 110 111c6 0 13 -1 20 -3v-18c-53 -45 -67 -103 -67 -166s14 -132 14 -197c9 -99 -5 -224 112 -278c18 -4 40 -4 49 -18zM761 420
c11 25 16 51 16 78c0 36 -8 74 -16 110c-17 34 -52 51 -88 51c-19 0 -39 -5 -55 -15c-54 -76 -94 -143 -125 -229c46 0 77 40 116 59c23 22 36 53 63 62c22 -35 40 -76 58 -112c5 -5 12 -7 18 -7c5 0 9 1 13 3zM488 698c-6 6 -11 10 -16 14c-31 -68 -99 -199 -133 -273
c33 7 59 14 65 22c38 88 48 120 84 237zM829 102c2 8 3 17 3 26c0 34 -13 70 -26 99c-18 40 0 117 -58 121c-49 -9 -112 -9 -134 -63c-41 41 -77 77 -130 81c-14 -4 -23 -4 -32 -18c-9 -45 -49 -80 -53 -121c4 -1 8 -1 13 -1c28 0 59 10 90 10c71 -22 156 -36 215 -89
c41 0 57 -51 91 -51c6 0 13 2 21 6zM344 370c-6 5 -16 8 -27 10c-10 -43 -34 -148 -50 -208c22 12 42 25 51 46c-2 7 -3 14 -3 21c0 40 30 67 30 115c0 5 0 10 -1 16zM757 887c-23 -15 -47 -38 -50 -65c-36 -18 -58 -71 -100 -71c-4 0 -8 0 -12 1c-27 43 -47 89 -89 128v7
c37 34 100 60 100 119c0 18 19 24 23 24c21 0 36 -55 54 -69c17 -31 78 -20 78 -55c0 -6 -1 -12 -4 -19zM626 917c-13 0 -26 -18 -26 -41c11 -13 30 -22 47 -22c8 0 15 2 21 6c-3 28 -27 57 -42 57z" />
    <glyph glyph-name="Eacute" unicode="&#xc9;" horiz-adv-x="907" 
d="M904 543c0 -27 -66 -109 -94 -110c-17 10 -37 18 -55 25l-53 -10l-12 12c-29 -22 -56 -29 -90 -35c-51 -9 -24 -218 -40 -264l50 -52c73 1 156 57 218 91l12 26l-9 45l36 44l35 -8v-43c0 -13 -24 -56 -24 -104c0 -99 -228 -225 -310 -225c-23 0 -57 -3 -91 -3
c-56 0 -113 8 -124 54h-3c-6 -2 -30 -16 -35 -16c-135 0 -313 316 -313 435c0 26 18 52 34 71l-1 50c0 16 3 33 6 49c24 8 21 17 23 38c129 158 226 159 423 159l107 20l48 28c54 0 26 -70 171 -70c29 0 38 -24 38 -49c0 -45 -33 -52 -66 -52c-15 0 -31 2 -42 2
c-15 0 -29 -13 -44 -13c-26 0 -53 12 -76 23l-4 2l-33 -15c0 -39 -30 -7 -30 -54c0 -8 1 -18 3 -31l-14 -22c19 -19 36 -46 45 -71c34 12 67 28 100 44l4 23c25 20 145 55 177 55c27 0 33 -28 33 -49zM537 448l-19 19c-9 79 -16 157 -27 236c-18 6 -35 15 -52 24
c-13 -18 -28 -35 -43 -52c1 -69 3 -139 3 -208l-12 -18c0 -18 32 -51 32 -89c0 -36 -9 -72 -9 -108c0 -51 33 -89 55 -132l4 2c10 0 20 -4 29 -8c21 1 25 23 25 40c0 64 -11 131 -27 193l-1 -1c0 39 40 79 42 102zM366 459c0 20 -7 40 -7 61c0 37 3 75 3 112
c0 41 -9 43 -41 48c-3 0 -6 1 -9 2c-28 -35 -105 -132 -106 -174c-2 1 -4 2 -6 2c-8 0 -10 -11 -10 -26c0 -37 16 -101 16 -101c0 -44 75 -222 121 -222c29 0 35 68 35 133c0 46 -3 91 -3 107c0 19 7 38 7 58zM612 959l-17 -12c-12 -30 -37 -52 -64 -68l-17 2l6 -15
c-19 -26 -45 -49 -78 -52l-6 21c21 39 48 72 78 104c16 17 32 59 49 75c15 0 30 -31 45 -34z" />
    <glyph glyph-name="Odieresis" unicode="&#xd6;" horiz-adv-x="868" 
d="M868 538c-11 -29 -15 -62 -15 -96c0 -41 5 -83 5 -119c0 -48 -118 -226 -166 -229c-6 -25 -30 -39 -55 -44c-39 -59 -107 -62 -168 -77l-29 13c-14 -3 -27 -4 -39 -4c-59 0 -103 28 -165 28c-64 68 -108 25 -142 60c-58 61 -90 203 -90 338c0 145 36 284 113 315
c5 0 7 -5 7 -20c0 -30 -8 -91 -8 -150c0 -79 14 -157 80 -157c5 0 11 1 17 2l9 12c-10 41 -71 114 -71 189c0 52 30 68 42 99l-21 33c38 3 60 39 97 39c5 0 10 -1 15 -2c27 64 106 55 169 63l19 -12c11 2 26 3 42 3c79 0 201 -28 232 -81c18 -31 29 -49 56 -74l15 -53
c9 -5 18 -9 27 -12c10 -11 16 -48 24 -64zM745 486c-16 26 -33 50 -51 75c0 13 -1 26 -9 37c-46 13 -110 67 -154 92c-12 -11 -26 -18 -40 -26c0 -1 -1 -15 -1 -34c0 -30 2 -71 10 -78c-12 -24 -15 -56 -15 -92c0 -73 16 -163 16 -230c0 -9 0 -18 -1 -26l-7 -8l-4 -28
c9 -11 19 -21 30 -30l10 4c10 -9 30 -13 52 -13c39 0 85 12 98 31c65 1 90 103 90 195c0 56 -9 107 -24 131zM462 671c-16 19 -34 37 -53 54c-25 -21 -67 -37 -67 -75c0 -23 10 -45 10 -68c0 -44 -22 -136 -22 -177c0 -30 15 -37 15 -59c0 -4 -1 -9 -2 -15h3l-3 -1l5 -17
c-6 -16 -9 -31 -9 -47c0 -51 27 -100 41 -141c4 -1 8 -1 12 -1c21 0 41 7 62 7c0 97 -15 224 -15 343c0 72 5 140 23 197zM315 212c-13 18 -12 31 -13 52c7 9 10 19 10 29c0 30 -29 58 -62 58c-12 -14 -22 -28 -32 -42c-25 -1 -50 -6 -70 -21c-8 -32 -31 -25 -31 -72
c0 -70 84 -71 138 -71h13c38 0 27 45 47 67zM488 844c-9 1 -15 10 -20 18c0 1 -1 1 -1 2l-1 1c0 17 -34 20 -34 35v5c0 19 0 27 19 39c5 12 18 44 34 44c4 0 8 -2 13 -7c16 -18 58 -49 58 -67c0 -25 -53 -60 -68 -70zM307 886c-26 3 -33 11 -33 20c0 12 12 27 17 41l12 5
c5 2 23 33 41 33c10 0 12 -3 16 -16c19 -15 38 -36 38 -62c0 -7 -16 -14 -20 -17c-4 -4 -26 -43 -42 -43c-14 0 -26 30 -29 39z" />
    <glyph glyph-name="Udieresis" unicode="&#xdc;" horiz-adv-x="983" 
d="M972 92c-81 -40 -105 -123 -150 -123c-24 0 -53 22 -98 84c-4 51 -15 70 -30 70c-45 0 -132 -169 -225 -169c-34 0 -73 25 -106 34l-14 -3c-78 34 -253 174 -253 277c0 47 27 99 42 145c38 115 45 138 133 220c-4 1 -10 2 -17 2c-31 0 -83 -10 -106 -11
c-31 -22 -93 -41 -114 -69l-4 -1c-8 -11 -12 -16 -16 -16c-8 0 -5 31 -11 45c3 10 6 24 6 36c0 4 0 8 -1 12c9 20 32 40 55 42l22 38c28 1 53 107 86 118c98 -41 103 -65 161 -65c20 0 47 3 85 9l26 -11c42 20 60 34 88 74h45v-160l31 -8c30 25 23 90 77 97
c2 27 14 39 36 57l105 -17c10 14 39 21 63 21c11 0 20 -2 27 -4c9 -19 12 -27 12 -39c0 -6 -1 -14 -3 -26l-28 -17c-15 -35 -22 -61 -22 -91c0 -17 3 -35 8 -57c-2 -5 -2 -10 -2 -14c0 -31 25 -64 25 -82v-3c-30 -119 -26 -213 -33 -338l22 -14c17 33 30 68 43 101l14 7
c22 -28 31 -57 31 -88c0 -20 -4 -41 -10 -63zM734 277c0 106 -101 54 -101 113c0 13 36 30 49 39c10 -1 20 -3 30 -5c3 8 9 16 15 22v195c-20 21 -39 30 -56 30c-57 0 -96 -97 -96 -157c0 -16 3 -29 9 -37c-2 -15 -11 -26 -24 -34c0 -30 6 -131 6 -201c0 -36 -1 -63 -6 -71
l62 -37c21 0 40 8 57 19c37 0 55 96 55 124zM525 677l-14 -7v29h-30c-29 -24 -49 -67 -49 -107c0 -12 2 -24 6 -35c-10 -22 -13 -53 -13 -85c0 -43 5 -88 5 -119l-9 -10c0 -22 -1 -47 -1 -72c0 -73 15 -111 50 -111c22 0 44 18 49 51c9 62 12 124 12 187c0 93 -6 187 -6 279
zM386 387l-9 10c0 58 12 115 12 174c0 25 -2 52 -9 78l-26 -19c-37 0 -56 -38 -73 -65c-41 -9 -41 -123 -41 -163c0 -12 0 -91 18 -93c4 -9 29 -78 45 -78h1c9 -15 22 -28 35 -40c6 13 20 16 33 16c0 3 -1 7 -1 12c0 15 2 38 11 44c0 41 4 83 4 124zM580 821
c-9 1 -15 10 -20 18c0 1 -1 1 -1 2l-1 1c0 17 -34 20 -34 35v5c0 19 0 27 19 39c5 12 18 44 34 44c4 0 8 -2 13 -7c16 -18 58 -49 58 -67c0 -25 -53 -60 -68 -70zM399 863c-26 3 -33 11 -33 20c0 12 12 27 17 41l12 5c5 2 23 33 41 33c10 0 12 -3 16 -16
c19 -15 38 -36 38 -62c0 -7 -16 -14 -20 -17c-4 -4 -26 -43 -42 -43c-14 0 -26 30 -29 39z" />
    <glyph glyph-name="Oslash" unicode="&#xd8;" horiz-adv-x="871" 
d="M816 817c-22 -26 -44 -33 -77 -66l7 -10c18 -31 29 -49 56 -74l15 -53c9 -5 18 -9 27 -12c10 -11 16 -48 24 -64c-11 -29 -15 -62 -15 -96c0 -41 5 -83 5 -119c0 -48 -118 -226 -166 -229c-6 -25 -30 -39 -55 -44c-39 -59 -107 -62 -168 -77l-29 13c-14 -3 -27 -4 -39 -4
c-59 0 -103 28 -165 28c-9 9 -18 17 -26 22c-16 -23 -34 -46 -52 -69c-12 -7 -27 -11 -40 -11c-18 0 -33 7 -33 21c19 27 42 53 64 80h-6c-19 1 -35 2 -49 17c-58 61 -90 203 -90 338c0 145 36 284 113 315c5 0 7 -5 7 -20c0 -30 -8 -91 -8 -150c0 -79 14 -157 80 -157
c5 0 11 1 17 2l9 12c-10 41 -71 114 -71 189c0 52 30 68 42 99l-21 33c38 3 60 39 97 39c5 0 10 -1 15 -2c27 64 106 55 169 63l19 -12c11 2 26 3 42 3c46 0 108 -10 157 -29c8 10 15 18 23 24l22 -5c13 4 82 10 94 10zM745 486c-16 26 -33 50 -51 75c0 13 -1 26 -9 37
c-16 4 -33 13 -51 24c-63 -84 -123 -175 -148 -210c4 -62 15 -129 15 -182c0 -9 0 -18 -1 -26l-7 -8l-4 -28c9 -11 19 -21 30 -30l10 4c10 -9 30 -13 52 -13c39 0 85 12 98 31c65 1 90 103 90 195c0 56 -9 107 -24 131zM462 671c-16 19 -34 37 -53 54
c-25 -21 -67 -37 -67 -75c0 -23 10 -45 10 -68c0 -44 -22 -136 -22 -177c0 -30 15 -37 15 -59c0 -4 -1 -9 -2 -15h3l-3 -1l1 -6l95 138v12c0 72 5 140 23 197zM117 216c0 -53 48 -67 95 -70c9 15 47 57 90 117v1c7 9 10 19 10 29c0 30 -29 58 -62 58
c-12 -14 -22 -28 -32 -42c-25 -1 -50 -6 -70 -21c-8 -32 -31 -25 -31 -72zM454 131c0 63 -7 138 -11 216c-6 -5 -11 -11 -15 -15c-31 -35 -58 -70 -84 -106c8 -37 25 -71 36 -101c4 -1 8 -1 12 -1c21 0 41 7 62 7zM500 552l-2 -4c30 43 57 81 80 111c-17 12 -33 23 -47 31
c-12 -11 -26 -18 -40 -26c0 -1 -1 -15 -1 -34c0 -30 2 -71 10 -78z" />
    <glyph glyph-name="oslash" unicode="&#xf8;" horiz-adv-x="366" 
d="M348 630c-1 -5 -14 -20 -16 -24c-17 -13 -34 -51 -49 -96c26 -16 57 -23 75 -50c3 -24 3 -47 3 -71c0 -38 -2 -76 -2 -113c0 -23 1 -45 4 -67c-2 -31 -5 -54 -8 -85c-69 -28 -117 -87 -166 -141c-15 6 -29 17 -44 29c-5 -22 -12 -43 -19 -65c-7 -6 -18 -9 -28 -9
c-14 0 -29 6 -34 17c8 33 23 62 34 93c-14 8 -29 14 -45 14c-20 0 -34 -18 -46 -18c-1 0 -3 0 -5 1c19 47 24 96 24 145c0 57 -7 115 -7 174c0 20 1 40 3 60c-4 5 -6 13 -6 21c0 6 1 13 4 18c36 7 69 30 107 30c36 18 70 36 90 72c5 -4 10 -8 15 -13c0 24 5 63 19 78l20 -4
c9 3 61 8 71 8zM255 106l-10 57c6 40 8 79 8 118c0 36 -2 72 -4 109c-11 -44 -19 -81 -22 -93l-25 8l18 -29c1 -2 2 -4 2 -6c0 -10 -8 -21 -11 -28c-19 -43 -32 -88 -43 -133c11 -9 22 -19 34 -26c4 -4 8 -5 12 -5c14 0 27 22 41 28zM117 310c0 -52 7 -102 9 -151
c22 75 47 196 71 284c-14 7 -27 19 -40 19c-39 0 -40 -119 -40 -152z" />
    <glyph glyph-name="Agrave" unicode="&#xc0;" 
d="M1120 133c1 -6 2 -11 2 -15c0 -41 -48 -52 -56 -88c-31 -45 -45 -99 -85 -139c-36 5 -22 49 -45 72c-13 36 -58 31 -71 63c-63 -5 -108 -68 -126 -121c-9 -9 -19 -16 -30 -16c-7 0 -13 2 -19 7c-18 62 -58 147 -135 156c-80 18 -156 50 -242 59c-58 0 -231 -52 -253 -106
c0 -11 6 -38 6 -61c0 -33 -16 -38 -33 -38c-29 0 -30 45 -30 57v2v1v-1c0 85 88 121 157 149l13 5c14 57 61 181 88 264c-57 -1 -124 -9 -149 -9c-1 1 -1 2 -1 4c0 22 85 37 164 50l6 30c3 56 35 105 38 105s34 79 56 135c-67 -29 -135 -62 -183 -117h-13c0 32 18 58 18 94
c67 32 121 112 206 117c13 -3 28 -4 42 -4c30 0 61 4 88 4c88 -9 140 -103 230 -103c17 0 35 -4 54 -4c23 0 47 4 65 17c40 36 59 111 110 111c6 0 13 -1 20 -3v-18c-53 -45 -67 -103 -67 -166s14 -132 14 -197c9 -99 -5 -224 112 -278c18 -4 40 -4 49 -18zM761 420
c11 25 16 51 16 78c0 36 -8 74 -16 110c-17 34 -52 51 -88 51c-19 0 -39 -5 -55 -15c-54 -76 -94 -143 -125 -229c46 0 77 40 116 59c23 22 36 53 63 62c22 -35 40 -76 58 -112c5 -5 12 -7 18 -7c5 0 9 1 13 3zM488 698c-6 6 -11 10 -16 14c-31 -68 -99 -199 -133 -273
c33 7 59 14 65 22c38 88 48 120 84 237zM829 102c2 8 3 17 3 26c0 34 -13 70 -26 99c-18 40 0 117 -58 121c-49 -9 -112 -9 -134 -63c-41 41 -77 77 -130 81c-14 -4 -23 -4 -32 -18c-9 -45 -49 -80 -53 -121c4 -1 8 -1 13 -1c28 0 59 10 90 10c71 -22 156 -36 215 -89
c41 0 57 -51 91 -51c6 0 13 2 21 6zM344 370c-6 5 -16 8 -27 10c-10 -43 -34 -148 -50 -208c22 12 42 25 51 46c-2 7 -3 14 -3 21c0 40 30 67 30 115c0 5 0 10 -1 16zM715 747c-43 4 -55 28 -79 59c-5 6 -13 7 -19 11c-10 8 -18 24 -27 30l-21 12l-8 21l-16 12l4 21l29 -4
l16 8l34 -4c11 -20 24 -39 37 -58v-21c28 -21 47 -52 50 -87z" />
    <glyph glyph-name="Atilde" unicode="&#xc3;" 
d="M1120 133c1 -6 2 -11 2 -15c0 -41 -48 -52 -56 -88c-31 -45 -45 -99 -85 -139c-36 5 -22 49 -45 72c-13 36 -58 31 -71 63c-63 -5 -108 -68 -126 -121c-9 -9 -19 -16 -30 -16c-7 0 -13 2 -19 7c-18 62 -58 147 -135 156c-80 18 -156 50 -242 59c-58 0 -231 -52 -253 -106
c0 -11 6 -38 6 -61c0 -33 -16 -38 -33 -38c-29 0 -30 45 -30 57v2v1v-1c0 85 88 121 157 149l13 5c14 57 61 181 88 264c-57 -1 -124 -9 -149 -9c-1 1 -1 2 -1 4c0 22 85 37 164 50l6 30c3 56 35 105 38 105s34 79 56 135c-67 -29 -135 -62 -183 -117h-13c0 32 18 58 18 94
c67 32 121 112 206 117c13 -3 28 -4 42 -4c30 0 61 4 88 4c88 -9 140 -103 230 -103c17 0 35 -4 54 -4c23 0 47 4 65 17c40 36 59 111 110 111c6 0 13 -1 20 -3v-18c-53 -45 -67 -103 -67 -166s14 -132 14 -197c9 -99 -5 -224 112 -278c18 -4 40 -4 49 -18zM761 420
c11 25 16 51 16 78c0 36 -8 74 -16 110c-17 34 -52 51 -88 51c-19 0 -39 -5 -55 -15c-54 -76 -94 -143 -125 -229c46 0 77 40 116 59c23 22 36 53 63 62c22 -35 40 -76 58 -112c5 -5 12 -7 18 -7c5 0 9 1 13 3zM488 698c-6 6 -11 10 -16 14c-31 -68 -99 -199 -133 -273
c33 7 59 14 65 22c38 88 48 120 84 237zM829 102c2 8 3 17 3 26c0 34 -13 70 -26 99c-18 40 0 117 -58 121c-49 -9 -112 -9 -134 -63c-41 41 -77 77 -130 81c-14 -4 -23 -4 -32 -18c-9 -45 -49 -80 -53 -121c4 -1 8 -1 13 -1c28 0 59 10 90 10c71 -22 156 -36 215 -89
c41 0 57 -51 91 -51c6 0 13 2 21 6zM344 370c-6 5 -16 8 -27 10c-10 -43 -34 -148 -50 -208c22 12 42 25 51 46c-2 7 -3 14 -3 21c0 40 30 67 30 115c0 5 0 10 -1 16zM752 831c-4 -1 -7 -3 -10 -5l1 -10c-16 -15 -27 -39 -40 -57c-13 0 -26 3 -38 6h-2c-10 0 -56 11 -59 13
s-10 10 -12 13c-4 -2 -7 -2 -9 -2c-7 0 -12 4 -24 4c-27 0 -36 -40 -50 -40c-6 0 -9 5 -9 9c0 9 9 22 12 26c0 13 5 18 13 26l2 2c24 22 30 34 43 34c6 0 52 -20 102 -31c6 -2 16 -4 23 -4c3 0 5 0 7 1c17 6 39 74 57 74c7 0 9 -4 9 -10c0 -16 -15 -43 -16 -49z" />
    <glyph glyph-name="tilde" unicode="&#x2dc;" horiz-adv-x="272" 
d="M253 681c-4 -1 -7 -3 -10 -5l1 -10c-16 -15 -27 -39 -40 -57c-13 0 -26 3 -38 6h-2c-10 0 -56 11 -59 13s-10 10 -12 13c-4 -2 -7 -2 -9 -2c-7 0 -12 4 -24 4c-27 0 -36 -40 -50 -40c-6 0 -9 5 -9 9c0 9 9 22 12 26c0 13 5 18 13 26l2 2c24 22 30 34 43 34
c6 0 52 -20 102 -31c6 -2 16 -4 23 -4c3 0 5 0 7 1c17 6 39 74 57 74c7 0 9 -4 9 -10c0 -16 -15 -43 -16 -49z" />
    <glyph glyph-name="Otilde" unicode="&#xd5;" horiz-adv-x="868" 
d="M868 538c-11 -29 -15 -62 -15 -96c0 -41 5 -83 5 -119c0 -48 -118 -226 -166 -229c-6 -25 -30 -39 -55 -44c-39 -59 -107 -62 -168 -77l-29 13c-14 -3 -27 -4 -39 -4c-59 0 -103 28 -165 28c-64 68 -108 25 -142 60c-58 61 -90 203 -90 338c0 145 36 284 113 315
c5 0 7 -5 7 -20c0 -30 -8 -91 -8 -150c0 -79 14 -157 80 -157c5 0 11 1 17 2l9 12c-10 41 -71 114 -71 189c0 52 30 68 42 99l-21 33c38 3 60 39 97 39c5 0 10 -1 15 -2c27 64 106 55 169 63l19 -12c11 2 26 3 42 3c79 0 201 -28 232 -81c18 -31 29 -49 56 -74l15 -53
c9 -5 18 -9 27 -12c10 -11 16 -48 24 -64zM745 486c-16 26 -33 50 -51 75c0 13 -1 26 -9 37c-46 13 -110 67 -154 92c-12 -11 -26 -18 -40 -26c0 -1 -1 -15 -1 -34c0 -30 2 -71 10 -78c-12 -24 -15 -56 -15 -92c0 -73 16 -163 16 -230c0 -9 0 -18 -1 -26l-7 -8l-4 -28
c9 -11 19 -21 30 -30l10 4c10 -9 30 -13 52 -13c39 0 85 12 98 31c65 1 90 103 90 195c0 56 -9 107 -24 131zM462 671c-16 19 -34 37 -53 54c-25 -21 -67 -37 -67 -75c0 -23 10 -45 10 -68c0 -44 -22 -136 -22 -177c0 -30 15 -37 15 -59c0 -4 -1 -9 -2 -15h3l-3 -1l5 -17
c-6 -16 -9 -31 -9 -47c0 -51 27 -100 41 -141c4 -1 8 -1 12 -1c21 0 41 7 62 7c0 97 -15 224 -15 343c0 72 5 140 23 197zM315 212c-13 18 -12 31 -13 52c7 9 10 19 10 29c0 30 -29 58 -62 58c-12 -14 -22 -28 -32 -42c-25 -1 -50 -6 -70 -21c-8 -32 -31 -25 -31 -72
c0 -70 84 -71 138 -71h13c38 0 27 45 47 67zM509 947c-4 -1 -7 -3 -10 -5l1 -10c-16 -15 -27 -39 -40 -57c-13 0 -26 3 -38 6h-2c-10 0 -56 11 -59 13s-10 10 -12 13c-4 -2 -7 -2 -9 -2c-7 0 -12 4 -24 4c-27 0 -36 -40 -50 -40c-6 0 -9 5 -9 9c0 9 9 22 12 26
c0 13 5 18 13 26l2 2c24 22 30 34 43 34c6 0 52 -20 102 -31c6 -2 16 -4 23 -4c3 0 5 0 7 1c17 6 39 74 57 74c7 0 9 -4 9 -10c0 -16 -15 -43 -16 -49z" />
    <glyph glyph-name="ydieresis" unicode="&#xff;" horiz-adv-x="413" 
d="M412 145c-13 -2 -24 -7 -33 -13c-3 -7 -8 -13 -15 -18l-4 -5c-12 -16 -30 -40 -45 -51c-2 1 -5 2 -7 4c-65 -48 -155 -93 -180 -153c-5 -21 -8 -39 -8 -57c0 -17 2 -34 5 -56c21 -26 54 -19 78 -22c4 -4 7 -11 7 -19c-31 0 -58 -15 -88 -15c-51 0 -69 47 -69 108
c0 37 8 72 19 86c24 22 47 59 77 59c52 27 90 75 101 117c-8 3 -15 5 -22 5c-41 0 -70 -56 -109 -67c-22 0 -13 26 -19 39c-32 35 -49 80 -94 106c52 42 26 125 39 183c-2 11 -1 49 -17 49c-5 0 -11 -3 -16 -3c-3 0 -7 1 -9 6c10 32 142 109 171 154h6c6 0 10 -1 10 -6
c-7 -26 -16 -45 -23 -71c0 -66 -7 -130 -7 -195c0 -11 0 -22 1 -33c-6 -10 -9 -20 -9 -29c0 -29 25 -54 35 -81c6 -2 14 -10 21 -10c4 0 8 2 11 7c32 32 34 77 34 122c0 34 -3 66 -3 101c0 13 1 26 2 39c-3 8 -10 10 -18 10c-13 0 -25 -7 -33 -7c-7 0 -11 4 -11 9
c0 31 71 56 100 101c5 0 11 -1 15 -3l20 20c6 0 13 -3 16 -9c-2 -7 -3 -13 -3 -18c0 -40 45 -60 70 -88c0 -16 -6 -31 -16 -45l-1 -11l3 -142c-7 -17 -7 -38 -7 -58v-19c11 -5 21 -12 25 -21zM255 615c-9 1 -15 10 -20 18c0 1 -1 1 -1 2l-1 1c0 17 -34 20 -34 35v5
c0 19 0 27 19 39c5 12 18 44 34 44c4 0 8 -2 13 -7c16 -18 58 -49 58 -67c0 -25 -53 -60 -68 -70zM74 657c-26 3 -33 11 -33 20c0 12 12 27 17 41l12 5c5 2 23 33 41 33c10 0 12 -3 16 -16c19 -15 38 -36 38 -62c0 -7 -16 -14 -20 -17c-4 -4 -26 -43 -42 -43
c-14 0 -26 30 -29 39z" />
    <glyph glyph-name="Ydieresis" unicode="&#x178;" horiz-adv-x="918" 
d="M861 -68c20 -8 28 -22 28 -39c0 -39 -41 -91 -53 -98c-11 -6 -32 -8 -45 -8c-10 0 -17 1 -17 1c3 -1 18 25 18 25c0 -3 -32 88 -71 88c-34 0 -76 -87 -149 -117c-27 -11 -98 -20 -178 -20c-155 0 -312 29 -312 124c0 87 145 131 230 131c96 0 217 -26 217 -26
s47 18 58 29l6 6c-47 34 -105 50 -159 73c-9 1 -19 1 -28 1c-85 0 -179 -37 -208 -37c-6 0 -9 2 -9 5c0 6 8 17 26 35c14 14 18 36 18 62c0 40 -10 88 -10 130s-9 98 -38 128c-127 12 -183 60 -183 121c0 51 40 110 109 165c76 15 152 23 228 38c7 8 10 15 10 22
c0 28 -48 46 -48 75c0 4 3 5 5 5c19 0 28 -18 45 -18c2 0 3 1 5 1c16 -23 54 -11 63 -42c-10 -44 -15 -116 -91 -116c-30 0 -61 13 -90 13c-55 0 -91 -69 -91 -85c0 -17 12 -35 43 -63c26 -8 54 -22 82 -22c12 0 24 3 36 10c51 19 76 66 101 104c17 -15 13 -54 47 -58
c80 20 143 81 152 158c-4 12 -5 25 -5 38c0 15 1 31 1 47c0 14 -1 28 -5 43l30 34c5 -1 6 -4 6 -7c0 -5 -3 -11 -3 -17c0 -4 1 -7 5 -10c38 -104 127 -197 236 -255c17 -4 38 -4 43 -23c-10 -45 -61 -83 -61 -129c0 -13 4 -26 14 -40c-2 -8 -2 -16 -2 -23
c0 -34 11 -68 11 -99c0 -17 -3 -33 -13 -48c-53 -63 -79 -137 -145 -191c-8 -13 -18 -27 -29 -40c-10 -17 -18 -31 -38 -31c-35 -23 -100 -30 -165 -30c-60 0 -118 5 -141 5c-17 0 -46 -12 -46 -38c0 -18 11 -40 96 -40c88 0 240 17 312 67c7 5 21 8 40 8
c29 0 70 -7 112 -22zM726 348c4 10 6 19 6 28c0 38 -30 73 -44 107c-9 35 -43 62 -59 85c-11 3 -22 5 -34 5c-16 0 -32 -5 -42 -21c0 -6 1 -12 1 -18c0 -24 -4 -47 -4 -70c0 -11 0 -21 3 -31c-7 -19 -10 -40 -10 -61c0 -33 6 -68 6 -100c0 -7 -1 -14 -1 -20
c13 -39 68 -35 85 -70c19 -8 38 -37 59 -37c36 0 54 67 54 106c0 34 -8 69 -20 97zM477 244c3 11 4 22 4 33c0 27 -6 56 -6 85c0 9 0 19 2 28c-1 6 -1 12 -1 19c0 15 1 32 1 48c0 34 -5 66 -38 80c-47 -4 -55 -31 -55 -63c0 -19 3 -39 3 -58c0 -14 -2 -27 -7 -37
c6 -16 7 -34 7 -53v-21c0 -32 3 -63 31 -80c21 7 46 -4 59 19zM508 859c-9 1 -15 10 -20 18c0 1 -1 1 -1 2l-1 1c0 17 -34 20 -34 35v5c0 19 0 27 19 39c5 12 18 44 34 44c4 0 8 -2 13 -7c16 -18 58 -49 58 -67c0 -25 -53 -60 -68 -70zM327 901c-26 3 -33 11 -33 20
c0 12 12 27 17 41l12 5c5 2 23 33 41 33c10 0 12 -3 16 -16c19 -15 38 -36 38 -62c0 -7 -16 -14 -20 -17c-4 -4 -26 -43 -42 -43c-14 0 -26 30 -29 39z" />
    <glyph glyph-name="Acircumflex" unicode="&#xc2;" 
d="M1120 133c1 -6 2 -11 2 -15c0 -41 -48 -52 -56 -88c-31 -45 -45 -99 -85 -139c-36 5 -22 49 -45 72c-13 36 -58 31 -71 63c-63 -5 -108 -68 -126 -121c-9 -9 -19 -16 -30 -16c-7 0 -13 2 -19 7c-18 62 -58 147 -135 156c-80 18 -156 50 -242 59c-58 0 -231 -52 -253 -106
c0 -11 6 -38 6 -61c0 -33 -16 -38 -33 -38c-29 0 -30 45 -30 57v2v1v-1c0 85 88 121 157 149l13 5c14 57 61 181 88 264c-57 -1 -124 -9 -149 -9c-1 1 -1 2 -1 4c0 22 85 37 164 50l6 30c3 56 35 105 38 105s34 79 56 135c-67 -29 -135 -62 -183 -117h-13c0 32 18 58 18 94
c67 32 121 112 206 117c13 -3 28 -4 42 -4c30 0 61 4 88 4c88 -9 140 -103 230 -103c17 0 35 -4 54 -4c23 0 47 4 65 17c40 36 59 111 110 111c6 0 13 -1 20 -3v-18c-53 -45 -67 -103 -67 -166s14 -132 14 -197c9 -99 -5 -224 112 -278c18 -4 40 -4 49 -18zM761 420
c11 25 16 51 16 78c0 36 -8 74 -16 110c-17 34 -52 51 -88 51c-19 0 -39 -5 -55 -15c-54 -76 -94 -143 -125 -229c46 0 77 40 116 59c23 22 36 53 63 62c22 -35 40 -76 58 -112c5 -5 12 -7 18 -7c5 0 9 1 13 3zM488 698c-6 6 -11 10 -16 14c-31 -68 -99 -199 -133 -273
c33 7 59 14 65 22c38 88 48 120 84 237zM829 102c2 8 3 17 3 26c0 34 -13 70 -26 99c-18 40 0 117 -58 121c-49 -9 -112 -9 -134 -63c-41 41 -77 77 -130 81c-14 -4 -23 -4 -32 -18c-9 -45 -49 -80 -53 -121c4 -1 8 -1 13 -1c28 0 59 10 90 10c71 -22 156 -36 215 -89
c41 0 57 -51 91 -51c6 0 13 2 21 6zM344 370c-6 5 -16 8 -27 10c-10 -43 -34 -148 -50 -208c22 12 42 25 51 46c-2 7 -3 14 -3 21c0 40 30 67 30 115c0 5 0 10 -1 16zM758 744l-16 -11c-15 7 -29 17 -35 33l-16 11v12l-8 8v5c0 15 0 35 -7 47l-11 3c-6 -5 -10 -18 -10 -26
l-12 -3c0 -18 -20 -72 -36 -85c-3 -4 -24 -10 -30 -12c-6 5 -13 18 -13 26c11 14 12 32 18 48c17 44 11 82 44 109l11 1l5 10c16 0 32 1 48 2c24 -32 42 -65 50 -105l8 -8c3 -13 12 -38 12 -55c0 -4 -1 -7 -2 -10z" />
    <glyph glyph-name="Ecircumflex" unicode="&#xca;" horiz-adv-x="907" 
d="M904 543c0 -27 -66 -109 -94 -110c-17 10 -37 18 -55 25l-53 -10l-12 12c-29 -22 -56 -29 -90 -35c-51 -9 -24 -218 -40 -264l50 -52c73 1 156 57 218 91l12 26l-9 45l36 44l35 -8v-43c0 -13 -24 -56 -24 -104c0 -99 -228 -225 -310 -225c-23 0 -57 -3 -91 -3
c-56 0 -113 8 -124 54h-3c-6 -2 -30 -16 -35 -16c-135 0 -313 316 -313 435c0 26 18 52 34 71l-1 50c0 16 3 33 6 49c24 8 21 17 23 38c129 158 226 159 423 159l69 27l38 -7l48 28c54 0 26 -70 171 -70c29 0 38 -24 38 -49c0 -45 -33 -52 -66 -52c-15 0 -31 2 -42 2
c-15 0 -29 -13 -44 -13c-26 0 -53 12 -76 23l-4 2l-33 -15c0 -39 -30 -7 -30 -54c0 -8 1 -18 3 -31l-14 -22c19 -19 36 -46 45 -71c34 12 67 28 100 44l4 23c25 20 145 55 177 55c27 0 33 -28 33 -49zM537 448l-19 19c-9 79 -16 157 -27 236c-18 6 -35 15 -52 24
c-13 -18 -28 -35 -43 -52c1 -69 3 -139 3 -208l-12 -18c0 -18 32 -51 32 -89c0 -36 -9 -72 -9 -108c0 -51 33 -89 55 -132l4 2c10 0 20 -4 29 -8c21 1 25 23 25 40c0 64 -11 131 -27 193l-1 -1c0 39 40 79 42 102zM366 459c0 20 -7 40 -7 61c0 37 3 75 3 112
c0 41 -9 43 -41 48c-3 0 -6 1 -9 2c-28 -35 -105 -132 -106 -174c-2 1 -4 2 -6 2c-8 0 -10 -11 -10 -26c0 -37 16 -101 16 -101c0 -44 75 -222 121 -222c29 0 35 68 35 133c0 46 -3 91 -3 107c0 19 7 38 7 58zM582 824l-16 -11c-15 7 -29 17 -35 33l-16 11v12l-8 8v5
c0 15 0 35 -7 47l-11 3c-6 -5 -10 -18 -10 -26l-12 -3c0 -18 -20 -72 -36 -85c-3 -4 -24 -10 -30 -12c-6 5 -13 18 -13 26c11 14 12 32 18 48c17 44 11 82 44 109l11 1l5 10c16 0 32 1 48 2c24 -32 42 -65 50 -105l8 -8c3 -13 12 -38 12 -55c0 -4 -1 -7 -2 -10z" />
    <glyph glyph-name="Aacute" unicode="&#xc1;" 
d="M1120 133c1 -6 2 -11 2 -15c0 -41 -48 -52 -56 -88c-31 -45 -45 -99 -85 -139c-36 5 -22 49 -45 72c-13 36 -58 31 -71 63c-63 -5 -108 -68 -126 -121c-9 -9 -19 -16 -30 -16c-7 0 -13 2 -19 7c-18 62 -58 147 -135 156c-80 18 -156 50 -242 59c-58 0 -231 -52 -253 -106
c0 -11 6 -38 6 -61c0 -33 -16 -38 -33 -38c-29 0 -30 45 -30 57v2v1v-1c0 85 88 121 157 149l13 5c14 57 61 181 88 264c-57 -1 -124 -9 -149 -9c-1 1 -1 2 -1 4c0 22 85 37 164 50l6 30c3 56 35 105 38 105s34 79 56 135c-67 -29 -135 -62 -183 -117h-13c0 32 18 58 18 94
c67 32 121 112 206 117c13 -3 28 -4 42 -4c30 0 61 4 88 4c88 -9 140 -103 230 -103c17 0 35 -4 54 -4c23 0 47 4 65 17c40 36 59 111 110 111c6 0 13 -1 20 -3v-18c-53 -45 -67 -103 -67 -166s14 -132 14 -197c9 -99 -5 -224 112 -278c18 -4 40 -4 49 -18zM761 420
c11 25 16 51 16 78c0 36 -8 74 -16 110c-17 34 -52 51 -88 51c-19 0 -39 -5 -55 -15c-54 -76 -94 -143 -125 -229c46 0 77 40 116 59c23 22 36 53 63 62c22 -35 40 -76 58 -112c5 -5 12 -7 18 -7c5 0 9 1 13 3zM488 698c-6 6 -11 10 -16 14c-31 -68 -99 -199 -133 -273
c33 7 59 14 65 22c38 88 48 120 84 237zM829 102c2 8 3 17 3 26c0 34 -13 70 -26 99c-18 40 0 117 -58 121c-49 -9 -112 -9 -134 -63c-41 41 -77 77 -130 81c-14 -4 -23 -4 -32 -18c-9 -45 -49 -80 -53 -121c4 -1 8 -1 13 -1c28 0 59 10 90 10c71 -22 156 -36 215 -89
c41 0 57 -51 91 -51c6 0 13 2 21 6zM344 370c-6 5 -16 8 -27 10c-10 -43 -34 -148 -50 -208c22 12 42 25 51 46c-2 7 -3 14 -3 21c0 40 30 67 30 115c0 5 0 10 -1 16zM766 892l-17 -12c-12 -30 -37 -52 -64 -68l-17 2l6 -15c-19 -26 -45 -49 -78 -52l-6 21
c21 39 48 72 78 104c16 17 32 59 49 75c15 0 30 -31 45 -34z" />
    <glyph glyph-name="Edieresis" unicode="&#xcb;" horiz-adv-x="908" 
d="M905 543c0 -27 -66 -109 -94 -110c-17 10 -37 18 -55 25l-53 -10l-12 12c-29 -22 -56 -29 -90 -35c-51 -9 -24 -218 -40 -264l50 -52c73 1 156 57 218 91l12 26l-9 45l36 44l35 -8v-43c0 -13 -24 -56 -24 -104c0 -99 -228 -225 -310 -225c-23 0 -57 -3 -91 -3
c-56 0 -113 8 -124 54h-3c-6 -2 -30 -16 -35 -16c-135 0 -313 316 -313 435c0 26 18 52 34 71l-1 50c0 16 3 33 6 49c24 8 21 17 23 38c129 158 226 159 423 159l69 27l38 -7l48 28c54 0 26 -70 171 -70c29 0 38 -24 38 -49c0 -45 -33 -52 -66 -52c-15 0 -31 2 -42 2
c-15 0 -29 -13 -44 -13c-26 0 -53 12 -76 23l-4 2l-33 -15c0 -39 -30 -7 -30 -54c0 -8 1 -18 3 -31l-14 -22c19 -19 36 -46 45 -71c34 12 67 28 100 44l4 23c25 20 145 55 177 55c27 0 33 -28 33 -49zM538 448l-19 19c-9 79 -16 157 -27 236c-18 6 -35 15 -52 24
c-13 -18 -28 -35 -43 -52c1 -69 3 -139 3 -208l-12 -18c0 -18 32 -51 32 -89c0 -36 -9 -72 -9 -108c0 -51 33 -89 55 -132l4 2c10 0 20 -4 29 -8c21 1 25 23 25 40c0 64 -11 131 -27 193l-1 -1c0 39 40 79 42 102zM367 459c0 20 -7 40 -7 61c0 37 3 75 3 112
c0 41 -9 43 -41 48c-3 0 -6 1 -9 2c-28 -35 -105 -132 -106 -174c-2 1 -4 2 -6 2c-8 0 -10 -11 -10 -26c0 -37 16 -101 16 -101c0 -44 75 -222 121 -222c29 0 35 68 35 133c0 46 -3 91 -3 107c0 19 7 38 7 58zM515 824c-9 1 -15 10 -20 18c0 1 -1 1 -1 2l-1 1
c0 17 -34 20 -34 35v5c0 19 0 27 19 39c5 12 18 44 34 44c4 0 8 -2 13 -7c16 -18 58 -49 58 -67c0 -25 -53 -60 -68 -70zM334 866c-26 3 -33 11 -33 20c0 12 12 27 17 41l12 5c5 2 23 33 41 33c10 0 12 -3 16 -16c19 -15 38 -36 38 -62c0 -7 -16 -14 -20 -17
c-4 -4 -26 -43 -42 -43c-14 0 -26 30 -29 39z" />
    <glyph glyph-name="Egrave" unicode="&#xc8;" horiz-adv-x="906" 
d="M904 543c0 -27 -66 -109 -94 -110c-17 10 -37 18 -55 25l-53 -10l-12 12c-29 -22 -56 -29 -90 -35c-51 -9 -24 -218 -40 -264l50 -52c73 1 156 57 218 91l12 26l-9 45l36 44l35 -8v-43c0 -13 -24 -56 -24 -104c0 -99 -228 -225 -310 -225c-23 0 -57 -3 -91 -3
c-56 0 -113 8 -124 54h-3c-6 -2 -30 -16 -35 -16c-135 0 -313 316 -313 435c0 26 18 52 34 71l-1 50c0 16 3 33 6 49c24 8 21 17 23 38c129 158 226 159 423 159l69 27l38 -7l48 28c54 0 26 -70 171 -70c29 0 38 -24 38 -49c0 -45 -33 -52 -66 -52c-15 0 -31 2 -42 2
c-15 0 -29 -13 -44 -13c-26 0 -53 12 -76 23l-4 2l-33 -15c0 -39 -30 -7 -30 -54c0 -8 1 -18 3 -31l-14 -22c19 -19 36 -46 45 -71c34 12 67 28 100 44l4 23c25 20 145 55 177 55c27 0 33 -28 33 -49zM537 448l-19 19c-9 79 -16 157 -27 236c-18 6 -35 15 -52 24
c-13 -18 -28 -35 -43 -52c1 -69 3 -139 3 -208l-12 -18c0 -18 32 -51 32 -89c0 -36 -9 -72 -9 -108c0 -51 33 -89 55 -132l4 2c10 0 20 -4 29 -8c21 1 25 23 25 40c0 64 -11 131 -27 193l-1 -1c0 39 40 79 42 102zM366 459c0 20 -7 40 -7 61c0 37 3 75 3 112
c0 41 -9 43 -41 48c-3 0 -6 1 -9 2c-28 -35 -105 -132 -106 -174c-2 1 -4 2 -6 2c-8 0 -10 -11 -10 -26c0 -37 16 -101 16 -101c0 -44 75 -222 121 -222c29 0 35 68 35 133c0 46 -3 91 -3 107c0 19 7 38 7 58zM549 824c-43 4 -55 28 -79 59c-5 6 -13 7 -19 11
c-10 8 -18 24 -27 30l-21 12l-8 21l-16 12l4 21l29 -4l16 8l34 -4c11 -20 24 -39 37 -58v-21c28 -21 47 -52 50 -87z" />
    <glyph glyph-name="Icircumflex" unicode="&#xce;" horiz-adv-x="554" 
d="M553 765c0 -58 -17 -145 -59 -189c0 -21 0 -42 3 -61c-21 -30 -28 -53 -28 -71c0 -54 66 -70 66 -118c0 -51 -5 -102 -10 -154c5 -6 10 -14 13 -22v3l-1 -47c-102 -48 -204 -101 -299 -161c-60 0 -89 70 -132 70c-5 0 -11 -1 -16 -3l-26 -34c-13 9 -27 21 -35 36
c0 32 27 61 48 82c37 38 65 51 93 51c46 0 88 -38 157 -69c44 29 61 52 61 73c0 43 -71 76 -117 133c3 13 4 25 4 36c0 35 -8 67 -8 104c57 56 24 183 145 205c-14 14 -33 32 -53 32c-20 -34 -85 -137 -127 -137c-7 0 -9 1 -9 5c0 14 34 53 34 91c0 71 -65 32 -103 60
c-27 -3 -36 -9 -52 -30l-27 -8c-6 -15 -36 -30 -50 -34l-19 16l-3 14c20 36 106 129 158 129c4 0 8 -1 12 -2c5 32 22 43 42 43c33 0 76 -29 98 -44c4 1 9 1 14 1c39 0 97 -21 128 -34c45 13 41 30 98 34zM416 823l-16 -11c-15 7 -29 17 -35 33l-16 11v12l-8 8v5
c0 15 0 35 -7 47l-11 3c-6 -5 -10 -18 -10 -26l-12 -3c0 -18 -20 -72 -36 -85c-3 -4 -24 -10 -30 -12c-6 5 -13 18 -13 26c11 14 12 32 18 48c17 44 11 82 44 109l11 1l5 10c16 0 32 1 48 2c24 -32 42 -65 50 -105l8 -8c3 -13 12 -38 12 -55c0 -4 -1 -7 -2 -10z" />
    <glyph glyph-name="Igrave" unicode="&#xcc;" horiz-adv-x="554" 
d="M553 765c0 -58 -17 -145 -59 -189c0 -21 0 -42 3 -61c-21 -30 -28 -53 -28 -71c0 -54 66 -70 66 -118c0 -51 -5 -102 -10 -154c5 -6 10 -14 13 -22v3l-1 -47c-102 -48 -204 -101 -299 -161c-60 0 -89 70 -132 70c-5 0 -11 -1 -16 -3l-26 -34c-13 9 -27 21 -35 36
c0 32 27 61 48 82c37 38 65 51 93 51c46 0 88 -38 157 -69c44 29 61 52 61 73c0 43 -71 76 -117 133c3 13 4 25 4 36c0 35 -8 67 -8 104c57 56 24 183 145 205c-14 14 -33 32 -53 32c-20 -34 -85 -137 -127 -137c-7 0 -9 1 -9 5c0 14 34 53 34 91c0 71 -65 32 -103 60
c-27 -3 -36 -9 -52 -30l-27 -8c-6 -15 -36 -30 -50 -34l-19 16l-3 14c20 36 106 129 158 129c4 0 8 -1 12 -2c5 32 22 43 42 43c33 0 76 -29 98 -44c4 1 9 1 14 1c39 0 97 -21 128 -34c45 13 41 30 98 34zM391 786c-43 4 -55 28 -79 59c-5 6 -13 7 -19 11
c-10 8 -18 24 -27 30l-21 12l-8 21l-16 12l4 21l29 -4l16 8l34 -4c11 -20 24 -39 37 -58v-21c28 -21 47 -52 50 -87z" />
    <glyph glyph-name="Oacute" unicode="&#xd3;" horiz-adv-x="868" 
d="M868 538c-11 -29 -15 -62 -15 -96c0 -41 5 -83 5 -119c0 -48 -118 -226 -166 -229c-6 -25 -30 -39 -55 -44c-39 -59 -107 -62 -168 -77l-29 13c-14 -3 -27 -4 -39 -4c-59 0 -103 28 -165 28c-64 68 -108 25 -142 60c-58 61 -90 203 -90 338c0 145 36 284 113 315
c5 0 7 -5 7 -20c0 -30 -8 -91 -8 -150c0 -79 14 -157 80 -157c5 0 11 1 17 2l9 12c-10 41 -71 114 -71 189c0 52 30 68 42 99l-21 33c38 3 60 39 97 39c5 0 10 -1 15 -2c27 64 106 55 169 63l19 -12c11 2 26 3 42 3c79 0 201 -28 232 -81c18 -31 29 -49 56 -74l15 -53
c9 -5 18 -9 27 -12c10 -11 16 -48 24 -64zM745 486c-16 26 -33 50 -51 75c0 13 -1 26 -9 37c-46 13 -110 67 -154 92c-12 -11 -26 -18 -40 -26c0 -1 -1 -15 -1 -34c0 -30 2 -71 10 -78c-12 -24 -15 -56 -15 -92c0 -73 16 -163 16 -230c0 -9 0 -18 -1 -26l-7 -8l-4 -28
c9 -11 19 -21 30 -30l10 4c10 -9 30 -13 52 -13c39 0 85 12 98 31c65 1 90 103 90 195c0 56 -9 107 -24 131zM462 671c-16 19 -34 37 -53 54c-25 -21 -67 -37 -67 -75c0 -23 10 -45 10 -68c0 -44 -22 -136 -22 -177c0 -30 15 -37 15 -59c0 -4 -1 -9 -2 -15h3l-3 -1l5 -17
c-6 -16 -9 -31 -9 -47c0 -51 27 -100 41 -141c4 -1 8 -1 12 -1c21 0 41 7 62 7c0 97 -15 224 -15 343c0 72 5 140 23 197zM315 212c-13 18 -12 31 -13 52c7 9 10 19 10 29c0 30 -29 58 -62 58c-12 -14 -22 -28 -32 -42c-25 -1 -50 -6 -70 -21c-8 -32 -31 -25 -31 -72
c0 -70 84 -71 138 -71h13c38 0 27 45 47 67zM548 994l-17 -12c-12 -30 -37 -52 -64 -68l-17 2l6 -15c-19 -26 -45 -49 -78 -52l-6 21c21 39 48 72 78 104c16 17 32 59 49 75c15 0 30 -31 45 -34z" />
    <glyph glyph-name="Ocircumflex" unicode="&#xd4;" horiz-adv-x="868" 
d="M868 538c-11 -29 -15 -62 -15 -96c0 -41 5 -83 5 -119c0 -48 -118 -226 -166 -229c-6 -25 -30 -39 -55 -44c-39 -59 -107 -62 -168 -77l-29 13c-14 -3 -27 -4 -39 -4c-59 0 -103 28 -165 28c-64 68 -108 25 -142 60c-58 61 -90 203 -90 338c0 145 36 284 113 315
c5 0 7 -5 7 -20c0 -30 -8 -91 -8 -150c0 -79 14 -157 80 -157c5 0 11 1 17 2l9 12c-10 41 -71 114 -71 189c0 52 30 68 42 99l-21 33c38 3 60 39 97 39c5 0 10 -1 15 -2c27 64 106 55 169 63l19 -12c11 2 26 3 42 3c79 0 201 -28 232 -81c18 -31 29 -49 56 -74l15 -53
c9 -5 18 -9 27 -12c10 -11 16 -48 24 -64zM745 486c-16 26 -33 50 -51 75c0 13 -1 26 -9 37c-46 13 -110 67 -154 92c-12 -11 -26 -18 -40 -26c0 -1 -1 -15 -1 -34c0 -30 2 -71 10 -78c-12 -24 -15 -56 -15 -92c0 -73 16 -163 16 -230c0 -9 0 -18 -1 -26l-7 -8l-4 -28
c9 -11 19 -21 30 -30l10 4c10 -9 30 -13 52 -13c39 0 85 12 98 31c65 1 90 103 90 195c0 56 -9 107 -24 131zM462 671c-16 19 -34 37 -53 54c-25 -21 -67 -37 -67 -75c0 -23 10 -45 10 -68c0 -44 -22 -136 -22 -177c0 -30 15 -37 15 -59c0 -4 -1 -9 -2 -15h3l-3 -1l5 -17
c-6 -16 -9 -31 -9 -47c0 -51 27 -100 41 -141c4 -1 8 -1 12 -1c21 0 41 7 62 7c0 97 -15 224 -15 343c0 72 5 140 23 197zM315 212c-13 18 -12 31 -13 52c7 9 10 19 10 29c0 30 -29 58 -62 58c-12 -14 -22 -28 -32 -42c-25 -1 -50 -6 -70 -21c-8 -32 -31 -25 -31 -72
c0 -70 84 -71 138 -71h13c38 0 27 45 47 67zM549 851l-16 -11c-15 7 -29 17 -35 33l-16 11v12l-8 8v5c0 15 0 35 -7 47l-11 3c-6 -5 -10 -18 -10 -26l-12 -3c0 -18 -20 -72 -36 -85c-3 -4 -24 -10 -30 -12c-6 5 -13 18 -13 26c11 14 12 32 18 48c17 44 11 82 44 109l11 1
l5 10c16 0 32 1 48 2c24 -32 42 -65 50 -105l8 -8c3 -13 12 -38 12 -55c0 -4 -1 -7 -2 -10z" />
    <glyph glyph-name="Uacute" unicode="&#xda;" horiz-adv-x="983" 
d="M972 92c-81 -40 -105 -123 -150 -123c-24 0 -53 22 -98 84c-4 51 -15 70 -30 70c-45 0 -132 -169 -225 -169c-34 0 -73 25 -106 34l-14 -3c-78 34 -253 174 -253 277c0 47 27 99 42 145c38 115 45 138 133 220c-4 1 -10 2 -17 2c-31 0 -83 -10 -106 -11
c-31 -22 -93 -41 -114 -69l-4 -1c-8 -11 -12 -16 -16 -16c-8 0 -5 31 -11 45c3 10 6 24 6 36c0 4 0 8 -1 12c9 20 32 40 55 42l22 38c28 1 53 107 86 118c98 -41 103 -65 161 -65c20 0 47 3 85 9l26 -11c42 20 60 34 88 74h45v-160l31 -8c30 25 23 90 77 97
c2 27 14 39 36 57l105 -17c10 14 39 21 63 21c11 0 20 -2 27 -4c9 -19 12 -27 12 -39c0 -6 -1 -14 -3 -26l-28 -17c-15 -35 -22 -61 -22 -91c0 -17 3 -35 8 -57c-2 -5 -2 -10 -2 -14c0 -31 25 -64 25 -82v-3c-30 -119 -26 -213 -33 -338l22 -14c17 33 30 68 43 101l14 7
c22 -28 31 -57 31 -88c0 -20 -4 -41 -10 -63zM734 277c0 106 -101 54 -101 113c0 13 36 30 49 39c10 -1 20 -3 30 -5c3 8 9 16 15 22v195c-20 21 -39 30 -56 30c-57 0 -96 -97 -96 -157c0 -16 3 -29 9 -37c-2 -15 -11 -26 -24 -34c0 -30 6 -131 6 -201c0 -36 -1 -63 -6 -71
l62 -37c21 0 40 8 57 19c37 0 55 96 55 124zM525 677l-14 -7v29h-30c-29 -24 -49 -67 -49 -107c0 -12 2 -24 6 -35c-10 -22 -13 -53 -13 -85c0 -43 5 -88 5 -119l-9 -10c0 -22 -1 -47 -1 -72c0 -73 15 -111 50 -111c22 0 44 18 49 51c9 62 12 124 12 187c0 93 -6 187 -6 279
zM386 387l-9 10c0 58 12 115 12 174c0 25 -2 52 -9 78l-26 -19c-37 0 -56 -38 -73 -65c-41 -9 -41 -123 -41 -163c0 -12 0 -91 18 -93c4 -9 29 -78 45 -78h1c9 -15 22 -28 35 -40c6 13 20 16 33 16c0 3 -1 7 -1 12c0 15 2 38 11 44c0 41 4 83 4 124zM638 987l-17 -12
c-12 -30 -37 -52 -64 -68l-17 2l6 -15c-19 -26 -45 -49 -78 -52l-6 21c21 39 48 72 78 104c16 17 32 59 49 75c15 0 30 -31 45 -34z" />
    <glyph glyph-name="Ucircumflex" unicode="&#xdb;" horiz-adv-x="983" 
d="M972 92c-81 -40 -105 -123 -150 -123c-24 0 -53 22 -98 84c-4 51 -15 70 -30 70c-45 0 -132 -169 -225 -169c-34 0 -73 25 -106 34l-14 -3c-78 34 -253 174 -253 277c0 47 27 99 42 145c38 115 45 138 133 220c-4 1 -10 2 -17 2c-31 0 -83 -10 -106 -11
c-31 -22 -93 -41 -114 -69l-4 -1c-8 -11 -12 -16 -16 -16c-8 0 -5 31 -11 45c3 10 6 24 6 36c0 4 0 8 -1 12c9 20 32 40 55 42l22 38c28 1 53 107 86 118c98 -41 103 -65 161 -65c20 0 47 3 85 9l26 -11c42 20 60 34 88 74h45v-160l31 -8c30 25 23 90 77 97
c2 27 14 39 36 57l105 -17c10 14 39 21 63 21c11 0 20 -2 27 -4c9 -19 12 -27 12 -39c0 -6 -1 -14 -3 -26l-28 -17c-15 -35 -22 -61 -22 -91c0 -17 3 -35 8 -57c-2 -5 -2 -10 -2 -14c0 -31 25 -64 25 -82v-3c-30 -119 -26 -213 -33 -338l22 -14c17 33 30 68 43 101l14 7
c22 -28 31 -57 31 -88c0 -20 -4 -41 -10 -63zM734 277c0 106 -101 54 -101 113c0 13 36 30 49 39c10 -1 20 -3 30 -5c3 8 9 16 15 22v195c-20 21 -39 30 -56 30c-57 0 -96 -97 -96 -157c0 -16 3 -29 9 -37c-2 -15 -11 -26 -24 -34c0 -30 6 -131 6 -201c0 -36 -1 -63 -6 -71
l62 -37c21 0 40 8 57 19c37 0 55 96 55 124zM525 677l-14 -7v29h-30c-29 -24 -49 -67 -49 -107c0 -12 2 -24 6 -35c-10 -22 -13 -53 -13 -85c0 -43 5 -88 5 -119l-9 -10c0 -22 -1 -47 -1 -72c0 -73 15 -111 50 -111c22 0 44 18 49 51c9 62 12 124 12 187c0 93 -6 187 -6 279
zM386 387l-9 10c0 58 12 115 12 174c0 25 -2 52 -9 78l-26 -19c-37 0 -56 -38 -73 -65c-41 -9 -41 -123 -41 -163c0 -12 0 -91 18 -93c4 -9 29 -78 45 -78h1c9 -15 22 -28 35 -40c6 13 20 16 33 16c0 3 -1 7 -1 12c0 15 2 38 11 44c0 41 4 83 4 124zM645 839l-16 -11
c-15 7 -29 17 -35 33l-16 11v12l-8 8v5c0 15 0 35 -7 47l-11 3c-6 -5 -10 -18 -10 -26l-12 -3c0 -18 -20 -72 -36 -85c-3 -4 -24 -10 -30 -12c-6 5 -13 18 -13 26c11 14 12 32 18 48c17 44 11 82 44 109l11 1l5 10c16 0 32 1 48 2c24 -32 42 -65 50 -105l8 -8
c3 -13 12 -38 12 -55c0 -4 -1 -7 -2 -10z" />
    <glyph glyph-name="Ugrave" unicode="&#xd9;" horiz-adv-x="983" 
d="M972 92c-81 -40 -105 -123 -150 -123c-24 0 -53 22 -98 84c-4 51 -15 70 -30 70c-45 0 -132 -169 -225 -169c-34 0 -73 25 -106 34l-14 -3c-78 34 -253 174 -253 277c0 47 27 99 42 145c38 115 45 138 133 220c-4 1 -10 2 -17 2c-31 0 -83 -10 -106 -11
c-31 -22 -93 -41 -114 -69l-4 -1c-8 -11 -12 -16 -16 -16c-8 0 -5 31 -11 45c3 10 6 24 6 36c0 4 0 8 -1 12c9 20 32 40 55 42l22 38c28 1 53 107 86 118c98 -41 103 -65 161 -65c20 0 47 3 85 9l26 -11c42 20 60 34 88 74h45v-160l31 -8c30 25 23 90 77 97
c2 27 14 39 36 57l105 -17c10 14 39 21 63 21c11 0 20 -2 27 -4c9 -19 12 -27 12 -39c0 -6 -1 -14 -3 -26l-28 -17c-15 -35 -22 -61 -22 -91c0 -17 3 -35 8 -57c-2 -5 -2 -10 -2 -14c0 -31 25 -64 25 -82v-3c-30 -119 -26 -213 -33 -338l22 -14c17 33 30 68 43 101l14 7
c22 -28 31 -57 31 -88c0 -20 -4 -41 -10 -63zM734 277c0 106 -101 54 -101 113c0 13 36 30 49 39c10 -1 20 -3 30 -5c3 8 9 16 15 22v195c-20 21 -39 30 -56 30c-57 0 -96 -97 -96 -157c0 -16 3 -29 9 -37c-2 -15 -11 -26 -24 -34c0 -30 6 -131 6 -201c0 -36 -1 -63 -6 -71
l62 -37c21 0 40 8 57 19c37 0 55 96 55 124zM525 677l-14 -7v29h-30c-29 -24 -49 -67 -49 -107c0 -12 2 -24 6 -35c-10 -22 -13 -53 -13 -85c0 -43 5 -88 5 -119l-9 -10c0 -22 -1 -47 -1 -72c0 -73 15 -111 50 -111c22 0 44 18 49 51c9 62 12 124 12 187c0 93 -6 187 -6 279
zM386 387l-9 10c0 58 12 115 12 174c0 25 -2 52 -9 78l-26 -19c-37 0 -56 -38 -73 -65c-41 -9 -41 -123 -41 -163c0 -12 0 -91 18 -93c4 -9 29 -78 45 -78h1c9 -15 22 -28 35 -40c6 13 20 16 33 16c0 3 -1 7 -1 12c0 15 2 38 11 44c0 41 4 83 4 124zM622 822
c-43 4 -55 28 -79 59c-5 6 -13 7 -19 11c-10 8 -18 24 -27 30l-21 12l-8 21l-16 12l4 21l29 -4l16 8l34 -4c11 -20 24 -39 37 -58v-21c28 -21 47 -52 50 -87z" />
    <glyph glyph-name="r.alt" horiz-adv-x="733" 
d="M713 401c-23 -31 -74 -50 -85 -97l-10 -9c-48 -43 -97 -88 -130 -138c0 -39 50 -23 74 -31c10 -14 21 -18 32 -18c23 0 47 20 69 20c4 0 7 -1 11 -2c-8 -42 -54 -54 -73 -85c-39 -31 -47 -82 -94 -101c0 31 0 70 -19 97c-24 17 -44 49 -76 49c-4 0 -8 -1 -13 -2
c4 19 31 27 39 46c11 81 62 147 81 225c-4 19 -12 46 -35 54c-31 -4 -42 -43 -66 -54c-2 5 -3 10 -3 14c0 26 31 40 38 63c51 39 113 90 151 148c43 -4 16 -58 39 -82c21 -22 10 -78 53 -78c3 0 6 0 9 1c3 -3 9 -7 9 -14c0 -2 0 -4 -1 -6zM364 209c-2 -31 -5 -54 -8 -85
c-69 -28 -117 -87 -166 -141c-44 17 -79 79 -136 79c-20 0 -34 -18 -46 -18c-1 0 -3 0 -5 1c19 47 24 96 24 145c0 57 -7 115 -7 174c0 20 1 40 3 60c-4 5 -6 13 -6 21c0 6 1 13 4 18c36 7 69 30 107 30c36 18 70 36 90 72c15 -10 26 -28 46 -36c26 -33 72 -33 95 -69
c3 -24 3 -47 3 -71c0 -38 -2 -76 -2 -113c0 -23 1 -45 4 -67zM256 106l-10 57c6 40 8 79 8 118c0 44 -2 88 -5 133l-8 15l-23 8c-22 0 -41 25 -60 25c-39 0 -40 -119 -40 -152c0 -61 10 -120 10 -178c31 -8 49 -33 75 -49c4 -4 8 -5 12 -5c14 0 27 22 41 28z" />
    <glyph glyph-name="ffi" unicode="&#xfb03;" horiz-adv-x="699" 
d="M401 775c-14 -43 -64 -67 -85 -99c-29 10 -53 25 -82 28c-6 5 -11 7 -16 7c-15 0 -25 -22 -33 -35c-3 -25 -21 -48 -21 -72c0 -7 2 -92 6 -99c-4 -4 -7 -12 -7 -19c0 -17 21 -19 33 -19c18 0 51 2 87 11c18 13 22 35 22 58c0 15 -2 30 -2 45c0 45 23 28 45 42
c60 38 124 86 163 149c5 4 11 6 15 6c21 0 35 -30 53 -38c1 0 1 -1 2 -1c25 -7 55 -15 58 -42c-14 -43 -64 -67 -85 -99c-29 10 -53 25 -82 28c-6 5 -11 7 -16 7c-15 0 -25 -22 -33 -35c-3 -25 -21 -48 -21 -72c0 -7 2 -14 6 -21c-4 -4 -7 -12 -7 -19c0 -17 21 -19 33 -19
c28 0 58 13 88 13l1 -1c14 13 27 26 42 38c57 -12 62 -78 109 -102l1 -1c4 -5 6 -9 6 -16s-7 -8 -13 -8c-11 0 -24 7 -33 7s-13 -5 -13 -24c-10 -86 -7 -159 -24 -242c3 -14 10 -31 24 -38c24 5 50 14 66 31h12c0 -11 -2 -19 -12 -24h-14c-17 -26 -43 -47 -54 -76
c-26 -2 -12 -37 -34 -37c-2 0 -5 1 -9 2c0 52 -93 43 -93 79c0 15 17 26 17 43c0 3 0 7 -2 11c9 37 12 77 12 118c0 40 -3 82 -7 122c-4 -4 -9 -6 -17 -6c-14 0 -34 4 -50 4c-13 0 -24 -3 -29 -14c-11 -36 -14 -72 -14 -108c0 -83 19 -167 19 -251v-3c0 -19 0 -48 -14 -48
c-11 0 -21 23 -33 23c-32 17 -68 32 -103 42c0 18 10 32 18 50c3 22 4 43 4 64c0 60 -9 117 -9 178c0 23 2 46 5 70c-20 1 -52 6 -82 6c-13 0 -24 -12 -29 -23c-11 -36 -14 -72 -14 -108c0 -83 19 -206 19 -290v-3c0 -19 0 -48 -14 -48c-11 0 -21 23 -33 23
c-32 17 -68 48 -103 58c15 35 22 75 22 114c0 60 -9 140 -9 201c0 23 2 46 5 70c-10 16 -41 0 -41 22c0 8 9 15 9 29c0 17 -8 40 -8 55c0 9 3 16 13 16c6 0 15 -3 27 -8c20 13 24 113 24 137c0 15 -2 30 -2 45c0 45 23 28 45 42c60 38 124 86 163 149c5 4 11 6 15 6
c21 0 35 -30 53 -38c1 0 1 -1 2 -1c25 -7 55 -15 58 -42z" />
    <glyph glyph-name="ffl" unicode="&#xfb04;" horiz-adv-x="779" 
d="M401 766c-14 -43 -64 -67 -85 -99c-29 10 -53 25 -82 28c-6 5 -11 7 -16 7c-15 0 -25 -22 -33 -35c-3 -25 -21 -117 -21 -141c0 -7 2 -14 6 -21c-4 -4 -7 -12 -7 -19c0 -17 21 -19 33 -19c15 0 61 0 94 10c20 13 24 35 24 59c0 15 -2 30 -2 45c0 45 23 28 45 42
c60 38 124 86 163 149c5 4 11 6 15 6c21 0 35 -30 53 -38c25 -7 53 -11 56 -39c63 -47 74 -55 74 -65c0 -4 -1 -7 -2 -13c-26 -134 -17 -180 -30 -317c2 -11 3 -22 3 -32c0 -21 -4 -41 -6 -64c16 -37 63 -54 93 -77c0 -15 -20 -23 -23 -37c-24 -37 -64 -57 -77 -100
c-8 -3 -16 -4 -23 -4c-46 0 -64 58 -107 67c-4 5 -6 10 -6 15c0 16 16 34 16 52c0 33 17 61 17 95c0 11 -2 22 -7 35c3 25 3 51 3 78v26c0 40 1 80 10 117c-17 63 -8 63 -20 122c-27 11 -51 24 -78 27c-6 5 -11 7 -16 7c-15 0 -25 -22 -33 -35c-3 -25 -21 -48 -21 -72
c0 -7 2 -14 6 -21c-4 -4 -7 -12 -7 -19c0 -17 21 -19 33 -19c26 0 53 13 80 13c12 0 14 -8 14 -15c0 -14 -10 -30 -10 -45c-7 -20 3 -64 -32 -64c-14 0 -33 4 -49 4c-13 0 -24 -3 -29 -14c-11 -36 -14 -72 -14 -108c0 -83 19 -221 19 -305v-3c0 -19 0 -48 -14 -48
c-11 0 -21 23 -33 23c-32 17 -68 32 -103 42c0 18 10 32 18 50c3 22 4 43 4 64c0 60 -9 171 -9 232c0 19 -6 32 -6 50c0 3 1 7 1 11c-8 4 -56 6 -81 6c-13 0 -24 -3 -29 -14c-11 -36 -14 -72 -14 -108c0 -83 19 -167 19 -251v-3c0 -19 0 -48 -14 -48c-11 0 -21 23 -33 23
c-32 17 -68 32 -103 42c0 18 10 32 18 50c3 22 4 43 4 64c0 60 -9 117 -9 178c0 23 2 46 5 70c-10 16 -41 0 -41 22c0 8 9 15 9 29c0 17 -8 40 -8 55c0 9 3 16 13 16c6 0 15 -3 27 -8c20 13 24 35 24 59c0 15 -2 99 -2 114c0 45 23 28 45 42c60 38 124 86 163 149
c5 4 11 6 15 6c21 0 35 -30 53 -38c1 0 1 -1 2 -1c25 -7 55 -15 58 -42z" />
    <glyph glyph-name="longs_longs" horiz-adv-x="523" 
d="M713 629c-7 -26 -38 -22 -57 -38c-27 -17 -57 -39 -89 -39c-5 0 -9 0 -13 1c-16 23 -42 42 -65 69c-16 0 -26 -13 -31 -27c-38 -57 -30 -129 -49 -194c-1 -15 -1 -30 -1 -45c0 -102 -12 -177 -12 -299c0 -61 3 -134 12 -228c-84 -36 -192 -153 -239 -153
c-6 0 -11 2 -15 7c55 95 174 174 174 228c0 31 -13 105 -13 135c1 11 1 23 1 36c0 92 -22 206 -22 290c0 44 6 80 25 101c0 17 -6 36 -6 56c0 39 28 64 27 73c-16 23 -42 42 -65 69c-16 0 -26 -13 -31 -27c-38 -57 -30 -129 -49 -194c-1 -15 -1 -30 -1 -45
c0 -96 15 -158 15 -253c0 -31 -2 -61 -6 -90c-16 -61 11 -156 -54 -191c-57 0 -102 -63 -159 -67c-7 -7 -18 -11 -28 -11c-8 0 -16 2 -22 7l-11 15l14 16c46 51 103 113 172 113c20 15 26 34 26 55c0 31 -14 67 -14 97c-27 110 -27 183 -35 301c-19 19 -49 11 -72 19
c-23 -8 -6 -45 -31 -45c-8 0 -11 10 -11 23c0 20 8 45 18 45c28 8 41 45 73 45c5 0 10 -1 16 -3c16 12 20 26 20 41c0 17 -6 36 -6 56c0 83 78 75 96 135c15 34 15 79 65 87c67 -4 108 -66 160 -102c8 25 20 47 54 53c68 -4 110 -68 163 -103c27 -3 61 0 76 -19z" />
    </font>
</defs>
</svg>
