<?xml version="1.0" standalone="no"?>
<!DOCTYPE svg PUBLIC "-//W3C//DTD SVG 1.1//EN" "http://www.w3.org/Graphics/SVG/1.1/DTD/svg11.dtd" >
<svg xmlns="http://www.w3.org/2000/svg" xmlns:xlink="http://www.w3.org/1999/xlink" version="1.1">
<metadata>
Created by FontForge 20170924 at Wed Jun  6 18:49:04 2018
 By www-data
Copyright (c) 2016 by Lucas Le Bihan. All rights reserved.
</metadata>
<defs>
<font id="HappyTimesattheIKOB-Regular" horiz-adv-x="1516" >
  <font-face 
    font-family="Happy Times at the IKOB"
    font-weight="400"
    font-stretch="normal"
    units-per-em="2048"
    panose-1="2 0 0 0 0 0 0 0 0 0"
    ascent="1608"
    descent="-440"
    x-height="919"
    cap-height="1355"
    bbox="-358 -456 3495 1864"
    underline-thickness="60"
    underline-position="-230"
    unicode-range="U+0020-FB04"
  />
<missing-glyph horiz-adv-x="699" 
 />
    <glyph glyph-name="fi" unicode="fi" horiz-adv-x="1100" 
d="M198 80v764h-158v75h158q49 169 114.5 301t197.5 140l247 15l20 -20l-30 -141h-279q-69 0 -90.5 -32t-17.5 -82l13 -181h551v-839l20 -20h113v-60h-451v60h123l20 20v744l-20 20h-356v-764l20 -20h153v-60h-491v60h123z" />
    <glyph glyph-name="fl" unicode="fl" horiz-adv-x="1100" 
d="M749 1172q0 28 -11 35t-36 7h-214q-69 0 -101 -22t-27 -94l13 -179h256v-75h-256v-764l20 -20h133v-60h-471v60h123l20 20v764h-158v75h158q57 184 124.5 310t251.5 126h350v-1275l20 -20h113v-60h-451v60h123l20 20v1092z" />
    <glyph glyph-name="f_f" unicode="ff" horiz-adv-x="1187" 
d="M198 80v764h-158v75h158q58 184 119.5 309.5t208.5 133.5l231 13l20 -20l-30 -141h-279q-69 0 -90.5 -32t-17.5 -82l13 -181h375q58 184 119.5 309.5t208.5 133.5l231 13l20 -20l-30 -141h-279q-69 0 -90.5 -32t-17.5 -82l13 -181h256v-75h-256v-764l20 -20h153v-60h-491
v60h123l20 20v764h-375v-764l20 -20h153v-60h-491v60h123z" />
    <glyph glyph-name="f_f_i" unicode="ffi" horiz-adv-x="1651" 
d="M198 80v764h-158v75h158q58 184 119.5 309.5t208.5 133.5l231 13l20 -20l-30 -141h-279q-69 0 -90.5 -32t-17.5 -82l13 -181h376q49 169 114.5 301t197.5 140l247 15l20 -20l-30 -141h-279q-69 0 -90.5 -32t-17.5 -82l13 -181h551v-839l20 -20h113v-60h-451v60h123l20 20
v744l-20 20h-356v-764l20 -20h153v-60h-491v60h123l20 20v764h-376v-764l20 -20h153v-60h-491v60h123z" />
    <glyph glyph-name="f_f_l" unicode="ffl" horiz-adv-x="1651" 
d="M198 80v764h-158v75h158q58 184 119.5 309.5t208.5 133.5l231 13l20 -20l-30 -141h-279q-69 0 -90.5 -32t-17.5 -82l13 -181h376q57 184 124.5 310t251.5 126h350v-1275l20 -20h113v-60h-451v60h123l20 20v1092q0 28 -11 35t-36 7h-214q-69 0 -101 -22t-27 -94l13 -179
h256v-75h-256v-764l20 -20h133v-60h-471v60h123l20 20v764h-376v-764l20 -20h153v-60h-491v60h123z" />
    <glyph glyph-name="T_h" unicode="Th" horiz-adv-x="2040" 
d="M719 90l20 -20h155v-70h-555v70h155l20 20v1149h-159q-143 0 -194 -31t-51 -158v-61h-70v366h1160l165 20l10 -20v-570h20q39 52 100 103t173 51q93 0 165 -63t72 -194v-602l20 -20h113v-60h-441v60h113l20 20v571q0 72 -35 122.5t-114 50.5t-134.5 -52.5t-71.5 -79.5
v-612l20 -20h113v-60h-451v60h123l20 20v970q0 127 -61 158t-204 31h-216v-1149z" />
    <glyph glyph-name=".notdef" horiz-adv-x="699" 
 />
    <glyph glyph-name="Yacute" unicode="&#xdd;" horiz-adv-x="1425" 
d="M528 1452h-60l380 379l110 -114zM818 90l20 -20h155v-70h-555v70h155l20 20v524l-444 651l-20 20h-130v70h566v-70h-150l-20 -20l354 -537h19q137 221 194 314.5t148 222.5l-20 20h-160v70h448v-70h-140l-20 -20l-420 -651v-524z" />
    <glyph glyph-name="yacute" unicode="&#xfd;" horiz-adv-x="1037" 
d="M346 1016h-60l380 379l110 -114zM495 -92q-93 -227 -164 -285.5t-202 -61.5l-44 -1l-20 20l30 141h81q119 0 158.5 37.5t98.5 171.5l36 82l-321 827l-20 20h-98v60h451v-60h-117l-20 -20l199 -594h20l222 594l-21 20h-119v60h392v-60h-121l-20 -20q-55 -125 -139 -310
t-124 -284z" />
    <glyph glyph-name="CR" horiz-adv-x="500" 
 />
    <glyph glyph-name="brokenbar" unicode="&#xa6;" horiz-adv-x="230" 
d="M80 1375h70v-571h-70v571zM80 571h70v-571h-70v571z" />
    <glyph glyph-name="minus" unicode="&#x2212;" horiz-adv-x="1041" 
d="M981 712v-70h-921v70h921z" />
    <glyph glyph-name="multiply" unicode="&#xd7;" horiz-adv-x="1042" 
d="M871 377l-50 -49l-286 286h-28l-287 -286l-49 49l286 287v28l-286 286l49 50l287 -287h28l286 286l49 -49l-286 -286v-28z" />
    <glyph glyph-name="space" unicode=" " horiz-adv-x="508" 
 />
    <glyph glyph-name="exclam" unicode="!" horiz-adv-x="408" 
d="M242 375h-75q0 239 -32.5 457t-32.5 543h205q0 -325 -32.5 -543t-32.5 -457zM100 0v208h208v-208h-208z" />
    <glyph glyph-name="quotedbl" unicode="&#x22;" horiz-adv-x="385" 
d="M330 1375v-372h-75v372h75zM130 1375v-372h-75v372h75z" />
    <glyph glyph-name="numbersign" unicode="#" horiz-adv-x="1001" 
d="M100 -20l115 422v18h-220l20 70h224l93 342v17h-232l20 70h236l124 456h76l-119 -437v-19h265l124 456h76l-119 -437v-19h218l-20 -70h-222l-93 -340v-19h230l-20 -70h-234l-120 -440h-76l115 422v18h-265l-120 -440h-76zM678 849h-265l-93 -340v-19h265l93 342v17z" />
    <glyph glyph-name="dollar" unicode="$" horiz-adv-x="1036" 
d="M104 1036q0 175 111 255t246 84v200h70v-203q95 -10 165 -42t109 -55h20v80h70v-476h-70v60q0 114 -73.5 225t-220.5 128v-467l209 -135q104 -67 160 -156t56 -220q0 -152 -119.5 -243t-305.5 -91v-180h-70v184q-109 10 -187.5 44t-113.5 51h-20v-80h-70v476h70v-60
q0 -115 83 -225t238 -127v545l-134 90q-90 60 -156.5 137t-66.5 201zM284 1114q0 -86 45 -136.5t112 -94.5v0h20v411q-81 -6 -129 -53.5t-48 -126.5zM531 548v-487q103 5 162 58t59 143q0 89 -43 148.5t-159 137.5h-19z" />
    <glyph glyph-name="percent" unicode="%" horiz-adv-x="1104" 
d="M181 -20l619 1315v0l-20 20h-288l-20 -20q27 -34 44.5 -87t17.5 -121q0 -160 -89 -284.5t-206 -124.5q-81 0 -140.5 73t-59.5 216q0 138 90 273t244 135h514l20 -20l-648 -1375h-78zM366 1305q-89 0 -147 -116t-58 -247q0 -104 27 -156.5t82 -52.5q69 0 131.5 109.5
t62.5 269.5q0 97 -24 145t-74 48zM844 678q94 0 142 -77.5t48 -190.5q0 -175 -89 -302t-206 -127q-81 0 -140.5 73t-59.5 216q0 138 86 273t219 135zM864 608q-87 0 -145 -116t-58 -247q0 -104 27.5 -156.5t81.5 -52.5q69 0 131.5 109.5t62.5 269.5q0 97 -28 145t-72 48z
" />
    <glyph glyph-name="ampersand" unicode="&#x26;" horiz-adv-x="1412" 
d="M874 112l-37 50q-85 -80 -194.5 -131t-246.5 -51q-146 0 -246 82t-100 246q0 194 138.5 293.5t207.5 138.5q6 4 12 7t13 7q-34 69 -50.5 136t-16.5 142q0 128 93.5 235.5t254.5 107.5q93 0 172.5 -51.5t79.5 -173.5t-112.5 -221t-212.5 -156q29 -51 68.5 -106t86.5 -118
l114 -153h19v0q66 90 115.5 185.5t79.5 163.5l-20 20h-150v70h470v-70h-172l-30 -20q-46 -91 -105.5 -209t-140.5 -228l76 -102q42 -56 80 -83.5t90 -27.5q49 0 84.5 34.5t71.5 90.5l24 -56q-44 -63 -105.5 -123.5t-179.5 -60.5q-69 0 -123.5 30.5t-107.5 101.5zM542 1070
q0 -60 12 -114t35 -105h18q93 52 165 121.5t72 165.5q0 72 -36 114.5t-102 42.5q-72 0 -118 -56.5t-46 -168.5zM264 400q0 -116 67.5 -193t180.5 -77q74 0 141 31t125 80l-190 255q-37 50 -67.5 94.5t-55.5 84.5h-19q-84 -50 -133 -113t-49 -162z" />
    <glyph glyph-name="quotesingle" unicode="'" horiz-adv-x="185" 
d="M130 1375v-372h-75v372h75z" />
    <glyph glyph-name="parenleft" unicode="(" horiz-adv-x="670" 
d="M573 1262l41 -55q-122 -57 -248 -242t-126 -506t126 -506t248 -242l-41 -55q-147 62 -315 272t-168 531t168 531t315 272z" />
    <glyph glyph-name="parenright" unicode=")" horiz-adv-x="670" 
d="M97 -344l-41 55q122 57 248 242t126 506t-126 506t-248 242l41 55q147 -62 315 -272t168 -531t-168 -531t-315 -272z" />
    <glyph glyph-name="asterisk" unicode="*" horiz-adv-x="641" 
d="M550 1152l-178 103l-17 -13v-202h-70v202l-17 13l-177 -103l-35 61l177 102v20l-178 102l35 61l178 -103l17 13v202h70v-202l17 -13l177 103l35 -61l-176 -102v-20l177 -102z" />
    <glyph glyph-name="plus" unicode="+" horiz-adv-x="1040" 
d="M980 713v-70h-405l-20 -20v-405h-70v405l-20 20h-405v70h405l20 20v404h70v-404l20 -20h405z" />
    <glyph glyph-name="comma" unicode="," horiz-adv-x="508" 
d="M319 37q0 -102 -52 -189t-145 -154l-31 52q72 58 103 114.5t31 119.5l-15 20h-109v208h218v-171z" />
    <glyph glyph-name="hyphen" unicode="-" horiz-adv-x="620" 
d="M80 409v100h460v-100h-460z" />
    <glyph glyph-name="period" unicode="." horiz-adv-x="508" 
d="M100 0v208h208v-208h-208z" />
    <glyph glyph-name="slash" unicode="/" horiz-adv-x="475" 
d="M10 0l380 1375h75l-380 -1375h-75z" />
    <glyph glyph-name="zero" unicode="0" horiz-adv-x="1070" 
d="M532 -20q-244 0 -353 222t-109 453q0 317 121 518.5t347 201.5q244 0 353 -215t109 -465q0 -299 -121 -507t-347 -208zM546 50q130 0 189.5 153t59.5 422q0 291 -60 485.5t-211 194.5q-137 0 -193 -163t-56 -417q0 -291 64.5 -483t206.5 -192z" />
    <glyph glyph-name="one" unicode="1" horiz-adv-x="705" 
d="M307 80v1115l-20 20l-160 -79l-27 55l362 184l20 -20v-1275l20 -20h163v-60h-541v60h163z" />
    <glyph glyph-name="two" unicode="2" horiz-adv-x="919" 
d="M40 0v20q282 288 465 494.5t183 407.5q0 128 -70.5 206t-200.5 78q-147 0 -222.5 -83.5t-102.5 -162.5l-41 30q10 85 106.5 235.5t321.5 150.5q177 0 265.5 -110t88.5 -253q0 -229 -181 -446t-370 -393v0l20 -20h287q104 0 147 37.5t43 156.5v35h60v-383h-799z" />
    <glyph glyph-name="three" unicode="3" horiz-adv-x="933" 
d="M852 426q0 -203 -136.5 -324.5t-335.5 -121.5q-148 0 -222 43t-117 85v30l122 120l85 -82q52 -51 94 -84.5t108 -33.5q102 0 177.5 74.5t75.5 199.5q0 184 -132.5 252.5t-267.5 75.5v60q63 13 189 83.5t126 210.5q0 88 -52 149.5t-164 61.5q-122 0 -186 -73.5t-95 -151.5
l-41 30q21 85 116 215t293 130q132 0 213 -72t81 -200q0 -105 -65 -174.5t-132 -118.5v-20q61 -19 163.5 -94.5t102.5 -269.5z" />
    <glyph glyph-name="four" unicode="4" horiz-adv-x="996" 
d="M120 468h443v574h-20l-423 -554v-20zM0 328v140l708 907l20 -20v-887h228v-140h-228v-328h-165v328h-563z" />
    <glyph glyph-name="five" unicode="5" horiz-adv-x="938" 
d="M422 58q99 0 175 85.5t76 218.5q0 260 -187.5 352.5t-400.5 112.5l-20 20l234 508h579v-154h-556l-85 -180l20 -20q181 -31 373 -140.5t192 -394.5q0 -218 -136.5 -352t-335.5 -134q-148 0 -222 43t-117 85v30l122 120l113 -110q45 -43 84.5 -66.5t91.5 -23.5z" />
    <glyph glyph-name="six" unicode="6" horiz-adv-x="1008" 
d="M507 -20q-172 0 -309.5 138t-137.5 407q0 382 257 610.5t587 262.5l27 -56q-259 -34 -429 -202.5t-204 -365.5h20q46 48 105 81t151 33q147 0 260.5 -109t113.5 -327q0 -195 -121 -333.5t-320 -138.5zM264 506q0 -215 72.5 -335.5t187.5 -120.5q122 0 173 106.5t51 252.5
q0 183 -67.5 278t-200.5 95q-61 0 -115.5 -34.5t-85.5 -87.5q-7 -30 -11 -68.5t-4 -85.5z" />
    <glyph glyph-name="seven" unicode="7" horiz-adv-x="882" 
d="M355 1201q-143 0 -194 -26t-51 -153v-52h-70v385h822l20 -20l-429 -1335h-183l483 1181l-20 20h-378z" />
    <glyph glyph-name="eight" unicode="8" horiz-adv-x="940" 
d="M249 1114q0 -81 54 -152t205 -166q69 43 130 112t61 182q0 87 -60 151t-173 64q-97 0 -157 -51.5t-60 -139.5zM60 295q0 149 84 231t188 147v20q-63 46 -160 136t-97 221q0 172 126.5 248.5t272.5 76.5q152 0 259 -68t107 -207q0 -130 -83.5 -201.5t-186.5 -134.5v-20
q124 -85 217 -177t93 -241q0 -136 -103 -241t-325 -105q-163 0 -277.5 84.5t-114.5 230.5zM480 50q104 0 164.5 54.5t60.5 157.5q0 118 -81 196t-231 184q-66 -46 -119.5 -116t-53.5 -195q0 -175 93.5 -228t166.5 -53z" />
    <glyph glyph-name="nine" unicode="9" horiz-adv-x="1008" 
d="M501 1375q172 0 309.5 -138t137.5 -407q0 -375 -257 -603.5t-587 -269.5l-27 56q259 41 429 206t204 362h-20q-46 -48 -105 -81t-151 -33q-147 0 -260.5 109t-113.5 327q0 195 121 333.5t320 138.5zM260 946q0 -183 67.5 -278t200.5 -95q61 0 115.5 34.5t85.5 87.5
q7 30 11 68.5t4 85.5q0 215 -72.5 335.5t-187.5 120.5q-122 0 -173 -106.5t-51 -252.5z" />
    <glyph glyph-name="colon" unicode=":" horiz-adv-x="508" 
d="M100 711v208h208v-208h-208zM100 0v208h208v-208h-208z" />
    <glyph glyph-name="semicolon" unicode=";" horiz-adv-x="508" 
d="M101 711v208h208v-208h-208zM319 37q0 -102 -52 -189t-145 -154l-31 52q72 58 103 114.5t31 119.5l-15 20h-109v208h218v-171z" />
    <glyph glyph-name="less" unicode="&#x3c;" horiz-adv-x="1041" 
d="M893 225l-853 443v20l853 443v-80l-691 -363v-20l691 -363v-80z" />
    <glyph glyph-name="equal" unicode="=" horiz-adv-x="1041" 
d="M911 919v-70h-781v70h781zM911 506v-70h-781v70h781z" />
    <glyph glyph-name="greater" unicode="&#x3e;" horiz-adv-x="1041" 
d="M148 225v80l691 363v20l-691 363v80l853 -443v-20z" />
    <glyph glyph-name="question" unicode="?" horiz-adv-x="865" 
d="M476 1398q159 0 273.5 -88.5t114.5 -269.5q0 -204 -146.5 -312t-251.5 -162v-191h-76v210l12 24q73 40 167.5 138.5t94.5 276.5q0 133 -73.5 220.5t-174.5 87.5q-72 0 -114.5 -28t-59.5 -100l-46 -191l-176 -20l-12 26q15 134 126 256.5t342 122.5zM327 0v208h208v-208
h-208z" />
    <glyph glyph-name="at" unicode="@" horiz-adv-x="1622" 
d="M1382 -73q-9 -7 -161.5 -88t-409.5 -81t-494 164.5t-237 475.5q0 334 249.5 535t567.5 201q282 0 463.5 -159t181.5 -387q0 -287 -196 -398t-327 -111h-63q-38 20 -44.5 59t9.5 98l9 33h-15q-36 -64 -108.5 -134.5t-158.5 -70.5q-58 0 -120.5 44.5t-62.5 170.5
q0 219 144 355t288 136q72 0 102.5 -25.5t42.5 -41.5h14v-2l17 55h151l-160 -584l15 -15q54 0 221.5 74t167.5 361q0 222 -174.5 347t-381.5 125q-252 0 -467.5 -167.5t-214.5 -483.5q1 -271 180.5 -428t424.5 -157t372 74.5t138 82.5zM639 299q0 -62 24 -89t57 -27
q90 0 165.5 113.5t91.5 146.5l50 164q-6 40 -30 67.5t-72 27.5q-100 0 -193 -138t-93 -265z" />
    <glyph glyph-name="A" unicode="A" horiz-adv-x="1459" 
d="M150 90q167 418 246 605.5t294 679.5h50l559 -1285l20 -20h110v-70h-525v70h155l20 20l-141 340h-537q-30 -71 -65 -154.5t-78 -185.5l20 -20h155v-70h-413v70h110zM450 530h438v19l-216 519h-20q-61 -163 -107 -280.5t-95 -237.5v-20z" />
    <glyph glyph-name="B" unicode="B" horiz-adv-x="1315" 
d="M90 1285v70h580q224 0 364.5 -87.5t140.5 -262.5q0 -128 -88 -195.5t-178 -84.5v-20q119 -34 212.5 -108t93.5 -223q0 -175 -140.5 -274.5t-364.5 -99.5h-620v70h155l20 20v1175l-20 20h-155zM470 1255v-505h170q134 0 217 56.5t83 198.5t-83 196t-217 54h-170zM680 650
h-210v-550h210q134 0 217 66t83 208t-83 209t-217 67z" />
    <glyph glyph-name="C" unicode="C" horiz-adv-x="1338" 
d="M1298 284q-40 -58 -162.5 -181t-395.5 -123q-284 0 -482 197.5t-198 507.5q0 306 204.5 498t495.5 192q183 0 280 -47.5t105 -52.5h20v80h70v-476h-70v60q0 146 -104 251t-283 105q-234 0 -358.5 -178.5t-124.5 -421.5q0 -239 122 -427t385 -188q225 0 321 100.5
t129 155.5z" />
    <glyph glyph-name="D" unicode="D" horiz-adv-x="1515" 
d="M90 1285v70h540q358 0 591.5 -146.5t233.5 -530.5t-247 -531t-538 -147h-580v70h155l20 20v1175l-20 20h-155zM470 1255v-1155h170q284 0 431 139.5t149 438.5q0 299 -150.5 438t-449.5 139h-150z" />
    <glyph glyph-name="E" unicode="E" horiz-adv-x="1310" 
d="M470 660v-544h470q104 0 152 37.5t48 156.5v95h70v-405h-1120v70h155l20 20v1175l-20 20h-155v70h1070v-385h-70v90q0 127 -51 153t-194 26h-375v-479h395l20 20v130h70v-400h-70v130l-20 20h-395z" />
    <glyph glyph-name="F" unicode="F" horiz-adv-x="1240" 
d="M470 90l20 -20h175v-70h-575v70h155l20 20v1175l-20 20h-155v70h1070v-385h-70v80q0 127 -51 158t-194 31h-375v-479h395l20 20v130h70v-400h-70v130l-20 20h-395v-570z" />
    <glyph glyph-name="G" unicode="G" horiz-adv-x="1465" 
d="M1185 114h-20q-41 -25 -137 -79.5t-283 -54.5q-295 0 -490 201.5t-195 503.5q0 328 215.5 509t484.5 181q183 0 277.5 -46t107.5 -54h20v80h70v-476h-70v60q0 135 -98.5 245.5t-288.5 110.5q-226 0 -354.5 -175t-128.5 -425q0 -261 127 -448t358 -187q172 0 251 110.5
t79 264.5v135l-20 20h-155v70h465v-70h-115l-20 -20v-570h-80v114z" />
    <glyph glyph-name="H" unicode="H" horiz-adv-x="1555" 
d="M470 90l20 -20h155v-70h-555v70h155l20 20v1175l-20 20h-155v70h555v-70h-155l-20 -20v-525h615v525l-20 20h-155v70h555v-70h-155l-20 -20v-1175l20 -20h155v-70h-555v70h155l20 20v550h-615v-550z" />
    <glyph glyph-name="I" unicode="I" horiz-adv-x="735" 
d="M470 90l20 -20h155v-70h-555v70h155l20 20v1175l-20 20h-155v70h555v-70h-155l-20 -20v-1175z" />
    <glyph glyph-name="J" unicode="J" horiz-adv-x="644" 
d="M449 286q0 -240 -103 -346.5t-328 -131.5l-54 -6l-27 56l63 12q115 22 179.5 86.5t64.5 213.5v1095l-20 20h-155v70h535v-70h-135l-20 -20v-979z" />
    <glyph glyph-name="K" unicode="K" horiz-adv-x="1388" 
d="M470 90l20 -20h175v-70h-575v70h155l20 20v1175l-20 20h-155v70h555v-70h-155l-20 -20v-513h20q210 210 289.5 291.5t228.5 221.5l-20 20h-135v70h439v-70h-135l-20 -20q-166 -166 -243 -240.5t-262 -252.5l630 -702h106v-70h-318l-560 635h-20v-545z" />
    <glyph glyph-name="L" unicode="L" horiz-adv-x="1240" 
d="M1210 0h-1120v70h155l20 20v1175l-20 20h-155v70h575v-70h-175l-20 -20v-1149h460q112 0 161 40.5t49 173.5v75h70v-405z" />
    <glyph glyph-name="M" unicode="M" horiz-adv-x="1885" 
d="M965 304q132 340 202.5 512.5t229.5 538.5h398v-70h-155l-20 -20v-1175l20 -20h155v-70h-575v70h175l20 20v1028h-20q-111 -275 -184.5 -450t-295.5 -688h-40l-495 1092h-15q4 -335 2.5 -510.5t-7.5 -471.5l20 -20h175v-70h-475v70h155l20 20q-7 352 -7 539t7 636l-20 20
h-145v70h390l465 -1051h20z" />
    <glyph glyph-name="N" unicode="N" horiz-adv-x="1590" 
d="M1345 386v-386h-80l-885 1103h-16q5 -354 4 -532t-8 -481l20 -20h175v-70h-475v70h155l20 20q-7 352 -7 539t7 636l-20 20h-145v70h350l780 -969h20q-7 322 -7 448.5t7 430.5l-20 20h-175v70h475v-70h-155l-20 -20q7 -312 6.5 -449.5t-6.5 -429.5z" />
    <glyph glyph-name="O" unicode="O" horiz-adv-x="1450" 
d="M705 -20q-284 0 -464.5 195.5t-180.5 479.5q0 317 193 518.5t492 201.5q284 0 464.5 -189t180.5 -491q0 -299 -193 -507t-492 -208zM770 60q194 0 289.5 155.5t95.5 409.5q0 261 -125.5 465.5t-349.5 204.5q-201 0 -293 -165.5t-92 -404.5q0 -261 125.5 -463t349.5 -202z
" />
    <glyph glyph-name="P" unicode="P" horiz-adv-x="1235" 
d="M470 615v-525l20 -20h175v-70h-575v70h155l20 20v1175l-20 20h-155v70h580q224 0 364.5 -93.5t140.5 -276.5t-140.5 -276.5t-364.5 -93.5h-200zM470 1255v-540h170q134 0 217 60.5t83 209.5t-83 209.5t-217 60.5h-170z" />
    <glyph glyph-name="Q" unicode="Q" horiz-adv-x="1455" 
d="M705 -20q-284 0 -464.5 195.5t-180.5 479.5q0 317 193 518.5t492 201.5q284 0 464.5 -189t180.5 -491q0 -161 -59.5 -300.5t-163.5 -236.5l155 -155l-63 -63l-161 161q-81 -57 -181 -89t-212 -32zM770 60q81 0 146 29t111 82l-208 208l64 63l182 -182h20v0
q35 70 52.5 163t17.5 202q0 261 -125.5 465.5t-349.5 204.5q-201 0 -293 -165.5t-92 -404.5q0 -261 125.5 -463t349.5 -202z" />
    <glyph glyph-name="R" unicode="R" horiz-adv-x="1397" 
d="M480 1255v-520h170q134 0 217 55.5t83 204.5t-83 204.5t-217 55.5h-170zM1048 0l-548 638h-20v-548l20 -20h165v-70h-575v70h165l20 20v1175l-20 20h-165v70h590q224 0 364.5 -88.5t140.5 -271.5q0 -178 -132 -253.5t-327 -75.5h-10v-20l536 -576h125v-70h-329z" />
    <glyph glyph-name="S" unicode="S" horiz-adv-x="1126" 
d="M164 1036q0 181 116.5 260t255.5 79q115 0 200 -37t129 -63h20v80h70v-476h-70v60q0 122 -85 239t-254 117q-93 0 -147.5 -48t-54.5 -133q0 -101 61 -155t147 -109l248 -160q104 -67 160 -156t56 -220q0 -152 -119.5 -243t-306.5 -91q-134 0 -232 39.5t-138 59.5h-20v-80
h-70v476h70v-60q0 -123 95 -239t273 -116q113 0 178.5 53t65.5 149q0 89 -44 149t-164 141l-217 146q-90 60 -156.5 137t-66.5 201z" />
    <glyph glyph-name="T" unicode="T" horiz-adv-x="1230" 
d="M719 90l20 -20h155v-70h-555v70h155l20 20v1149h-159q-143 0 -194 -31t-51 -158v-61h-70v366h1150v-366h-70v61q0 127 -51 158t-194 31h-156v-1149z" />
    <glyph glyph-name="U" unicode="U" horiz-adv-x="1455" 
d="M741 -20q-226 0 -376 111.5t-150 418.5v755l-20 20h-155v70h555v-70h-155l-20 -20v-772q0 -234 102.5 -318.5t263.5 -84.5q160 0 262.5 95t101.5 335q-1 351 -1 468t1 277l-20 20h-150v70h435v-70h-135l-20 -20q1 -192 1 -339.5t-1 -375.5q-2 -291 -135.5 -430.5
t-383.5 -139.5z" />
    <glyph glyph-name="V" unicode="V" horiz-adv-x="1399" 
d="M120 1265l-20 20h-100v70h546v-70h-180l-20 -20l407 -961h20q114 307 172.5 464t195.5 497l-20 20h-140v70h398v-70h-110l-20 -20q-162 -418 -236.5 -602t-283.5 -683h-50z" />
    <glyph glyph-name="W" unicode="W" horiz-adv-x="1929" 
d="M120 1265l-20 20h-100v70h526v-70h-160l-20 -20l320 -919h20q95 267 135 378t84 225l-115 316l-20 20h-100v70h526v-70h-160l-20 -20l320 -919h20q108 307 153.5 443t161.5 476l-20 20h-140v70h398v-70h-110l-20 -20q-150 -418 -216 -602t-254 -683h-50l-290 795h-20
q-48 -125 -109.5 -283.5t-200.5 -511.5h-50z" />
    <glyph glyph-name="X" unicode="X" horiz-adv-x="1425" 
d="M268 90l20 -20h180v-70h-468v70h120l20 20l460 579l-401 596l-20 20h-160v70h626v-70h-170l-20 -20l287 -427h18q113 148 167 220.5t163 206.5l-20 20h-160v70h488v-70h-160l-20 -20l-415 -518l442 -657l20 -20h160v-70h-626v70h170l20 20l-328 488h-19
q-100 -133 -183.5 -242.5t-190.5 -245.5z" />
    <glyph glyph-name="Y" unicode="Y" horiz-adv-x="1425" 
d="M818 90l20 -20h155v-70h-555v70h155l20 20v524l-444 651l-20 20h-130v70h566v-70h-150l-20 -20l354 -537h19q137 221 194 314.5t148 222.5l-20 20h-160v70h448v-70h-140l-20 -20l-420 -651v-524z" />
    <glyph glyph-name="Z" unicode="Z" horiz-adv-x="1190" 
d="M310 90h535q143 0 194 34t51 161v130h70v-415h-1130v70l810 1175v20h-455q-143 0 -194 -34t-51 -161v-100h-70v385h1050v-70l-810 -1175v-20z" />
    <glyph glyph-name="bracketleft" unicode="[" horiz-adv-x="560" 
d="M132 -334v1586h398v-70h-249l-20 -20v-1406l20 -20h249v-70h-398z" />
    <glyph glyph-name="backslash" unicode="\" horiz-adv-x="475" 
d="M465 -20h-75l-380 1395h75z" />
    <glyph glyph-name="bracketright" unicode="]" horiz-adv-x="560" 
d="M428 1252v-1586h-398v70h249l20 20v1406l-20 20h-249v70h398z" />
    <glyph glyph-name="underscore" unicode="_" horiz-adv-x="1031" 
d="M80 -165v70h871v-70h-871z" />
    <glyph glyph-name="grave" unicode="`" horiz-adv-x="570" 
d="M470 1016l-430 265l110 114l380 -379h-60z" />
    <glyph glyph-name="a" unicode="a" horiz-adv-x="913" 
d="M581 700q0 97 -54 135.5t-121 38.5q-37 0 -63.5 -14t-36.5 -50l-36 -122l-176 -20l-12 26q18 109 115.5 177t257.5 68q140 0 228 -59t81 -202l-22 -468q-2 -52 9 -76t47 -24q23 0 44 21t47 49l24 -56q-71 -70 -113.5 -107t-99.5 -37q-59 0 -89 38t-30 98v44h-19
q-23 -45 -89 -112.5t-179 -67.5q-101 0 -162.5 57.5t-61.5 147.5q0 164 160.5 245.5t350.5 159.5v110zM581 495l-20 20q-101 -45 -205 -103.5t-104 -166.5q0 -57 31 -84t91 -27q93 0 150 57.5t57 64.5v239z" />
    <glyph glyph-name="b" unicode="b" horiz-adv-x="1040" 
d="M252 135h-20v-135h-75v1207l-20 20l-100 -41l-27 55l302 134l20 -20v-575h20q49 64 110.5 111.5t157.5 47.5q142 0 246 -120t104 -352q0 -214 -126 -350.5t-286 -136.5q-113 0 -182 49t-124 106zM332 365q0 -119 60 -217.5t173 -98.5q112 0 163 99.5t51 241.5
q0 193 -63 313.5t-184 120.5q-70 0 -125.5 -54.5t-74.5 -87.5v-317z" />
    <glyph glyph-name="c" unicode="c" horiz-adv-x="882" 
d="M477 939q147 0 222.5 -72.5t95.5 -152.5l-12 -26l-176 -20l-56 140q-14 35 -38.5 49.5t-61.5 14.5q-108 0 -187 -95t-79 -249q0 -163 81.5 -270.5t223.5 -107.5q149 0 201.5 87t79.5 159l41 -30q-10 -85 -92 -235.5t-280 -150.5q-189 0 -294.5 135t-105.5 328
q0 173 106 334.5t331 161.5z" />
    <glyph glyph-name="d" unicode="d" horiz-adv-x="1020" 
d="M688 0l10 139h-20q-49 -64 -115.5 -111.5t-162.5 -47.5q-142 0 -246 120t-104 352q0 214 126 350.5t286 136.5q81 0 129.5 -21.5t76.5 -43.5h20v333l-20 20l-100 -41l-27 55l302 134l20 -20v-1203l20 -20l96 35l21 -54l-292 -133zM488 95q70 0 125.5 49.5t74.5 82.5v327
q0 104 -60 210t-173 106q-112 0 -163 -99.5t-51 -241.5q0 -193 63 -313.5t184 -120.5z" />
    <glyph glyph-name="e" unicode="e" horiz-adv-x="892" 
d="M812 366q-10 -85 -92 -235.5t-280 -150.5q-189 0 -294.5 135t-105.5 328q0 169 102.5 332.5t307.5 163.5q119 0 233.5 -76t114.5 -291h-612q-1 -8 -1 -17.5v-18.5q0 -151 75.5 -268.5t231.5 -117.5q140 0 194 80t85 166zM424 862q-66 0 -136 -51t-94 -174l386 10l20 20
q0 84 -44.5 139.5t-131.5 55.5z" />
    <glyph glyph-name="f" unicode="f" horiz-adv-x="637" 
d="M198 80v764h-158v75h158q58 184 119.5 309.5t208.5 133.5l231 13l20 -20l-30 -141h-279q-69 0 -90.5 -32t-17.5 -82l13 -181h256v-75h-256v-764l20 -20h153v-60h-491v60h123z" />
    <glyph glyph-name="g" unicode="g" horiz-adv-x="976" 
d="M40 -210l10 30l150 160v20q-45 15 -61 38.5t-16 66.5l10 30l167 188v18q-74 37 -124 107.5t-50 172.5q0 159 109 238.5t234 79.5q31 0 63 -5t62 -15h329v-75h-183v-20q33 -38 52.5 -89t19.5 -114q0 -149 -109 -234t-234 -85q-25 0 -51 3.5t-51 10.5l-51 -69
q-11 -15 -18.5 -29t-7.5 -33q0 -26 23.5 -38t71.5 -12h314q88 0 157.5 -36t69.5 -148q0 -156 -183 -278.5t-394 -122.5q-193 0 -251 79.5t-58 160.5zM312 674q0 -157 55 -232t129 -75q67 0 98.5 57t31.5 145q0 146 -52 225.5t-134 79.5q-57 0 -92.5 -51.5t-35.5 -148.5z
M700 -20h-431l-44 -70q-14 -22 -21.5 -36.5t-7.5 -33.5q0 -60 54.5 -95.5t179.5 -35.5q195 0 307.5 63t112.5 144q0 48 -44 56t-106 8z" />
    <glyph glyph-name="h" unicode="h" horiz-adv-x="1035" 
d="M167 80v1127l-20 20l-100 -41l-27 55l302 134l20 -20v-570h20q39 52 100 103t173 51q93 0 165 -63t72 -194v-602l20 -20h113v-60h-441v60h113l20 20v571q0 72 -35 122.5t-114 50.5t-134.5 -52.5t-71.5 -79.5v-612l20 -20h113v-60h-451v60h123z" />
    <glyph glyph-name="i" unicode="i" horiz-adv-x="526" 
d="M160 1157v198h198v-198h-198zM183 80v688l-20 20l-93 -38l-27 55l295 134l20 -20v-839l20 -20h113v-60h-451v60h123z" />
    <glyph glyph-name="j" unicode="j" horiz-adv-x="501" 
d="M161 1157v198h198v-198h-198zM361 919l-18 -870q-4 -184 -124 -328.5t-224 -151.5l-124 -9l-21 20l30 141h163q70 0 105.5 23.5t34.5 125.5l-12 892l-20 20l-93 -38l-27 55l310 140z" />
    <glyph glyph-name="k" unicode="k" horiz-adv-x="962" 
d="M167 80v1127l-20 20l-100 -41l-27 55l302 134l20 -20v-800h20q119 112 170 155.5t158 128.5l-20 20h-101v60h383v-60h-122q-117 -101 -172.5 -147t-161.5 -130l380 -502l30 -20h56v-60h-412v60h89l20 20l-297 410h-20v-410l20 -20h113v-60h-451v60h123z" />
    <glyph glyph-name="l" unicode="l" horiz-adv-x="485" 
d="M167 80v1127l-20 20l-100 -41l-27 55l302 134l20 -20v-1275l20 -20h113v-60h-451v60h123z" />
    <glyph glyph-name="m" unicode="m" horiz-adv-x="1581" 
d="M183 80v688l-20 20l-93 -38l-27 55l295 134l20 -20l-10 -139h20q39 52 105 105.5t178 53.5q73 0 136 -39t88 -120h20q39 52 106.5 105.5t179.5 53.5q93 0 165.5 -63t72.5 -194v-602l20 -20h112v-60h-441v60h113l20 20v571q0 72 -35 122.5t-114 50.5t-134.5 -52.5
t-70.5 -78.5v-5v-6v-602l20 -20h113v-60h-442v60h113l20 20v571q0 72 -35 122.5t-114 50.5t-134.5 -52.5t-71.5 -79.5v-612l20 -20h113v-60h-451v60h123z" />
    <glyph glyph-name="n" unicode="n" horiz-adv-x="1052" 
d="M183 80v688l-20 20l-93 -38l-27 55l298 134l20 -20l-13 -139h20q39 52 105 105.5t178 53.5q93 0 165.5 -63t72.5 -194v-602l20 -20h113v-60h-442v60h113l20 20v571q0 72 -35 122.5t-114 50.5t-134.5 -52.5t-71.5 -79.5v-612l20 -20h113v-60h-451v60h123z" />
    <glyph glyph-name="o" unicode="o" horiz-adv-x="996" 
d="M50 461q0 204 122 341t321 137t321 -133.5t122 -344.5q0 -201 -122 -341t-321 -140t-321 136t-122 345zM251 514q0 -196 65 -330t197 -134q118 0 170 106.5t52 252.5q0 183 -62.5 321.5t-200.5 138.5q-108 0 -164.5 -99t-56.5 -256z" />
    <glyph glyph-name="p" unicode="p" horiz-adv-x="1023" 
d="M150 -360v1128l-20 20l-93 -38l-27 55l298 134l20 -20l-13 -139h20q49 64 115.5 111.5t162.5 47.5q142 0 246 -120t104 -352q0 -214 -126 -350.5t-286 -136.5q-81 0 -129.5 21.5t-76.5 43.5h-20v-405l20 -20h143v-60h-471v60h113zM325 365q0 -104 60 -210t173 -106
q112 0 163 99.5t51 241.5q0 193 -63 313.5t-184 120.5q-70 0 -125.5 -49.5t-74.5 -82.5v-327z" />
    <glyph glyph-name="q" unicode="q" horiz-adv-x="1006" 
d="M688 -360v499h-20q-49 -64 -110.5 -111.5t-157.5 -47.5q-142 0 -246 120t-104 352q0 214 126 350.5t286 136.5q113 0 182 -49t124 -106h20v135h75v-1279l20 -20h113v-60h-471v60h143zM488 95q70 0 125.5 54.5t74.5 87.5v317q0 119 -56.5 217.5t-176.5 98.5
q-112 0 -163 -99.5t-51 -241.5q0 -193 63 -313.5t184 -120.5z" />
    <glyph glyph-name="r" unicode="r" horiz-adv-x="695" 
d="M183 80v688l-20 20l-93 -38l-27 55l305 134l20 -20l-20 -174h20q25 63 69.5 121t126.5 65l91 8l20 -20l-30 -141h-98q-95 0 -134 -46.5t-55 -89.5v-562l20 -20h133v-60h-471v60h123z" />
    <glyph glyph-name="s" unicode="s" horiz-adv-x="800" 
d="M652 643h-65v62q0 67 -56 115.5t-141 48.5q-67 0 -103.5 -32t-36.5 -89q0 -58 39.5 -95t120.5 -79q146 -75 228 -145.5t82 -193.5q0 -131 -84.5 -193t-215.5 -62q-97 0 -155 27.5t-80 42.5h-20v-50h-65v334h65v-39q0 -95 68.5 -170t186.5 -75q63 0 101.5 32.5t38.5 92.5
q0 84 -71.5 128.5t-152.5 90.5q-102 58 -166.5 119.5t-64.5 177.5q0 105 77 176.5t199 71.5q59 0 107 -14t79 -25h20v39h65v-296z" />
    <glyph glyph-name="t" unicode="t" horiz-adv-x="599" 
d="M335 1127v-208h191v-75h-191v-638q0 -44 16 -70t62 -26t75.5 28t56.5 62l24 -56q-34 -42 -93.5 -103t-146.5 -61q-85 0 -127 53.5t-42 166.5v644h-120l-20 20l295 263h20z" />
    <glyph glyph-name="u" unicode="u" horiz-adv-x="1027" 
d="M466 96q73 0 129.5 46.5t78.5 86.5v610l-20 20h-108v60h303v-767l20 -20l98 35l20 -53l-296 -134l-20 20l13 139h-20q-46 -66 -112.5 -112.5t-162.5 -46.5q-87 0 -164 59.5t-77 189.5v610l-20 20h-108v60h303v-657q0 -72 35.5 -119t107.5 -47z" />
    <glyph glyph-name="v" unicode="v" horiz-adv-x="921" 
d="M828 839l-351 -859h-20l-368 859l-20 20h-69v60h399v-60h-95l-20 -20l224 -561h20l189 561l-20 20h-97v60h321v-60h-73z" />
    <glyph glyph-name="w" unicode="w" horiz-adv-x="1421" 
d="M1324 839l-350 -859h-20l-242 574l-238 -574h-20l-362 859l-20 20h-72v60h399v-60h-91l-20 -20l217 -561h20l137 396l-70 165l-20 20h-72v60h399v-60h-91l-20 -20l217 -561h20l188 561l-20 20h-93v60h321v-60h-77z" />
    <glyph glyph-name="x" unicode="x" horiz-adv-x="995" 
d="M245 80l20 -20h71v-60h-326v60h91l20 20l293 371l-264 388l-20 20h-90v60h431v-60h-91l-20 -20l167 -246h18l165 246l-20 20h-70v60h325v-60h-95l-20 -20l-255 -317l300 -442l20 -20h90v-60h-433v60h93l20 20l-202 298h-17z" />
    <glyph glyph-name="y" unicode="y" horiz-adv-x="1037" 
d="M495 -92q-93 -227 -164 -285.5t-202 -61.5l-44 -1l-20 20l30 141h81q119 0 158.5 37.5t98.5 171.5l36 82l-321 827l-20 20h-98v60h451v-60h-117l-20 -20l199 -594h20l222 594l-21 20h-119v60h392v-60h-121l-20 -20q-55 -125 -139 -310t-124 -284z" />
    <glyph glyph-name="z" unicode="z" horiz-adv-x="890" 
d="M316 60h265q89 0 136.5 65t62.5 199h60l-20 -324h-770v20l529 819l-20 20h-180q-81 0 -131.5 -45.5t-57.5 -180.5h-60v286h692v-20l-526 -819z" />
    <glyph glyph-name="braceleft" unicode="{" horiz-adv-x="681" 
d="M651 -346q-255 0 -319.5 105.5t-54.5 301.5q8 161 -36.5 254t-220.5 108v72q176 15 220.5 108t36.5 254q-10 197 54.5 302t319.5 105v-70q-165 0 -207.5 -107t-35.5 -283q7 -179 -47 -242t-221 -93v-20q167 -30 221 -93t47 -242q-7 -176 35.5 -283t207.5 -107v-70z" />
    <glyph glyph-name="bar" unicode="|" horiz-adv-x="230" 
d="M80 1375h70v-1375h-70v1375z" />
    <glyph glyph-name="braceright" unicode="}" horiz-adv-x="681" 
d="M30 -346v70q165 0 207 107t35 283q-7 179 47.5 242t221.5 93v20q-167 30 -221.5 93t-47.5 242q7 176 -35 283t-207 107v70q255 0 319.5 -105t54.5 -302q-8 -161 36.5 -254t220.5 -108v-72q-176 -15 -220.5 -108t-36.5 -254q10 -196 -54.5 -301.5t-319.5 -105.5z" />
    <glyph glyph-name="Adieresis" unicode="&#xc4;" horiz-adv-x="1459" 
d="M457 1613v178h178v-178h-178zM789 1613v178h178v-178h-178zM150 90q167 418 246 605.5t294 679.5h50l559 -1285l20 -20h110v-70h-525v70h155l20 20l-141 340h-537q-30 -71 -65 -154.5t-78 -185.5l20 -20h155v-70h-413v70h110zM450 530h438v19l-216 519h-20
q-61 -163 -107 -280.5t-95 -237.5v-20z" />
    <glyph glyph-name="Aring" unicode="&#xc5;" horiz-adv-x="1459" 
d="M713 1864q85 0 145.5 -60.5t60.5 -144.5t-60.5 -144.5t-145.5 -60.5q-88 0 -146.5 60.5t-58.5 144.5t58.5 144.5t146.5 60.5zM836 1659q0 52 -34.5 87.5t-88.5 35.5t-89.5 -35.5t-35.5 -87.5t35.5 -88.5t89.5 -36.5t88.5 36.5t34.5 88.5zM150 90q167 418 246 605.5
t294 679.5h50l559 -1285l20 -20h110v-70h-525v70h155l20 20l-141 340h-537q-30 -71 -65 -154.5t-78 -185.5l20 -20h155v-70h-413v70h110zM450 530h438v19l-216 519h-20q-61 -163 -107 -280.5t-95 -237.5v-20z" />
    <glyph glyph-name="Ccedilla" unicode="&#xc7;" horiz-adv-x="1338" 
d="M1298 284q-40 -57 -159 -178.5t-383 -125.5l-34 -88l20 -20q7 1 14.5 1.5t14.5 0.5q76 0 122 -39.5t46 -100.5q0 -75 -64 -124.5t-183 -49.5q-51 0 -94 11.5t-79 31.5l24 55q34 -16 65 -23t59 -7q60 0 90.5 24.5t30.5 67.5q0 39 -25 57.5t-64 18.5q-29 0 -43.5 -4
t-24.5 -8l-20 20l75 178q-264 19 -445 213.5t-181 489.5q0 306 204.5 498t495.5 192q183 0 280 -47.5t105 -52.5h20v80h70v-476h-70v60q0 146 -104 251t-283 105q-234 0 -358.5 -178.5t-124.5 -421.5q0 -239 122 -427t385 -188q225 0 321 100.5t129 155.5z" />
    <glyph glyph-name="Eacute" unicode="&#xc9;" horiz-adv-x="1310" 
d="M485 1452h-60l380 379l110 -114zM470 660v-544h470q104 0 152 37.5t48 156.5v95h70v-405h-1120v70h155l20 20v1175l-20 20h-155v70h1070v-385h-70v90q0 127 -51 153t-194 26h-375v-479h395l20 20v130h70v-400h-70v130l-20 20h-395z" />
    <glyph glyph-name="Ntilde" unicode="&#xd1;" horiz-adv-x="1590" 
d="M1099 1791q-7 -67 -51 -142.5t-148 -75.5q-90 0 -141 50t-118 50q-52 0 -76.5 -36.5t-24.5 -73.5h-59q7 67 51.5 142.5t148.5 75.5q90 0 140.5 -49.5t117.5 -49.5q52 0 76.5 36t24.5 73h59zM1345 386v-386h-80l-885 1103h-16q5 -354 4 -532t-8 -481l20 -20h175v-70h-475
v70h155l20 20q-7 352 -7 539t7 636l-20 20h-145v70h350l780 -969h20q-7 322 -7 448.5t7 430.5l-20 20h-175v70h475v-70h-155l-20 -20q7 -312 6.5 -449.5t-6.5 -429.5z" />
    <glyph glyph-name="Odieresis" unicode="&#xd6;" horiz-adv-x="1450" 
d="M470 1613v178h178v-178h-178zM802 1613v178h178v-178h-178zM705 -20q-284 0 -464.5 195.5t-180.5 479.5q0 317 193 518.5t492 201.5q284 0 464.5 -189t180.5 -491q0 -299 -193 -507t-492 -208zM770 60q194 0 289.5 155.5t95.5 409.5q0 261 -125.5 465.5t-349.5 204.5
q-201 0 -293 -165.5t-92 -404.5q0 -261 125.5 -463t349.5 -202z" />
    <glyph glyph-name="Udieresis" unicode="&#xdc;" horiz-adv-x="1455" 
d="M473 1613v178h178v-178h-178zM805 1613v178h178v-178h-178zM741 -20q-226 0 -376 111.5t-150 418.5v755l-20 20h-155v70h555v-70h-155l-20 -20v-772q0 -234 102.5 -318.5t263.5 -84.5q160 0 262.5 95t101.5 335q-1 351 -1 468t1 277l-20 20h-150v70h435v-70h-135l-20 -20
q1 -192 1 -339.5t-1 -375.5q-2 -291 -135.5 -430.5t-383.5 -139.5z" />
    <glyph glyph-name="aacute" unicode="&#xe1;" horiz-adv-x="913" 
d="M262 1016h-60l380 379l110 -114zM581 700q0 97 -54 135.5t-121 38.5q-37 0 -63.5 -14t-36.5 -50l-36 -122l-176 -20l-12 26q18 109 115.5 177t257.5 68q140 0 228 -59t81 -202l-22 -468q-2 -52 9 -76t47 -24q23 0 44 21t47 49l24 -56q-71 -70 -113.5 -107t-99.5 -37
q-59 0 -89 38t-30 98v44h-19q-23 -45 -89 -112.5t-179 -67.5q-101 0 -162.5 57.5t-61.5 147.5q0 164 160.5 245.5t350.5 159.5v110zM581 495l-20 20q-101 -45 -205 -103.5t-104 -166.5q0 -57 31 -84t91 -27q93 0 150 57.5t57 64.5v239z" />
    <glyph glyph-name="agrave" unicode="&#xe0;" horiz-adv-x="913" 
d="M632 1016l-430 265l110 114l380 -379h-60zM581 700q0 97 -54 135.5t-121 38.5q-37 0 -63.5 -14t-36.5 -50l-36 -122l-176 -20l-12 26q18 109 115.5 177t257.5 68q140 0 228 -59t81 -202l-22 -468q-2 -52 9 -76t47 -24q23 0 44 21t47 49l24 -56q-71 -70 -113.5 -107
t-99.5 -37q-59 0 -89 38t-30 98v44h-19q-23 -45 -89 -112.5t-179 -67.5q-101 0 -162.5 57.5t-61.5 147.5q0 164 160.5 245.5t350.5 159.5v110zM581 495l-20 20q-101 -45 -205 -103.5t-104 -166.5q0 -57 31 -84t91 -27q93 0 150 57.5t57 64.5v239z" />
    <glyph glyph-name="acircumflex" unicode="&#xe2;" horiz-adv-x="913" 
d="M677 1016l-258 206h-20l-182 -206h-60l240 339h100l240 -339h-60zM581 700q0 97 -54 135.5t-121 38.5q-37 0 -63.5 -14t-36.5 -50l-36 -122l-176 -20l-12 26q18 109 115.5 177t257.5 68q140 0 228 -59t81 -202l-22 -468q-2 -52 9 -76t47 -24q23 0 44 21t47 49l24 -56
q-71 -70 -113.5 -107t-99.5 -37q-59 0 -89 38t-30 98v44h-19q-23 -45 -89 -112.5t-179 -67.5q-101 0 -162.5 57.5t-61.5 147.5q0 164 160.5 245.5t350.5 159.5v110zM581 495l-20 20q-101 -45 -205 -103.5t-104 -166.5q0 -57 31 -84t91 -27q93 0 150 57.5t57 64.5v239z" />
    <glyph glyph-name="adieresis" unicode="&#xe4;" horiz-adv-x="913" 
d="M192 1177v178h178v-178h-178zM524 1177v178h178v-178h-178zM581 700q0 97 -54 135.5t-121 38.5q-37 0 -63.5 -14t-36.5 -50l-36 -122l-176 -20l-12 26q18 109 115.5 177t257.5 68q140 0 228 -59t81 -202l-22 -468q-2 -52 9 -76t47 -24q23 0 44 21t47 49l24 -56
q-71 -70 -113.5 -107t-99.5 -37q-59 0 -89 38t-30 98v44h-19q-23 -45 -89 -112.5t-179 -67.5q-101 0 -162.5 57.5t-61.5 147.5q0 164 160.5 245.5t350.5 159.5v110zM581 495l-20 20q-101 -45 -205 -103.5t-104 -166.5q0 -57 31 -84t91 -27q93 0 150 57.5t57 64.5v239z" />
    <glyph glyph-name="atilde" unicode="&#xe3;" horiz-adv-x="913" 
d="M756 1355q-7 -67 -51 -142.5t-148 -75.5q-90 0 -141 50t-118 50q-52 0 -76.5 -36.5t-24.5 -73.5h-59q7 67 51.5 142.5t148.5 75.5q90 0 140.5 -49.5t117.5 -49.5q52 0 76.5 36t24.5 73h59zM581 700q0 97 -54 135.5t-121 38.5q-37 0 -63.5 -14t-36.5 -50l-36 -122
l-176 -20l-12 26q18 109 115.5 177t257.5 68q140 0 228 -59t81 -202l-22 -468q-2 -52 9 -76t47 -24q23 0 44 21t47 49l24 -56q-71 -70 -113.5 -107t-99.5 -37q-59 0 -89 38t-30 98v44h-19q-23 -45 -89 -112.5t-179 -67.5q-101 0 -162.5 57.5t-61.5 147.5q0 164 160.5 245.5
t350.5 159.5v110zM581 495l-20 20q-101 -45 -205 -103.5t-104 -166.5q0 -57 31 -84t91 -27q93 0 150 57.5t57 64.5v239z" />
    <glyph glyph-name="aring" unicode="&#xe5;" horiz-adv-x="913" 
d="M447 1428q85 0 145.5 -60.5t60.5 -144.5t-60.5 -144.5t-145.5 -60.5q-88 0 -146.5 60.5t-58.5 144.5t58.5 144.5t146.5 60.5zM570 1223q0 52 -34.5 87.5t-88.5 35.5t-89.5 -35.5t-35.5 -87.5t35.5 -88.5t89.5 -36.5t88.5 36.5t34.5 88.5zM581 700q0 97 -54 135.5
t-121 38.5q-37 0 -63.5 -14t-36.5 -50l-36 -122l-176 -20l-12 26q18 109 115.5 177t257.5 68q140 0 228 -59t81 -202l-22 -468q-2 -52 9 -76t47 -24q23 0 44 21t47 49l24 -56q-71 -70 -113.5 -107t-99.5 -37q-59 0 -89 38t-30 98v44h-19q-23 -45 -89 -112.5t-179 -67.5
q-101 0 -162.5 57.5t-61.5 147.5q0 164 160.5 245.5t350.5 159.5v110zM581 495l-20 20q-101 -45 -205 -103.5t-104 -166.5q0 -57 31 -84t91 -27q93 0 150 57.5t57 64.5v239z" />
    <glyph glyph-name="ccedilla" unicode="&#xe7;" horiz-adv-x="882" 
d="M477 939q147 0 222.5 -72.5t95.5 -152.5l-12 -26l-176 -20l-56 140q-14 35 -38.5 49.5t-61.5 14.5q-108 0 -187 -95t-79 -249q0 -163 81.5 -270.5t223.5 -107.5q149 0 201.5 87t79.5 159l41 -30q-10 -84 -90 -232.5t-271 -153.5l-34 -88l20 -20q7 1 14.5 1.5t14.5 0.5
q76 0 122 -39.5t46 -100.5q0 -75 -64 -124.5t-183 -49.5q-51 0 -94 11.5t-79 31.5l24 55q34 -16 65 -23t59 -7q60 0 90.5 24.5t30.5 67.5q0 39 -25 57.5t-64 18.5q-29 0 -43.5 -4t-24.5 -8l-20 20l76 180q-162 22 -252 151.5t-90 307.5q0 173 106 334.5t331 161.5z" />
    <glyph glyph-name="eacute" unicode="&#xe9;" horiz-adv-x="892" 
d="M236 1016h-60l380 379l110 -114zM812 366q-10 -85 -92 -235.5t-280 -150.5q-189 0 -294.5 135t-105.5 328q0 169 102.5 332.5t307.5 163.5q119 0 233.5 -76t114.5 -291h-612q-1 -8 -1 -17.5v-18.5q0 -151 75.5 -268.5t231.5 -117.5q140 0 194 80t85 166zM424 862
q-66 0 -136 -51t-94 -174l386 10l20 20q0 84 -44.5 139.5t-131.5 55.5z" />
    <glyph glyph-name="egrave" unicode="&#xe8;" horiz-adv-x="892" 
d="M606 1016l-430 265l110 114l380 -379h-60zM812 366q-10 -85 -92 -235.5t-280 -150.5q-189 0 -294.5 135t-105.5 328q0 169 102.5 332.5t307.5 163.5q119 0 233.5 -76t114.5 -291h-612q-1 -8 -1 -17.5v-18.5q0 -151 75.5 -268.5t231.5 -117.5q140 0 194 80t85 166z
M424 862q-66 0 -136 -51t-94 -174l386 10l20 20q0 84 -44.5 139.5t-131.5 55.5z" />
    <glyph glyph-name="ecircumflex" unicode="&#xea;" horiz-adv-x="892" 
d="M651 1016l-258 206h-20l-182 -206h-60l240 339h100l240 -339h-60zM812 366q-10 -85 -92 -235.5t-280 -150.5q-189 0 -294.5 135t-105.5 328q0 169 102.5 332.5t307.5 163.5q119 0 233.5 -76t114.5 -291h-612q-1 -8 -1 -17.5v-18.5q0 -151 75.5 -268.5t231.5 -117.5
q140 0 194 80t85 166zM424 862q-66 0 -136 -51t-94 -174l386 10l20 20q0 84 -44.5 139.5t-131.5 55.5z" />
    <glyph glyph-name="edieresis" unicode="&#xeb;" horiz-adv-x="892" 
d="M166 1177v178h178v-178h-178zM498 1177v178h178v-178h-178zM812 366q-10 -85 -92 -235.5t-280 -150.5q-189 0 -294.5 135t-105.5 328q0 169 102.5 332.5t307.5 163.5q119 0 233.5 -76t114.5 -291h-612q-1 -8 -1 -17.5v-18.5q0 -151 75.5 -268.5t231.5 -117.5
q140 0 194 80t85 166zM424 862q-66 0 -136 -51t-94 -174l386 10l20 20q0 84 -44.5 139.5t-131.5 55.5z" />
    <glyph glyph-name="iacute" unicode="&#xed;" horiz-adv-x="526" 
d="M82 1016h-60l380 379l110 -114zM183 80v688l-20 20l-93 -38l-27 55l295 134l20 -20v-839l20 -20h113v-60h-451v60h123z" />
    <glyph glyph-name="igrave" unicode="&#xec;" horiz-adv-x="526" 
d="M452 1016l-430 265l110 114l380 -379h-60zM183 80v688l-20 20l-93 -38l-27 55l295 134l20 -20v-839l20 -20h113v-60h-451v60h123z" />
    <glyph glyph-name="icircumflex" unicode="&#xee;" horiz-adv-x="526" 
d="M497 1016l-258 206h-20l-182 -206h-60l240 339h100l240 -339h-60zM183 80v688l-20 20l-93 -38l-27 55l295 134l20 -20v-839l20 -20h113v-60h-451v60h123z" />
    <glyph glyph-name="idieresis" unicode="&#xef;" horiz-adv-x="526" 
d="M12 1177v178h178v-178h-178zM344 1177v178h178v-178h-178zM183 80v688l-20 20l-93 -38l-27 55l295 134l20 -20v-839l20 -20h113v-60h-451v60h123z" />
    <glyph glyph-name="ntilde" unicode="&#xf1;" horiz-adv-x="1052" 
d="M835 1355q-7 -67 -51 -142.5t-148 -75.5q-90 0 -141 50t-118 50q-52 0 -76.5 -36.5t-24.5 -73.5h-59q7 67 51.5 142.5t148.5 75.5q90 0 140.5 -49.5t117.5 -49.5q52 0 76.5 36t24.5 73h59zM183 80v688l-20 20l-93 -38l-27 55l298 134l20 -20l-13 -139h20q39 52 105 105.5
t178 53.5q93 0 165.5 -63t72.5 -194v-602l20 -20h113v-60h-442v60h113l20 20v571q0 72 -35 122.5t-114 50.5t-134.5 -52.5t-71.5 -79.5v-612l20 -20h113v-60h-451v60h123z" />
    <glyph glyph-name="oacute" unicode="&#xf3;" horiz-adv-x="996" 
d="M308 1016h-60l380 379l110 -114zM50 461q0 204 122 341t321 137t321 -133.5t122 -344.5q0 -201 -122 -341t-321 -140t-321 136t-122 345zM251 514q0 -196 65 -330t197 -134q118 0 170 106.5t52 252.5q0 183 -62.5 321.5t-200.5 138.5q-108 0 -164.5 -99t-56.5 -256z" />
    <glyph glyph-name="ograve" unicode="&#xf2;" horiz-adv-x="996" 
d="M678 1016l-430 265l110 114l380 -379h-60zM50 461q0 204 122 341t321 137t321 -133.5t122 -344.5q0 -201 -122 -341t-321 -140t-321 136t-122 345zM251 514q0 -196 65 -330t197 -134q118 0 170 106.5t52 252.5q0 183 -62.5 321.5t-200.5 138.5q-108 0 -164.5 -99
t-56.5 -256z" />
    <glyph glyph-name="ocircumflex" unicode="&#xf4;" horiz-adv-x="996" 
d="M723 1016l-258 206h-20l-182 -206h-60l240 339h100l240 -339h-60zM50 461q0 204 122 341t321 137t321 -133.5t122 -344.5q0 -201 -122 -341t-321 -140t-321 136t-122 345zM251 514q0 -196 65 -330t197 -134q118 0 170 106.5t52 252.5q0 183 -62.5 321.5t-200.5 138.5
q-108 0 -164.5 -99t-56.5 -256z" />
    <glyph glyph-name="odieresis" unicode="&#xf6;" horiz-adv-x="996" 
d="M238 1177v178h178v-178h-178zM570 1177v178h178v-178h-178zM50 461q0 204 122 341t321 137t321 -133.5t122 -344.5q0 -201 -122 -341t-321 -140t-321 136t-122 345zM251 514q0 -196 65 -330t197 -134q118 0 170 106.5t52 252.5q0 183 -62.5 321.5t-200.5 138.5
q-108 0 -164.5 -99t-56.5 -256z" />
    <glyph glyph-name="otilde" unicode="&#xf5;" horiz-adv-x="996" 
d="M802 1355q-7 -67 -51 -142.5t-148 -75.5q-90 0 -141 50t-118 50q-52 0 -76.5 -36.5t-24.5 -73.5h-59q7 67 51.5 142.5t148.5 75.5q90 0 140.5 -49.5t117.5 -49.5q52 0 76.5 36t24.5 73h59zM50 461q0 204 122 341t321 137t321 -133.5t122 -344.5q0 -201 -122 -341
t-321 -140t-321 136t-122 345zM251 514q0 -196 65 -330t197 -134q118 0 170 106.5t52 252.5q0 183 -62.5 321.5t-200.5 138.5q-108 0 -164.5 -99t-56.5 -256z" />
    <glyph glyph-name="uacute" unicode="&#xfa;" horiz-adv-x="1027" 
d="M320 1016h-60l380 379l110 -114zM466 96q73 0 129.5 46.5t78.5 86.5v610l-20 20h-108v60h303v-767l20 -20l98 35l20 -53l-296 -134l-20 20l13 139h-20q-46 -66 -112.5 -112.5t-162.5 -46.5q-87 0 -164 59.5t-77 189.5v610l-20 20h-108v60h303v-657q0 -72 35.5 -119
t107.5 -47z" />
    <glyph glyph-name="ugrave" unicode="&#xf9;" horiz-adv-x="1027" 
d="M690 1016l-430 265l110 114l380 -379h-60zM466 96q73 0 129.5 46.5t78.5 86.5v610l-20 20h-108v60h303v-767l20 -20l98 35l20 -53l-296 -134l-20 20l13 139h-20q-46 -66 -112.5 -112.5t-162.5 -46.5q-87 0 -164 59.5t-77 189.5v610l-20 20h-108v60h303v-657
q0 -72 35.5 -119t107.5 -47z" />
    <glyph glyph-name="ucircumflex" unicode="&#xfb;" horiz-adv-x="1027" 
d="M735 1016l-258 206h-20l-182 -206h-60l240 339h100l240 -339h-60zM466 96q73 0 129.5 46.5t78.5 86.5v610l-20 20h-108v60h303v-767l20 -20l98 35l20 -53l-296 -134l-20 20l13 139h-20q-46 -66 -112.5 -112.5t-162.5 -46.5q-87 0 -164 59.5t-77 189.5v610l-20 20h-108v60
h303v-657q0 -72 35.5 -119t107.5 -47z" />
    <glyph glyph-name="udieresis" unicode="&#xfc;" horiz-adv-x="1027" 
d="M250 1177v178h178v-178h-178zM582 1177v178h178v-178h-178zM466 96q73 0 129.5 46.5t78.5 86.5v610l-20 20h-108v60h303v-767l20 -20l98 35l20 -53l-296 -134l-20 20l13 139h-20q-46 -66 -112.5 -112.5t-162.5 -46.5q-87 0 -164 59.5t-77 189.5v610l-20 20h-108v60h303
v-657q0 -72 35.5 -119t107.5 -47z" />
    <glyph glyph-name="dagger" unicode="&#x2020;" horiz-adv-x="1040" 
d="M980 931v-70h-405l-20 -20l30 -841h-130l30 841l-20 20h-405v70h405l20 20l-30 404h130l-30 -404l20 -20h405z" />
    <glyph glyph-name="degree" unicode="&#xb0;" horiz-adv-x="575" 
d="M288 1375q108 0 177.5 -72t69.5 -172q0 -99 -69.5 -171t-177.5 -72q-112 0 -180 72t-68 171q0 100 68 172t180 72zM450 1131q0 78 -45.5 127.5t-116.5 49.5q-72 0 -117.5 -49.5t-45.5 -127.5q0 -77 45.5 -127.5t117.5 -50.5q71 0 116.5 50.5t45.5 127.5z" />
    <glyph glyph-name="cent" unicode="&#xa2;" horiz-adv-x="887" 
d="M197 0l67 244q-103 54 -158.5 166.5t-55.5 251.5q0 173 106 334.5t331 161.5h15t15 -1l60 218h75l-62 -229q96 -25 147.5 -87t67.5 -126l-12 -26l-176 -20l-50 124h-14l-172 -618q27 -12 56.5 -18t62.5 -6q149 0 201.5 87t79.5 159l41 -30q-10 -85 -92 -235.5
t-280 -150.5q-31 0 -61 4.5t-57 12.5l-60 -216h-75zM195 747q0 -99 31 -180t88 -130l-12 17h20l175 633q-8 2 -17 3t-19 1q-108 0 -187 -95t-79 -249z" />
    <glyph glyph-name="sterling" unicode="&#xa3;" horiz-adv-x="999" 
d="M686 644h-230q3 -24 4.5 -51t1.5 -56q0 -176 -73 -270t-109 -131v-20h439q104 0 142 53.5t38 172.5v63h70v-405h-939v116h67q57 0 119 47t62 157q0 78 -18 156t-35 168h-195v70h182q-7 45 -11.5 95t-4.5 105q0 179 90 320t308 141q138 0 208 -46.5t77 -53.5h20v80h70
v-476h-70v60q0 146 -79.5 250.5t-213.5 104.5t-172 -84t-38 -182q0 -90 18 -160.5t33 -153.5h239v-70z" />
    <glyph glyph-name="section" unicode="&#xa7;" horiz-adv-x="800" 
d="M55 696q0 106 60.5 156t123.5 72v20q-40 33 -87 87.5t-47 141.5q-1 87 61 144.5t169 57.5q75 0 116.5 -25t58.5 -37h20v40h65v-334h-65v39q0 95 -52 171t-160 76q-55 0 -81 -27t-26 -76q0 -43 25.5 -76.5t75.5 -72.5l232 -180q52 -40 84 -95t32 -121q0 -106 -60.5 -156
t-123.5 -72v-20q40 -33 87 -87.5t47 -143.5q1 -89 -61 -143.5t-169 -54.5q-75 0 -116.5 24t-58.5 36h-20v-40h-65v334h65v-39q0 -95 51 -170t154 -75q56 0 85 25t29 65q0 51 -25.5 86t-75.5 74l-232 180q-52 40 -84 95t-32 121zM226 614l108 -89q28 -22 53 -33t62 -11
q45 0 82 29.5t37 86.5q0 51 -22 82t-57 60l-108 89q-28 22 -53 33t-62 11q-45 0 -82 -29.5t-37 -86.5q0 -51 22 -82t57 -60z" />
    <glyph glyph-name="bullet" unicode="&#x2022;" horiz-adv-x="590" 
d="M296 235q-97 0 -166.5 69.5t-69.5 166.5q0 96 69.5 165t166.5 69q96 0 165 -69t69 -165q0 -97 -69 -166.5t-165 -69.5z" />
    <glyph glyph-name="paragraph" unicode="&#xb6;" horiz-adv-x="1007" 
d="M414 70l20 20v497q-195 0 -304.5 109.5t-109.5 274.5t109.5 274.5t304.5 109.5h493v-70h-155l-20 -20v-1175l20 -20h155v-70h-668v70h155zM544 70h98l20 20v1175l-20 20h-98l-20 -20v-1175z" />
    <glyph glyph-name="germandbls" unicode="&#xdf;" horiz-adv-x="1020" 
d="M990 225q0 -108 -74 -176.5t-181 -68.5q-86 0 -126.5 28t-53.5 42h-20v-50h-65v314h65v-39q0 -95 47 -160t128 -65q52 0 81 32.5t29 92.5q0 78 -48.5 125.5t-114.5 93.5q-97 67 -139.5 127.5t-42.5 138.5q0 153 103 206t194 53v119q0 96 -46.5 181.5t-158.5 85.5
t-157 -85.5t-45 -180.5v-1039h-318v60h123l20 20v764h-158v75h158q57 191 128.5 323.5t246.5 132.5q149 0 210.5 -90.5t61.5 -244.5v-166q-95 0 -156 -36t-61 -103q0 -49 25.5 -86.5t88.5 -83.5q119 -87 187.5 -154t68.5 -186z" />
    <glyph glyph-name="registered" unicode="&#xae;" 
d="M60 678q0 301 197.5 499t500.5 198q301 0 499.5 -198t198.5 -499q0 -304 -198.5 -501t-499.5 -197q-303 0 -500.5 197t-197.5 501zM140 678q0 -272 172.5 -450t445.5 -178q272 0 445 178t173 450q0 273 -176.5 450t-441.5 177q-273 0 -445.5 -177t-172.5 -450zM633 1027
v-314h102q81 0 131.5 33.5t50.5 123.5t-50.5 123.5t-131.5 33.5h-102zM976 267l-331 386h-12v-331l12 -12h100v-43h-349v43h100l13 12v711l-13 12h-100v43h358q135 0 220.5 -54t85.5 -164q0 -108 -80 -154t-199 -46h-6v-12l324 -348h76v-43h-199z" />
    <glyph glyph-name="copyright" unicode="&#xa9;" 
d="M60 678q0 301 197.5 499t500.5 198q301 0 499.5 -198t198.5 -499q0 -304 -198.5 -501t-499.5 -197q-303 0 -500.5 197t-197.5 501zM140 678q0 -272 172.5 -450t445.5 -178q272 0 445 178t173 450q0 273 -176.5 450t-441.5 177q-273 0 -445.5 -177t-172.5 -450zM1072 796
h-43v36q0 87 -63 151t-171 64q-141 0 -216.5 -108.5t-75.5 -254.5q0 -144 73.5 -258t232.5 -114q137 0 195 60.5t77 94.5l28 -32q-24 -35 -98 -109.5t-239 -74.5q-172 0 -292 120t-120 307q0 185 124 301.5t300 116.5q111 0 169 -28.5t64 -32.5h12v49h43v-288z" />
    <glyph glyph-name="trademark" unicode="&#x2122;" horiz-adv-x="1478" 
d="M369 725l11 -11h79v-36h-285v36h79l11 11v590h-82q-73 0 -99.5 -16t-26.5 -81v-57h-36v214h763l238 -541h11q68 175 104.5 263.5t117.5 277.5h204v-36h-79l-10 -10v-604l10 -11h79v-36h-295v36h90l10 11v528h-10q-57 -141 -95 -231t-152 -354h-21l-253 561h-8
q3 -172 2 -262t-5 -242l11 -11h89v-36h-243v36h79l10 11q-2 143 -2.5 225.5t0.5 212.5v55q0 65 -26 81t-99 16h-171v-590z" />
    <glyph glyph-name="acute" unicode="&#xb4;" horiz-adv-x="570" 
d="M100 1016h-60l380 379l110 -114z" />
    <glyph glyph-name="dieresis" unicode="&#xa8;" horiz-adv-x="590" 
d="M40 1177v178h178v-178h-178zM372 1177v178h178v-178h-178z" />
    <glyph glyph-name="AE" unicode="&#xc6;" horiz-adv-x="1828" 
d="M150 90q189 398 274 573t303 603l-19 19h-155v70h1125v-385h-70v90q0 127 -51 153t-194 26h-295v-479h315l20 20v130h70v-400h-70v130l-20 20h-315v-544h390q104 0 152 37.5t48 156.5v95h70v-405h-1040v70h155l20 20v420h-391q-46 -93 -97.5 -194t-116.5 -226l20 -20h155
v-70h-413v70h110zM531 610h332v675h-20q-103 -219 -176 -372t-136 -283v-20z" />
    <glyph glyph-name="Oslash" unicode="&#xd8;" horiz-adv-x="1450" 
d="M186 -120l136 222q-122 90 -192 235t-70 318q0 317 193 518.5t492 201.5q87 0 166.5 -19t147.5 -55l107 174h84l-130 -211q125 -87 197.5 -234.5t72.5 -334.5q0 -299 -193 -507t-492 -208q-90 0 -172 21.5t-151 61.5l-112 -183h-84zM295 725q0 -131 32.5 -251.5
t92.5 -212.5l554 902q-57 61 -131 96.5t-163 35.5q-201 0 -293 -165.5t-92 -404.5zM770 60q194 0 289.5 155.5t95.5 409.5q0 135 -34.5 260t-98.5 218l-555 -903q57 -65 134 -102.5t169 -37.5z" />
    <glyph glyph-name="plusminus" unicode="&#xb1;" horiz-adv-x="1041" 
d="M980 713v-70h-405l-20 -20v-405h-70v405l-20 20h-405v70h405l20 20v404h70v-404l20 -20h405zM981 70v-70h-921v70h921z" />
    <glyph glyph-name="yen" unicode="&#xa5;" horiz-adv-x="1425" 
d="M818 90l20 -20h155v-70h-555v70h155l20 20v418h-308v70h308v36l-112 164h-196v70h135v20l-271 397l-20 20h-130v70h566v-70h-150l-20 -20l354 -537h19q137 221 194 314.5t148 222.5l-20 20h-160v70h448v-70h-140l-20 -20l-256 -397v0v-20h144v-70h-202l-106 -164v-36h308
v-70h-308v-418z" />
    <glyph glyph-name="ordfeminine" unicode="&#xaa;" horiz-adv-x="669" 
d="M274 1329q-25 0 -43.5 -9.5t-26.5 -33.5l-27 -82l-128 -16l-9 19q14 71 79 119.5t184 48.5q104 0 163.5 -39.5t54.5 -149.5l-17 -341q-1 -37 8.5 -66.5t38.5 -29.5q20 0 41.5 21t40.5 43l16 -31q-24 -23 -68.5 -63.5t-87.5 -40.5q-38 0 -59 28t-21 71v32h-14
q-16 -33 -64 -82t-129 -49q-75 0 -120 42t-45 107q0 119 116.5 178t255.5 116v80q0 67 -35 97.5t-104 30.5zM413 1053l-14 14q-74 -32 -154.5 -75t-80.5 -123q0 -49 23.5 -74t74.5 -25q69 0 110 52t41 56v175z" />
    <glyph glyph-name="ordmasculine" unicode="&#xba;" horiz-adv-x="703" 
d="M30 1029q0 146 88.5 246t234.5 100q143 0 231.5 -97t88.5 -249q0 -147 -88.5 -249t-231.5 -102q-146 0 -234.5 99.5t-88.5 251.5zM147 1065q0 -141 58 -238.5t161 -97.5q93 0 142.5 77.5t49.5 184.5q0 131 -57 232t-164 101q-86 0 -138 -72.5t-52 -186.5z" />
    <glyph glyph-name="ae" unicode="&#xe6;" horiz-adv-x="1398" 
d="M455 939q81 0 143.5 -29t100.5 -83h20q46 47 110 79.5t147 32.5q119 0 223.5 -76t104.5 -291h-572q-1 -8 -1 -17.5v-18.5q0 -151 65.5 -268.5t221.5 -117.5q140 0 184 80t75 166l41 -30q-10 -85 -82 -235.5t-270 -150.5q-122 0 -206 61t-128 157h-20q-24 -49 -99 -133.5
t-217 -84.5q-103 0 -164 57.5t-61 147.5q0 164 160.5 245.5t350.5 159.5v110q0 82 -46.5 128t-121.5 46q-42 0 -69 -13t-39 -54l-35 -119l-176 -20l-12 26q18 107 114 176t258 69zM950 862q-66 0 -128.5 -51t-82.5 -173l347 9l20 20q0 84 -34.5 139.5t-121.5 55.5zM253 245
q0 -57 31 -84t91 -27q93 0 157 61t74 79q-10 39 -17 82t-7 87v52l-20 20q-101 -45 -205 -103.5t-104 -166.5z" />
    <glyph glyph-name="oslash" unicode="&#xf8;" horiz-adv-x="996" 
d="M114 -100l105 171q-80 63 -124.5 164.5t-44.5 225.5q0 204 122 341t321 137q63 0 119 -14t104 -41l82 135h80l-106 -173q78 -63 121 -162t43 -223q0 -201 -122 -341t-321 -140q-61 0 -116 14t-102 39l-81 -133h-80zM251 514q0 -88 13 -166t39 -138l345 563
q-31 45 -75 70.5t-101 25.5q-108 0 -164.5 -99t-56.5 -256zM735 409q0 82 -12.5 158.5t-37.5 136.5l-343 -562q31 -43 74 -67.5t97 -24.5q118 0 170 106.5t52 252.5z" />
    <glyph glyph-name="questiondown" unicode="&#xbf;" horiz-adv-x="865" 
d="M327 1134h208v-208h-208v208zM476 -264q-231 0 -342 122.5t-126 256.5l12 26l176 -20l46 -191q17 -72 59.5 -100t114.5 -28q101 0 174.5 87.5t73.5 220.5q0 178 -94.5 276.5t-167.5 138.5l-12 24v210h76v-191q105 -54 251.5 -162t146.5 -312q0 -181 -114.5 -269.5
t-273.5 -88.5z" />
    <glyph glyph-name="exclamdown" unicode="&#xa1;" horiz-adv-x="408" 
d="M100 919h208v-208h-208v208zM242 544q0 -239 32.5 -457t32.5 -543h-205q0 325 32.5 543t32.5 457h75z" />
    <glyph glyph-name="guillemotleft" unicode="&#xab;" horiz-adv-x="1103" 
d="M533 0l-513 449v20l513 450h70l-375 -450v-20l375 -449h-70zM983 0l-513 449v20l513 450h70l-375 -450v-20l375 -449h-70z" />
    <glyph glyph-name="guillemotright" unicode="&#xbb;" horiz-adv-x="1103" 
d="M500 0l375 449v20l-375 450h70l513 -450v-20l-513 -449h-70zM50 0l375 449v20l-375 450h70l513 -450v-20l-513 -449h-70z" />
    <glyph glyph-name="ellipsis" unicode="&#x2026;" horiz-adv-x="1308" 
d="M100 0v208h208v-208h-208zM500 0v198h208v-198h-208zM900 0v188h208v-188h-208z" />
    <glyph glyph-name="Agrave" unicode="&#xc0;" horiz-adv-x="1459" 
d="M915 1452l-430 265l110 114l380 -379h-60zM150 90q167 418 246 605.5t294 679.5h50l559 -1285l20 -20h110v-70h-525v70h155l20 20l-141 340h-537q-30 -71 -65 -154.5t-78 -185.5l20 -20h155v-70h-413v70h110zM450 530h438v19l-216 519h-20q-61 -163 -107 -280.5
t-95 -237.5v-20z" />
    <glyph glyph-name="Atilde" unicode="&#xc3;" horiz-adv-x="1459" 
d="M1039 1791q-7 -67 -51 -142.5t-148 -75.5q-90 0 -141 50t-118 50q-52 0 -76.5 -36.5t-24.5 -73.5h-59q7 67 51.5 142.5t148.5 75.5q90 0 140.5 -49.5t117.5 -49.5q52 0 76.5 36t24.5 73h59zM150 90q167 418 246 605.5t294 679.5h50l559 -1285l20 -20h110v-70h-525v70h155
l20 20l-141 340h-537q-30 -71 -65 -154.5t-78 -185.5l20 -20h155v-70h-413v70h110zM450 530h438v19l-216 519h-20q-61 -163 -107 -280.5t-95 -237.5v-20z" />
    <glyph glyph-name="Otilde" unicode="&#xd5;" horiz-adv-x="1450" 
d="M1034 1791q-7 -67 -51 -142.5t-148 -75.5q-90 0 -141 50t-118 50q-52 0 -76.5 -36.5t-24.5 -73.5h-59q7 67 51.5 142.5t148.5 75.5q90 0 140.5 -49.5t117.5 -49.5q52 0 76.5 36t24.5 73h59zM705 -20q-284 0 -464.5 195.5t-180.5 479.5q0 317 193 518.5t492 201.5
q284 0 464.5 -189t180.5 -491q0 -299 -193 -507t-492 -208zM770 60q194 0 289.5 155.5t95.5 409.5q0 261 -125.5 465.5t-349.5 204.5q-201 0 -293 -165.5t-92 -404.5q0 -261 125.5 -463t349.5 -202z" />
    <glyph glyph-name="OE" unicode="&#x152;" horiz-adv-x="1800" 
d="M835 1265l-20 20h-105q-224 0 -319.5 -160.5t-95.5 -399.5q0 -261 125.5 -458t349.5 -197h45l20 20v1175zM1040 660v-544h390q104 0 152 37.5t48 156.5v95h70v-405h-995q-284 0 -464.5 185.5t-180.5 469.5q0 317 192 508.5t483 191.5h915v-385h-70v90q0 127 -51 153
t-194 26h-295v-479h315l20 20v130h70v-400h-70v130l-20 20h-315z" />
    <glyph glyph-name="oe" unicode="&#x153;" horiz-adv-x="1522" 
d="M1442 366q-10 -85 -82 -235.5t-270 -150.5q-110 0 -185 46t-120 118h-20q-51 -75 -131 -119.5t-181 -44.5q-184 0 -293.5 136t-109.5 345q0 201 109 339.5t293 138.5q106 0 189 -45t135 -129h20q46 73 119 123.5t185 50.5q119 0 223.5 -76t104.5 -291h-572
q-1 -8 -1 -17.5v-18.5q0 -151 65.5 -268.5t221.5 -117.5q140 0 184 80t75 166zM251 514q0 -196 52.5 -330t169.5 -134q103 0 142.5 106.5t39.5 252.5q0 183 -50 321.5t-173 138.5q-93 0 -137 -99t-44 -256zM1074 862q-66 0 -128.5 -51t-82.5 -173l347 9l20 20
q0 84 -34.5 139.5t-121.5 55.5z" />
    <glyph glyph-name="endash" unicode="&#x2013;" horiz-adv-x="1031" 
d="M80 424v70h871v-70h-871z" />
    <glyph glyph-name="emdash" unicode="&#x2014;" horiz-adv-x="1561" 
d="M80 424v70h1401v-70h-1401z" />
    <glyph glyph-name="quotedblleft" unicode="&#x201c;" horiz-adv-x="878" 
d="M560 1012q0 102 52 189t145 154l31 -52q-72 -58 -103 -114.5t-31 -119.5l15 -20h109v-208h-218v171zM190 1012q0 102 52 189t145 154l31 -52q-72 -58 -103 -114.5t-31 -119.5l15 -20h109v-208h-218v171z" />
    <glyph glyph-name="quotedblright" unicode="&#x201d;" horiz-adv-x="878" 
d="M318 1184q0 -102 -52 -189t-145 -154l-31 52q72 58 103 114.5t31 119.5l-15 20h-109v208h218v-171zM688 1184q0 -102 -52 -189t-145 -154l-31 52q72 58 103 114.5t31 119.5l-15 20h-109v208h218v-171z" />
    <glyph glyph-name="quoteleft" unicode="&#x2018;" horiz-adv-x="508" 
d="M190 1032q0 102 52 189t145 154l31 -52q-72 -58 -103 -114.5t-31 -119.5l15 -20h109v-208h-218v171z" />
    <glyph glyph-name="quoteright" unicode="&#x2019;" horiz-adv-x="508" 
d="M318 1184q0 -102 -52 -189t-145 -154l-31 52q72 58 103 114.5t31 119.5l-15 20h-109v208h218v-171z" />
    <glyph glyph-name="divide" unicode="&#xf7;" horiz-adv-x="1041" 
d="M423 909v198h198v-198h-198zM981 713v-70h-921v70h921zM423 228v198h198v-198h-198z" />
    <glyph glyph-name="ydieresis" unicode="&#xff;" horiz-adv-x="1037" 
d="M276 1177v178h178v-178h-178zM608 1177v178h178v-178h-178zM495 -92q-93 -227 -164 -285.5t-202 -61.5l-44 -1l-20 20l30 141h81q119 0 158.5 37.5t98.5 171.5l36 82l-321 827l-20 20h-98v60h451v-60h-117l-20 -20l199 -594h20l222 594l-21 20h-119v60h392v-60h-121
l-20 -20q-55 -125 -139 -310t-124 -284z" />
    <glyph glyph-name="Ydieresis" unicode="&#x178;" horiz-adv-x="1425" 
d="M458 1613v178h178v-178h-178zM790 1613v178h178v-178h-178zM818 90l20 -20h155v-70h-555v70h155l20 20v524l-444 651l-20 20h-130v70h566v-70h-150l-20 -20l354 -537h19q137 221 194 314.5t148 222.5l-20 20h-160v70h448v-70h-140l-20 -20l-420 -651v-524z" />
    <glyph glyph-name="guilsinglleft" unicode="&#x2039;" horiz-adv-x="653" 
d="M533 0l-513 449v20l513 450h70l-375 -450v-20l375 -449h-70z" />
    <glyph glyph-name="guilsinglright" unicode="&#x203a;" horiz-adv-x="653" 
d="M50 0l375 449v20l-375 450h70l513 -450v-20l-513 -449h-70z" />
    <glyph glyph-name="periodcentered" unicode="&#xb7;" horiz-adv-x="508" 
d="M100 355v208h208v-208h-208z" />
    <glyph glyph-name="quotesinglbase" unicode="&#x201a;" horiz-adv-x="508" 
d="M318 37q0 -102 -52 -189t-145 -154l-31 52q72 58 103 114.5t31 119.5l-15 20h-109v208h218v-171z" />
    <glyph glyph-name="quotedblbase" unicode="&#x201e;" horiz-adv-x="878" 
d="M318 37q0 -102 -52 -189t-145 -154l-31 52q72 58 103 114.5t31 119.5l-15 20h-109v208h218v-171zM688 37q0 -102 -52 -189t-145 -154l-31 52q72 58 103 114.5t31 119.5l-15 20h-109v208h218v-171z" />
    <glyph glyph-name="Acircumflex" unicode="&#xc2;" horiz-adv-x="1459" 
d="M960 1452l-258 206h-20l-182 -206h-60l240 339h100l240 -339h-60zM150 90q167 418 246 605.5t294 679.5h50l559 -1285l20 -20h110v-70h-525v70h155l20 20l-141 340h-537q-30 -71 -65 -154.5t-78 -185.5l20 -20h155v-70h-413v70h110zM450 530h438v19l-216 519h-20
q-61 -163 -107 -280.5t-95 -237.5v-20z" />
    <glyph glyph-name="Ecircumflex" unicode="&#xca;" horiz-adv-x="1310" 
d="M900 1452l-258 206h-20l-182 -206h-60l240 339h100l240 -339h-60zM470 660v-544h470q104 0 152 37.5t48 156.5v95h70v-405h-1120v70h155l20 20v1175l-20 20h-155v70h1070v-385h-70v90q0 127 -51 153t-194 26h-375v-479h395l20 20v130h70v-400h-70v130l-20 20h-395z" />
    <glyph glyph-name="Aacute" unicode="&#xc1;" horiz-adv-x="1459" 
d="M545 1452h-60l380 379l110 -114zM150 90q167 418 246 605.5t294 679.5h50l559 -1285l20 -20h110v-70h-525v70h155l20 20l-141 340h-537q-30 -71 -65 -154.5t-78 -185.5l20 -20h155v-70h-413v70h110zM450 530h438v19l-216 519h-20q-61 -163 -107 -280.5t-95 -237.5v-20z
" />
    <glyph glyph-name="Edieresis" unicode="&#xcb;" horiz-adv-x="1310" 
d="M415 1613v178h178v-178h-178zM747 1613v178h178v-178h-178zM470 660v-544h470q104 0 152 37.5t48 156.5v95h70v-405h-1120v70h155l20 20v1175l-20 20h-155v70h1070v-385h-70v90q0 127 -51 153t-194 26h-375v-479h395l20 20v130h70v-400h-70v130l-20 20h-395z" />
    <glyph glyph-name="Egrave" unicode="&#xc8;" horiz-adv-x="1310" 
d="M855 1452l-430 265l110 114l380 -379h-60zM470 660v-544h470q104 0 152 37.5t48 156.5v95h70v-405h-1120v70h155l20 20v1175l-20 20h-155v70h1070v-385h-70v90q0 127 -51 153t-194 26h-375v-479h395l20 20v130h70v-400h-70v130l-20 20h-395z" />
    <glyph glyph-name="Iacute" unicode="&#xcd;" horiz-adv-x="735" 
d="M183 1452h-60l380 379l110 -114zM470 90l20 -20h155v-70h-555v70h155l20 20v1175l-20 20h-155v70h555v-70h-155l-20 -20v-1175z" />
    <glyph glyph-name="Icircumflex" unicode="&#xce;" horiz-adv-x="735" 
d="M598 1452l-258 206h-20l-182 -206h-60l240 339h100l240 -339h-60zM470 90l20 -20h155v-70h-555v70h155l20 20v1175l-20 20h-155v70h555v-70h-155l-20 -20v-1175z" />
    <glyph glyph-name="Idieresis" unicode="&#xcf;" horiz-adv-x="735" 
d="M113 1613v178h178v-178h-178zM445 1613v178h178v-178h-178zM470 90l20 -20h155v-70h-555v70h155l20 20v1175l-20 20h-155v70h555v-70h-155l-20 -20v-1175z" />
    <glyph glyph-name="Igrave" unicode="&#xcc;" horiz-adv-x="735" 
d="M553 1452l-430 265l110 114l380 -379h-60zM470 90l20 -20h155v-70h-555v70h155l20 20v1175l-20 20h-155v70h555v-70h-155l-20 -20v-1175z" />
    <glyph glyph-name="Oacute" unicode="&#xd3;" horiz-adv-x="1450" 
d="M540 1452h-60l380 379l110 -114zM705 -20q-284 0 -464.5 195.5t-180.5 479.5q0 317 193 518.5t492 201.5q284 0 464.5 -189t180.5 -491q0 -299 -193 -507t-492 -208zM770 60q194 0 289.5 155.5t95.5 409.5q0 261 -125.5 465.5t-349.5 204.5q-201 0 -293 -165.5
t-92 -404.5q0 -261 125.5 -463t349.5 -202z" />
    <glyph glyph-name="Ocircumflex" unicode="&#xd4;" horiz-adv-x="1450" 
d="M955 1452l-258 206h-20l-182 -206h-60l240 339h100l240 -339h-60zM705 -20q-284 0 -464.5 195.5t-180.5 479.5q0 317 193 518.5t492 201.5q284 0 464.5 -189t180.5 -491q0 -299 -193 -507t-492 -208zM770 60q194 0 289.5 155.5t95.5 409.5q0 261 -125.5 465.5
t-349.5 204.5q-201 0 -293 -165.5t-92 -404.5q0 -261 125.5 -463t349.5 -202z" />
    <glyph glyph-name="Ograve" unicode="&#xd2;" horiz-adv-x="1450" 
d="M910 1452l-430 265l110 114l380 -379h-60zM705 -20q-284 0 -464.5 195.5t-180.5 479.5q0 317 193 518.5t492 201.5q284 0 464.5 -189t180.5 -491q0 -299 -193 -507t-492 -208zM770 60q194 0 289.5 155.5t95.5 409.5q0 261 -125.5 465.5t-349.5 204.5q-201 0 -293 -165.5
t-92 -404.5q0 -261 125.5 -463t349.5 -202z" />
    <glyph glyph-name="Uacute" unicode="&#xda;" horiz-adv-x="1455" 
d="M543 1452h-60l380 379l110 -114zM741 -20q-226 0 -376 111.5t-150 418.5v755l-20 20h-155v70h555v-70h-155l-20 -20v-772q0 -234 102.5 -318.5t263.5 -84.5q160 0 262.5 95t101.5 335q-1 351 -1 468t1 277l-20 20h-150v70h435v-70h-135l-20 -20q1 -192 1 -339.5
t-1 -375.5q-2 -291 -135.5 -430.5t-383.5 -139.5z" />
    <glyph glyph-name="Ucircumflex" unicode="&#xdb;" horiz-adv-x="1455" 
d="M958 1452l-258 206h-20l-182 -206h-60l240 339h100l240 -339h-60zM741 -20q-226 0 -376 111.5t-150 418.5v755l-20 20h-155v70h555v-70h-155l-20 -20v-772q0 -234 102.5 -318.5t263.5 -84.5q160 0 262.5 95t101.5 335q-1 351 -1 468t1 277l-20 20h-150v70h435v-70h-135
l-20 -20q1 -192 1 -339.5t-1 -375.5q-2 -291 -135.5 -430.5t-383.5 -139.5z" />
    <glyph glyph-name="Ugrave" unicode="&#xd9;" horiz-adv-x="1455" 
d="M913 1452l-430 265l110 114l380 -379h-60zM741 -20q-226 0 -376 111.5t-150 418.5v755l-20 20h-155v70h555v-70h-155l-20 -20v-772q0 -234 102.5 -318.5t263.5 -84.5q160 0 262.5 95t101.5 335q-1 351 -1 468t1 277l-20 20h-150v70h435v-70h-135l-20 -20q1 -192 1 -339.5
t-1 -375.5q-2 -291 -135.5 -430.5t-383.5 -139.5z" />
    <glyph glyph-name="dotlessi" unicode="&#x131;" horiz-adv-x="526" 
d="M183 80v688l-20 20l-93 -38l-27 55l295 134l20 -20v-839l20 -20h113v-60h-451v60h123z" />
    <glyph glyph-name="circumflex" unicode="&#x2c6;" horiz-adv-x="660" 
d="M560 1016l-258 206h-20l-182 -206h-60l240 339h100l240 -339h-60z" />
    <glyph glyph-name="tilde" unicode="&#x2dc;" horiz-adv-x="698" 
d="M658 1355q-7 -67 -51 -142.5t-148 -75.5q-90 0 -141 50t-118 50q-52 0 -76.5 -36.5t-24.5 -73.5h-59q7 67 51.5 142.5t148.5 75.5q90 0 140.5 -49.5t117.5 -49.5q52 0 76.5 36t24.5 73h59z" />
    <glyph glyph-name="ring" unicode="&#x2da;" horiz-adv-x="491" 
d="M245 1428q85 0 145.5 -60.5t60.5 -144.5t-60.5 -144.5t-145.5 -60.5q-88 0 -146.5 60.5t-58.5 144.5t58.5 144.5t146.5 60.5zM368 1223q0 52 -34.5 87.5t-88.5 35.5t-89.5 -35.5t-35.5 -87.5t35.5 -88.5t89.5 -36.5t88.5 36.5t34.5 88.5z" />
    <glyph glyph-name="cedilla" unicode="&#xb8;" horiz-adv-x="500" 
d="M278 -16l-35 -92l20 -20q7 1 14.5 1.5t14.5 0.5q76 0 122 -39.5t46 -100.5q0 -75 -64 -124.5t-183 -49.5q-51 0 -94 11.5t-79 31.5l24 55q34 -16 65 -23t59 -7q60 0 90.5 24.5t30.5 67.5q0 39 -25 57.5t-64 18.5q-29 0 -43.5 -4t-24.5 -8l-20 20l76 180h70z" />
    <glyph glyph-name=".null" horiz-adv-x="500" 
 />
    <glyph glyph-name="thinspace" unicode="&#x2009;" horiz-adv-x="200" 
 />
    <glyph glyph-name="hyphen.cap" horiz-adv-x="620" 
d="M80 628v100h460v-100h-460z" />
    <glyph glyph-name="exclamdown.cap" horiz-adv-x="408" 
d="M100 1355h208v-208h-208v208zM242 980q0 -239 32.5 -457t32.5 -543h-205q0 325 32.5 543t32.5 457h75z" />
    <glyph glyph-name="questiondown.cap" horiz-adv-x="865" 
d="M327 1353h208v-208h-208v208zM476 -45q-231 0 -342 122.5t-126 256.5l12 26l176 -20l46 -191q17 -72 59.5 -100t114.5 -28q101 0 174.5 87.5t73.5 220.5q0 178 -94.5 276.5t-167.5 138.5l-12 24v210h76v-191q105 -54 251.5 -162t146.5 -312q0 -181 -114.5 -269.5
t-273.5 -88.5z" />
    <glyph glyph-name="guilsinglleft.cap" horiz-adv-x="653" 
d="M533 219l-513 449v20l513 450h70l-375 -450v-20l375 -449h-70z" />
    <glyph glyph-name="guilsinglright.cap" horiz-adv-x="653" 
d="M50 219l375 449v20l-375 450h70l513 -450v-20l-513 -449h-70z" />
    <glyph glyph-name="guillemotleft.cap" horiz-adv-x="1103" 
d="M533 219l-513 449v20l513 450h70l-375 -450v-20l375 -449h-70zM983 219l-513 449v20l513 450h70l-375 -450v-20l375 -449h-70z" />
    <glyph glyph-name="guillemotright.cap" horiz-adv-x="1103" 
d="M500 219l375 449v20l-375 450h70l513 -450v-20l-513 -449h-70zM50 219l375 449v20l-375 450h70l513 -450v-20l-513 -449h-70z" />
    <glyph glyph-name="endash.cap" horiz-adv-x="1031" 
d="M80 643v70h871v-70h-871z" />
    <glyph glyph-name="emdash.cap" horiz-adv-x="1561" 
d="M80 643v70h1401v-70h-1401z" />
    <glyph glyph-name="periodcentered.cap" horiz-adv-x="508" 
d="M100 574v208h208v-208h-208z" />
    <glyph glyph-name="parenleft.cap" horiz-adv-x="670" 
d="M573 1481l41 -55q-122 -57 -248 -242t-126 -506t126 -506t248 -242l-41 -55q-147 62 -315 272t-168 531t168 531t315 272z" />
    <glyph glyph-name="parenright.cap" horiz-adv-x="670" 
d="M97 1481q147 -62 315 -272t168 -531t-168 -531t-315 -272l-41 55q122 57 248 242t126 506t-126 506t-248 242z" />
    <glyph glyph-name="bracketleft.cap" horiz-adv-x="560" 
d="M132 -218v1586h398v-70h-249l-20 -20v-1406l20 -20h249v-70h-398z" />
    <glyph glyph-name="bracketright.cap" horiz-adv-x="560" 
d="M428 1368v-1586h-398v70h249l20 20v1406l-20 20h-249v70h398z" />
    <glyph glyph-name="braceleft.cap" horiz-adv-x="681" 
d="M651 -127q-255 0 -319.5 105.5t-54.5 301.5q8 161 -36.5 254t-220.5 108v72q176 15 220.5 108t36.5 254q-10 197 54.5 302t319.5 105v-70q-165 0 -207.5 -107t-35.5 -283q7 -179 -47 -242t-221 -93v-20q167 -30 221 -93t47 -242q-7 -176 35.5 -283t207.5 -107v-70z" />
    <glyph glyph-name="braceright.cap" horiz-adv-x="681" 
d="M30 -127v70q165 0 207 107t35 283q-7 179 47.5 242t221.5 93v20q-167 30 -221.5 93t-47.5 242q7 176 -35 283t-207 107v70q255 0 319.5 -105t54.5 -302q-8 -161 36.5 -254t220.5 -108v-72q-176 -15 -220.5 -108t-36.5 -254q10 -196 -54.5 -301.5t-319.5 -105.5z" />
    <glyph glyph-name="numero" unicode="&#x2116;" horiz-adv-x="2211" 
d="M1345 386v-386h-80l-885 1103h-16q5 -354 4 -532t-8 -481l20 -20h175v-70h-475v70h155l20 20q-7 352 -7 539t7 636l-20 20h-145v70h350l780 -969h20q-7 322 -7 448.5t7 430.5l-20 20h-175v70h475v-70h-155l-20 -20q7 -312 6.5 -449.5t-6.5 -429.5zM1508 788
q0 146 88.5 246t234.5 100q143 0 231.5 -97t88.5 -249q0 -147 -88.5 -249t-231.5 -102q-146 0 -234.5 99.5t-88.5 251.5zM1625 824q0 -141 58 -238.5t161 -97.5q93 0 142.5 77.5t49.5 184.5q0 131 -57 232t-164 101q-86 0 -138 -72.5t-52 -186.5zM2151 70v-70h-643v70h643z
" />
    <glyph glyph-name="Euro" unicode="&#x20ac;" horiz-adv-x="1477" 
d="M1337 138q-83 -73 -201 -115.5t-252 -42.5q-257 0 -441 148.5t-236 379.5h-187l30 70h142v20q-1 16 -2.5 35t-1.5 44t1.5 44.5t3.5 36.5v20h-173l30 70h158q54 231 242 379t444 148q161 0 263 -41.5t171 -93.5v-110q-79 66 -181.5 110.5t-262.5 44.5q-204 0 -364.5 -115
t-216.5 -302v-20h927l-30 -70h-917q-4 -24 -5.5 -49.5t-1.5 -51.5q0 -25 1.5 -50t5.5 -49h871l-30 -70h-821v-20q54 -188 216 -303t365 -115q158 0 262.5 47.5t190.5 130.5v-110z" />
    <glyph glyph-name="circleddigitzero" 
d="M60 678q0 301 197.5 499t500.5 198q301 0 499.5 -198t198.5 -499q0 -304 -198.5 -501t-499.5 -197q-303 0 -500.5 197t-197.5 501zM140 678q0 -272 172.5 -450t445.5 -178q272 0 445 178t173 450q0 273 -176.5 450t-441.5 177q-273 0 -445.5 -177t-172.5 -450zM756 258
q-146 0 -211.5 133t-65.5 272q0 190 72.5 311t208.5 121q146 0 211.5 -129t65.5 -279q0 -179 -72.5 -304t-208.5 -125zM765 300q78 0 113.5 92t35.5 253q0 175 -36 291.5t-127 116.5q-82 0 -115.5 -98t-33.5 -250q0 -175 39 -290t124 -115z" />
    <glyph glyph-name="circleddigitone" unicode="&#x2460;" 
d="M60 678q0 301 197.5 499t500.5 198q301 0 499.5 -198t198.5 -499q0 -304 -198.5 -501t-499.5 -197q-303 0 -500.5 197t-197.5 501zM140 678q0 -272 172.5 -450t445.5 -178q272 0 445 178t173 450q0 273 -176.5 450t-441.5 177q-273 0 -445.5 -177t-172.5 -450zM713 318
v669l-12 12l-96 -47l-16 33l217 110l12 -12v-765l12 -12h98v-36h-325v36h98z" />
    <glyph glyph-name="circleddigittwo" unicode="&#x2461;" 
d="M60 678q0 301 197.5 499t500.5 198q301 0 499.5 -198t198.5 -499q0 -304 -198.5 -501t-499.5 -197q-303 0 -500.5 197t-197.5 501zM140 678q0 -272 172.5 -450t445.5 -178q272 0 445 178t173 450q0 273 -176.5 450t-441.5 177q-273 0 -445.5 -177t-172.5 -450zM518 270
v12q169 173 279 296.5t110 244.5q0 77 -42 124t-120 47q-89 0 -134 -50t-61 -98l-25 18q6 51 64 141.5t193 90.5q106 0 159 -66.5t53 -151.5q0 -137 -109 -267.5t-222 -236.5h1l12 -12h172q63 0 88.5 22.5t25.5 94.5v21h36v-230h-480z" />
    <glyph glyph-name="circleddigitthree" unicode="&#x2462;" 
d="M60 678q0 301 197.5 499t500.5 198q301 0 499.5 -198t198.5 -499q0 -304 -198.5 -501t-499.5 -197q-303 0 -500.5 197t-197.5 501zM140 678q0 -272 172.5 -450t445.5 -178q272 0 445 178t173 450q0 273 -176.5 450t-441.5 177q-273 0 -445.5 -177t-172.5 -450zM1001 526
q0 -122 -82 -195t-201 -73q-89 0 -133.5 26t-69.5 51v18l73 72l51 -49q31 -31 56 -51t65 -20q61 0 106.5 44.5t45.5 119.5q0 110 -79.5 151.5t-160.5 45.5v36q37 8 113 50t76 126q0 53 -31.5 90t-98.5 37q-73 0 -111.5 -44.5t-56.5 -90.5l-25 18q13 51 69.5 129t175.5 78
q80 0 128.5 -43.5t48.5 -119.5q0 -63 -39 -104.5t-79 -71.5v-12q37 -12 98 -57t61 -161z" />
    <glyph glyph-name="circleddigitfour" unicode="&#x2463;" 
d="M60 678q0 301 197.5 499t500.5 198q301 0 499.5 -198t198.5 -499q0 -304 -198.5 -501t-499.5 -197q-303 0 -500.5 197t-197.5 501zM140 678q0 -272 172.5 -450t445.5 -178q272 0 445 178t173 450q0 273 -176.5 450t-441.5 177q-273 0 -445.5 -177t-172.5 -450zM513 551
h266v344h-12l-254 -332v-12zM441 467v84l425 544l12 -12v-532h137v-84h-137v-197h-99v197h-338z" />
    <glyph glyph-name="circleddigitfive" unicode="&#x2464;" 
d="M60 678q0 301 197.5 499t500.5 198q301 0 499.5 -198t198.5 -499q0 -304 -198.5 -501t-499.5 -197q-303 0 -500.5 197t-197.5 501zM140 678q0 -272 172.5 -450t445.5 -178q272 0 445 178t173 450q0 273 -176.5 450t-441.5 177q-273 0 -445.5 -177t-172.5 -450zM745 305
q59 0 104.5 51t45.5 131q0 156 -112.5 211.5t-240.5 67.5l-12 12l141 305h347v-92h-333l-51 -108l12 -12q108 -19 223.5 -84.5t115.5 -236.5q0 -131 -82 -211.5t-202 -80.5q-88 0 -132.5 26t-70.5 51v18l73 72l68 -66q27 -26 51 -40t55 -14z" />
    <glyph glyph-name="circleddigitsix" unicode="&#x2465;" 
d="M60 678q0 301 197.5 499t500.5 198q301 0 499.5 -198t198.5 -499q0 -304 -198.5 -501t-499.5 -197q-303 0 -500.5 197t-197.5 501zM140 678q0 -272 172.5 -450t445.5 -178q272 0 445 178t173 450q0 273 -176.5 450t-441.5 177q-273 0 -445.5 -177t-172.5 -450zM730 258
q-103 0 -185.5 83t-82.5 244q0 229 154 366.5t352 157.5l16 -34q-155 -20 -257 -121t-123 -220h12q28 29 63.5 49t90.5 20q88 0 156 -65.5t68 -196.5q0 -116 -72.5 -199.5t-191.5 -83.5zM584 574q0 -129 43.5 -201.5t112.5 -72.5q73 0 103.5 64t30.5 151q0 110 -40.5 167
t-119.5 57q-37 0 -69.5 -20.5t-51.5 -52.5q-4 -18 -6.5 -41t-2.5 -51z" />
    <glyph glyph-name="circleddigitseven" unicode="&#x2466;" 
d="M60 678q0 301 197.5 499t500.5 198q301 0 499.5 -198t198.5 -499q0 -304 -198.5 -501t-499.5 -197q-303 0 -500.5 197t-197.5 501zM140 678q0 -272 172.5 -450t445.5 -178q272 0 445 178t173 450q0 273 -176.5 450t-441.5 177q-273 0 -445.5 -177t-172.5 -450zM694 991
q-86 0 -116.5 -16t-30.5 -92v-31h-42v231h494l12 -12l-258 -801h-110l290 709l-12 12h-227z" />
    <glyph glyph-name="circleddigiteight" unicode="&#x2467;" 
d="M60 678q0 301 197.5 499t500.5 198q301 0 499.5 -198t198.5 -499q0 -304 -198.5 -501t-499.5 -197q-303 0 -500.5 197t-197.5 501zM140 678q0 -272 172.5 -450t445.5 -178q272 0 445 178t173 450q0 273 -176.5 450t-441.5 177q-273 0 -445.5 -177t-172.5 -450zM625 938
q0 -49 33 -91t123 -99q41 25 77.5 66.5t36.5 109.5q0 52 -35.5 90.5t-103.5 38.5q-58 0 -94.5 -31t-36.5 -84zM512 447q0 89 50.5 138.5t112.5 88.5v12q-38 27 -96 81.5t-58 132.5q0 103 76 149t163 46q92 0 156 -40.5t64 -124.5q0 -78 -50 -121t-112 -81v-12
q75 -51 130.5 -106t55.5 -144q0 -82 -62 -145t-195 -63q-98 0 -166.5 50.5t-68.5 138.5zM764 300q62 0 98.5 32.5t36.5 94.5q0 71 -48.5 118t-138.5 110q-40 -28 -72 -69.5t-32 -116.5q0 -105 56 -137t100 -32z" />
    <glyph glyph-name="circleddigitnine" unicode="&#x2468;" 
d="M60 678q0 301 197.5 499t500.5 198q301 0 499.5 -198t198.5 -499q0 -304 -198.5 -501t-499.5 -197q-303 0 -500.5 197t-197.5 501zM140 678q0 -272 172.5 -450t445.5 -178q272 0 445 178t173 450q0 273 -176.5 450t-441.5 177q-273 0 -445.5 -177t-172.5 -450zM786 1095
q103 0 185.5 -83t82.5 -244q0 -225 -154 -362t-352 -162l-16 34q155 25 257 123.5t123 217.5h-12q-28 -29 -63.5 -49t-90.5 -20q-88 0 -156 65.5t-68 196.5q0 116 72.5 199.5t191.5 83.5zM642 838q0 -110 40.5 -167t119.5 -57q37 0 69.5 20.5t51.5 52.5q4 18 6.5 41t2.5 51
q0 129 -43.5 201.5t-112.5 72.5q-73 0 -103.5 -64t-30.5 -151z" />
    <glyph glyph-name="circleddigitten" unicode="&#x2469;" 
d="M60 678q0 301 197.5 499t500.5 198q301 0 499.5 -198t198.5 -499q0 -304 -198.5 -501t-499.5 -197q-303 0 -500.5 197t-197.5 501zM140 678q0 -272 172.5 -450t445.5 -178q272 0 445 178t173 450q0 273 -176.5 450t-441.5 177q-273 0 -445.5 -177t-172.5 -450zM483 318
v669l-12 12l-96 -47l-16 33l217 110l12 -12v-765l12 -12h98v-36h-325v36h98zM926 258q-146 0 -211.5 133t-65.5 272q0 190 72.5 311t208.5 121q146 0 211.5 -129t65.5 -279q0 -179 -72.5 -304t-208.5 -125zM935 300q78 0 113.5 92t35.5 253q0 175 -36 291.5t-127 116.5
q-82 0 -115.5 -98t-33.5 -250q0 -175 39 -290t124 -115z" />
    <glyph glyph-name="squareddigitzero" 
d="M70 0v1355h1376v-1355h-1376zM140 70h1236v1215h-1236v-1215zM756 258q-146 0 -211.5 133t-65.5 272q0 190 72.5 311t208.5 121q146 0 211.5 -129t65.5 -279q0 -179 -72.5 -304t-208.5 -125zM765 300q78 0 113.5 92t35.5 253q0 175 -36 291.5t-127 116.5
q-82 0 -115.5 -98t-33.5 -250q0 -175 39 -290t124 -115z" />
    <glyph glyph-name="squareddigitone" 
d="M70 0v1355h1376v-1355h-1376zM140 70h1236v1215h-1236v-1215zM713 318v669l-12 12l-96 -47l-16 33l217 110l12 -12v-765l12 -12h98v-36h-325v36h98z" />
    <glyph glyph-name="squareddigittwo" 
d="M70 0v1355h1376v-1355h-1376zM140 70h1236v1215h-1236v-1215zM518 270v12q169 173 279 296.5t110 244.5q0 77 -42 124t-120 47q-89 0 -134 -50t-61 -98l-25 18q6 51 64 141.5t193 90.5q106 0 159 -66.5t53 -151.5q0 -137 -109 -267.5t-222 -236.5h1l12 -12h172
q63 0 88.5 22.5t25.5 94.5v21h36v-230h-480z" />
    <glyph glyph-name="squareddigitthree" 
d="M70 0v1355h1376v-1355h-1376zM140 70h1236v1215h-1236v-1215zM1001 526q0 -122 -82 -195t-201 -73q-89 0 -133.5 26t-69.5 51v18l73 72l51 -49q31 -31 56 -51t65 -20q61 0 106.5 44.5t45.5 119.5q0 110 -79.5 151.5t-160.5 45.5v36q37 8 113 50t76 126q0 53 -31.5 90
t-98.5 37q-73 0 -111.5 -44.5t-56.5 -90.5l-25 18q13 51 69.5 129t175.5 78q80 0 128.5 -43.5t48.5 -119.5q0 -63 -39 -104.5t-79 -71.5v-12q37 -12 98 -57t61 -161z" />
    <glyph glyph-name="squareddigitfour" 
d="M70 0v1355h1376v-1355h-1376zM140 70h1236v1215h-1236v-1215zM513 551h266v344h-12l-254 -332v-12zM441 467v84l425 544l12 -12v-532h137v-84h-137v-197h-99v197h-338z" />
    <glyph glyph-name="squareddigitfive" 
d="M70 0v1355h1376v-1355h-1376zM140 70h1236v1215h-1236v-1215zM745 305q59 0 104.5 51t45.5 131q0 156 -112.5 211.5t-240.5 67.5l-12 12l141 305h347v-92h-333l-51 -108l12 -12q108 -19 223.5 -84.5t115.5 -236.5q0 -131 -82 -211.5t-202 -80.5q-88 0 -132.5 26t-70.5 51
v18l73 72l68 -66q27 -26 51 -40t55 -14z" />
    <glyph glyph-name="squareddigitsix" 
d="M70 0v1355h1376v-1355h-1376zM140 70h1236v1215h-1236v-1215zM730 258q-103 0 -185.5 83t-82.5 244q0 229 154 366.5t352 157.5l16 -34q-155 -20 -257 -121t-123 -220h12q28 29 63.5 49t90.5 20q88 0 156 -65.5t68 -196.5q0 -116 -72.5 -199.5t-191.5 -83.5zM584 574
q0 -129 43.5 -201.5t112.5 -72.5q73 0 103.5 64t30.5 151q0 110 -40.5 167t-119.5 57q-37 0 -69.5 -20.5t-51.5 -52.5q-4 -18 -6.5 -41t-2.5 -51z" />
    <glyph glyph-name="squareddigitseven" 
d="M70 0v1355h1376v-1355h-1376zM140 70h1236v1215h-1236v-1215zM694 991q-86 0 -116.5 -16t-30.5 -92v-31h-42v231h494l12 -12l-258 -801h-110l290 709l-12 12h-227z" />
    <glyph glyph-name="squareddigiteight" 
d="M70 0v1355h1376v-1355h-1376zM140 70h1236v1215h-1236v-1215zM625 938q0 -49 33 -91t123 -99q41 25 77.5 66.5t36.5 109.5q0 52 -35.5 90.5t-103.5 38.5q-58 0 -94.5 -31t-36.5 -84zM512 447q0 89 50.5 138.5t112.5 88.5v12q-38 27 -96 81.5t-58 132.5q0 103 76 149
t163 46q92 0 156 -40.5t64 -124.5q0 -78 -50 -121t-112 -81v-12q75 -51 130.5 -106t55.5 -144q0 -82 -62 -145t-195 -63q-98 0 -166.5 50.5t-68.5 138.5zM764 300q62 0 98.5 32.5t36.5 94.5q0 71 -48.5 118t-138.5 110q-40 -28 -72 -69.5t-32 -116.5q0 -105 56 -137t100 -32
z" />
    <glyph glyph-name="squareddigitnine" 
d="M70 0v1355h1376v-1355h-1376zM140 70h1236v1215h-1236v-1215zM786 1095q103 0 185.5 -83t82.5 -244q0 -225 -154 -362t-352 -162l-16 34q155 25 257 123.5t123 217.5h-12q-28 -29 -63.5 -49t-90.5 -20q-88 0 -156 65.5t-68 196.5q0 116 72.5 199.5t191.5 83.5zM642 838
q0 -110 40.5 -167t119.5 -57q37 0 69.5 20.5t51.5 52.5q4 18 6.5 41t2.5 51q0 129 -43.5 201.5t-112.5 72.5q-73 0 -103.5 -64t-30.5 -151z" />
    <glyph glyph-name="squareddigitten" 
d="M70 0v1355h1376v-1355h-1376zM140 70h1236v1215h-1236v-1215zM463 318v669l-12 12l-96 -47l-16 33l217 110l12 -12v-765l12 -12h98v-36h-325v36h98zM906 258q-146 0 -211.5 133t-65.5 272q0 190 72.5 311t208.5 121q146 0 211.5 -129t65.5 -279q0 -179 -72.5 -304
t-208.5 -125zM915 300q78 0 113.5 92t35.5 253q0 175 -36 291.5t-127 116.5q-82 0 -115.5 -98t-33.5 -250q0 -175 39 -290t124 -115z" />
    <glyph glyph-name="sunrayswhite" unicode="&#x263c;" horiz-adv-x="1598" 
d="M764 1009v210h70v-210h-70zM1163 873l149 148l49 -49l-148 -149zM287 1020l149 -148l-50 -50l-148 149zM799 -20q-204 0 -341.5 138t-137.5 342t137.5 341.5t341.5 137.5t341.5 -137.5t137.5 -341.5t-137.5 -342t-341.5 -138zM799 50q175 0 292.5 117.5t117.5 292.5
t-117.5 292t-292.5 117t-291.5 -117t-116.5 -292t116.5 -292.5t291.5 -117.5zM1348 494h210v-70h-210v70zM40 494h210v-70h-210v70zM238 -53l148 149l50 -50l-149 -148zM1212 96l148 -149l-49 -49l-149 148zM764 -300v210h70v-210h-70z" />
    <glyph glyph-name="sunbehindcloud" unicode="&#x26c5;" horiz-adv-x="2154" 
d="M1360 1104v210h70v-210h-70zM1759 968l149 148l49 -49l-148 -149zM883 1115l149 -148l-50 -50l-148 149zM1792 279q-3 31 -9 53t-15 42q19 41 28 86t9 95q0 175 -118 296t-293 121q-100 0 -159 -31.5t-90 -67.5q-34 -7 -60.5 -14t-60.5 -25q62 93 154 146.5t223 53.5
q204 0 338.5 -137.5t134.5 -341.5q0 -78 -21.5 -148.5t-60.5 -127.5zM1455 580q131 -19 212.5 -114.5t81.5 -223.5q0 -143 -100 -242.5t-240 -99.5h-1127q-116 0 -179 72t-63 170t74.5 169t197.5 71h42l10 10q19 139 121 219.5t232 80.5q54 0 105 -14t90 -48l10 10
q12 93 87 146t176 53q104 0 183.5 -73t86.5 -186zM404 301l-10 -10q-25 19 -51.5 27t-60.5 8q-80 0 -126 -53t-46 -131q0 -79 46.5 -125.5t125.5 -46.5h1127q118 0 194 75.5t76 196.5q0 122 -75.5 199t-194.5 77q-122 0 -209 -76.5t-87 -199.5h-70q0 139 105 235t238 103
l10 10q-13 87 -69 134.5t-142 47.5q-93 0 -158.5 -55.5t-65.5 -148.5v-30l-10 -10q-52 43 -111.5 70.5t-122.5 27.5q-121 0 -215 -87t-98 -238zM1944 589h210v-70h-210v70zM1808 191l148 -149l-49 -49l-149 148z" />
    <glyph glyph-name="cloud" unicode="&#x2601;" horiz-adv-x="1789" 
d="M1455 680q131 -19 212.5 -114.5t81.5 -223.5q0 -143 -100 -242.5t-240 -99.5h-1127q-116 0 -179 72t-63 170t74.5 169t197.5 71h42l10 10q19 139 121 219.5t232 80.5q54 0 105 -14t90 -48l10 10q12 93 87 146t176 53q104 0 183.5 -73t86.5 -186zM404 401l-10 -10
q-25 19 -51.5 27t-60.5 8q-80 0 -126 -53t-46 -131q0 -79 46.5 -125.5t125.5 -46.5h1127q118 0 194 75.5t76 196.5q0 122 -75.5 199t-194.5 77q-122 0 -209 -76.5t-87 -199.5h-70q0 139 105 235t238 103l10 10q-13 87 -69 134.5t-142 47.5q-93 0 -158.5 -55.5t-65.5 -148.5
v-30l-10 -10q-52 43 -111.5 70.5t-122.5 27.5q-121 0 -215 -87t-98 -238z" />
    <glyph glyph-name="umbrella" unicode="&#x2602;" horiz-adv-x="1789" 
d="M1455 875q131 -19 212.5 -114.5t81.5 -223.5q0 -143 -100 -242.5t-240 -99.5h-1127q-116 0 -179 72t-63 170t74.5 169t197.5 71h42l10 10q19 139 121 219.5t232 80.5q54 0 105 -14t90 -48l10 10q12 93 87 146t176 53q104 0 183.5 -73t86.5 -186zM404 596l-10 -10
q-25 19 -51.5 27t-60.5 8q-80 0 -126 -53t-46 -131q0 -79 46.5 -125.5t125.5 -46.5h1127q118 0 194 75.5t76 196.5q0 122 -75.5 199t-194.5 77q-122 0 -209 -76.5t-87 -199.5h-70q0 139 105 235t238 103l10 10q-13 87 -69 134.5t-142 47.5q-93 0 -158.5 -55.5t-65.5 -148.5
v-30l-10 -10q-52 43 -111.5 70.5t-122.5 27.5q-121 0 -215 -87t-98 -238zM142 -164l200 289h80l-200 -289h-80zM647 -164l200 289h80l-200 -289h-80zM1152 -164l200 289h80l-200 -289h-80z" />
    <glyph glyph-name="J.ss02" horiz-adv-x="810" 
d="M615 0h-205v1265l-20 20h-155v70h535v-70h-135l-20 -20v-1265zM52 0v198h198v-198h-198z" />
    <glyph glyph-name="ER.ss06" horiz-adv-x="2115" 
d="M1140 1265l-20 20h-80v-315h-70v90q0 127 -51 153t-194 26h-255v-479h650l20 20v485zM1345 1255v-520h170q134 0 217 55.5t83 204.5t-83 204.5t-217 55.5h-170zM1913 0l-548 638h-20v-548l20 -20h165v-70h-1440v70h155l20 20v1175l-20 20h-155v70h1455q224 0 364.5 -88.5
t140.5 -271.5q0 -178 -132 -253.5t-327 -75.5h-10v-20l536 -576h125v-70h-329zM470 660v-544h470q104 0 152 37.5t48 156.5v330l-20 20h-650z" />
    <glyph glyph-name="seven.ss02" horiz-adv-x="882" 
d="M824 1355h64q-216 -459 -310 -784t-130 -571h-218q82 343 216.5 623.5t377.5 731.5zM100 916v439h439v-439h-439z" />
    <glyph glyph-name="v.ss02" horiz-adv-x="960" 
d="M620 0h-170l-361 839l-20 20h-69v60h399v-60h-95l-20 -20zM702 721v198h198v-198h-198z" />
    <glyph glyph-name="slash.01" horiz-adv-x="685" 
d="M437 1157v198h198v-198h-198zM238 580v198h198v-198h-198zM40 0v198h198v-198h-198z" />
    <glyph glyph-name="i.ss01" horiz-adv-x="526" 
d="M160 1037v198h198v-198h-198zM183 80v688l-20 20l-93 -38l-27 55l295 134l20 -20v-839l20 -20h113v-60h-451v60h123z" />
    <glyph glyph-name="at.ss02" horiz-adv-x="1622" 
d="M627 159v439h439v-371h3q92 0 245.5 39t153.5 326q0 222 -168 347t-398 125q-260 0 -466.5 -167.5t-205.5 -483.5q1 -271 180.5 -428t424.5 -157t372 74.5t138 82.5l37 -58q-9 -7 -161.5 -88t-409.5 -81t-494 164.5t-237 475.5q0 334 233.5 535t573.5 201
q304 0 479.5 -159t175.5 -387q0 -283 -172 -355.5t-304 -73.5v0h-439z" />
    <glyph glyph-name="b.ss01" horiz-adv-x="1040" 
d="M252 135h-20v-135h-75v1067l-20 20l-100 -41l-27 55l302 134l20 -20v-435h20q49 64 110.5 111.5t157.5 47.5q142 0 246 -120t104 -352q0 -214 -126 -350.5t-286 -136.5q-113 0 -182 49t-124 106zM332 365q0 -119 60 -217.5t173 -98.5q112 0 163 99.5t51 241.5
q0 193 -63 313.5t-184 120.5q-70 0 -125.5 -54.5t-74.5 -87.5v-317z" />
    <glyph glyph-name="fwd:ampersand" horiz-adv-x="1412" 
d="M1001 -20q-77 0 -137.5 24t-136.5 101q-72 -57 -154.5 -91t-176.5 -34q-146 0 -246 70.5t-100 227.5q0 155 106.5 232.5t192.5 105.5q-22 48 -33.5 96.5t-11.5 99.5q0 128 83.5 230.5t244.5 102.5q93 0 167.5 -50t74.5 -165q0 -130 -110.5 -207t-203.5 -108
q40 -70 98.5 -142.5t125.5 -153.5q5 -7 11 -13.5t11 -12.5q109 122 186.5 283t119.5 254l-20 20h-150v70h470v-70h-172l-30 -20q-58 -114 -144.5 -284t-207.5 -313q76 -82 127.5 -110t114.5 -28q57 0 101.5 41t80.5 84l24 -56q-44 -51 -115.5 -117.5t-189.5 -66.5zM490 850
q0 -46 10 -89.5t29 -85.5h18q95 35 156 91t61 152q0 64 -31 105.5t-97 41.5q-72 0 -109 -51.5t-37 -163.5zM653 167v19q-15 18 -31.5 38t-33.5 42q-63 81 -116 150.5t-90 134.5h-18q-57 -29 -88.5 -74t-31.5 -117q0 -110 77.5 -170t190.5 -60q37 0 72.5 10t68.5 27z" />
    <glyph glyph-name="checkbox" unicode="&#x2610;" horiz-adv-x="999" 
d="M959 0h-919v919h919v-919zM889 70v779h-779v-779h779z" />
    <glyph glyph-name="Udieresis.ss01" horiz-adv-x="1455" 
d="M741 -20q-226 0 -376 111.5t-150 418.5v755l-20 20h-155v70h555v-70h-155l-20 -20v-772q0 -234 102.5 -318.5t263.5 -84.5q160 0 262.5 95t101.5 335q-1 351 -1 468t1 277l-20 20h-150v70h435v-70h-135l-20 -20q1 -192 1 -339.5t-1 -375.5q-2 -291 -135.5 -430.5
t-383.5 -139.5zM695 1177v178h178v-178h-178zM696 877v178h178v-178h-178z" />
    <glyph glyph-name="velvetyne" horiz-adv-x="2302" 
d="M729 -20h-50l-559 1285l-20 20h-100v70h546v-70h-180l-20 -20l407 -961h20q117 297 184 447t210 488h-73q-143 0 -194 -31t-51 -158v-80h-70v385h1255v-385h-70v80q0 127 -51 158t-194 31h-225v-479h245l20 20v130h70v-400h-70v130l-20 20h-245v-570l20 -20h175v-70h-575
v70h155l20 20v1149h-20q-176 -430 -250.5 -600t-289.5 -659z" />
    <glyph glyph-name="CC.ss06" horiz-adv-x="1858" 
d="M1298 284q-18 -26 -51 -70.5t-86 -90.5v-19q36 -12 76.5 -18t84.5 -6q225 0 321 100.5t129 155.5l46 -52q-40 -58 -162.5 -181t-395.5 -123q-68 0 -132.5 12.5t-123.5 35.5q-53 -22 -119 -35t-145 -13q-284 0 -482 197.5t-198 507.5q0 306 204.5 498t495.5 192
q85 0 152 -13t115 -29q58 20 122 31t131 11q183 0 280 -47.5t105 -52.5h20v80h70v-476h-70v60q0 146 -104 251t-283 105q-16 0 -32 -1t-31 -3v-412h-70v60q0 79 -31.5 148.5t-89.5 118.5h-18q-103 -80 -157 -216t-54 -295q0 -172 62 -322.5t193 -228.5q78 45 120 101.5
t62 90.5zM295 695q0 -239 122 -427t385 -188q16 0 32.5 1t31.5 2v19q-130 91 -208 242t-78 341q0 191 84 341t222 238v19v0q-25 6 -52 9t-56 3q-234 0 -358.5 -178.5t-124.5 -421.5z" />
    <glyph glyph-name="eacute.ss01" horiz-adv-x="892" 
d="M440 -20q-189 0 -294.5 135t-105.5 328q0 61 11.5 114t31.5 90h497l20 20q0 110 -43.5 164.5t-140.5 54.5q-34 0 -59.5 -8.5t-46.5 -21.5h-60l380 379l110 -114l-288 -165v-20q127 -9 236.5 -84t109.5 -280h-612q-1 -9 -1 -18v-18q0 -151 75.5 -268.5t231.5 -117.5
q140 0 194 80t85 166l41 -30q-10 -85 -92 -235.5t-280 -150.5z" />
    <glyph glyph-name="Adieresis.ss01" horiz-adv-x="1459" 
d="M150 90q167 418 246 605.5t294 679.5h50l559 -1285l20 -20h110v-70h-525v70h155l20 20l-141 340h-537q-30 -71 -65 -154.5t-78 -185.5l20 -20h155v-70h-413v70h110zM327 1177v178h178v-178h-178zM919 1177v178h178v-178h-178zM450 530h438v19l-216 519h-20
q-61 -163 -107 -280.5t-95 -237.5v-20z" />
    <glyph glyph-name="n.ss03" horiz-adv-x="863" 
d="M255 0h-175v919h703v-919h-175v844h-353v-844z" />
    <glyph glyph-name="j.ss01" horiz-adv-x="501" 
d="M161 1037v198h198v-198h-198zM361 919l-18 -670q-4 -184 -126.5 -334t-241.5 -151l-312 -4l-21 20l30 141h371q70 0 105.5 23.5t34.5 125.5l-12 692l-20 20l-93 -38l-27 55l310 140z" />
    <glyph glyph-name="u.ss03" horiz-adv-x="863" 
d="M255 919v-844h353v844h175v-919h-703v919h175z" />
    <glyph glyph-name="p.ss01" horiz-adv-x="1023" 
d="M150 -150v918l-20 20l-93 -38l-27 55l298 134l20 -20l-13 -139h20q49 64 115.5 111.5t162.5 47.5q142 0 246 -120t104 -352q0 -214 -126 -350.5t-286 -136.5q-81 0 -129.5 21.5t-76.5 43.5h-20v-195l20 -20h143v-60h-471v60h113zM325 365q0 -104 60 -210t173 -106
q112 0 163 99.5t51 241.5q0 193 -63 313.5t-184 120.5q-70 0 -125.5 -49.5t-74.5 -82.5v-327z" />
    <glyph glyph-name="y.ss01" horiz-adv-x="1037" 
d="M525 -17q-40 -98 -85.5 -158t-176.5 -61l-298 -4l-20 20l30 141h281q119 0 148.5 7.5t44.5 40.5l20 43l-321 827l-20 20h-98v60h451v-60h-117l-20 -20l199 -594h20l222 594l-21 20h-119v60h392v-60h-121l-20 -20q-55 -125 -139 -310t-124 -284z" />
    <glyph glyph-name="ampersand.01" horiz-adv-x="1198" 
d="M817 171q-51 -44 -152 -117.5t-261 -73.5q-145 0 -249.5 81.5t-104.5 242.5q0 184 123 283.5t248 165.5q-21 37 -45 101t-24 156q0 149 95.5 257t250.5 108q99 0 177.5 -52.5t78.5 -182.5q0 -120 -92.5 -201t-185.5 -133l-184 -104q-97 -55 -162.5 -115.5t-65.5 -206.5
t73 -226t183 -80q88 0 139 51t51 127q0 35 -11 72t-29 62l-172 239h230l470 -625h-230l-131 171h-20zM542 1070q0 -76 16 -132t40 -107h20q110 63 168 141.5t58 165.5q0 72 -35 114.5t-101 42.5q-72 0 -119 -56.5t-47 -168.5z" />
    <glyph glyph-name="ampersand.03" horiz-adv-x="1412" 
d="M274 554h436l235 183h20v-183h250v-65h-250v-283q0 -44 16 -70t62 -26t75.5 28t56.5 62l24 -56q-34 -42 -93.5 -103t-146.5 -61q-85 0 -127 53.5t-42 166.5v19h-20q-36 -86 -122 -162.5t-208 -76.5q-189 0 -294.5 135t-105.5 328q0 173 106 334.5t331 161.5
q147 0 222.5 -72.5t95.5 -152.5l-12 -26l-176 -20l-56 140q-14 35 -38.5 49.5t-61.5 14.5q-108 0 -187 -95t-79 -249q0 -163 81.5 -270.5t223.5 -107.5q140 0 216 83t84 173v83h-516v65z" />
    <glyph glyph-name="ampersand.02" horiz-adv-x="957" 
d="M430 1375h10h10v175h70v-181q125 -16 190 -55l65 -39h20v80h70v-476h-70v60q0 135 -87.5 245.5t-239.5 110.5q-94 0 -153.5 -63.5t-59.5 -182.5q0 -151 112 -225t264 -74h48v-65h-56q-190 0 -289 -79.5t-99 -224.5q0 -157 95 -229t234 -72q149 0 230.5 82.5t117.5 138.5
l46 -52q-34 -49 -133.5 -152t-304.5 -116v-176h-70v176q-172 5 -311 87t-139 272q0 178 121.5 252t201.5 89v20q-72 15 -177.5 83t-105.5 246q0 175 124 260t266 85z" />
    <glyph glyph-name="ST.ss06" horiz-adv-x="2075" 
d="M164 1036q0 181 116.5 260t255.5 79q115 0 200 -37t129 -63h20v80h1150v-366h-70v61q0 127 -51 158t-194 31h-156v-1149l20 -20h155v-70h-555v70h155l20 20v1149h-159q-143 0 -194 -31t-51 -158v-171h-70v60q0 122 -85 239t-254 117q-93 0 -147.5 -48t-54.5 -133
q0 -101 61 -155t147 -109l248 -160q104 -67 160 -156t56 -220q0 -152 -119.5 -243t-306.5 -91q-134 0 -232 39.5t-138 59.5h-20v-80h-70v476h70v-60q0 -123 95 -239t273 -116q113 0 178.5 53t65.5 149q0 89 -44 149t-164 141l-217 146q-90 60 -156.5 137t-66.5 201z" />
    <glyph glyph-name="d.ss01" horiz-adv-x="1020" 
d="M688 0l10 139h-20q-49 -64 -115.5 -111.5t-162.5 -47.5q-142 0 -246 120t-104 352q0 214 126 350.5t286 136.5q81 0 129.5 -21.5t76.5 -43.5h20v193l-20 20l-100 -41l-27 55l302 134l20 -20v-1063l20 -20l96 35l21 -54l-292 -133zM488 95q70 0 125.5 49.5t74.5 82.5v327
q0 104 -60 210t-173 106q-112 0 -163 -99.5t-51 -241.5q0 -193 63 -313.5t184 -120.5z" />
    <glyph glyph-name="one.ss03" horiz-adv-x="705" 
d="M307 80v1215h-207v60h382v-1275l20 -20h163v-60h-541v60h163z" />
    <glyph glyph-name="g.ss02" horiz-adv-x="976" 
d="M257 480v439h439v-439h-439zM40 -210l10 30l150 160v20q-45 15 -61 38.5t-16 66.5l10 30l167 188l70 -3l-54 -73q-11 -15 -18.5 -29t-7.5 -33q0 -26 23.5 -38t71.5 -12h314q88 0 157.5 -36t69.5 -148q0 -156 -183 -278.5t-394 -122.5q-193 0 -251 79.5t-58 160.5z
M700 -20h-431l-44 -70q-14 -22 -21.5 -36.5t-7.5 -33.5q0 -60 54.5 -95.5t179.5 -35.5q195 0 307.5 63t112.5 144q0 48 -44 56t-106 8z" />
    <glyph glyph-name="g.ss01" horiz-adv-x="926" 
d="M20 541q0 159 115.5 278.5t307.5 119.5q38 0 74 -5t69 -15h347v-75h-183v-20q55 -53 85.5 -126t30.5 -157q0 -157 -115.5 -279t-307.5 -122q-90 0 -163.5 -22t-73.5 -106q0 -46 36.5 -68.5t99.5 -22.5h571l20 -20l-30 -141l-676 10q-107 1 -152 44.5t-45 100.5
q0 94 70 147t150 98v20q-107 49 -168.5 146t-61.5 215zM221 594q0 -151 58.5 -267.5t183.5 -116.5q110 0 156 89t46 190q0 138 -56 259t-187 121q-101 0 -151 -81.5t-50 -193.5z" />
    <glyph glyph-name="Eacute.ss01" horiz-adv-x="1310" 
d="M470 660v-544h470q104 0 152 37.5t48 156.5v95h70v-405h-1120v70h155l20 20v1175l-20 20h-155v70h380v-595h395l20 20v130h70v-400h-70v130l-20 20h-395zM657 972h-60l380 379l110 -114z" />
    <glyph glyph-name="IKOB" horiz-adv-x="3595" 
d="M3455 1005q0 -128 -88 -195.5t-178 -84.5v-20q119 -34 212.5 -108t93.5 -223q0 -175 -140.5 -274.5t-364.5 -99.5h-845q-343 0 -534 185.5t-191 469.5q0 317 193 518.5t492 201.5q45 0 88 -5t83 -15h674q224 0 364.5 -87.5t140.5 -262.5zM470 90l20 -20h818l-552 626
q262 256 355 342.5t257 226.5l-20 20h-858l-20 -20v-1175zM3260 374q0 142 -83 209t-217 67h-445q-4 257 -129 451t-346 194q-201 0 -293 -165.5t-92 -404.5q0 -261 149 -443t406 -182h750q134 0 217 66t83 208zM2920 1255h-427q110 -81 177.5 -211.5t77.5 -293.5h172
q134 0 217 56.5t83 198.5t-83 196t-217 54zM1688 70v-70h-1598v70h155l20 20v1175l-20 20h-155v70h1598v-70h-171l-20 -20q-181 -166 -263 -240.5t-282 -252.5l630 -702h106z" />
    <glyph glyph-name="checkboxchecked" unicode="&#x2611;" horiz-adv-x="999" 
d="M959 0h-919v919h919v-919zM889 70v779h-779v-779h779zM270 458l132 -228h20l307 548h90l-374 -638h-70l-195 318h90z" />
    <glyph glyph-name="IKOB_logo" horiz-adv-x="1437" 
d="M1368 738l-531 279v-280h-58v618h58v-286l531 286l28 -51l-492 -260l492 -255zM43 737v58h280v502h-280v58h616v-58h-278v-502h278v-58h-616zM779 618h444q84 0 129 -50t45 -119q0 -37 -17 -74t-57 -65q40 -27 57 -64.5t17 -76.5q0 -69 -48.5 -119t-125.5 -50h-444v618z
M349 0q-127 0 -218 91t-91 218q0 128 91 218.5t218 90.5t218 -90.5t91 -218.5q0 -127 -91 -218t-218 -91zM837 560v-222h386q53 0 84 32.5t31 78.5t-28 78.5t-87 32.5h-386zM349 58q104 0 177.5 74t73.5 177q0 104 -73.5 177.5t-177.5 73.5t-177.5 -73.5t-73.5 -177.5
q0 -103 73.5 -177t177.5 -74zM1223 280h-386v-222h386q53 0 84 32.5t31 78.5t-28 78.5t-87 32.5z" />
    <glyph glyph-name="k.ss02" horiz-adv-x="962" 
d="M167 80v1127l-20 20l-100 -41l-27 55l302 134l20 -20v-800h170l364 -475l30 -20h56v-60h-412v60h89l20 20l-297 410h-20v-410l20 -20h113v-60h-451v60h123zM652 721v198h198v-198h-198z" />
    <glyph glyph-name="k.ss01" horiz-adv-x="962" 
d="M167 80v987l-20 20l-100 -41l-27 55l302 134l20 -20v-1135l20 -20h113v-60h-451v60h123zM962 60v-60h-412v60h89l20 20l-297 380v24l170 198q32 37 50 72t18 56q0 19 -14.5 34t-55.5 15h-100v60h522v-60h-122q-117 -116 -179 -173t-175 -164l400 -442l30 -20h56z" />
    <glyph glyph-name="agrave.ss01" horiz-adv-x="925" 
d="M581 700q0 97 -54 135.5t-121 38.5q-37 0 -63.5 -14t-36.5 -50l-36 -122l-176 -20l-12 26q18 109 115.5 177t257.5 68q17 0 33 -1l32 -2v20l-300 165l110 114l367 -366q33 -33 51.5 -79t15.5 -112l-22 -468q-2 -52 9 -76t47 -24q23 0 44 21t47 49l24 -56
q-71 -70 -113.5 -107t-99.5 -37q-59 0 -89 38t-30 98v44h-19q-23 -45 -89 -112.5t-179 -67.5q-101 0 -162.5 57.5t-61.5 147.5q0 164 160.5 245.5t350.5 159.5v110zM581 495l-20 20q-101 -45 -205 -103.5t-104 -166.5q0 -57 31 -84t91 -27q93 0 150 57.5t57 64.5v239z" />
    <glyph glyph-name="f.ss01" horiz-adv-x="637" 
d="M198 80v764h-158v75h158q103 177 140 233t118 60l401 23l20 -20l-30 -141h-399q-69 0 -86 -33t-2 -81l13 -41h256v-75h-256v-764l20 -20h153v-60h-491v60h123z" />
    <glyph glyph-name="f.ss03" horiz-adv-x="558" 
d="M162 80v764h-152v75h152v436h418v-60h-243v-376h201v-75h-201v-764l20 -20h133v-60h-471v60h123z" />
    <glyph glyph-name="www" horiz-adv-x="2421" 
d="M2324 839l-350 -859h-20l-242 574l-238 -574h-20l-242 574l-238 -574h-20l-242 574l-238 -574h-20l-362 859l-20 20h-72v60h399v-60h-91l-20 -20l217 -561h20l137 396l-70 165l-20 20h-72v60h399v-60h-91l-20 -20l217 -561h20l137 396l-70 165l-20 20h-72v60h399v-60h-91
l-20 -20l217 -561h20l137 396l-70 165l-20 20h-72v60h399v-60h-91l-20 -20l217 -561h20l188 561l-20 20h-93v60h321v-60h-77z" />
    <glyph glyph-name="Edieresis.ss01" horiz-adv-x="1310" 
d="M470 660v-544h470q104 0 152 37.5t48 156.5v95h70v-405h-1120v70h155l20 20v1175l-20 20h-155v70h380v-595h395l20 20v130h70v-400h-70v130l-20 20h-395zM635 1177v178h178v-178h-178zM967 1177v178h178v-178h-178z" />
    <glyph glyph-name="h.ss01" horiz-adv-x="1035" 
d="M167 80v987l-20 20l-100 -41l-27 55l302 134l20 -20v-430h20q39 52 100 103t173 51q93 0 165 -63t72 -194v-602l20 -20h113v-60h-441v60h113l20 20v571q0 72 -35 122.5t-114 50.5t-134.5 -52.5t-71.5 -79.5v-612l20 -20h113v-60h-451v60h123z" />
    <glyph glyph-name="l.ss01" horiz-adv-x="485" 
d="M167 80v987l-20 20l-100 -41l-27 55l302 134l20 -20v-1135l20 -20h113v-60h-451v60h123z" />
    <glyph glyph-name="r.ss02" horiz-adv-x="706" 
d="M183 80v688l-20 20l-93 -38l-27 55l295 134l20 -20v-839l20 -20h133v-60h-471v60h123zM488 721v198h198v-198h-198z" />
    <glyph glyph-name="three.ss02" horiz-adv-x="933" 
d="M902 440q0 -213 -150 -336.5t-372 -123.5q-148 0 -222 43t-117 85v30l122 120l85 -82q52 -51 94 -84.5t108 -33.5q125 0 214 77t89 217q0 200 -136 260.5t-286 67.5l-10 20l467 655h94l-361 -498v-20q93 -13 237 -87t144 -310zM132 1157v198h198v-198h-198z" />
    <glyph glyph-name="EL.ss06" horiz-adv-x="2115" 
d="M2085 0h-1995v70h155l20 20v1175l-20 20h-155v70h1450v-70h-175l-20 -20v-1149h460q112 0 161 40.5t49 173.5v75h70v-405zM1140 1265l-20 20h-80v-315h-70v90q0 127 -51 153t-194 26h-255v-479h650l20 20v485zM470 660v-544h470q104 0 152 37.5t48 156.5v330l-20 20h-650
z" />
    <glyph glyph-name="t.ss03" horiz-adv-x="600" 
d="M10 844v75h152v208h175v-208h201v-75h-201v-784h243v-60h-418v844h-152z" />
    <glyph glyph-name="Odieresis.ss01" horiz-adv-x="1450" 
d="M769 1374v-94q-15 9 -47.5 12t-42.5 3v75q6 2 25 3.5t41 1.5q11 0 19.5 -0.5t4.5 -0.5zM648 1355v-178h-178v178h178zM980 1355v-178h-178v178h178zM437 1308v-103q-69 -65 -105.5 -194t-36.5 -286q0 -261 125.5 -463t349.5 -202q194 0 289.5 155.5t95.5 409.5
q0 151 -38 287t-103 223v187q167 -61 271.5 -228t104.5 -399q0 -299 -193 -507t-492 -208q-284 0 -464.5 195.5t-180.5 479.5q0 234 106 407.5t271 245.5z" />
    <glyph glyph-name="q.ss01" horiz-adv-x="1006" 
d="M688 -150v289h-20q-49 -64 -110.5 -111.5t-157.5 -47.5q-142 0 -246 120t-104 352q0 214 126 350.5t286 136.5q113 0 182 -49t124 -106h20v135h75v-1069l20 -20h113v-60h-471v60h143zM488 95q70 0 125.5 54.5t74.5 87.5v317q0 119 -56.5 217.5t-176.5 98.5
q-112 0 -163 -99.5t-51 -241.5q0 -193 63 -313.5t184 -120.5z" />
    </font>
</defs>
</svg>
